<svg width="252" height="145" viewBox="0 0 252 145" fill="none" xmlns="http://www.w3.org/2000/svg">
<g filter="url(#filter0_d_697_2018)">
<g filter="url(#filter1_d_697_2018)">
<rect x="4" width="244" height="137" rx="8" fill="#F0B90B"/>
</g>
<path d="M66.4537 102.392V102.312C66.4537 99.2533 64.8215 97.7029 62.1714 96.6833C63.8017 95.7872 65.1886 94.3168 65.1886 91.7486V91.6686C65.1886 88.0789 62.2932 85.7542 57.6438 85.7542H47V108.634H57.889C63.0675 108.674 66.4537 106.553 66.4537 102.394V102.392ZM60.172 92.6064C60.172 94.3186 58.7853 95.0111 56.5424 95.0111H51.8947V90.1581H56.8695C58.9906 90.1581 60.172 91.0142 60.172 92.5246V92.6064ZM61.4371 101.742C61.4371 103.454 60.0921 104.23 57.8874 104.23H51.8947V99.2115H57.7255C60.2956 99.2115 61.4371 100.151 61.4371 101.7V101.742ZM77.0155 108.674V85.7541H71.9592V108.634H77.0155V108.674ZM104.096 108.674V85.7541H99.1193V99.8658L88.3936 85.7541H83.7444V108.634H88.7208V94.115L99.8135 108.674H104.094H104.096ZM131.988 108.674L122.163 85.6323H117.515L107.686 108.674H112.866L114.945 103.536H124.611L126.69 108.674H131.992H131.988ZM122.813 99.0897H116.737L119.796 91.6685L122.813 99.0897ZM156.011 108.674V85.7541H151.035V99.8658L140.309 85.7541H135.66V108.634H140.637V94.115L151.729 108.674H156.01H156.011ZM181.989 104.962L178.768 101.742C176.972 103.372 175.382 104.432 172.731 104.432C168.816 104.432 166.085 101.169 166.085 97.254V97.1322C166.085 93.2171 168.856 89.9963 172.731 89.9963C175.014 89.9963 176.81 90.9742 178.604 92.5646L181.825 88.8531C179.705 86.7738 177.135 85.3052 172.813 85.3052C165.799 85.3052 160.864 90.6471 160.864 97.1322V97.2139C160.864 103.779 165.879 108.999 172.61 108.999C177.014 109.041 179.624 107.491 181.989 104.962ZM203.481 108.674V104.188H191.042V99.3751H201.849V94.8893H191.042V90.2399H203.318V85.7541H186.067V108.634H203.481V108.674Z" fill="white"/>
<path d="M111.083 49.7515L105.302 55.5348L99.4648 49.7515L105.3 43.9166L111.083 49.7515ZM125.216 35.6182L135.174 45.5755L141.011 39.7427L125.216 24L109.422 39.7943L115.259 45.627L125.216 35.6182ZM145.133 43.9166L139.35 49.7515L145.185 55.5864L151.017 49.7515L145.133 43.9166ZM125.216 63.8848L115.259 53.876L109.422 59.7109L125.216 75.503L141.011 59.7087L135.174 53.876L125.216 63.8848ZM125.216 55.537L131.051 49.7L125.216 43.9188L119.382 49.7515L125.216 55.5348V55.537Z" fill="white"/>
</g>
<defs>
<filter id="filter0_d_697_2018" x="0" y="0" width="252" height="145" filterUnits="userSpaceOnUse" color-interpolation-filters="sRGB">
<feFlood flood-opacity="0" result="BackgroundImageFix"/>
<feColorMatrix in="SourceAlpha" type="matrix" values="0 0 0 0 0 0 0 0 0 0 0 0 0 0 0 0 0 0 127 0" result="hardAlpha"/>
<feOffset dy="4"/>
<feGaussianBlur stdDeviation="2"/>
<feComposite in2="hardAlpha" operator="out"/>
<feColorMatrix type="matrix" values="0 0 0 0 0 0 0 0 0 0 0 0 0 0 0 0 0 0 0.15 0"/>
<feBlend mode="normal" in2="BackgroundImageFix" result="effect1_dropShadow_697_2018"/>
<feBlend mode="normal" in="SourceGraphic" in2="effect1_dropShadow_697_2018" result="shape"/>
</filter>
<filter id="filter1_d_697_2018" x="0" y="0" width="252" height="145" filterUnits="userSpaceOnUse" color-interpolation-filters="sRGB">
<feFlood flood-opacity="0" result="BackgroundImageFix"/>
<feColorMatrix in="SourceAlpha" type="matrix" values="0 0 0 0 0 0 0 0 0 0 0 0 0 0 0 0 0 0 127 0" result="hardAlpha"/>
<feOffset dy="4"/>
<feGaussianBlur stdDeviation="2"/>
<feComposite in2="hardAlpha" operator="out"/>
<feColorMatrix type="matrix" values="0 0 0 0 0 0 0 0 0 0 0 0 0 0 0 0 0 0 0.25 0"/>
<feBlend mode="normal" in2="BackgroundImageFix" result="effect1_dropShadow_697_2018"/>
<feBlend mode="normal" in="SourceGraphic" in2="effect1_dropShadow_697_2018" result="shape"/>
</filter>
</defs>
</svg>
