<svg width="252" height="145" viewBox="0 0 252 145" fill="none" xmlns="http://www.w3.org/2000/svg">
<g filter="url(#filter0_d_697_2023)">
<g filter="url(#filter1_d_697_2023)">
<rect x="4" width="244" height="137" rx="8" fill="#004DF7"/>
</g>
<path d="M125.141 71.6301C136.77 71.6301 146.196 62.1879 146.196 50.5404C146.196 38.8929 136.77 29.4507 125.141 29.4507C113.513 29.4507 104.087 38.8929 104.087 50.5404C104.087 62.1879 113.513 71.6301 125.141 71.6301Z" fill="white"/>
<path d="M132.403 51.9158C131.76 55.3299 128.77 57.9115 125.175 57.9115C121.11 57.9115 117.816 54.6118 117.816 50.5403C117.816 46.4689 121.11 43.1692 125.175 43.1692C128.77 43.1692 131.76 45.7522 132.403 49.1649H139.829C139.136 41.6678 132.84 35.7981 125.175 35.7981C117.045 35.7981 110.457 42.399 110.457 50.5403C110.457 58.6832 117.047 65.2826 125.175 65.2826C132.84 65.2826 139.136 59.4129 139.829 51.9158H132.403Z" fill="#004DF7"/>
<path d="M77.6627 88.2532C71.878 88.2532 67.3581 92.6518 67.3581 98.5403C67.3581 104.43 71.7638 108.79 77.6627 108.79C83.5616 108.79 88.044 104.354 88.044 98.5027C88.0426 92.6895 83.6383 88.2532 77.6627 88.2532ZM77.7003 104.546C74.4061 104.546 71.9922 101.983 71.9922 98.5418C71.9922 95.0611 74.3671 92.4998 77.6613 92.4998C80.9945 92.4998 83.407 95.1002 83.407 98.5418C83.4084 101.983 80.9945 104.546 77.7003 104.546ZM89.3073 92.7286H92.1809V108.409H96.7775V88.6369H89.3073V92.7286ZM55.7901 92.4984C58.204 92.4984 60.1192 93.9897 60.8463 96.2078H65.7117C64.83 91.466 60.9229 88.2532 55.8291 88.2532C50.0444 88.2532 45.5244 92.6518 45.5244 98.5403C45.5244 104.43 49.9302 108.79 55.8291 108.79C60.8087 108.79 64.7924 105.577 65.6741 100.796H60.8477C60.1582 103.014 58.243 104.545 55.8291 104.545C52.4959 104.545 50.16 101.982 50.16 98.5403C50.1586 95.0611 52.4568 92.4984 55.7901 92.4984ZM176.645 96.6291L173.274 96.1325C171.665 95.9038 170.516 95.368 170.516 94.1055C170.516 92.7286 172.011 92.0408 174.04 92.0408C176.262 92.0408 177.68 92.9964 177.986 94.5645H182.43C181.931 90.5872 178.866 88.2546 174.156 88.2546C169.29 88.2546 166.073 90.7406 166.073 94.259C166.073 97.6238 168.18 99.5756 172.431 100.187L175.802 100.683C177.45 100.912 178.369 101.563 178.369 102.787C178.369 104.355 176.76 105.005 174.539 105.005C171.818 105.005 170.286 103.896 170.056 102.214H165.536C165.959 106.077 168.984 108.791 174.5 108.791C179.518 108.791 182.85 106.496 182.85 102.557C182.85 99.0384 180.436 97.2025 176.645 96.6291ZM94.4777 80.4897C92.7923 80.4897 91.5276 81.7132 91.5276 83.3956C91.5276 85.078 92.7923 86.3029 94.4777 86.3029C96.1631 86.3029 97.4279 85.0795 97.4279 83.397C97.4279 81.7146 96.1646 80.4897 94.4777 80.4897ZM161.934 95.4057C161.934 91.1229 159.33 88.2546 153.814 88.2546C148.604 88.2546 145.693 90.8941 145.118 94.9482H149.677C149.907 93.3801 151.132 92.0799 153.737 92.0799C156.074 92.0799 157.224 93.1123 157.224 94.3748C157.224 96.0196 155.116 96.4395 152.511 96.7073C148.987 97.0896 144.621 98.313 144.621 102.903C144.621 106.46 147.264 108.754 151.478 108.754C154.772 108.754 156.841 107.377 157.876 105.196C158.029 107.146 159.484 108.409 161.515 108.409H164.197V104.317H161.936V95.4057H161.934ZM157.414 100.378C157.414 103.017 155.116 104.967 152.319 104.967C150.595 104.967 149.139 104.241 149.139 102.712C149.139 100.761 151.476 100.226 153.622 99.9969C155.69 99.8058 156.839 99.3468 157.414 98.4665V100.378ZM133.014 88.2532C130.447 88.2532 128.301 89.3246 126.769 91.1214V80.2986H122.173V108.409H126.693V105.809C128.225 107.682 130.409 108.791 133.014 108.791C138.53 108.791 142.705 104.432 142.705 98.5418C142.705 92.6518 138.453 88.2532 133.014 88.2532ZM132.324 104.546C129.03 104.546 126.616 101.983 126.616 98.5418C126.616 95.1002 129.068 92.4998 132.362 92.4998C135.695 92.4998 138.031 95.0626 138.031 98.5418C138.032 101.983 135.618 104.546 132.324 104.546ZM111.18 88.2532C108.192 88.2532 106.238 89.4767 105.089 91.1982V88.6354H100.53V108.408H105.126V97.6615C105.126 94.6398 107.042 92.4984 109.876 92.4984C112.52 92.4984 114.166 94.3719 114.166 97.0881V108.409H118.763V96.745C118.764 91.773 116.197 88.2532 111.18 88.2532ZM204.76 97.8917C204.76 92.232 200.624 88.2546 195.069 88.2546C189.17 88.2546 184.841 92.6909 184.841 98.5418C184.841 104.7 189.476 108.791 195.145 108.791C199.934 108.791 203.688 105.961 204.645 101.946H199.856C199.166 103.705 197.481 104.7 195.22 104.7C192.27 104.7 190.049 102.864 189.551 99.6509H204.759V97.8917H204.76ZM189.822 96.3613C190.55 93.6074 192.619 92.2696 194.993 92.2696C197.598 92.2696 199.59 93.7609 200.05 96.3613H189.822Z" fill="white"/>
</g>
<defs>
<filter id="filter0_d_697_2023" x="0" y="0" width="252" height="145" filterUnits="userSpaceOnUse" color-interpolation-filters="sRGB">
<feFlood flood-opacity="0" result="BackgroundImageFix"/>
<feColorMatrix in="SourceAlpha" type="matrix" values="0 0 0 0 0 0 0 0 0 0 0 0 0 0 0 0 0 0 127 0" result="hardAlpha"/>
<feOffset dy="4"/>
<feGaussianBlur stdDeviation="2"/>
<feComposite in2="hardAlpha" operator="out"/>
<feColorMatrix type="matrix" values="0 0 0 0 0 0 0 0 0 0 0 0 0 0 0 0 0 0 0.15 0"/>
<feBlend mode="normal" in2="BackgroundImageFix" result="effect1_dropShadow_697_2023"/>
<feBlend mode="normal" in="SourceGraphic" in2="effect1_dropShadow_697_2023" result="shape"/>
</filter>
<filter id="filter1_d_697_2023" x="0" y="0" width="252" height="145" filterUnits="userSpaceOnUse" color-interpolation-filters="sRGB">
<feFlood flood-opacity="0" result="BackgroundImageFix"/>
<feColorMatrix in="SourceAlpha" type="matrix" values="0 0 0 0 0 0 0 0 0 0 0 0 0 0 0 0 0 0 127 0" result="hardAlpha"/>
<feOffset dy="4"/>
<feGaussianBlur stdDeviation="2"/>
<feComposite in2="hardAlpha" operator="out"/>
<feColorMatrix type="matrix" values="0 0 0 0 0 0 0 0 0 0 0 0 0 0 0 0 0 0 0.25 0"/>
<feBlend mode="normal" in2="BackgroundImageFix" result="effect1_dropShadow_697_2023"/>
<feBlend mode="normal" in="SourceGraphic" in2="effect1_dropShadow_697_2023" result="shape"/>
</filter>
</defs>
</svg>
