<svg width="252" height="145" viewBox="0 0 252 145" fill="none" xmlns="http://www.w3.org/2000/svg">
<g filter="url(#filter0_d_697_2060)">
<g filter="url(#filter1_d_697_2060)">
<path d="M4 8C4 3.58172 7.58172 0 12 0H240C244.418 0 248 3.58172 248 8V129C248 133.418 244.418 137 240 137H12C7.58173 137 4 133.418 4 129V8Z" fill="black"/>
</g>
<g clip-path="url(#clip0_697_2060)">
<path d="M226 70.1232C226.127 63.8027 221.199 58.62 214.882 58.4936C208.565 58.3672 203.385 63.2971 203.259 69.6175C203.132 75.938 208.06 81.1207 214.377 81.2471H214.629C218.42 81.3735 222.084 79.7302 224.358 76.6964L221.578 74.8003C219.936 76.9492 217.409 78.2133 214.629 78.0869C210.839 78.0869 207.681 75.4323 206.923 71.7665H225.874C226 71.1344 226 70.6288 226 70.1232ZM214.629 62.1594C218.42 62.1594 221.578 64.814 222.336 68.4799H206.923C207.681 64.814 210.966 62.1594 214.629 62.1594ZM123.031 59.252H126.442V80.4887H123.031V59.252Z" fill="white"/>
<path d="M124.8 56.2184C126.056 56.2184 127.074 55.1997 127.074 53.9431C127.074 52.6864 126.056 51.6677 124.8 51.6677C123.544 51.6677 122.525 52.6864 122.525 53.9431C122.525 55.1997 123.544 56.2184 124.8 56.2184Z" fill="white"/>
<path d="M107.871 58.4937C101.554 58.4937 96.5 63.55 96.5 69.8704C96.5 76.1909 101.554 81.2472 107.871 81.2472C114.188 81.2472 119.242 76.1909 119.242 69.8704C119.242 63.55 114.188 58.4937 107.871 58.4937ZM107.871 77.8342C103.449 77.8342 99.7849 74.2947 99.7849 69.8704C99.7849 65.4461 103.322 61.7803 107.744 61.7803C112.166 61.7803 115.83 65.3197 115.83 69.744V69.8704C115.83 74.2947 112.293 77.8342 107.871 77.8342ZM165.862 58.4937C159.545 58.4937 154.491 63.55 154.491 69.8704C154.491 76.1909 159.545 81.2472 165.862 81.2472C172.179 81.2472 177.233 76.1909 177.233 69.8704C177.233 63.55 172.179 58.4937 165.862 58.4937ZM165.862 77.8342C161.44 77.8342 157.776 74.2947 157.776 69.8704C157.776 65.4461 161.314 61.7803 165.736 61.7803C170.158 61.7803 173.822 65.3197 173.822 69.744C173.822 74.2947 170.284 77.8342 165.862 77.8342ZM141.604 58.4937C139.077 58.3673 136.551 59.5049 134.782 61.4011V59.2521H131.37V80.3623H134.782V69.4912C134.782 64.9405 137.435 61.6539 141.604 61.6539C145.774 61.6539 148.048 64.8141 148.048 69.744V80.3623H151.459V69.744C151.459 62.6652 147.669 58.4937 141.604 58.4937Z" fill="white"/>
<mask id="mask0_697_2060" style="mask-type:luminance" maskUnits="userSpaceOnUse" x="27" y="49" width="39" height="41">
<path d="M61.1224 69.4912C61.1224 69.4912 58.4692 73.4099 56.4477 75.9381C53.9209 78.9719 51.1413 80.868 46.972 80.868C40.9076 80.868 35.8539 75.9381 35.8539 69.8705V69.4912C35.7276 63.4236 40.5286 58.2409 46.593 58.1145H46.972C51.1413 58.1145 53.7945 59.8842 56.4477 63.0444C58.5955 65.5726 61.1224 69.3648 61.1224 69.4912L65.6707 63.1708C62.2595 52.9317 51.1413 47.3698 40.7813 50.7828C30.4212 54.1958 24.9885 65.3198 28.3997 75.6852C31.8109 86.0507 42.9291 91.4863 53.2892 88.0733C59.1009 86.1771 63.7756 81.5 65.6707 75.6852L61.1224 69.4912Z" fill="white"/>
</mask>
<g mask="url(#mask0_697_2060)">
<rect x="26" y="48.0017" width="42.9564" height="42.9789" fill="white"/>
<path d="M57.5859 66.9629H65.1665V69.4911H57.5859V66.9629Z" fill="white"/>
<path d="M57.5859 69.4912H65.1665V72.0194H57.5859V69.4912Z" fill="white"/>
</g>
<path d="M190.498 58.4937C187.971 58.3673 185.444 59.505 183.676 61.4011V59.2522H180.264V80.3624H183.676V69.4913C183.676 64.9406 186.329 61.6539 190.498 61.6539C194.667 61.6539 196.942 64.8141 196.942 69.7441V80.3624H200.353V69.7441C200.226 62.6652 196.563 58.4937 190.498 58.4937ZM86.392 58.1145C79.8222 58.1145 74.6422 63.4237 74.5158 69.8705C74.3895 76.3173 79.8222 81.6265 86.2657 81.7529C89.5506 81.7529 92.7091 80.3624 94.9833 77.9606L92.5828 75.5589C89.4242 79.0983 84.1179 79.3511 80.5803 76.3173C77.0427 73.2835 76.79 67.848 79.8222 64.3085C82.8544 60.7691 88.2871 60.5163 91.8247 63.5501L92.5828 64.3085L94.9833 61.9068C92.7091 59.505 89.6769 58.1145 86.392 58.1145Z" fill="white"/>
</g>
</g>
<defs>
<filter id="filter0_d_697_2060" x="0" y="0" width="252" height="145" filterUnits="userSpaceOnUse" color-interpolation-filters="sRGB">
<feFlood flood-opacity="0" result="BackgroundImageFix"/>
<feColorMatrix in="SourceAlpha" type="matrix" values="0 0 0 0 0 0 0 0 0 0 0 0 0 0 0 0 0 0 127 0" result="hardAlpha"/>
<feOffset dy="4"/>
<feGaussianBlur stdDeviation="2"/>
<feComposite in2="hardAlpha" operator="out"/>
<feColorMatrix type="matrix" values="0 0 0 0 0 0 0 0 0 0 0 0 0 0 0 0 0 0 0.15 0"/>
<feBlend mode="normal" in2="BackgroundImageFix" result="effect1_dropShadow_697_2060"/>
<feBlend mode="normal" in="SourceGraphic" in2="effect1_dropShadow_697_2060" result="shape"/>
</filter>
<filter id="filter1_d_697_2060" x="0" y="0" width="252" height="145" filterUnits="userSpaceOnUse" color-interpolation-filters="sRGB">
<feFlood flood-opacity="0" result="BackgroundImageFix"/>
<feColorMatrix in="SourceAlpha" type="matrix" values="0 0 0 0 0 0 0 0 0 0 0 0 0 0 0 0 0 0 127 0" result="hardAlpha"/>
<feOffset dy="4"/>
<feGaussianBlur stdDeviation="2"/>
<feComposite in2="hardAlpha" operator="out"/>
<feColorMatrix type="matrix" values="0 0 0 0 0 0 0 0 0 0 0 0 0 0 0 0 0 0 0.25 0"/>
<feBlend mode="normal" in2="BackgroundImageFix" result="effect1_dropShadow_697_2060"/>
<feBlend mode="normal" in="SourceGraphic" in2="effect1_dropShadow_697_2060" result="shape"/>
</filter>
<clipPath id="clip0_697_2060">
<rect width="200" height="42.9825" fill="white" transform="translate(26 48)"/>
</clipPath>
</defs>
</svg>
