<svg width="252" height="145" viewBox="0 0 252 145" fill="none" xmlns="http://www.w3.org/2000/svg">
<g filter="url(#filter0_d_697_2211)">
<g filter="url(#filter1_d_697_2211)">
<rect x="4" width="244" height="137" rx="8" fill="#1B2143"/>
</g>
<path fill-rule="evenodd" clip-rule="evenodd" d="M191.577 59.6192H197.257V53.9379H191.577V59.6192ZM161.385 69.0855C162.473 66.2048 165.249 64.1563 168.505 64.1563C171.761 64.1563 174.545 66.2048 175.625 69.0855H161.385ZM168.505 58.8671C161.385 58.8671 155.609 64.6444 155.609 71.7661C155.609 78.8878 161.385 84.6652 168.505 84.6652C173.393 84.6652 177.641 81.9446 179.825 77.9436L175.065 75.6311C173.737 77.8796 171.297 79.384 168.505 79.384C164.977 79.384 162.009 76.9834 161.145 73.7186H175.865V73.7266H181.257C181.353 73.0865 181.401 72.4303 181.401 71.7661C181.401 64.6444 175.633 58.8671 168.505 58.8671ZM182.905 83.9771H188.585V78.2957H182.905V83.9771ZM191.577 83.9771H197.257V62.1158H191.577V83.9771ZM213.105 79.384C208.897 79.384 205.489 75.9751 205.489 71.7661C205.489 67.5571 208.897 64.1483 213.105 64.1483C217.313 64.1483 220.721 67.5571 220.721 71.7661C220.721 75.9751 217.313 79.384 213.105 79.384ZM213.105 58.8671C205.985 58.8671 200.209 64.6444 200.209 71.7661C200.209 78.8878 205.985 84.6652 213.105 84.6652C220.225 84.6652 226.001 78.8878 226.001 71.7661C226.001 64.6444 220.225 58.8671 213.105 58.8671ZM94.3528 67.013V72.8864H102.297C101.881 74.5668 101.065 76.0712 99.8888 77.2715C98.1128 79.0879 95.6568 80.0801 92.9688 80.0801C87.3848 80.0801 82.8408 75.535 82.8408 69.9417C82.8408 64.3564 87.3848 59.8033 92.9688 59.8033C95.9608 59.8033 98.7128 61.0836 100.617 63.2921L105.161 59.5712C102.145 56.0344 97.6728 53.9219 92.9688 53.9219C84.1448 53.9219 76.9688 61.1076 76.9688 69.9337C76.9688 78.7598 84.1448 85.9455 92.9688 85.9455C97.2568 85.9455 101.201 84.4012 104.089 81.4485C106.513 78.9679 108.121 75.511 108.425 72.0542C108.577 70.3658 108.593 68.6854 108.497 66.997L94.3528 67.013ZM123.281 79.384C119.081 79.384 115.665 75.9751 115.665 71.7661C115.665 67.5571 119.073 64.1483 123.281 64.1483C127.489 64.1483 130.897 67.5571 130.897 71.7661C130.897 75.9751 127.489 79.384 123.281 79.384ZM130.897 61.3797C128.761 59.8113 126.129 58.8911 123.281 58.8911C116.161 58.8911 110.393 64.6684 110.393 71.7901C110.393 78.9118 116.169 84.6892 123.281 84.6892C126.129 84.6892 128.761 83.761 130.897 82.2006V83.9851H136.177V59.5952H130.897V61.3797ZM147.505 53.9379H142.225V59.6192H139.065V64.6044H142.225V77.6475C142.225 78.9919 142.393 80.1281 142.729 81.0163C143.057 81.8966 143.569 82.5847 144.169 83.1209C144.777 83.665 145.489 84.0891 146.337 84.3371C147.201 84.5772 148.145 84.6732 149.153 84.6732C150.193 84.6732 151.121 84.5692 151.905 84.3531C152.641 84.1531 153.345 83.873 153.993 83.521V79.504C152.953 79.9521 151.977 80.1201 150.865 80.1681C149.689 80.2242 149.001 79.8881 148.425 79.3359C147.817 78.7598 147.497 78.0076 147.497 76.7513V64.6044H153.993V59.6192H147.497V53.9379H147.505Z" fill="white"/>
<path fill-rule="evenodd" clip-rule="evenodd" d="M48.896 81.5045C41.944 81.5045 36.304 75.8631 36.304 68.9095C36.304 61.9558 41.944 56.3145 48.896 56.3145V46C36.248 46 26 56.2585 26 68.9095C26 81.5605 36.248 91.811 48.896 91.811C61.536 91.811 71.792 81.5525 71.792 68.9095H61.488C61.488 75.8711 55.848 81.5045 48.896 81.5045Z" fill="#2354E6"/>
<path fill-rule="evenodd" clip-rule="evenodd" d="M48.8945 68.9095H61.4865V56.3145H48.8945V68.9095Z" fill="#17E6A1"/>
</g>
<defs>
<filter id="filter0_d_697_2211" x="0" y="0" width="252" height="145" filterUnits="userSpaceOnUse" color-interpolation-filters="sRGB">
<feFlood flood-opacity="0" result="BackgroundImageFix"/>
<feColorMatrix in="SourceAlpha" type="matrix" values="0 0 0 0 0 0 0 0 0 0 0 0 0 0 0 0 0 0 127 0" result="hardAlpha"/>
<feOffset dy="4"/>
<feGaussianBlur stdDeviation="2"/>
<feComposite in2="hardAlpha" operator="out"/>
<feColorMatrix type="matrix" values="0 0 0 0 0 0 0 0 0 0 0 0 0 0 0 0 0 0 0.15 0"/>
<feBlend mode="normal" in2="BackgroundImageFix" result="effect1_dropShadow_697_2211"/>
<feBlend mode="normal" in="SourceGraphic" in2="effect1_dropShadow_697_2211" result="shape"/>
</filter>
<filter id="filter1_d_697_2211" x="0" y="0" width="252" height="145" filterUnits="userSpaceOnUse" color-interpolation-filters="sRGB">
<feFlood flood-opacity="0" result="BackgroundImageFix"/>
<feColorMatrix in="SourceAlpha" type="matrix" values="0 0 0 0 0 0 0 0 0 0 0 0 0 0 0 0 0 0 127 0" result="hardAlpha"/>
<feOffset dy="4"/>
<feGaussianBlur stdDeviation="2"/>
<feComposite in2="hardAlpha" operator="out"/>
<feColorMatrix type="matrix" values="0 0 0 0 0 0 0 0 0 0 0 0 0 0 0 0 0 0 0.15 0"/>
<feBlend mode="normal" in2="BackgroundImageFix" result="effect1_dropShadow_697_2211"/>
<feBlend mode="normal" in="SourceGraphic" in2="effect1_dropShadow_697_2211" result="shape"/>
</filter>
</defs>
</svg>
