<svg width="252" height="145" viewBox="0 0 252 145" fill="none" xmlns="http://www.w3.org/2000/svg">
<g filter="url(#filter0_d_697_2212)">
<g filter="url(#filter1_d_697_2212)">
<rect x="4" width="244" height="137" rx="8" fill="#004DF7"/>
</g>
<g clip-path="url(#clip0_697_2212)">
<path d="M101.84 55.4217V70.6151H86.6978V57.3836C86.6978 56.2962 85.8129 55.4141 84.722 55.4141H79.5957V91.7855C79.5957 92.8729 80.4806 93.755 81.5715 93.755H86.6978V76.7898H101.848V91.7779C101.833 92.8653 102.702 93.7626 103.793 93.7778H103.824H108.95V57.3836C108.95 56.2962 108.065 55.4141 106.974 55.4141H101.84V55.4217ZM131.911 64.9271V83.1546C131.927 84.8123 131.057 86.356 129.623 87.2077C125.61 89.5194 121.453 86.6222 121.453 82.82V66.8966C121.453 65.8092 120.568 64.9271 119.477 64.9271H114.351V83.474C114.366 89.451 119.218 94.2873 125.214 94.3177H128.128C134.131 94.3025 138.998 89.451 139.013 83.4664V66.8966C139.013 65.8092 138.129 64.9271 137.038 64.9271H131.911Z" fill="white"/>
<path d="M209.47 93.7779H214.596V67.9536C214.596 66.8662 213.711 65.9841 212.62 65.9841H207.494V91.7932C207.487 92.8806 208.364 93.7703 209.455 93.7779H209.47Z" fill="white"/>
<path d="M214.704 60.8188C215.541 58.805 214.581 56.4963 212.561 55.6621C210.541 54.828 208.225 55.7842 207.388 57.798C206.551 59.8118 207.511 62.1206 209.531 62.9547C211.551 63.7889 213.867 62.8326 214.704 60.8188Z" fill="white"/>
<path d="M157.338 64.9119C149.9 64.9119 143.812 70.2121 143.812 77.6263V81.6338C143.812 89.048 149.9 94.3178 157.338 94.3178C164.775 94.3178 170.863 89.048 170.863 81.6338V77.6263C170.87 70.2121 164.783 64.9119 157.338 64.9119ZM163.73 82.1128C163.73 85.6184 160.854 87.9529 157.33 87.9529C153.806 87.9529 150.937 85.6184 150.937 82.1128V77.1092C150.937 73.6036 153.813 71.2691 157.33 71.2691C160.847 71.2691 163.73 73.6036 163.73 77.1092V82.1128Z" fill="white"/>
<path d="M189.185 64.9119C186.958 64.8967 184.761 65.3986 182.754 66.3643V57.4217C182.754 56.3342 181.869 55.4521 180.779 55.4521H175.652V81.6338C175.652 89.048 181.74 94.3178 189.178 94.3178C196.615 94.3178 202.703 89.048 202.703 81.6338V77.6263C202.71 70.2121 196.638 64.9119 189.185 64.9119ZM195.585 82.1129C195.585 85.6185 192.709 87.953 189.185 87.953C185.668 87.953 182.793 85.6185 182.793 82.1129V77.1092C182.793 73.6037 185.668 71.2691 189.185 71.2691C192.702 71.2691 195.585 73.6037 195.585 77.1092V82.1129Z" fill="white"/>
<path d="M58.1293 58.5623C58.1293 50.8363 54.3533 44.1825 51.4774 42.0229C51.4774 42.0229 51.2561 41.9012 51.279 42.213C51.0426 57.1403 43.3913 61.1858 39.188 66.6305C29.4847 79.208 38.5014 92.9946 47.7013 95.5421C52.8276 96.9717 46.5113 93.0174 45.695 84.6755C44.6957 74.6074 58.1293 66.9118 58.1293 58.5623Z" fill="white"/>
<path d="M62.5394 63.6494C62.4784 63.6114 62.3945 63.581 62.3411 63.6798C62.1809 65.5581 60.2585 69.5732 57.8174 73.2689C49.5406 85.7856 54.255 91.8234 56.9097 95.0704C58.4506 96.9487 56.9097 95.0704 60.7544 93.1465C65.5069 90.2721 68.5887 85.2989 69.0465 79.7782C69.8017 70.8811 64.4465 65.2767 62.5394 63.6494Z" fill="white"/>
</g>
</g>
<defs>
<filter id="filter0_d_697_2212" x="0" y="0" width="252" height="145" filterUnits="userSpaceOnUse" color-interpolation-filters="sRGB">
<feFlood flood-opacity="0" result="BackgroundImageFix"/>
<feColorMatrix in="SourceAlpha" type="matrix" values="0 0 0 0 0 0 0 0 0 0 0 0 0 0 0 0 0 0 127 0" result="hardAlpha"/>
<feOffset dy="4"/>
<feGaussianBlur stdDeviation="2"/>
<feComposite in2="hardAlpha" operator="out"/>
<feColorMatrix type="matrix" values="0 0 0 0 0 0 0 0 0 0 0 0 0 0 0 0 0 0 0.15 0"/>
<feBlend mode="normal" in2="BackgroundImageFix" result="effect1_dropShadow_697_2212"/>
<feBlend mode="normal" in="SourceGraphic" in2="effect1_dropShadow_697_2212" result="shape"/>
</filter>
<filter id="filter1_d_697_2212" x="0" y="0" width="252" height="145" filterUnits="userSpaceOnUse" color-interpolation-filters="sRGB">
<feFlood flood-opacity="0" result="BackgroundImageFix"/>
<feColorMatrix in="SourceAlpha" type="matrix" values="0 0 0 0 0 0 0 0 0 0 0 0 0 0 0 0 0 0 127 0" result="hardAlpha"/>
<feOffset dy="4"/>
<feGaussianBlur stdDeviation="2"/>
<feComposite in2="hardAlpha" operator="out"/>
<feColorMatrix type="matrix" values="0 0 0 0 0 0 0 0 0 0 0 0 0 0 0 0 0 0 0.25 0"/>
<feBlend mode="normal" in2="BackgroundImageFix" result="effect1_dropShadow_697_2212"/>
<feBlend mode="normal" in="SourceGraphic" in2="effect1_dropShadow_697_2212" result="shape"/>
</filter>
<clipPath id="clip0_697_2212">
<rect width="180" height="53.8462" fill="white" transform="translate(35 42)"/>
</clipPath>
</defs>
</svg>
