<svg width="252" height="145" viewBox="0 0 252 145" fill="none" xmlns="http://www.w3.org/2000/svg">
<g filter="url(#filter0_d_697_1934)">
<g filter="url(#filter1_d_697_1934)">
<path d="M4 8C4 3.58172 7.58172 0 12 0H240C244.418 0 248 3.58172 248 8V129C248 133.418 244.418 137 240 137H12C7.58173 137 4 133.418 4 129V8Z" fill="#5741D9"/>
</g>
<path d="M44.6784 53.0443C48.1466 52.8087 51.6788 53.5154 54.7865 55.1075C59.3921 57.4062 63.0605 61.5325 64.7585 66.4062C65.5274 68.575 65.9279 70.8331 65.9279 73.1399V81.6282C65.9279 81.9694 65.9279 82.3349 65.8638 82.676C65.6636 83.5208 65.0629 84.3006 64.2619 84.6742C63.6932 84.9423 63.0605 84.9748 62.4918 84.8773C61.2263 84.6417 60.2251 83.4233 60.2251 82.1074C60.2251 79.4676 60.2251 76.8277 60.2251 74.1959C60.2571 73.4486 60.2571 72.6363 59.8566 71.9946C59.2239 70.7762 57.6219 70.1995 56.3885 70.7112C55.3232 71.0849 54.5543 72.1977 54.5222 73.3511C54.5222 76.0235 54.5222 78.6959 54.5222 81.3683C54.5222 81.8719 54.5543 82.3836 54.3861 82.8547C54.1217 83.8051 53.3528 84.5443 52.4157 84.8123C51.1822 85.1535 49.7805 84.6092 49.1798 83.4558C48.7473 82.7816 48.7793 81.9369 48.8114 81.1571C48.8114 78.4847 48.8114 75.8448 48.8114 73.1724C48.7793 71.8159 47.674 70.6056 46.3765 70.4351C45.5114 70.297 44.6063 70.6056 43.9736 71.2148C43.4049 71.7591 43.1085 72.5307 43.1085 73.3105V81.0596C43.1085 81.7013 43.1726 82.3755 42.9403 82.9847C42.5719 84.0975 41.4746 84.9098 40.3052 84.8773C39.1037 84.9423 37.9343 84.0975 37.5739 82.9847C37.3736 82.408 37.4057 81.8313 37.4057 81.2221C37.4057 78.5497 37.4057 75.8773 37.4057 73.2049C37.4057 71.889 36.3724 70.6706 35.1069 70.4351C33.9375 70.1995 32.672 70.7762 32.0713 71.8565C31.839 72.2952 31.7028 72.8069 31.7028 73.3105V82.0018C31.7028 82.8466 31.3344 83.6914 30.7016 84.2356C29.7325 85.0804 28.1706 85.1453 27.1694 84.3737C26.4325 83.862 26 82.9766 26 82.0668V73.2699C26 69.9558 26.833 66.6417 28.4029 63.7013C29.6684 61.297 31.4385 59.1688 33.537 57.4793C36.6448 54.8394 40.6095 53.288 44.6784 53.0443Z" fill="white"/>
<path d="M122.612 63.2302H118.279C118.447 60.1517 119.079 57.3818 121.851 55.6192C124.622 53.8972 127.65 53.491 130.822 53.7591C132.52 53.8972 134.226 54.2627 135.788 55.01C138.559 56.2934 139.92 58.4946 139.92 61.5732C139.92 67.0154 139.92 72.4658 139.92 77.908C139.92 79.9062 140.321 80.2717 142.291 80.0686C142.492 80.0361 142.724 80.0037 142.924 79.9712C142.956 80.0686 142.956 80.1742 142.956 80.2392V83.5533C141.386 84.0975 139.784 84.26 138.222 83.8213C137.053 83.4802 136.324 82.6354 135.924 81.5226C135.723 80.9459 135.587 80.3367 135.427 79.695C135.259 79.8981 135.131 80.0686 134.963 80.2392C131.526 83.7564 127.458 85.2428 122.66 83.9919C119.256 83.1147 116.925 79.9712 116.821 76.3809C116.789 75.2275 116.885 74.0822 117.157 72.9612C117.79 70.3945 119.592 68.8349 121.859 67.7871C123.461 67.0398 125.191 66.8367 126.929 66.6011C128.963 66.3331 130.966 66.0975 133 65.7889C134.37 65.5858 135.067 64.8385 135.267 63.4576C135.699 60.6472 134.466 58.7871 131.799 58.1129C130.197 57.7067 128.563 57.6418 126.929 57.9423C124.526 58.3809 123.196 59.7699 122.724 62.1661C122.748 62.5154 122.684 62.8566 122.612 63.2302ZM135.387 68.6399C133.385 69.7203 131.454 69.9964 129.484 70.297C127.85 70.565 126.184 70.8087 124.582 71.3123C122.484 72.019 121.514 73.7816 121.715 76.1454C121.883 78.1029 123.18 79.695 125.287 80.0361C128.523 80.5804 131.39 79.6625 133.657 77.2257C134.322 76.519 134.858 75.5037 134.995 74.5533C135.291 72.6607 135.251 70.7356 135.387 68.6399ZM197.181 74.3177C197.085 74.7889 197.013 75.195 196.917 75.5686C195.051 81.352 191.246 83.8213 186.649 84.3656C178.679 85.2428 174.114 79.9712 172.944 74.3584C172.007 69.8908 172.143 65.464 174.081 61.2726C175.916 57.3168 178.847 54.7094 183.22 53.9378C188.459 52.9874 195.86 55.6273 197.093 63.9125C197.43 66.0407 197.494 68.2419 197.694 70.4757H177.421C177.59 73.5217 178.054 76.3565 180.257 78.5578C181.154 79.4676 182.323 79.9143 183.589 80.1499C187.69 80.8972 191.094 78.899 192.424 74.8701C192.56 74.4315 192.76 74.2934 193.192 74.3259C194.482 74.3177 195.78 74.3177 197.181 74.3177ZM177.574 66.5443H192.744C192.576 64.7492 192.279 63.0921 191.446 61.5407C190.645 60.0542 189.476 58.9739 187.874 58.4297C182.644 56.602 177.237 60.8259 177.574 66.5443ZM208.09 83.3827H203.485V54.3683H207.85V58.4297C208.186 58.056 208.387 57.8205 208.587 57.5849C211.719 53.9622 215.659 53.0199 220.129 54.1327C223.228 54.9125 224.967 57.1463 225.567 60.2573C225.8 61.5407 225.968 62.8647 225.968 64.1481C226 70.3701 226 76.5921 226 82.8141C226 82.9847 225.968 83.1553 225.968 83.3583H221.266V82.5704C221.266 76.7546 221.298 70.9387 221.234 65.1228C221.234 63.8394 221.034 62.5154 220.665 61.2645C220.065 59.2338 218.463 58.1535 216.364 58.0479C212.528 57.9098 209.492 59.973 208.563 63.4251C208.226 64.676 208.13 65.9919 208.13 67.3159C208.098 72.4251 208.098 77.4937 208.098 82.538V83.3827H208.09ZM147.425 54.3683H151.863V66.6824C152.127 66.4143 152.295 66.2762 152.464 66.1057C156.1 62.3529 159.736 58.5596 163.373 54.8069C163.669 54.4658 163.973 54.3358 164.438 54.3358C166.136 54.3683 167.874 54.3358 169.74 54.3358C169.476 54.6039 169.34 54.7744 169.172 54.945C165.968 58.1941 162.804 61.4757 159.568 64.6842C159.2 65.0578 159.2 65.2934 159.432 65.6995C162.932 71.3448 166.4 76.9982 169.868 82.6435C170.005 82.8466 170.101 83.0497 170.269 83.3502C170.037 83.3827 169.868 83.3827 169.668 83.3827C168.066 83.3827 166.496 83.3827 164.902 83.3827C164.47 83.3827 164.27 83.2121 164.037 82.8791C161.37 78.3466 158.703 73.8141 156.036 69.2492C155.9 69.0461 155.804 68.843 155.635 68.6075C154.402 69.8584 153.2 71.0443 151.999 72.2952C151.831 72.4658 151.799 72.7663 151.799 73.0019C151.799 76.1778 151.799 79.362 151.799 82.538V83.3502C150.934 83.3502 150.061 83.3502 149.228 83.3502C148.627 83.3502 147.794 83.5208 147.458 83.1796C147.161 82.9116 147.321 82.0262 147.321 81.417V55.1481C147.425 54.9775 147.425 54.7094 147.425 54.3683ZM96.2361 54.3358C92.6317 57.9585 89.1315 61.5082 85.5993 65.0578C89.3958 71.2067 93.1043 77.2257 96.8688 83.3827C96.5725 83.3827 96.3722 83.4152 96.172 83.4152C94.6421 83.4152 93.0723 83.4152 91.5344 83.4152C91.1019 83.4152 90.8376 83.2446 90.5973 82.871C87.9301 78.3466 85.2629 73.8141 82.5957 69.2492C82.4996 69.0461 82.3634 68.8755 82.1952 68.6075C81.5304 69.3141 80.9297 70.0939 80.1928 70.6381C78.695 71.7916 78.2625 73.2049 78.3586 75.1056C78.5268 77.575 78.3906 80.0768 78.3906 82.5461V83.3583H73.9854V54.3683H78.3906V66.4793C78.4868 66.5443 78.5909 66.6174 78.655 66.6824C78.7911 66.4793 78.8552 66.2437 78.9914 66.0732C82.5957 62.3205 86.2321 58.6002 89.8284 54.815C90.1648 54.4739 90.4611 54.3114 90.9657 54.3439C92.4635 54.3764 93.9693 54.3439 95.4671 54.3439C95.6994 54.3358 95.8997 54.3358 96.2361 54.3358ZM105.039 59.1688C107.273 55.8548 109.644 53.0849 114.041 53.8891V58.8602C112.872 58.9251 111.703 58.8927 110.605 59.1282C107.906 59.7049 105.8 62.2067 105.367 65.2528C105.303 65.862 105.231 66.4712 105.231 67.0804C105.231 72.2546 105.231 77.4287 105.231 82.6029V83.4152H100.697V54.4333H105.031C105.039 55.9603 105.039 57.4793 105.039 59.1688Z" fill="white"/>
</g>
<defs>
<filter id="filter0_d_697_1934" x="0" y="0" width="252" height="145" filterUnits="userSpaceOnUse" color-interpolation-filters="sRGB">
<feFlood flood-opacity="0" result="BackgroundImageFix"/>
<feColorMatrix in="SourceAlpha" type="matrix" values="0 0 0 0 0 0 0 0 0 0 0 0 0 0 0 0 0 0 127 0" result="hardAlpha"/>
<feOffset dy="4"/>
<feGaussianBlur stdDeviation="2"/>
<feComposite in2="hardAlpha" operator="out"/>
<feColorMatrix type="matrix" values="0 0 0 0 0 0 0 0 0 0 0 0 0 0 0 0 0 0 0.15 0"/>
<feBlend mode="normal" in2="BackgroundImageFix" result="effect1_dropShadow_697_1934"/>
<feBlend mode="normal" in="SourceGraphic" in2="effect1_dropShadow_697_1934" result="shape"/>
</filter>
<filter id="filter1_d_697_1934" x="0" y="0" width="252" height="145" filterUnits="userSpaceOnUse" color-interpolation-filters="sRGB">
<feFlood flood-opacity="0" result="BackgroundImageFix"/>
<feColorMatrix in="SourceAlpha" type="matrix" values="0 0 0 0 0 0 0 0 0 0 0 0 0 0 0 0 0 0 127 0" result="hardAlpha"/>
<feOffset dy="4"/>
<feGaussianBlur stdDeviation="2"/>
<feComposite in2="hardAlpha" operator="out"/>
<feColorMatrix type="matrix" values="0 0 0 0 0 0 0 0 0 0 0 0 0 0 0 0 0 0 0.25 0"/>
<feBlend mode="normal" in2="BackgroundImageFix" result="effect1_dropShadow_697_1934"/>
<feBlend mode="normal" in="SourceGraphic" in2="effect1_dropShadow_697_1934" result="shape"/>
</filter>
</defs>
</svg>
