<svg width="252" height="145" viewBox="0 0 252 145" fill="none" xmlns="http://www.w3.org/2000/svg">
<g filter="url(#filter0_d_697_2196)">
<g filter="url(#filter1_d_697_2196)">
<path d="M4 8C4 3.58172 7.58172 0 12 0H240C244.418 0 248 3.58172 248 8V129C248 133.418 244.418 137 240 137H12C7.58173 137 4 133.418 4 129V8Z" fill="#23AF91"/>
</g>
<path d="M178.595 68.9776C178.595 67.9032 178.595 66.8287 178.595 65.9078C178.595 64.9868 178.442 64.0659 178.289 63.2984C178.135 62.5309 177.829 61.7635 177.522 60.996C177.215 60.2285 176.602 59.6146 175.989 59.0006C175.069 58.0796 174.149 57.4657 172.922 56.8517C171.695 56.3912 170.469 56.0842 169.089 56.0842C167.709 56.0842 166.482 56.2377 165.255 56.8517C164.182 57.3122 163.109 58.0796 162.189 58.8471C161.575 59.4611 161.115 60.075 160.655 60.8425C160.349 61.61 160.042 62.3774 159.889 63.1449C159.735 64.0659 159.582 64.9868 159.582 65.7543C159.582 66.6752 159.582 67.7497 159.582 68.8241C159.582 69.8986 159.582 70.973 159.582 71.894C159.582 72.8149 159.735 73.7359 159.889 74.5034C160.042 75.2708 160.349 76.0383 160.655 76.8058C160.962 77.5732 161.575 78.1872 162.189 78.8012C163.109 79.7221 164.029 80.3361 165.255 80.7966C166.482 81.2571 167.862 81.564 169.089 81.564C170.469 81.564 171.695 81.4106 172.922 80.7966C173.995 80.3361 175.069 79.5686 175.989 78.8012C176.602 78.1872 177.062 77.5732 177.522 76.8058C177.829 76.0383 178.135 75.2708 178.289 74.5034C178.442 73.5824 178.595 72.6615 178.595 71.894C178.595 71.1265 178.749 70.0521 178.595 68.9776ZM173.689 68.9776C173.689 70.2056 173.689 71.28 173.689 72.0475C173.689 72.6615 173.535 73.4289 173.535 74.0429C173.535 74.5034 173.382 74.9639 173.075 75.2708C172.922 75.5778 172.769 75.8848 172.462 76.1918C172.155 76.6523 171.695 76.9593 171.082 77.1128C170.469 77.4197 169.855 77.4197 169.242 77.4197C168.629 77.4197 168.015 77.2662 167.402 77.1128C166.942 76.9593 166.329 76.4988 166.022 76.1918C165.715 75.8848 165.562 75.5778 165.409 75.2708C165.255 74.8104 165.102 74.5034 165.102 74.0429C164.949 73.4289 164.949 72.6615 164.949 72.0475C164.949 71.28 164.949 70.2056 164.949 68.9776C164.949 67.7497 164.949 66.6752 164.949 65.9078C164.949 65.2938 165.102 64.5263 165.102 63.9124C165.102 63.4519 165.255 62.9914 165.409 62.6844C165.562 62.3774 165.715 62.0705 166.022 61.7635C166.329 61.303 166.942 60.996 167.402 60.8425C168.015 60.5355 168.629 60.5355 169.242 60.5355C169.855 60.5355 170.469 60.689 171.082 60.8425C171.542 60.996 172.002 61.4565 172.462 61.7635C172.769 62.0705 172.922 62.3774 173.075 62.6844C173.229 63.1449 173.382 63.4519 173.535 63.9124C173.689 64.5263 173.689 65.2938 173.689 65.9078C173.689 66.8287 173.689 67.7497 173.689 68.9776Z" fill="white"/>
<path d="M218.153 56.6983C218.153 56.3913 218 56.2378 217.693 56.2378H213.706C213.4 56.2378 213.246 56.3913 213.246 56.6983V71.8941L203.28 56.3913C203.28 56.2378 203.126 56.2378 202.973 56.2378H199.14C198.833 56.2378 198.68 56.3913 198.68 56.6983V81.2571C198.68 81.5641 198.833 81.7176 199.14 81.7176H203.28C203.586 81.7176 203.74 81.5641 203.74 81.2571V66.0613L213.706 81.5641C213.706 81.7176 213.86 81.7176 214.013 81.7176H217.846C218.153 81.7176 218.306 81.5641 218.306 81.2571L218.153 56.6983Z" fill="white"/>
<path d="M190.708 56.6983C190.708 56.3913 190.555 56.2378 190.248 56.2378H186.108C185.802 56.2378 185.648 56.3913 185.648 56.6983V81.2571C185.648 81.5641 185.802 81.7176 186.108 81.7176H190.248C190.555 81.7176 190.708 81.5641 190.708 81.2571V56.6983Z" fill="white"/>
<path d="M141.794 68.978C141.794 67.7501 141.794 66.6757 141.794 65.9082C141.794 65.2942 141.948 64.5268 141.948 63.9128C142.254 61.7639 143.941 60.3824 146.088 60.3824C147.468 60.3824 148.694 60.8429 149.614 62.0709C149.921 62.6848 150.228 63.2988 150.381 63.9128C150.381 63.9128 150.381 64.0663 150.534 64.0663H155.441C155.441 64.0663 155.594 64.0663 155.594 63.9128C155.134 60.9964 153.448 58.2335 150.688 56.8521C149.308 56.2381 147.774 55.9312 146.241 55.9312C143.481 55.9312 141.181 56.8521 139.341 58.694C138.268 59.7685 137.501 60.9964 137.194 62.5313C136.888 63.9128 136.734 66.0617 136.734 68.8245C136.734 71.5874 136.888 73.7363 137.194 75.1178C137.501 76.4992 138.268 77.8806 139.188 78.9551C141.028 80.797 143.328 81.718 146.088 81.718C147.621 81.718 149.154 81.411 150.534 80.797C153.294 79.4156 154.981 76.8062 155.441 73.7363C155.441 73.7363 155.441 73.5828 155.288 73.5828H150.534C150.534 73.5828 150.381 73.5828 150.381 73.7363C150.228 74.3503 149.921 74.9643 149.614 75.5782C148.848 76.8062 147.468 77.2667 146.088 77.2667C143.941 77.2667 142.254 76.0387 141.948 73.7363C141.794 73.1224 141.794 72.3549 141.794 71.7409C141.794 71.2804 141.794 70.206 141.794 68.978Z" fill="white"/>
<path d="M90.8871 56.6983C90.8871 56.3913 90.7338 56.2378 90.4271 56.2378H86.4405C86.1338 56.2378 85.9805 56.3913 85.9805 56.6983V81.2571C85.9805 81.5641 86.1338 81.7176 86.4405 81.7176H90.5805C90.8871 81.7176 91.0405 81.5641 91.0405 81.2571V74.043L94.2605 70.0521L101.007 81.5641C101.007 81.7176 101.16 81.7176 101.314 81.7176H106.22C106.374 81.7176 106.527 81.5641 106.374 81.4106L97.4805 66.3683L105.607 56.6983C105.76 56.5448 105.76 56.2378 105.454 56.2378H100.087C100.087 56.2378 99.9338 56.2378 99.9338 56.3913L91.0405 67.1358V56.6983H90.8871Z" fill="white"/>
<path d="M120.79 77.5733C118.49 77.5733 116.343 75.4244 116.343 72.9685V56.6983C116.343 56.3913 116.19 56.2378 115.883 56.2378H111.743C111.437 56.2378 111.283 56.3913 111.283 56.6983V72.815C111.283 78.4943 115.423 82.0246 120.637 82.0246C125.85 82.0246 129.99 78.4943 129.99 72.815V56.6983C129.99 56.3913 129.837 56.2378 129.53 56.2378H125.39C125.083 56.2378 124.93 56.3913 124.93 56.6983V72.815C125.083 75.4244 123.09 77.5733 120.79 77.5733Z" fill="white"/>
<path fill-rule="evenodd" clip-rule="evenodd" d="M44.8878 68.9777L57.6145 81.7176L65.5878 73.736C66.9678 72.5081 69.2678 72.5081 70.6478 73.8895C72.0278 75.2709 72.0278 77.4198 70.8011 78.9548L60.0678 89.3923C58.6878 90.7737 56.3878 90.7737 55.0078 89.3923L39.6745 74.043V83.2526C39.6745 85.248 37.9878 86.9364 35.9945 86.9364C34.0011 86.9364 32.3145 85.248 32.3145 83.2526V54.8564C32.3145 52.861 34.0011 51.1726 35.9945 51.1726C37.9878 51.1726 39.6745 52.861 39.6745 54.8564V63.9125L55.0078 48.5632C56.3878 47.1817 58.6878 47.1817 60.0678 48.5632L70.6478 59.1542C71.8745 60.5356 71.8744 62.838 70.4944 64.2194C69.1144 65.6009 66.9678 65.6009 65.4344 64.3729L57.4611 56.3913L44.8878 68.9777ZM57.6145 65.4474C56.0811 65.4474 54.8545 66.3684 54.2411 67.7498C53.6278 69.1312 53.9345 70.6662 55.0078 71.7406C56.0811 72.8151 57.6144 73.122 58.9944 72.5081C60.3744 71.8941 61.2944 70.6661 61.2944 69.1312C61.2944 68.2103 60.9878 67.2893 60.2211 66.5218C59.4545 65.7544 58.5345 65.4474 57.6145 65.4474Z" fill="white"/>
</g>
<defs>
<filter id="filter0_d_697_2196" x="0" y="0" width="252" height="145" filterUnits="userSpaceOnUse" color-interpolation-filters="sRGB">
<feFlood flood-opacity="0" result="BackgroundImageFix"/>
<feColorMatrix in="SourceAlpha" type="matrix" values="0 0 0 0 0 0 0 0 0 0 0 0 0 0 0 0 0 0 127 0" result="hardAlpha"/>
<feOffset dy="4"/>
<feGaussianBlur stdDeviation="2"/>
<feComposite in2="hardAlpha" operator="out"/>
<feColorMatrix type="matrix" values="0 0 0 0 0 0 0 0 0 0 0 0 0 0 0 0 0 0 0.15 0"/>
<feBlend mode="normal" in2="BackgroundImageFix" result="effect1_dropShadow_697_2196"/>
<feBlend mode="normal" in="SourceGraphic" in2="effect1_dropShadow_697_2196" result="shape"/>
</filter>
<filter id="filter1_d_697_2196" x="0" y="0" width="252" height="145" filterUnits="userSpaceOnUse" color-interpolation-filters="sRGB">
<feFlood flood-opacity="0" result="BackgroundImageFix"/>
<feColorMatrix in="SourceAlpha" type="matrix" values="0 0 0 0 0 0 0 0 0 0 0 0 0 0 0 0 0 0 127 0" result="hardAlpha"/>
<feOffset dy="4"/>
<feGaussianBlur stdDeviation="2"/>
<feComposite in2="hardAlpha" operator="out"/>
<feColorMatrix type="matrix" values="0 0 0 0 0 0 0 0 0 0 0 0 0 0 0 0 0 0 0.15 0"/>
<feBlend mode="normal" in2="BackgroundImageFix" result="effect1_dropShadow_697_2196"/>
<feBlend mode="normal" in="SourceGraphic" in2="effect1_dropShadow_697_2196" result="shape"/>
</filter>
</defs>
</svg>
