<svg width="54" height="54" viewBox="0 0 54 54" fill="none" xmlns="http://www.w3.org/2000/svg">
<circle cx="27" cy="27" r="26" fill="#0D61FF" stroke="black" stroke-width="2"/>
<path d="M38.4591 34.6079C38.1189 28.7312 30.5457 26.06 29.821 25.7856C29.7914 25.7712 29.7914 25.7423 29.8062 25.7134L37.616 18.0607V17.2377C37.616 17.1077 37.4977 16.9922 37.3646 16.9922H22.9725V12.3862V11L17.6624 12.0829V12.8626H17.9583C17.9583 12.8626 19.2599 12.8626 19.2599 14.1333V16.9778H15.1479C15.074 16.9778 15 17.05 15 17.1222V18.9271H19.2747C19.2747 18.9271 19.2747 20.8475 19.2747 23.0855V28.7312C19.2747 31.8067 21.3011 33.9437 24.8511 33.6549C25.6054 33.5972 26.3006 33.3084 26.8923 32.933C27.1585 32.7597 27.3212 32.4854 27.3212 32.1677V31.2003C26.1675 31.9511 25.1913 31.9078 25.1913 31.9078C22.943 31.9078 22.9873 29.1211 22.9873 29.1211V18.9271H33.3413L25.8865 26.2621C25.8717 27.2295 25.8569 27.9804 25.8569 27.9948C25.8569 28.0237 25.8717 28.0381 25.9012 28.0381C32.7349 29.1644 34.5838 33.4817 34.5838 34.7379C34.5838 34.7379 35.3233 40.8456 29.0666 41.2643C29.0666 41.2643 24.9694 41.4376 24.2446 39.8349C24.215 39.7771 24.2446 39.7193 24.3038 39.6905C24.9842 39.3872 25.4427 38.7952 25.4427 38.0011C25.4427 36.8171 24.7031 35.8497 23.15 35.8497C21.8928 35.8497 20.8574 36.8171 20.8574 38.0011C20.8574 38.0011 20.2657 43.1414 29.0518 42.997C39.0804 42.8237 38.4591 34.6079 38.4591 34.6079Z" fill="white"/>
</svg>
