<svg width="54" height="54" viewBox="0 0 54 54" fill="none" xmlns="http://www.w3.org/2000/svg">
<circle cx="27" cy="27" r="26" fill="#ED3524" stroke="black" stroke-width="2"/>
<g clip-path="url(#clip0_1260_4218)">
<path d="M43.8301 35.3644L38.3824 41.105C38.264 41.2297 38.1207 41.3292 37.9615 41.3971C37.8023 41.4651 37.6305 41.5001 37.457 41.5H11.6324C11.5092 41.5 11.3887 41.4646 11.2856 41.3982C11.1826 41.3318 11.1015 41.2373 11.0524 41.1263C11.0033 41.0152 10.9883 40.8925 11.0092 40.7732C11.0301 40.6539 11.086 40.5431 11.17 40.4546L16.6218 34.714C16.7399 34.5896 16.8827 34.4904 17.0414 34.4225C17.2001 34.3545 17.3714 34.3193 17.5445 34.319H43.3676C43.4908 34.319 43.6113 34.3544 43.7144 34.4208C43.8174 34.4872 43.8984 34.5818 43.9477 34.6928C43.9967 34.8038 44.0118 34.9265 43.9909 35.0459C43.9699 35.1652 43.9141 35.2759 43.8301 35.3644ZM38.3824 23.8045C38.264 23.6798 38.1207 23.5803 37.9615 23.5124C37.8023 23.4445 37.6305 23.4094 37.457 23.4095H11.6324C11.5092 23.4095 11.3887 23.4449 11.2856 23.5113C11.1826 23.5777 11.1015 23.6722 11.0524 23.7832C11.0033 23.8943 10.9883 24.017 11.0092 24.1363C11.0301 24.2556 11.086 24.3664 11.17 24.4549L16.6218 30.1955C16.7399 30.3199 16.8827 30.4191 17.0414 30.4871C17.2001 30.555 17.3714 30.5902 17.5445 30.5905H43.3676C43.4908 30.5905 43.6113 30.5551 43.7144 30.4887C43.8174 30.4223 43.8984 30.3278 43.9477 30.2168C43.9967 30.1057 44.0118 29.983 43.9909 29.8637C43.9699 29.7444 43.9141 29.6336 43.8301 29.5451L38.3824 23.8045ZM11.6324 19.681H37.457C37.6305 19.681 37.8023 19.646 37.9615 19.5781C38.1207 19.5101 38.264 19.4107 38.3824 19.286L43.8301 13.5454C43.9141 13.4569 43.9699 13.3461 43.9909 13.2268C44.0118 13.1075 43.9967 12.9848 43.9477 12.8737C43.8984 12.7627 43.8174 12.6682 43.7144 12.6018C43.6113 12.5354 43.4908 12.5 43.3676 12.5H17.5445C17.3714 12.5003 17.2001 12.5355 17.0414 12.6034C16.8827 12.6714 16.7399 12.7706 16.6218 12.895L11.1714 18.6356C11.0875 18.724 11.0316 18.8346 11.0106 18.9538C10.9897 19.073 11.0046 19.1956 11.0535 19.3066C11.1025 19.4176 11.1833 19.5121 11.2862 19.5786C11.389 19.6451 11.5093 19.6807 11.6324 19.681Z" fill="white"/>
</g>
<defs>
<clipPath id="clip0_1260_4218">
<rect width="33" height="29" fill="white" transform="translate(11 12.5)"/>
</clipPath>
</defs>
</svg>
