<svg width="54" height="54" viewBox="0 0 54 54" fill="none" xmlns="http://www.w3.org/2000/svg">
<circle cx="27" cy="27" r="26" fill="#0C192B" stroke="black" stroke-width="2"/>
<g clip-path="url(#clip0_1392_4166)">
<path d="M15.3494 34.3706C15.5667 34.1551 15.8654 34.0293 16.1822 34.0293H44.9134C45.4385 34.0293 45.701 34.6581 45.3298 35.0264L39.6542 40.6587C39.437 40.8743 39.1382 41.0001 38.8214 41.0001H10.0902C9.56519 41.0001 9.30268 40.3713 9.67381 40.003L15.3494 34.3706Z" fill="url(#paint0_linear_1392_4166)"/>
<path d="M15.3494 13.3414C15.5757 13.1258 15.8745 13 16.1822 13H44.9134C45.4385 13 45.701 13.6288 45.3298 13.9971L39.6542 19.6295C39.437 19.845 39.1382 19.9708 38.8214 19.9708H10.0902C9.56519 19.9708 9.30268 19.342 9.67381 18.9737L15.3494 13.3414Z" fill="url(#paint1_linear_1392_4166)"/>
<path d="M39.6542 23.7886C39.437 23.573 39.1382 23.4473 38.8214 23.4473H10.0902C9.56519 23.4473 9.30268 24.0761 9.67381 24.4444L15.3494 30.0767C15.5667 30.2923 15.8654 30.4181 16.1822 30.4181H44.9134C45.4385 30.4181 45.701 29.7893 45.3298 29.421L39.6542 23.7886Z" fill="url(#paint2_linear_1392_4166)"/>
</g>
<defs>
<linearGradient id="paint0_linear_1392_4166" x1="42.1688" y1="9.63549" x2="22.5227" y2="47.5548" gradientUnits="userSpaceOnUse">
<stop stop-color="#00FFA3"/>
<stop offset="1" stop-color="#DC1FFF"/>
</linearGradient>
<linearGradient id="paint1_linear_1392_4166" x1="33.4743" y1="5.13077" x2="13.8283" y2="43.0501" gradientUnits="userSpaceOnUse">
<stop stop-color="#00FFA3"/>
<stop offset="1" stop-color="#DC1FFF"/>
</linearGradient>
<linearGradient id="paint2_linear_1392_4166" x1="37.7939" y1="7.36878" x2="18.1478" y2="45.2881" gradientUnits="userSpaceOnUse">
<stop stop-color="#00FFA3"/>
<stop offset="1" stop-color="#DC1FFF"/>
</linearGradient>
<clipPath id="clip0_1392_4166">
<rect width="36" height="28" fill="white" transform="translate(9.5 13)"/>
</clipPath>
</defs>
</svg>
