<svg width="252" height="145" viewBox="0 0 252 145" fill="none" xmlns="http://www.w3.org/2000/svg">
<g filter="url(#filter0_d_697_1930)">
<g filter="url(#filter1_d_697_1930)">
<path d="M4 8C4 3.58172 7.58172 0 12 0H240C244.418 0 248 3.58172 248 8V129C248 133.418 244.418 137 240 137H12C7.58173 137 4 133.418 4 129V8Z" fill="black"/>
</g>
<g clip-path="url(#clip0_697_1930)">
<path d="M84.656 41H27.3331C26.9795 41 26.6405 41.1324 26.3905 41.368C26.1404 41.6036 26 41.9232 26 42.2564V96.2815C26 96.6147 26.1404 96.9346 26.3905 97.1703C26.6405 97.4055 26.9795 97.5379 27.3331 97.5379H84.656C85.01 97.5379 85.3487 97.4055 85.5991 97.1703C85.8489 96.9346 85.9896 96.6147 85.9896 96.2815V42.2564C85.9896 41.9232 85.8489 41.6036 85.5991 41.368C85.3487 41.1324 85.01 41 84.656 41ZM65.9929 77.4357C65.9929 77.7689 65.8525 78.0884 65.6025 78.3241C65.3525 78.5597 65.0134 78.692 64.6598 78.692H47.3295C46.976 78.692 46.6369 78.5597 46.3869 78.3241C46.1369 78.0884 45.9964 77.7689 45.9964 77.4357V61.1024C45.9964 60.7692 46.1369 60.4496 46.3869 60.214C46.6369 59.9784 46.976 59.846 47.3295 59.846H64.6598C65.0134 59.846 65.3525 59.9784 65.6025 60.214C65.8525 60.4496 65.9929 60.7692 65.9929 61.1024V77.4357Z" fill="white"/>
<path d="M204.66 59.8484H187.329C186.593 59.8484 185.996 60.4109 185.996 61.1048V77.438C185.996 78.1319 186.593 78.6944 187.329 78.6944H204.66C205.396 78.6944 205.993 78.1319 205.993 77.438V61.1048C205.993 60.4109 205.396 59.8484 204.66 59.8484Z" fill="white"/>
<path d="M184.668 41.001H167.338C166.602 41.001 166.005 41.5635 166.005 42.2574V58.5906C166.005 59.2845 166.602 59.847 167.338 59.847H184.668C185.404 59.847 186.002 59.2845 186.002 58.5906V42.2574C186.002 41.5635 185.404 41.001 184.668 41.001Z" fill="white"/>
<path d="M224.667 41.001H207.336C206.6 41.001 206.003 41.5635 206.003 42.2574V58.5906C206.003 59.2845 206.6 59.847 207.336 59.847H224.667C225.403 59.847 226 59.2845 226 58.5906V42.2574C226 41.5635 225.403 41.001 224.667 41.001Z" fill="white"/>
<path d="M184.668 78.6938H167.338C166.602 78.6938 166.005 79.2563 166.005 79.9502V96.2836C166.005 96.9773 166.602 97.54 167.338 97.54H184.668C185.404 97.54 186.002 96.9773 186.002 96.2836V79.9502C186.002 79.2563 185.404 78.6938 184.668 78.6938Z" fill="white"/>
<path d="M224.667 78.6938H207.336C206.6 78.6938 206.003 79.2563 206.003 79.9502V96.2836C206.003 96.9773 206.6 97.54 207.336 97.54H224.667C225.403 97.54 226 96.9773 226 96.2836V79.9502C226 79.2563 225.403 78.6938 224.667 78.6938Z" fill="white"/>
<path d="M154.649 41.001H137.319C136.583 41.001 135.985 41.5635 135.985 42.2574V58.5906C135.985 59.2845 136.583 59.847 137.319 59.847H154.649C155.385 59.847 155.982 59.2845 155.982 58.5906V42.2574C155.982 41.5635 155.385 41.001 154.649 41.001Z" fill="white"/>
<path d="M154.649 78.6938H137.319C136.583 78.6938 135.985 79.2563 135.985 79.9502V96.2836C135.985 96.9773 136.583 97.54 137.319 97.54H154.649C155.385 97.54 155.982 96.9773 155.982 96.2836V79.9502C155.982 79.2563 155.385 78.6938 154.649 78.6938Z" fill="white"/>
<path d="M135.98 61.0883C135.98 60.7551 135.839 60.4355 135.589 60.1999C135.339 59.9643 135 59.8319 134.647 59.8319H115.983V42.2564C115.983 41.9232 115.842 41.6036 115.592 41.368C115.343 41.1324 115.003 41 114.65 41H97.3199C96.9659 41 96.6272 41.1324 96.3768 41.368C96.127 41.6036 95.9863 41.9232 95.9863 42.2564V96.2534C95.9863 96.5866 96.127 96.9061 96.3768 97.1418C96.6272 97.3775 96.9659 97.5098 97.3199 97.5098H114.65C115.003 97.5098 115.343 97.3775 115.592 97.1418C115.842 96.9061 115.983 96.5866 115.983 96.2534V78.6779H134.647C135 78.6779 135.339 78.5455 135.589 78.3099C135.839 78.0743 135.98 77.7547 135.98 77.4215V61.0883Z" fill="white"/>
</g>
</g>
<defs>
<filter id="filter0_d_697_1930" x="0" y="0" width="252" height="145" filterUnits="userSpaceOnUse" color-interpolation-filters="sRGB">
<feFlood flood-opacity="0" result="BackgroundImageFix"/>
<feColorMatrix in="SourceAlpha" type="matrix" values="0 0 0 0 0 0 0 0 0 0 0 0 0 0 0 0 0 0 127 0" result="hardAlpha"/>
<feOffset dy="4"/>
<feGaussianBlur stdDeviation="2"/>
<feComposite in2="hardAlpha" operator="out"/>
<feColorMatrix type="matrix" values="0 0 0 0 0 0 0 0 0 0 0 0 0 0 0 0 0 0 0.15 0"/>
<feBlend mode="normal" in2="BackgroundImageFix" result="effect1_dropShadow_697_1930"/>
<feBlend mode="normal" in="SourceGraphic" in2="effect1_dropShadow_697_1930" result="shape"/>
</filter>
<filter id="filter1_d_697_1930" x="0" y="0" width="252" height="145" filterUnits="userSpaceOnUse" color-interpolation-filters="sRGB">
<feFlood flood-opacity="0" result="BackgroundImageFix"/>
<feColorMatrix in="SourceAlpha" type="matrix" values="0 0 0 0 0 0 0 0 0 0 0 0 0 0 0 0 0 0 127 0" result="hardAlpha"/>
<feOffset dy="4"/>
<feGaussianBlur stdDeviation="2"/>
<feComposite in2="hardAlpha" operator="out"/>
<feColorMatrix type="matrix" values="0 0 0 0 0 0 0 0 0 0 0 0 0 0 0 0 0 0 0.25 0"/>
<feBlend mode="normal" in2="BackgroundImageFix" result="effect1_dropShadow_697_1930"/>
<feBlend mode="normal" in="SourceGraphic" in2="effect1_dropShadow_697_1930" result="shape"/>
</filter>
<clipPath id="clip0_697_1930">
<rect width="200" height="56.5401" fill="white" transform="translate(26 41)"/>
</clipPath>
</defs>
</svg>
