<svg width="252" height="145" viewBox="0 0 252 145" fill="none" xmlns="http://www.w3.org/2000/svg">
<g filter="url(#filter0_d_761_1586)">
<rect x="4" width="244" height="137" rx="8" fill="#1D1D1B"/>
</g>
<path d="M81.3438 71.792C81.3438 65.4013 86.0249 60.8076 92.4649 60.8076C98.9049 60.8076 103.586 65.4013 103.586 71.792C103.586 78.1827 98.9049 82.7764 92.4649 82.7764C86.0655 82.7764 81.3438 78.1827 81.3438 71.792ZM98.932 71.792C98.932 67.8063 96.3614 64.7933 92.4514 64.7933C88.5414 64.7933 86.0114 67.8063 86.0114 71.792C86.0114 75.7372 88.5414 78.7907 92.4514 78.7907C96.3614 78.7501 98.932 75.7372 98.932 71.792Z" fill="white"/>
<path d="M105.318 79.3987L107.767 75.9399C109.269 77.4801 111.596 78.7907 114.532 78.7907C117.021 78.7907 118.239 77.6558 118.239 76.4263C118.239 72.6837 105.981 75.2508 105.981 67.2388C105.981 63.699 109.039 60.7671 114.045 60.7671C117.427 60.7671 120.228 61.7804 122.352 63.7395L119.822 67.0362C118.117 65.4554 115.79 64.7123 113.639 64.7123C111.691 64.7123 110.622 65.5635 110.622 66.82C110.622 70.1977 122.839 67.9144 122.839 75.8453C122.839 79.75 120.065 82.6818 114.329 82.6818C110.257 82.7629 107.321 81.3848 105.318 79.3987Z" fill="white"/>
<path d="M144.419 82.398V67.5225L138.439 82.4116H136.436L130.456 67.5225V82.4116H125.938V61.1318H132.296L137.465 73.9807L142.633 61.1318H149.032V82.3575H144.432V82.398H144.419Z" fill="white"/>
<path d="M152.158 71.792C152.158 65.4013 156.839 60.8076 163.279 60.8076C169.719 60.8076 174.401 65.4013 174.401 71.792C174.401 78.1827 169.719 82.7764 163.279 82.7764C156.839 82.7629 152.158 78.1692 152.158 71.792ZM169.746 71.792C169.746 67.8063 167.176 64.7933 163.266 64.7933C159.356 64.7933 156.839 67.8063 156.839 71.792C156.839 75.7372 159.369 78.7907 163.266 78.7907C167.176 78.7501 169.746 75.7372 169.746 71.792Z" fill="white"/>
<path d="M176.131 79.3987L178.58 75.9399C180.081 77.4801 182.409 78.7907 185.344 78.7907C187.834 78.7907 189.051 77.6558 189.051 76.4263C189.051 72.6837 176.794 75.2508 176.794 67.2388C176.794 63.699 179.851 60.7671 184.857 60.7671C188.24 60.7671 191.04 61.7804 193.164 63.7395L190.634 67.0362C188.93 65.4554 186.603 64.7123 184.451 64.7123C182.503 64.7123 181.434 65.5635 181.434 66.82C181.434 70.1977 193.651 67.9144 193.651 75.8453C193.651 79.75 190.878 82.6818 185.141 82.6818C181.056 82.7629 178.133 81.3848 176.131 79.3987Z" fill="white"/>
<path d="M196.697 82.398V61.1318H201.257V82.3575H196.697V82.398Z" fill="white"/>
<path d="M204.029 79.3987L206.478 75.9399C207.98 77.4801 210.307 78.7907 213.243 78.7907C215.732 78.7907 216.95 77.6558 216.95 76.4263C216.95 72.6837 204.692 75.2508 204.692 67.2388C204.692 63.699 207.75 60.7671 212.756 60.7671C216.138 60.7671 218.939 61.7804 221.063 63.7395L218.533 67.0362C216.828 65.4554 214.501 64.7123 212.35 64.7123C210.402 64.7123 209.333 65.5635 209.333 66.82C209.333 70.1977 221.55 67.9144 221.55 75.8453C221.55 79.75 218.776 82.6818 213.04 82.6818C208.913 82.7629 205.978 81.3848 204.029 79.3987Z" fill="white"/>
<path d="M73.3214 53.3633C72.8344 51.5123 71.292 49.6478 68.4914 47.5941C66.2455 45.9458 63.8779 45 61.9838 45C61.6049 45 61.2667 45.0405 60.9149 45.1081C60.0491 45.2837 59.2914 45.9187 58.8179 46.8645C58.2361 47.9859 58.1008 49.4856 58.4796 50.4044C58.6149 50.6881 58.7908 51.0394 58.9938 51.3501C57.1673 52.4715 56.1391 52.7823 55.9902 52.8228C60.7391 54.4306 64.7032 57.7949 67.1926 62.1724L67.2332 61.7536C67.3414 60.6051 67.6796 59.2675 68.1667 57.9029C68.6538 58.0381 69.1273 58.1191 69.6144 58.1191C70.8861 58.1191 71.9955 57.5922 72.6855 56.6464C73.3485 55.6736 73.6326 54.4171 73.3214 53.3633Z" fill="#5E12A0"/>
<path d="M68.357 56.8625C71.4958 57.7407 72.7676 55.2818 72.3482 53.6469C71.9017 51.9986 70.454 50.3232 67.897 48.4317C65.3534 46.5402 62.7693 45.7701 61.1052 46.1213C59.4546 46.4726 58.9676 49.0262 59.387 50.0125C59.5629 50.3908 59.9417 50.9583 60.4558 51.5933C59.8064 52.0526 59.184 52.4039 58.6699 52.7147C61.8358 54.1468 64.5958 56.3897 66.6658 59.1864C66.9093 58.2407 67.2476 57.403 67.5587 56.6599C67.8023 56.6869 68.0729 56.7545 68.357 56.8625Z" fill="url(#paint0_radial_761_1586)"/>
<path d="M50.4026 91.1667C61.0367 91.1667 69.6685 82.4116 69.6685 71.6029C69.6685 60.7941 61.0502 52.0391 50.4026 52.0391C39.7685 52.0391 31.1367 60.7941 31.1367 71.6029C31.1367 82.4116 39.7685 91.1667 50.4026 91.1667Z" fill="url(#paint1_radial_761_1586)"/>
<path opacity="0.6" d="M70.765 52.0256C68.1402 49.2289 65.9349 48.4858 63.2832 47.8913C61.2132 47.4049 61.7679 46.216 64.2844 46.4591C63.0802 46.0403 61.9438 45.9322 61.1185 46.1079C59.4679 46.4591 58.9808 49.0127 59.4002 49.999C59.5761 50.3773 59.955 50.9448 60.4691 51.5798C59.5355 52.2148 58.7508 52.6607 58.0879 53.0119C58.3991 53.1471 58.7779 53.3227 59.2244 53.5659C60.4014 54.2009 61.6732 55.2413 61.6732 55.2413C59.7385 53.5659 60.1579 52.7958 62.8097 50.9042C63.6349 50.3098 65.1502 50.3773 66.5708 51.1204C67.9914 51.8635 69.642 53.7145 69.642 53.7145L68.0591 56.795C68.1673 56.8355 68.262 56.8626 68.3702 56.9031C69.3714 57.1868 70.1561 57.1193 70.7785 56.8626C71.4955 56.4032 73.3897 54.8629 70.765 52.0256Z" fill="#A98698"/>
<path d="M63.2563 49.5801C63.9463 49.8638 64.8392 50.3502 65.9486 51.0798C67.261 51.958 68.3975 52.9308 69.1145 53.7009C67.9104 55.3087 67.1122 57.511 66.6386 59.0513C66.8822 59.4026 67.1528 59.7538 67.3963 60.1051C67.6398 59.2269 68.0457 57.9299 68.6004 56.6463C68.7357 56.6869 68.9116 56.6869 69.0875 56.6869C69.5069 56.6869 69.9804 56.6193 70.3592 56.295C70.6298 56.0789 70.941 55.7006 70.9139 54.998C70.9139 54.3359 70.3998 53.4983 69.331 52.4714C68.5733 51.7419 67.5451 50.9312 66.5033 50.2016C63.5404 48.202 61.4704 47.648 60.5369 48.5938C59.9145 49.2288 59.9822 49.9989 60.1986 50.5529C59.1028 51.2825 58.1692 51.8094 57.5469 52.1607C57.9663 52.2958 58.3451 52.4714 58.751 52.6471C59.8469 52.0661 61.4298 51.0528 63.2563 49.5801ZM69.7639 54.5927C69.8722 54.7683 69.8992 54.9439 69.8992 55.052C69.8992 55.3628 69.791 55.4709 69.7233 55.5384C69.5881 55.6465 69.3039 55.7141 69.0739 55.7141C69.2904 55.2817 69.5204 54.9304 69.7639 54.5927ZM61.2539 49.3639C61.3622 49.2558 61.6328 49.1883 62.0792 49.2558C61.741 49.5396 61.3892 49.7828 61.051 50.026C61.0104 49.7963 61.051 49.5396 61.2539 49.3639Z" fill="#5E12A0"/>
<path d="M50.4024 50.8772C39.1324 50.8772 30 60.1592 30 71.603C30 83.0467 39.1324 92.3287 50.4024 92.3287C61.6724 92.3287 70.8047 83.0467 70.8047 71.603C70.8047 60.1592 61.6318 50.8772 50.4024 50.8772ZM50.4024 91.1668C39.7547 91.1668 31.1365 82.4117 31.1365 71.603C31.1365 60.7942 39.7547 52.0391 50.4024 52.0391C61.05 52.0391 69.6682 60.7942 69.6682 71.603C69.6682 82.4117 61.0094 91.1668 50.4024 91.1668Z" fill="#5E12A0"/>
<path opacity="0.6" d="M50.4026 91.1667C61.0367 91.1667 69.6685 82.4116 69.6685 71.6029C69.6685 60.7941 61.0502 52.0391 50.4026 52.0391C39.7685 52.0391 31.1367 60.7941 31.1367 71.6029C31.1367 82.4116 39.7685 91.1667 50.4026 91.1667Z" fill="url(#paint2_linear_761_1586)"/>
<path opacity="0.6" d="M50.2681 88.7888C39.7557 87.073 32.6257 77.0343 34.344 66.3472C35.1016 61.6184 37.4422 57.5921 40.7569 54.6873C35.9269 57.5246 32.3551 62.456 31.381 68.4819C29.6899 79.1555 36.8199 89.2077 47.3051 90.9236C53.1634 91.9099 58.8187 90.0454 62.9857 86.4109C59.2922 88.5727 54.814 89.5184 50.2681 88.7888Z" fill="#A98698"/>
<path opacity="0.6" d="M53.4749 52.3094C48.6178 51.4988 43.8961 52.6202 40.0402 55.1062C39.9725 55.1737 39.9049 55.2413 39.9049 55.2413C41.3931 54.3361 43.5578 53.5254 43.5578 53.5254C37.9702 56.8221 36.252 60.5646 36.252 60.5646C38.4167 56.2951 44.8025 53.2822 49.7949 53.0796C54.7872 52.8634 58.0614 54.3766 62.0661 57.6327C66.0572 60.9294 68.479 67.6443 68.2355 72.9676C68.0325 78.2909 65.2725 82.5874 65.2725 82.5874C67.1667 80.1014 68.3031 78.2774 69.0337 76.4264C69.169 75.8725 69.3043 75.305 69.372 74.7105C71.0767 64.0774 63.9737 54.0253 53.4749 52.3094Z" fill="url(#paint3_linear_761_1586)"/>
<path d="M68.6944 71.4272C68.6944 81.682 60.4956 90.0183 50.4027 90.0183C40.3097 90.0183 32.0703 81.682 32.0703 71.4272H68.6944Z" fill="url(#paint4_linear_761_1586)"/>
<path opacity="0.6" d="M67.2466 71.4272C67.2466 81.4388 59.4536 89.6265 49.6719 90.0183C49.9154 90.0183 50.1589 90.0183 50.3889 90.0183C60.4819 90.0183 68.6807 81.682 68.6807 71.4272H67.2466Z" fill="url(#paint5_linear_761_1586)"/>
<path opacity="0.7" d="M34.6544 71.4272H32.0703C32.0703 81.682 40.2691 90.0183 50.3621 90.0183C50.8085 90.0183 51.228 90.0183 51.6338 89.9777C42.1633 89.2752 34.6544 81.2227 34.6544 71.4272Z" fill="url(#paint6_linear_761_1586)"/>
<path d="M68.6674 71.6029C68.6674 69.4681 65.0144 68.2386 60.1574 67.8198C56.6397 67.5361 53.095 67.8874 49.0227 69.1439C45.505 70.1977 42.3391 70.0221 40.0256 69.7384C34.898 69.1439 32.0703 69.0763 32.0703 71.5894C32.0703 75.2238 39.3762 79.777 50.335 78.2097C55.8821 77.3991 58.7368 75.7642 62.0109 74.6428C65.5691 73.4539 68.6674 73.4944 68.6674 71.6029Z" fill="url(#paint7_linear_761_1586)"/>
<path d="M56.3971 62.7802C58.1153 62.7802 59.4953 61.3751 59.4953 59.6322C59.4953 57.8893 58.1018 56.4841 56.3971 56.4841C54.6788 56.4841 53.2988 57.8893 53.2988 59.6322C53.2988 61.3751 54.6788 62.7802 56.3971 62.7802Z" fill="white"/>
<path d="M61.4569 65.1176C62.1739 65.1176 62.7692 64.5231 62.7692 63.7936C62.7692 63.064 62.1875 62.4695 61.4569 62.4695C60.7263 62.4695 60.1445 63.064 60.1445 63.7936C60.1445 64.5231 60.7398 65.1176 61.4569 65.1176Z" fill="white"/>
<path opacity="0.6" d="M66.1518 57.1056C66.1112 57.1056 66.0841 57.1056 66.0841 57.1056C65.8812 57.0651 65.7459 56.8625 65.773 56.6193C66.0841 55.0115 67.3965 53.4712 67.4641 53.4037C67.5994 53.228 67.8836 53.228 68.0188 53.3631C68.1947 53.4982 68.1947 53.782 68.0594 53.9171C68.0189 53.9576 66.8147 55.3898 66.5441 56.7814C66.49 56.9976 66.3277 57.1056 66.1518 57.1056Z" fill="url(#paint8_linear_761_1586)"/>
<path opacity="0.2" d="M49.1305 86.1948C49.6582 86.1948 50.0911 85.7624 50.0911 85.2085C50.0911 84.668 49.6582 84.2222 49.1305 84.2222C48.6029 84.2222 48.1699 84.6545 48.1699 85.2085C48.1699 85.7624 48.5893 86.1948 49.1305 86.1948Z" fill="white"/>
<path opacity="0.6" d="M48.5757 85.8435C48.1968 85.4517 48.1968 84.8302 48.5757 84.4383C48.6433 84.3708 48.711 84.3302 48.7786 84.2627C48.6433 84.3032 48.5351 84.3708 48.4404 84.4789C48.0615 84.8572 48.0615 85.4922 48.4404 85.884C48.7515 86.1948 49.2386 86.2623 49.6174 86.0596C49.2657 86.1948 48.8462 86.1272 48.5757 85.8435Z" fill="url(#paint9_linear_761_1586)"/>
<path opacity="0.3" d="M49.4686 84.9382C49.5768 84.9382 49.6715 84.8436 49.6715 84.722C49.6715 84.6004 49.5768 84.5059 49.4686 84.5059C49.3603 84.5059 49.2656 84.6004 49.2656 84.722C49.2656 84.8436 49.3603 84.9382 49.4686 84.9382Z" fill="white"/>
<path opacity="0.2" d="M54.164 85.7084C54.6917 85.7084 55.1246 85.2761 55.1246 84.7221C55.1246 84.1817 54.6917 83.7358 54.164 83.7358C53.6364 83.7358 53.2034 84.1682 53.2034 84.7221C53.1899 85.2626 53.6228 85.7084 54.164 85.7084Z" fill="white"/>
<path opacity="0.6" d="M53.6089 85.3571C53.23 84.9788 53.23 84.3438 53.6089 83.952C53.6765 83.8845 53.7442 83.8439 53.8118 83.7764C53.6765 83.8169 53.5683 83.8845 53.4736 83.9925C53.0947 84.3708 53.0947 85.0059 53.4736 85.3977C53.7847 85.7084 54.2718 85.7895 54.6506 85.5733C54.2989 85.7084 53.8795 85.6409 53.6089 85.3571Z" fill="url(#paint10_linear_761_1586)"/>
<path opacity="0.3" d="M54.5018 84.4382C54.61 84.4382 54.7047 84.3436 54.7047 84.222C54.7047 84.1004 54.61 84.0059 54.5018 84.0059C54.3935 84.0059 54.2988 84.1004 54.2988 84.222C54.2988 84.3436 54.3935 84.4382 54.5018 84.4382Z" fill="white"/>
<path opacity="0.2" d="M51.6741 87.9782C52.08 87.9782 52.3911 87.654 52.3911 87.2486C52.3911 86.8433 52.0664 86.519 51.6741 86.519C51.2682 86.519 50.957 86.8433 50.957 87.2486C50.957 87.654 51.2817 87.9782 51.6741 87.9782Z" fill="white"/>
<path opacity="0.6" d="M51.2682 87.6944C50.9976 87.4107 50.9976 86.9243 51.2682 86.6406C51.3088 86.6 51.3764 86.573 51.4035 86.5325C51.2953 86.573 51.2276 86.6406 51.16 86.7081C50.8894 86.9918 50.8894 87.4782 51.16 87.762C51.4035 88.0052 51.7417 88.0457 52.0529 87.8701C51.7823 87.9781 51.4711 87.9106 51.2682 87.6944Z" fill="url(#paint11_linear_761_1586)"/>
<path opacity="0.3" d="M51.9185 87.0053C51.9997 87.0053 52.0538 86.9378 52.0538 86.8702C52.0538 86.7892 51.9861 86.7351 51.9185 86.7351C51.8509 86.7351 51.7832 86.8027 51.7832 86.8702C51.7832 86.9378 51.8373 87.0053 51.9185 87.0053Z" fill="white"/>
<path opacity="0.2" d="M56.1257 87.4514C56.5316 87.4514 56.8427 87.1271 56.8427 86.7218C56.8427 86.3165 56.518 85.9922 56.1257 85.9922C55.7198 85.9922 55.4086 86.3165 55.4086 86.7218C55.3951 87.1271 55.7198 87.4514 56.1257 87.4514Z" fill="white"/>
<path opacity="0.6" d="M55.7057 87.181C55.4351 86.8973 55.4351 86.4109 55.7057 86.1271C55.7463 86.0866 55.8139 86.0596 55.841 86.019C55.7328 86.0596 55.6651 86.1271 55.5975 86.1947C55.3269 86.4784 55.3269 86.9648 55.5975 87.2485C55.841 87.4917 56.1792 87.5323 56.4904 87.3566C56.2198 87.4512 55.9086 87.3836 55.7057 87.181Z" fill="url(#paint12_linear_761_1586)"/>
<path opacity="0.3" d="M56.3694 86.4785C56.4506 86.4785 56.5047 86.4109 56.5047 86.3434C56.5047 86.2623 56.4371 86.2083 56.3694 86.2083C56.3018 86.2083 56.2342 86.2758 56.2342 86.3434C56.2206 86.4109 56.2883 86.4785 56.3694 86.4785Z" fill="white"/>
<path opacity="0.2" d="M45.0323 85.8435C45.9118 85.8435 46.6153 85.1274 46.6153 84.2357C46.6153 83.344 45.9118 82.6279 45.0323 82.6279C44.1529 82.6279 43.4494 83.344 43.4494 84.2357C43.4359 85.1274 44.1529 85.8435 45.0323 85.8435Z" fill="white"/>
<path opacity="0.6" d="M44.1246 85.2489C43.5023 84.6139 43.5023 83.6005 44.1246 82.979C44.2329 82.8709 44.3276 82.8034 44.4629 82.7358C44.2599 82.8034 44.0841 82.952 43.9082 83.0871C43.2858 83.7221 43.2858 84.7355 43.9082 85.357C44.4223 85.8839 45.2205 85.992 45.8429 85.6002C45.2611 85.8434 44.5846 85.7353 44.1246 85.2489Z" fill="url(#paint13_linear_761_1586)"/>
<path opacity="0.3" d="M45.5726 83.7492C45.762 83.7492 45.9108 83.5871 45.9108 83.3979C45.9108 83.2088 45.762 83.0466 45.5726 83.0466C45.3832 83.0466 45.2344 83.2088 45.2344 83.3979C45.2344 83.5871 45.3832 83.7492 45.5726 83.7492Z" fill="white"/>
<path opacity="0.2" d="M59.1826 81.8848C60.062 81.8848 60.7655 81.1687 60.7655 80.277C60.7655 79.3853 60.062 78.6692 59.1826 78.6692C58.3031 78.6692 57.5996 79.3853 57.5996 80.277C57.5996 81.1687 58.3167 81.8848 59.1826 81.8848Z" fill="white"/>
<path opacity="0.6" d="M58.2633 81.2904C57.641 80.6554 57.641 79.642 58.2633 79.0205C58.3715 78.9125 58.4663 78.8449 58.6015 78.7773C58.3986 78.8449 58.2227 78.9935 58.0468 79.1286C57.4245 79.7636 57.4245 80.777 58.0468 81.3985C58.561 81.9254 59.3592 82.0335 59.9815 81.6417C59.3998 81.8849 58.7368 81.7903 58.2633 81.2904Z" fill="url(#paint14_linear_761_1586)"/>
<path opacity="0.3" d="M59.7386 79.7905C59.928 79.7905 60.0769 79.6283 60.0769 79.4392C60.0769 79.25 59.928 79.0879 59.7386 79.0879C59.5492 79.0879 59.4004 79.25 59.4004 79.4392C59.4004 79.6283 59.5492 79.7905 59.7386 79.7905Z" fill="white"/>
<defs>
<filter id="filter0_d_761_1586" x="0" y="0" width="252" height="145" filterUnits="userSpaceOnUse" color-interpolation-filters="sRGB">
<feFlood flood-opacity="0" result="BackgroundImageFix"/>
<feColorMatrix in="SourceAlpha" type="matrix" values="0 0 0 0 0 0 0 0 0 0 0 0 0 0 0 0 0 0 127 0" result="hardAlpha"/>
<feOffset dy="4"/>
<feGaussianBlur stdDeviation="2"/>
<feComposite in2="hardAlpha" operator="out"/>
<feColorMatrix type="matrix" values="0 0 0 0 0 0 0 0 0 0 0 0 0 0 0 0 0 0 0.15 0"/>
<feBlend mode="normal" in2="BackgroundImageFix" result="effect1_dropShadow_761_1586"/>
<feBlend mode="normal" in="SourceGraphic" in2="effect1_dropShadow_761_1586" result="shape"/>
</filter>
<radialGradient id="paint0_radial_761_1586" cx="0" cy="0" r="1" gradientUnits="userSpaceOnUse" gradientTransform="translate(71.7238 51.4356) scale(15.4008 15.6446)">
<stop stop-color="#FFEAFF" stop-opacity="0.6"/>
<stop offset="0.6807" stop-color="#A087C9"/>
<stop offset="1" stop-color="#10002F"/>
</radialGradient>
<radialGradient id="paint1_radial_761_1586" cx="0" cy="0" r="1" gradientUnits="userSpaceOnUse" gradientTransform="translate(63.1549 58.108) scale(37.6803 38.2768)">
<stop stop-color="#FFEAFF" stop-opacity="0.6"/>
<stop offset="0.6807" stop-color="#A087C9"/>
<stop offset="1" stop-color="#10002F"/>
</radialGradient>
<linearGradient id="paint2_linear_761_1586" x1="47.2148" y1="90.8987" x2="53.5712" y2="52.2944" gradientUnits="userSpaceOnUse">
<stop stop-color="#81FFFF"/>
<stop offset="0.6202" stop-color="white" stop-opacity="0"/>
</linearGradient>
<linearGradient id="paint3_linear_761_1586" x1="64.1423" y1="58.4917" x2="47.9858" y2="73.0847" gradientUnits="userSpaceOnUse">
<stop offset="0.2888" stop-color="white"/>
<stop offset="0.7796" stop-color="white" stop-opacity="0"/>
</linearGradient>
<linearGradient id="paint4_linear_761_1586" x1="32.0697" y1="80.7163" x2="68.699" y2="80.7163" gradientUnits="userSpaceOnUse">
<stop stop-color="#0002E9"/>
<stop offset="0.9952" stop-color="#FF00C7"/>
</linearGradient>
<linearGradient id="paint5_linear_761_1586" x1="70.5192" y1="73.1575" x2="50.3004" y2="91.9677" gradientUnits="userSpaceOnUse">
<stop offset="0.2888" stop-color="white"/>
<stop offset="0.7796" stop-color="white" stop-opacity="0"/>
</linearGradient>
<linearGradient id="paint6_linear_761_1586" x1="32.0697" y1="80.7163" x2="51.6421" y2="80.7163" gradientUnits="userSpaceOnUse">
<stop stop-color="#000292"/>
<stop offset="0.9952" stop-color="#7D00C7"/>
</linearGradient>
<linearGradient id="paint7_linear_761_1586" x1="32.1098" y1="73.1306" x2="68.6655" y2="73.1306" gradientUnits="userSpaceOnUse">
<stop stop-color="#000292"/>
<stop offset="0.9952" stop-color="#BE00C7"/>
</linearGradient>
<linearGradient id="paint8_linear_761_1586" x1="68.1124" y1="53.2541" x2="65.4248" y2="57.5534" gradientUnits="userSpaceOnUse">
<stop offset="0.2888" stop-color="white"/>
<stop offset="0.7796" stop-color="white" stop-opacity="0"/>
</linearGradient>
<linearGradient id="paint9_linear_761_1586" x1="48.1527" y1="85.223" x2="49.6105" y2="85.223" gradientUnits="userSpaceOnUse">
<stop offset="0.2888" stop-color="white"/>
<stop offset="0.7796" stop-color="white" stop-opacity="0"/>
</linearGradient>
<linearGradient id="paint10_linear_761_1586" x1="53.1793" y1="84.7326" x2="54.6373" y2="84.7326" gradientUnits="userSpaceOnUse">
<stop offset="0.2888" stop-color="white"/>
<stop offset="0.7796" stop-color="white" stop-opacity="0"/>
</linearGradient>
<linearGradient id="paint11_linear_761_1586" x1="50.9481" y1="87.2653" x2="52.0426" y2="87.2653" gradientUnits="userSpaceOnUse">
<stop offset="0.2888" stop-color="white"/>
<stop offset="0.7796" stop-color="white" stop-opacity="0"/>
</linearGradient>
<linearGradient id="paint12_linear_761_1586" x1="55.3781" y1="86.7401" x2="56.4726" y2="86.7401" gradientUnits="userSpaceOnUse">
<stop offset="0.2888" stop-color="white"/>
<stop offset="0.7796" stop-color="white" stop-opacity="0"/>
</linearGradient>
<linearGradient id="paint13_linear_761_1586" x1="43.4429" y1="84.2796" x2="45.8237" y2="84.2796" gradientUnits="userSpaceOnUse">
<stop offset="0.2888" stop-color="white"/>
<stop offset="0.7796" stop-color="white" stop-opacity="0"/>
</linearGradient>
<linearGradient id="paint14_linear_761_1586" x1="57.5836" y1="80.3245" x2="59.9645" y2="80.3245" gradientUnits="userSpaceOnUse">
<stop offset="0.2888" stop-color="white"/>
<stop offset="0.7796" stop-color="white" stop-opacity="0"/>
</linearGradient>
</defs>
</svg>
