<svg width="252" height="145" viewBox="0 0 252 145" fill="none" xmlns="http://www.w3.org/2000/svg">
<g filter="url(#filter0_d_697_1943)">
<g filter="url(#filter1_d_697_1943)">
<rect x="4" width="244" height="137" rx="8" fill="#023F97"/>
</g>
<path d="M176.556 51L173.874 59.2473H186.245L188.921 51H176.556Z" fill="white"/>
<path d="M154.859 63.3646H140.931L144.951 51H132.58L119.188 92.2238H144.931C147.833 92.2239 150.661 91.3053 153.008 89.5996C155.356 87.894 157.104 85.4889 158 82.729L161.368 72.3875C161.706 71.3567 161.796 70.2604 161.63 69.1882C161.464 68.116 161.046 67.0983 160.412 66.2183C159.777 65.3384 158.943 64.6211 157.978 64.1251C157.013 63.6291 155.944 63.3685 154.859 63.3646ZM149.107 72.032L146.321 80.6025C145.873 81.9831 145 83.1863 143.826 84.0398C142.652 84.8932 141.238 85.353 139.786 85.3532H133.788L138.701 70.2352H147.801C148.018 70.2346 148.232 70.2855 148.425 70.3837C148.618 70.4819 148.786 70.6246 148.913 70.8C149.041 70.9754 149.125 71.1785 149.158 71.3927C149.192 71.6069 149.174 71.826 149.107 72.032Z" fill="white"/>
<path d="M163.158 92.2237H175.529L184.901 63.3645H172.537L163.158 92.2237Z" fill="white"/>
<path d="M203.452 70.2352H211.77L214 63.3646H205.682L209.702 51H197.331L186.86 83.2267C186.526 84.2586 186.44 85.3549 186.611 86.4262C186.781 87.4975 187.202 88.5133 187.84 89.3907C188.478 90.268 189.314 90.9821 190.281 91.4745C191.247 91.9668 192.317 92.2236 193.401 92.2238H207.13L209.366 85.3532H200.421C200.205 85.3527 199.993 85.3013 199.801 85.203C199.609 85.1047 199.444 84.9624 199.318 84.7877C199.191 84.613 199.109 84.411 199.076 84.198C199.043 83.9851 199.061 83.7674 199.128 83.5628L203.452 70.2352Z" fill="white"/>
<path d="M69.3092 65.3876L82.8372 51H68.3462L57.1838 85.3532H47.9023C47.6871 85.3503 47.4755 85.297 47.2846 85.1976C47.0937 85.0981 46.9288 84.9553 46.8031 84.7806C46.6774 84.6058 46.5944 84.4041 46.5608 84.1915C46.5272 83.9788 46.5439 83.7613 46.6097 83.5563L57.1774 51H44.8064L34.3356 83.2396C34.0011 84.2698 33.9151 85.3644 34.0846 86.4342C34.2542 87.5039 34.6745 88.5184 35.3111 89.3946C35.9478 90.2708 36.7828 90.9839 37.7478 91.4756C38.7129 91.9673 39.7806 92.2237 40.8637 92.2238H67.3185L76.6905 63.3646L69.3092 65.3876Z" fill="white"/>
<path d="M115.071 51H86.6315L90.8715 65.3876L84.8024 63.371L75.3916 92.2238H87.7626L92.2289 78.4825H105.602C108.503 78.4813 111.328 77.562 113.675 75.8565C116.021 74.1509 117.768 71.7466 118.664 68.9877L121.592 59.9842C121.925 58.9546 122.01 57.8609 121.84 56.7923C121.67 55.7236 121.251 54.7102 120.615 53.8345C119.979 52.9588 119.146 52.2457 118.182 51.7531C117.219 51.2605 116.153 51.0025 115.071 51ZM109.331 59.661L106.991 66.8677C106.542 68.2471 105.668 69.4489 104.495 70.3011C103.321 71.1533 101.907 71.6122 100.457 71.6119H94.4587L98.925 57.8706H108.032C108.248 57.87 108.461 57.9207 108.654 58.0186C108.846 58.1164 109.013 58.2586 109.14 58.4335C109.266 58.6083 109.35 58.8107 109.383 59.0242C109.417 59.2376 109.399 59.4558 109.331 59.661Z" fill="white"/>
</g>
<defs>
<filter id="filter0_d_697_1943" x="0" y="0" width="252" height="145" filterUnits="userSpaceOnUse" color-interpolation-filters="sRGB">
<feFlood flood-opacity="0" result="BackgroundImageFix"/>
<feColorMatrix in="SourceAlpha" type="matrix" values="0 0 0 0 0 0 0 0 0 0 0 0 0 0 0 0 0 0 127 0" result="hardAlpha"/>
<feOffset dy="4"/>
<feGaussianBlur stdDeviation="2"/>
<feComposite in2="hardAlpha" operator="out"/>
<feColorMatrix type="matrix" values="0 0 0 0 0 0 0 0 0 0 0 0 0 0 0 0 0 0 0.15 0"/>
<feBlend mode="normal" in2="BackgroundImageFix" result="effect1_dropShadow_697_1943"/>
<feBlend mode="normal" in="SourceGraphic" in2="effect1_dropShadow_697_1943" result="shape"/>
</filter>
<filter id="filter1_d_697_1943" x="0" y="0" width="252" height="145" filterUnits="userSpaceOnUse" color-interpolation-filters="sRGB">
<feFlood flood-opacity="0" result="BackgroundImageFix"/>
<feColorMatrix in="SourceAlpha" type="matrix" values="0 0 0 0 0 0 0 0 0 0 0 0 0 0 0 0 0 0 127 0" result="hardAlpha"/>
<feOffset dy="4"/>
<feGaussianBlur stdDeviation="2"/>
<feComposite in2="hardAlpha" operator="out"/>
<feColorMatrix type="matrix" values="0 0 0 0 0 0 0 0 0 0 0 0 0 0 0 0 0 0 0.25 0"/>
<feBlend mode="normal" in2="BackgroundImageFix" result="effect1_dropShadow_697_1943"/>
<feBlend mode="normal" in="SourceGraphic" in2="effect1_dropShadow_697_1943" result="shape"/>
</filter>
</defs>
</svg>
