<svg width="32" height="32" viewBox="0 0 32 32" fill="none" xmlns="http://www.w3.org/2000/svg">
<path d="M16 32C24.839 32 32 24.8343 32 16.0031C32 7.17188 24.839 0 16 0C7.16097 0 0 7.16574 0 15.9969C0 24.8281 7.16097 32 16 32Z" fill="#2C7DF7"/>
<path d="M16.616 25.0305C15.3872 25.0305 14.4962 24.7191 13.9313 24.1023C13.4071 23.5772 13.1043 22.8566 13.0868 22.0994C13.081 21.8673 13.1334 21.6414 13.2324 21.4399C13.3314 21.2628 13.4654 21.1162 13.6343 21.0185C13.8265 20.9147 14.0419 20.8658 14.2632 20.8658C14.4787 20.8658 14.6942 20.9208 14.8922 21.0185C15.0611 21.1162 15.195 21.2628 15.294 21.4399C15.3988 21.6414 15.4513 21.8734 15.4454 22.0994C15.4571 22.3742 15.3814 22.649 15.23 22.8749C15.1018 23.0581 14.9271 23.1986 14.7175 23.2657C14.9213 23.5344 15.2067 23.7237 15.5211 23.7909C15.8764 23.9008 16.2491 23.9558 16.6218 23.9558C17.111 23.9619 17.5944 23.8092 18.002 23.5222C18.4271 23.2108 18.7416 22.7589 18.9047 22.2398C19.1085 21.6231 19.2075 20.9758 19.2017 20.3224C19.2192 19.6445 19.1085 18.9667 18.8814 18.3316C18.7067 17.8248 18.3806 17.3851 17.9496 17.092C17.5478 16.8233 17.0819 16.6889 16.6102 16.6889C16.1967 16.7256 15.7948 16.866 15.4454 17.1042L14.5835 17.5561V17.1042L18.4563 11.6571H13.0868V17.3118C13.0694 17.721 13.1742 18.124 13.3839 18.466C13.4829 18.6186 13.6226 18.7346 13.7799 18.814C13.9371 18.8934 14.1118 18.9301 14.2865 18.9178C14.6068 18.9117 14.9213 18.7957 15.1775 18.5881C15.4687 18.3683 15.7191 18.0935 15.923 17.782C15.9404 17.7271 15.9754 17.6782 16.022 17.6477C16.0569 17.6171 16.1035 17.5988 16.1501 17.5988C16.2433 17.6049 16.3306 17.6477 16.4005 17.7087C16.4879 17.8126 16.5403 17.953 16.5345 18.0935C16.5228 18.1912 16.5053 18.2828 16.4879 18.3744C16.2957 18.8568 15.9754 19.272 15.5677 19.5712C15.1892 19.8399 14.7349 19.9865 14.2749 19.9804C13.1101 19.9804 12.3065 19.7422 11.8581 19.2598C11.6251 18.9972 11.4504 18.6858 11.3339 18.3438C11.2174 18.008 11.1709 17.6477 11.1883 17.2874V11.6449H8.45703V10.5946H11.2116V8.2008L10.5827 7.54129V7.00391H12.4055L13.0927 7.37641V10.5946L20.1859 10.5701L20.8906 11.3152L16.5403 15.8951C16.8023 15.7852 17.0819 15.7119 17.3614 15.6875C17.9205 15.7119 18.4621 15.8768 18.9513 16.1638C19.5162 16.4447 19.9879 16.8905 20.3198 17.4462C20.6168 17.9164 20.8265 18.4415 20.9371 18.9911C21.0303 19.4247 21.0769 19.8705 21.0827 20.3162C21.0827 21.1651 20.9022 22.0017 20.547 22.765C20.2092 23.5039 19.6385 24.1023 18.9338 24.4565C18.2175 24.8412 17.4197 25.0305 16.616 25.0305Z" fill="white"/>
</svg>
