<svg width="32" height="32" viewBox="0 0 32 32" fill="none" xmlns="http://www.w3.org/2000/svg">
<path opacity="0.2" d="M5.58426 26.8946L7.18095 31.6752L18.1685 17.3417L7.18095 3L5.50195 7.682L12.8023 17.3335L5.58426 26.8946Z" fill="#FF564F"/>
<path d="M28.9985 31.6752H23.7887L12.793 17.3335L23.7805 3H28.9903L18.1674 17.3335L28.9985 31.6752Z" fill="#F08179"/>
<path d="M3 3H7.18102V31.667H3V3Z" fill="#FF564F"/>
<path d="M29.0001 31.6752H23.7903L12.8027 17.3335L23.7903 3H29.0001L18.1689 17.3335L29.0001 31.6752Z" fill="#FF564F"/>
<path d="M29.0001 31.6752H23.7903L12.8027 17.3335L23.7903 3H29.0001L18.1689 17.3335L29.0001 31.6752Z" fill="#FF564F"/>
<path d="M29.0001 31.6752H23.7903L12.8027 17.3335L23.7903 3H29.0001L18.1689 17.3335L29.0001 31.6752Z" fill="#FF564F"/>
<path d="M29.0001 31.6752H23.7903L12.8027 17.3335L23.7903 3H29.0001L18.1689 17.3335L29.0001 31.6752Z" fill="#FF564F"/>
</svg>
