<svg width="32" height="32" viewBox="0 0 32 32" fill="none" xmlns="http://www.w3.org/2000/svg">
<g clip-path="url(#clip0_1269_4269)">
<path d="M30.8455 23.6084L25.8931 28.7826C25.7855 28.895 25.6552 28.9846 25.5104 29.0459C25.3657 29.1071 25.2096 29.1387 25.0518 29.1386H1.57494C1.46292 29.1386 1.35334 29.1067 1.25966 29.0469C1.16599 28.987 1.0923 28.9019 1.04765 28.8018C1.003 28.7017 0.989331 28.5911 1.00833 28.4835C1.02733 28.376 1.07816 28.2762 1.15458 28.1964L6.11072 23.0222C6.2181 22.9101 6.34793 22.8206 6.4922 22.7594C6.6365 22.6982 6.79214 22.6665 6.94953 22.6662H30.4251C30.5371 22.6662 30.6467 22.6981 30.7404 22.7579C30.834 22.8178 30.9076 22.903 30.9525 23.003C30.997 23.1031 31.0107 23.2137 30.9917 23.3213C30.9727 23.4288 30.9219 23.5286 30.8455 23.6084ZM25.8931 13.1891C25.7855 13.0767 25.6552 12.9871 25.5104 12.9258C25.3657 12.8646 25.2096 12.833 25.0518 12.8331H1.57494C1.46292 12.8331 1.35334 12.865 1.25966 12.9248C1.16599 12.9847 1.0923 13.0699 1.04765 13.1699C1.003 13.27 0.989331 13.3807 1.00833 13.4882C1.02733 13.5957 1.07816 13.6955 1.15458 13.7753L6.11072 18.9495C6.2181 19.0616 6.34793 19.1511 6.4922 19.2123C6.6365 19.2735 6.79214 19.3053 6.94953 19.3055H30.4251C30.5371 19.3055 30.6467 19.2736 30.7404 19.2138C30.834 19.1539 30.9076 19.0687 30.9525 18.9687C30.997 18.8686 31.0107 18.758 30.9917 18.6504C30.9727 18.5429 30.9219 18.4431 30.8455 18.3633L25.8931 13.1891ZM1.57494 9.47243H25.0518C25.2096 9.47249 25.3657 9.44094 25.5104 9.37969C25.6552 9.31845 25.7855 9.22883 25.8931 9.11644L30.8455 3.94223C30.9219 3.86245 30.9727 3.76265 30.9917 3.6551C31.0107 3.54755 30.997 3.43694 30.9525 3.33686C30.9076 3.23677 30.834 3.15157 30.7404 3.09173C30.6467 3.03189 30.5371 3 30.4251 3H6.94953C6.79214 3.00026 6.6365 3.03199 6.4922 3.09322C6.34793 3.15445 6.2181 3.24389 6.11072 3.35598L1.15586 8.53019C1.07951 8.60988 1.0287 8.70959 1.00966 8.817C0.990619 8.92444 1.00418 9.03496 1.04867 9.135C1.09316 9.23504 1.16666 9.32023 1.26014 9.38017C1.35362 9.44011 1.46303 9.47216 1.57494 9.47243Z" fill="url(#paint0_linear_1269_4269)"/>
</g>
<defs>
<linearGradient id="paint0_linear_1269_4269" x1="3.53235" y1="29.7616" x2="27.4337" y2="2.10409" gradientUnits="userSpaceOnUse">
<stop offset="0.08" stop-color="#9945FF"/>
<stop offset="0.3" stop-color="#8752F3"/>
<stop offset="0.5" stop-color="#5497D5"/>
<stop offset="0.6" stop-color="#43B4CA"/>
<stop offset="0.72" stop-color="#28E0B9"/>
<stop offset="0.97" stop-color="#19FB9B"/>
</linearGradient>
<clipPath id="clip0_1269_4269">
<rect width="30" height="26.1386" fill="white" transform="translate(1 3)"/>
</clipPath>
</defs>
</svg>
