<svg width="44" height="40" viewBox="0 0 44 40" fill="none" xmlns="http://www.w3.org/2000/svg">
<path d="M33.6783 24.73L31.0883 27.14C30.5483 27.68 29.7883 27.99 28.9883 27.99C28.1883 27.99 27.4383 27.68 26.8683 27.11L24.3083 24.72C23.9083 24.34 23.8783 23.71 24.2583 23.31C24.6383 22.91 25.2683 22.89 25.6683 23.26L27.9883 25.42V17C27.9883 15.35 26.6383 14 24.9883 14H20.9883C20.4383 14 19.9883 13.55 19.9883 13C19.9883 12.45 20.4383 12 20.9883 12H24.9883C27.7483 12 29.9883 14.24 29.9883 17V25.43L32.3083 23.27C32.7083 22.89 33.3483 22.92 33.7183 23.32C34.0983 23.72 34.0683 24.36 33.6683 24.73H33.6783ZM22.9983 26H18.9983C17.3483 26 15.9983 24.65 15.9983 23V14.57L18.3183 16.73C18.5083 16.91 18.7583 17 18.9983 17C19.2683 17 19.5283 16.89 19.7283 16.68C20.1083 16.28 20.0783 15.64 19.6783 15.27L17.1183 12.88C15.9883 11.75 13.9883 11.77 12.8983 12.86L10.3183 15.27C9.91827 15.65 9.88827 16.28 10.2683 16.68C10.6483 17.09 11.2783 17.11 11.6783 16.73L13.9983 14.57V23C13.9983 25.76 16.2383 28 18.9983 28H22.9983C23.5483 28 23.9983 27.55 23.9983 27C23.9983 26.45 23.5483 26 22.9983 26Z" fill="#3E73DD"/>
</svg>
