<svg width="25" height="25" viewBox="0 0 25 25" fill="none" xmlns="http://www.w3.org/2000/svg">
<path d="M24.8202 8.96251C24.6071 8.28428 24.1814 7.69263 23.6061 7.27505C23.0308 6.85746 22.3363 6.63613 21.6254 6.64376H17.0744L15.6921 2.33543C15.4747 1.65726 15.0476 1.06565 14.4723 0.645915C13.897 0.226177 13.2032 0 12.491 0C11.7789 0 11.0851 0.226177 10.5098 0.645915C9.93452 1.06565 9.50738 1.65726 9.29 2.33543L7.90771 6.64376H3.35667C2.64807 6.64477 1.95791 6.86968 1.38477 7.28637C0.811637 7.70306 0.384838 8.29021 0.165339 8.96396C-0.0541605 9.63771 -0.055132 10.3636 0.162563 11.0379C0.380258 11.7123 0.805484 12.3005 1.3775 12.7188L5.08167 15.4271L3.67334 19.7886C3.44575 20.465 3.44286 21.1969 3.66512 21.8751C3.88737 22.5533 4.32286 23.1415 4.90667 23.5521C5.48047 23.9758 6.17583 24.2028 6.88912 24.1993C7.60241 24.1957 8.29546 23.9618 8.865 23.5323L12.491 20.8636L16.1181 23.5292C16.6909 23.9505 17.3825 24.1793 18.0935 24.1828C18.8045 24.1862 19.4983 23.9642 20.0752 23.5485C20.652 23.1328 21.0822 22.5448 21.3038 21.8693C21.5255 21.1937 21.5272 20.4652 21.3088 19.7886L19.9004 15.4271L23.6088 12.7188C24.1873 12.3058 24.6175 11.7175 24.8357 11.041C25.0539 10.3645 25.0485 9.6357 24.8202 8.96251ZM22.3796 11.0365L18.0629 14.1917C17.8856 14.321 17.7537 14.5031 17.686 14.7118C17.6183 14.9206 17.6182 15.1454 17.6858 15.3542L19.3265 20.4271C19.4095 20.6844 19.4088 20.9614 19.3244 21.2183C19.2401 21.4751 19.0765 21.6986 18.8571 21.8567C18.6377 22.0147 18.3739 22.0991 18.1036 22.0977C17.8332 22.0963 17.5703 22.0092 17.3525 21.849L13.1077 18.724C12.9289 18.5926 12.7129 18.5218 12.491 18.5218C12.2692 18.5218 12.0532 18.5926 11.8744 18.724L7.62959 21.849C7.41196 22.0114 7.14827 22.1003 6.87674 22.1027C6.6052 22.1052 6.33994 22.0211 6.11941 21.8627C5.89888 21.7042 5.73453 21.4797 5.65021 21.2216C5.56588 20.9634 5.56596 20.6852 5.65042 20.4271L7.29625 15.3542C7.36388 15.1454 7.36383 14.9206 7.29611 14.7118C7.22839 14.5031 7.09647 14.321 6.91917 14.1917L2.6025 11.0365C2.38511 10.8773 2.22358 10.6535 2.14098 10.397C2.05839 10.1406 2.05895 9.86457 2.14259 9.60845C2.22623 9.35233 2.38867 9.12918 2.60671 8.9709C2.82475 8.81262 3.08724 8.72729 3.35667 8.7271H8.66917C8.88971 8.72709 9.10455 8.65709 9.28276 8.52717C9.46097 8.39726 9.59335 8.21414 9.66084 8.00418L11.2754 2.97189C11.3583 2.71437 11.5207 2.4898 11.7394 2.33048C11.958 2.17117 12.2216 2.08533 12.4921 2.08533C12.7626 2.08533 13.0262 2.17117 13.2448 2.33048C13.4634 2.4898 13.6259 2.71437 13.7088 2.97189L15.3233 8.00418C15.3908 8.21414 15.5232 8.39726 15.7014 8.52717C15.8796 8.65709 16.0945 8.72709 16.315 8.7271H21.6275C21.8969 8.72729 22.1594 8.81262 22.3775 8.9709C22.5955 9.12918 22.7579 9.35233 22.8416 9.60845C22.9252 9.86457 22.9258 10.1406 22.8432 10.397C22.7606 10.6535 22.5991 10.8773 22.3817 11.0365H22.3796Z" fill="black"/>
</svg>
