<svg width="44" height="40" viewBox="0 0 44 40" fill="none" xmlns="http://www.w3.org/2000/svg">
<path d="M26.999 32H17.004C16.4257 31.9997 15.8543 31.8744 15.3289 31.6328C14.8036 31.3912 14.3366 31.0389 13.96 30.6C13.5887 30.1707 13.3146 29.6663 13.1563 29.1212C12.998 28.5762 12.9594 28.0034 13.043 27.442C13.5799 24.5175 15.14 21.8795 17.444 20C15.1399 18.1199 13.5802 15.4811 13.044 12.556C12.9605 11.995 12.9992 11.4226 13.1573 10.8779C13.3153 10.3333 13.5892 9.82913 13.96 9.4C14.3366 8.96115 14.8036 8.60884 15.3289 8.36721C15.8543 8.12558 16.4257 8.00031 17.004 8H26.999C27.5773 8.00051 28.1486 8.12586 28.6739 8.36748C29.1993 8.6091 29.6663 8.9613 30.043 9.4C30.4139 9.82895 30.6879 10.3328 30.8463 10.8773C31.0047 11.4218 31.0439 11.994 30.961 12.555C30.4193 15.4809 28.8561 18.1194 26.55 20C28.8548 21.8822 30.4162 24.5217 30.956 27.448C31.0389 28.0091 30.9999 28.5815 30.8414 29.1262C30.683 29.6708 30.409 30.1749 30.038 30.604C29.6615 31.0413 29.1951 31.3924 28.6707 31.6333C28.1463 31.8742 27.5761 31.9993 26.999 32ZM26.999 10H17.004C16.7139 9.99982 16.4273 10.0623 16.1635 10.1831C15.8998 10.3039 15.6653 10.4802 15.476 10.7C15.2912 10.9104 15.1546 11.1587 15.0758 11.4275C14.997 11.6963 14.978 11.9791 15.02 12.256C15.396 14.756 16.944 17.096 19.62 19.213C19.7382 19.3066 19.8338 19.4258 19.8995 19.5615C19.9651 19.6973 19.9992 19.8462 19.9992 19.997C19.9992 20.1478 19.9651 20.2967 19.8995 20.4325C19.8338 20.5682 19.7382 20.6874 19.62 20.781C16.944 22.9 15.399 25.242 15.02 27.741C14.9775 28.0184 14.9963 28.3017 15.0751 28.5711C15.1539 28.8404 15.2907 29.0892 15.476 29.3C15.6653 29.5198 15.8998 29.6961 16.1635 29.8169C16.4273 29.9377 16.7139 30.0002 17.004 30H26.999C27.2891 30.0002 27.5758 29.9378 27.8395 29.817C28.1032 29.6962 28.3377 29.5198 28.527 29.3C28.7118 29.0899 28.8484 28.842 28.9272 28.5735C29.0059 28.3051 29.025 28.0226 28.983 27.746C28.61 25.259 27.063 22.917 24.383 20.784C24.2655 20.6903 24.1706 20.5714 24.1054 20.436C24.0402 20.3006 24.0063 20.1523 24.0063 20.002C24.0063 19.8517 24.0402 19.7034 24.1054 19.568C24.1706 19.4326 24.2655 19.3137 24.383 19.22C27.064 17.087 28.611 14.745 28.983 12.257C29.0249 11.9795 29.0053 11.6963 28.9256 11.4272C28.8459 11.1582 28.7082 10.9099 28.522 10.7C28.3333 10.4808 28.0996 10.3048 27.8368 10.184C27.574 10.0632 27.2882 10.0005 26.999 10ZM25.68 28H18.317C18.1534 27.9999 17.9923 27.9597 17.8478 27.8829C17.7034 27.806 17.58 27.6949 17.4885 27.5593C17.3969 27.4236 17.3401 27.2676 17.323 27.1049C17.3058 26.9422 17.3288 26.7777 17.39 26.626C18.1731 24.9351 19.3662 23.4666 20.861 22.354L21.379 21.942C21.556 21.8012 21.7754 21.7246 22.0015 21.7246C22.2276 21.7246 22.447 21.8012 22.624 21.942L23.133 22.348C24.6257 23.465 25.8188 24.934 26.606 26.624C26.6676 26.7758 26.691 26.9403 26.674 27.1033C26.6571 27.2662 26.6005 27.4224 26.509 27.5583C26.4176 27.6942 26.2942 27.8055 26.1496 27.8826C26.005 27.9596 25.8438 27.9999 25.68 28ZM20.033 26H23.961C23.3904 25.2563 22.7316 24.5847 21.999 24C21.2632 24.5824 20.6027 25.2543 20.033 26Z" fill="black"/>
</svg>
