<svg xmlns="http://www.w3.org/2000/svg" xmlns:xlink="http://www.w3.org/1999/xlink" width="43" height="29" viewBox="0 0 43 29"><defs><clipPath id="a"><rect width="43" height="29" fill="#fff"/></clipPath></defs><g clip-path="url(#a)"><path d="M4.37,33.333l2.175,8.319c1.006,3.826,10.572,4.656,21.381,1.848S46.683,35.32,45.678,31.494L43.5,23.174Z" transform="translate(-3.267 -17.321)" fill="#ebba43"/><path d="M5.87,42.129a4.814,4.814,0,0,1-3.042-3.036L.653,30.781a.947.947,0,0,1,.679-1.156L40.464,19.474a.945.945,0,0,1,1.153.676l2.175,8.319c.6,2.263-1.12,4.892-4.832,7.408a45.336,45.336,0,0,1-13.6,5.755A45.433,45.433,0,0,1,10.677,43.22,15.768,15.768,0,0,1,5.87,42.137ZM2.722,31.221l1.938,7.4c.36,1.392,2.674,2.41,6.181,2.711a43.374,43.374,0,0,0,14.047-1.539A43.358,43.358,0,0,0,37.9,34.306c2.911-1.97,4.432-3.972,4.064-5.373l-1.938-7.4Z" transform="translate(-0.465 -14.533)"/><path d="M21.126,82.815a.481.481,0,0,1-.27-.317l-1.9-7.253A.474.474,0,0,1,19.875,75l1.9,7.253a.478.478,0,0,1-.335.578.5.5,0,0,1-.311-.024Z" transform="translate(-14.159 -55.797)"/><path d="M57.366,88.118a.481.481,0,0,1-.27-.317l-1.717-6.561A.474.474,0,0,1,56.295,81l1.717,6.561a.478.478,0,0,1-.335.578.506.506,0,0,1-.311-.024Z" transform="translate(-41.381 -60.278)"/><path d="M90.969,83.227a.481.481,0,0,1-.27-.317L88.983,76.34A.474.474,0,0,1,89.9,76.1l1.717,6.569a.478.478,0,0,1-.335.578.508.508,0,0,1-.311-.024Z" transform="translate(-66.497 -56.616)"/><path d="M122.843,71.848a.481.481,0,0,1-.27-.317l-1.9-7.245a.474.474,0,0,1,.916-.244l1.9,7.245a.478.478,0,0,1-.335.578.507.507,0,0,1-.311-.024Z" transform="translate(-90.186 -47.606)"/><path d="M152.658,52.518a.481.481,0,0,1-.27-.317l-1.9-7.253a.474.474,0,0,1,.916-.244l1.9,7.253a.478.478,0,0,1-.335.578.507.507,0,0,1-.311-.024Z" transform="translate(-112.472 -33.152)"/><path d="M25.635,22.09c10.806-2.8,18.574-8.869,17.349-13.546S32.007,2.35,21.2,5.154,2.627,14.023,3.851,18.7,14.828,24.895,25.635,22.09Z" transform="translate(-2.784 -2.801)" fill="#f6d946"/><path d="M4.223,20.231C2.032,19.279.634,17.887.176,16.136c-.695-2.646.9-5.649,4.5-8.458A37.941,37.941,0,0,1,18.2,1.443C29.685-1.536,39.758.246,41.14,5.505S34.6,17.219,23.111,20.207A38.023,38.023,0,0,1,8.238,21.338a16.608,16.608,0,0,1-4.023-1.107ZM36.3,3.128c-3.581-1.555-9.983-1.848-17.62.138a36.033,36.033,0,0,0-12.837,5.9c-2.919,2.279-4.317,4.648-3.827,6.5s2.862,3.24,6.533,3.81a36.13,36.13,0,0,0,14.1-1.091c11.153-2.9,17.628-8.751,16.672-12.4a4.762,4.762,0,0,0-3.009-2.849Z" transform="translate(-0.012 -0.002)"/><path d="M32.889,26.881c9.36-2.429,16.248-7.068,15.386-10.361s-9.149-3.994-18.509-1.565S13.518,22.023,14.38,25.316,23.529,29.31,32.889,26.881Z" transform="translate(-10.694 -10.096)" fill="#f6d946"/><path d="M14.938,26.426a3.808,3.808,0,0,1-2.4-2.353c-.94-3.6,5.969-8.4,15.723-10.933a39.181,39.181,0,0,1,12.6-1.376c3.712.317,6.018,1.473,6.484,3.281.94,3.6-5.969,8.4-15.723,10.932-7.032,1.823-13.352,1.9-16.688.456Zm29.64-12.9a12.338,12.338,0,0,0-3.794-.83A38.15,38.15,0,0,0,28.5,14.045C18.642,16.6,12.755,21.167,13.45,23.829s8.07,3.785,17.931,1.221,15.748-7.131,15.053-9.785A2.9,2.9,0,0,0,44.577,13.524Z" transform="translate(-9.304 -8.729)"/></g></svg>