<svg xmlns="http://www.w3.org/2000/svg" xmlns:xlink="http://www.w3.org/1999/xlink" width="65.476" height="56.731" viewBox="0 0 65.476 56.731"><defs><clipPath id="a"><rect width="61.212" height="51.593" transform="translate(0 -0.05)" fill="#fff"/></clipPath></defs><g transform="matrix(0.996, 0.087, -0.087, 0.996, 4.492, 0.05)" clip-path="url(#a)"><path d="M8.653,49.211l6.952,10.61c3.2,4.883,16.939,1.566,30.694-7.413s22.3-20.219,19.1-25.1L58.449,16.7Z" transform="translate(-6.175 -11.921)" fill="#ebba43"/><path d="M16.656,59.937c-2.645-.232-4.585-1.177-5.662-2.817L4.042,46.5a1.386,1.386,0,0,1-.195-1.047,1.406,1.406,0,0,1,.6-.88l49.8-32.516a1.4,1.4,0,0,1,1.931.408l6.952,10.61c1.894,2.891.743,7.376-3.248,12.621-3.7,4.865-9.476,9.98-16.261,14.409s-13.792,7.654-19.742,9.1A23.013,23.013,0,0,1,16.656,59.937ZM7.133,46.148l6.191,9.442c1.16,1.779,4.864,2.113,9.894.9,5.643-1.362,12.354-4.457,18.869-8.72s12.047-9.146,15.565-13.76c3.137-4.114,4.307-7.635,3.137-9.415L54.6,15.152Z" transform="translate(-2.725 -8.45)"/><path d="M38.639,147.886a.7.7,0,0,1-.52-.315l-6.061-9.248a.7.7,0,0,1,1.169-.76l6.061,9.248a.7.7,0,0,1-.64,1.075Z" transform="translate(-22.795 -97.946)"/><path d="M85.349,139.314a.7.7,0,0,1-.52-.315l-5.485-8.377a.7.7,0,0,1,1.169-.76L86,138.239a.692.692,0,0,1-.2.964.634.634,0,0,1-.436.111Z" transform="translate(-56.539 -92.451)"/><path d="M124.662,119.479a.7.7,0,0,1-.52-.315l-5.485-8.377a.7.7,0,0,1,1.17-.76l5.485,8.377a.7.7,0,0,1-.641,1.075Z" transform="translate(-84.594 -78.296)"/><path d="M159.2,92.362a.7.7,0,0,1-.52-.315L152.622,82.8a.7.7,0,0,1,1.17-.76l6.061,9.248a.7.7,0,0,1-.64,1.075Z" transform="translate(-108.832 -58.323)"/><path d="M187.852,56.252a.7.7,0,0,1-.519-.315l-6.061-9.248a.7.7,0,0,1,1.17-.76l6.061,9.248a.7.7,0,0,1-.64,1.075Z" transform="translate(-129.277 -32.555)"/><path d="M37.831,35.1C51.584,26.118,59.562,14,55.65,8.027S37.418,4.5,23.665,13.48,1.934,34.582,5.846,40.552,24.078,44.081,37.831,35.1Z" transform="translate(-3.462 -3.403)" fill="#f6d946"/><path d="M8.8,41.749c-3.508-.306-6.117-1.6-7.574-3.827C-.991,34.54-.174,29.6,3.511,23.995c3.471-5.273,9.124-10.619,15.936-15.058C34.065-.617,48.962-2.831,53.362,3.878s-3.61,19.45-18.22,28.995c-6.8,4.448-13.987,7.478-20.206,8.534a24.493,24.493,0,0,1-6.126.334ZM45.491,2.821C39.755,2.33,30.7,4.906,20.979,11.254c-6.5,4.244-11.871,9.3-15.129,14.261-3,4.55-3.833,8.516-2.283,10.879s5.523,3.188,10.9,2.27c5.857-1,12.66-3.883,19.157-8.127C47.811,21.261,54.086,10.049,51.032,5.4,50.067,3.924,48.136,3.044,45.491,2.821Z" transform="translate(-0.002 -0.011)"/><path d="M45.084,40.662C57,32.882,64.423,23.169,61.67,18.968s-14.641-1.3-26.554,6.479S15.777,42.94,18.53,47.141,33.172,48.442,45.084,40.662Z" transform="translate(-12.814 -12.168)" fill="#f6d946"/><path d="M20.706,47.958c-2.07-.176-3.62-.89-4.455-2.168-3.007-4.6,4.362-14.539,16.79-22.656a57.829,57.829,0,0,1,16.93-7.83c5.328-1.3,9.087-.751,10.59,1.547,3.007,4.6-4.362,14.539-16.781,22.656-8.947,5.847-17.728,8.914-23.065,8.451ZM55.985,16.045a18.43,18.43,0,0,0-5.68.612,56.284,56.284,0,0,0-16.493,7.636C21.244,32.493,15.193,41.63,17.42,45.03s13.041,1.52,25.589-6.681S61.619,21.012,59.391,17.62A4.308,4.308,0,0,0,55.985,16.045Z" transform="translate(-11.118 -10.436)"/></g></svg>