<svg xmlns="http://www.w3.org/2000/svg" xmlns:xlink="http://www.w3.org/1999/xlink" width="127.799" height="130.138" viewBox="0 0 127.799 130.138"><defs><clipPath id="a"><rect width="99.61" height="83.784" fill="#fff"/></clipPath></defs><g transform="matrix(0.629, 0.777, -0.777, 0.629, 65.112, 0)" clip-path="url(#a)"><path d="M8.653,69.545l11.3,17.245c5.2,7.937,27.531,2.545,49.888-12.049s36.251-32.863,31.046-40.8L89.587,16.7Z" transform="translate(-4.625 -8.924)" fill="#ebba43"/><path d="M24.684,90.018c-4.3-.377-7.452-1.913-9.2-4.579L4.183,68.18a2.252,2.252,0,0,1-.317-1.7,2.286,2.286,0,0,1,.981-1.431L85.781,12.2a2.272,2.272,0,0,1,3.138.663l11.3,17.245c3.078,4.7,1.207,11.989-5.28,20.513-6.019,7.907-15.4,16.221-26.43,23.42S46.091,86.479,36.421,88.828A37.4,37.4,0,0,1,24.684,90.018ZM9.206,67.607,19.268,82.954c1.886,2.892,7.9,3.434,16.081,1.461,9.172-2.214,20.079-7.244,30.669-14.173C76.624,63.33,85.6,55.378,91.317,47.878c5.1-6.687,7-12.41,5.1-15.3L86.354,17.229Z" transform="translate(-2.041 -6.324)"/><path d="M42.826,154.54a1.132,1.132,0,0,1-.845-.512L32.13,139a1.133,1.133,0,0,1,1.9-1.235l9.851,15.031a1.134,1.134,0,0,1-1.041,1.747Z" transform="translate(-17.075 -73.362)"/><path d="M89.176,145.424a1.133,1.133,0,0,1-.845-.512L79.416,131.3a1.133,1.133,0,0,1,1.9-1.235l8.916,13.615a1.125,1.125,0,0,1-.332,1.567,1.031,1.031,0,0,1-.709.181Z" transform="translate(-42.35 -69.245)"/><path d="M128.489,125.589a1.133,1.133,0,0,1-.845-.512l-8.916-13.615a1.134,1.134,0,0,1,1.9-1.235l8.916,13.615a1.134,1.134,0,0,1-1.041,1.747Z" transform="translate(-63.365 -58.643)"/><path d="M163.389,99.016a1.131,1.131,0,0,1-.844-.512l-9.851-15.031a1.133,1.133,0,0,1,1.9-1.235l9.851,15.031a1.134,1.134,0,0,1-1.041,1.747Z" transform="translate(-81.52 -43.682)"/><path d="M192.039,62.906a1.132,1.132,0,0,1-.844-.512l-9.851-15.031a1.133,1.133,0,0,1,1.9-1.235L193.1,61.159a1.134,1.134,0,0,1-1.041,1.747Z" transform="translate(-96.834 -24.38)"/><path d="M58.453,54.072c22.353-14.6,35.32-34.3,28.962-44S57.783,4.334,35.43,18.933s-35.32,34.3-28.962,44S36.1,68.67,58.453,54.072Z" transform="translate(-2.593 -2.544)" fill="#f6d946"/><path d="M14.3,67.853c-5.7-.5-9.941-2.606-12.31-6.22C-1.612,56.135-.285,48.108,5.7,39c5.642-8.57,14.829-17.26,25.9-24.474C55.366-1.006,79.578-4.605,86.728,6.3c7.15,10.919-5.868,31.613-29.613,47.126C46.058,60.654,34.382,65.579,24.274,67.3a39.809,39.809,0,0,1-9.956.542ZM73.936,4.582C64.613,3.784,49.889,7.97,34.1,18.287,23.535,25.185,14.8,33.408,9.506,41.466c-4.873,7.4-6.23,13.841-3.711,17.681s8.976,5.181,17.71,3.69c9.519-1.627,20.577-6.311,31.136-13.209,23.066-15.076,33.264-33.3,28.3-40.86C81.373,6.374,78.235,4.943,73.936,4.582Z" transform="translate(-0.002 -0.003)"/><path d="M62.048,55.432C81.41,42.787,93.479,27,89,20.172S65.208,18.058,45.846,30.7,14.414,59.134,18.889,65.963,42.686,68.077,62.048,55.432Z" transform="translate(-9.598 -9.109)" fill="#f6d946"/><path d="M23.911,68.809c-3.364-.286-5.883-1.446-7.241-3.524-4.888-7.47,7.09-23.631,27.29-36.824,9.459-6.175,19.234-10.693,27.516-12.726,8.659-2.109,14.769-1.22,17.212,2.515,4.888,7.47-7.09,23.631-27.274,36.824C46.871,64.577,32.6,69.562,23.926,68.809Zm57.34-51.87a29.955,29.955,0,0,0-9.232.994c-8.026,1.958-17.545,6.371-26.807,12.41C24.786,43.672,14.95,58.523,18.571,64.05c3.621,5.512,21.2,2.47,41.591-10.859S90.408,25.012,86.788,19.5C85.822,18.039,83.922,17.165,81.251,16.939Z" transform="translate(-8.328 -7.812)"/></g></svg>