<svg xmlns="http://www.w3.org/2000/svg" xmlns:xlink="http://www.w3.org/1999/xlink" width="176" height="159" viewBox="0 0 176 159"><defs><clipPath id="a"><rect width="176" height="159" transform="translate(0 0.03)" fill="#fff"/></clipPath></defs><g transform="translate(0 -0.03)" clip-path="url(#a)"><path d="M29.719,151.47,52.8,180.851c10.619,13.525,50.056.29,88.079-29.562s60.23-65,49.612-78.524L167.409,43.384Z" transform="translate(-21.385 -31.186)" fill="#ebba43"/><path d="M56.368,179.715c-7.826,0-13.747-2.285-17.32-6.835L15.969,143.5a4.114,4.114,0,0,1-.843-3.028,4.156,4.156,0,0,1,1.533-2.738l137.7-108.068a4.1,4.1,0,0,1,5.758.7l23.078,29.381c6.284,8,4.044,21.449-6.32,37.866-9.612,15.221-25.237,31.7-43.99,46.424s-38.467,25.981-55.542,31.7C69.381,178.391,62.325,179.715,56.368,179.715ZM24.956,141.667,45.5,167.821c3.863,4.931,14.8,4.977,29.236.127,16.2-5.439,35.067-16.227,53.085-30.387,18.036-14.151,32.99-29.9,42.112-44.348,8.134-12.873,10.682-23.5,6.81-28.429L156.2,38.631Z" transform="translate(-10.864 -20.685)"/><path d="M123.924,472.844a2.039,2.039,0,0,1-1.614-.789l-20.122-25.61a2.047,2.047,0,0,1,3.219-2.529l20.122,25.609a2.055,2.055,0,0,1-1.605,3.318Z" transform="translate(-73.214 -318.836)"/><path d="M261.59,435.185a2.039,2.039,0,0,1-1.614-.789l-18.218-23.189a2.047,2.047,0,0,1,3.219-2.529l18.218,23.189a2.039,2.039,0,0,1-.345,2.874A2,2,0,0,1,261.59,435.185Z" transform="translate(-173.647 -293.479)"/><path d="M374.094,365.463a2.04,2.04,0,0,1-1.614-.789l-18.218-23.2a2.047,2.047,0,0,1,3.219-2.529l18.218,23.2a2.055,2.055,0,0,1-1.605,3.318Z" transform="translate(-254.603 -243.302)"/><path d="M470.448,275.19a2.04,2.04,0,0,1-1.614-.789l-20.113-25.61a2.047,2.047,0,0,1,3.219-2.529l20.113,25.609a2.055,2.055,0,0,1-1.6,3.318Z" transform="translate(-322.574 -176.608)"/><path d="M546.774,159.489a2.039,2.039,0,0,1-1.614-.789L525.038,133.09a2.047,2.047,0,0,1,3.219-2.529l20.122,25.609a2.055,2.055,0,0,1-1.605,3.318Z" transform="translate(-377.49 -93.351)"/><path d="M110.911,106.042c38.023-29.847,58.323-67.441,45.342-83.968S101.924,16.345,63.9,46.193,5.578,113.634,18.56,130.161,72.888,135.889,110.911,106.042Z" transform="translate(-10.533 -10.279)" fill="#f6d946"/><path d="M27.965,131.7c-10.356,0-18.336-3.146-23.169-9.31-7.345-9.355-6.23-24.078,3.165-41.465,8.823-16.345,24.049-33.478,42.874-48.255C91.251.947,134.343-9.342,148.943,9.242S143.311,67.233,102.9,98.97c-18.826,14.777-39.084,25.492-57.066,30.188A71.792,71.792,0,0,1,27.965,131.7ZM125.6,8.127c-16.921,0-42.847,9.881-69.707,30.976C37.94,53.2,23.476,69.426,15.169,84.8,7.543,98.925,6.11,110.782,11.243,117.31c5.133,6.545,16.985,7.959,32.527,3.9,16.912-4.415,36.109-14.6,54.073-28.71,39.247-30.813,54.772-65.316,44.652-78.216-3.2-4.07-9.1-6.164-16.894-6.164Z" transform="translate(0.001 0.029)"/><path d="M131.821,123.965c32.938-25.855,52.232-56.245,43.1-67.877s-43.245-.1-76.182,25.754-52.232,56.245-43.1,67.878S98.884,149.821,131.821,123.965Z" transform="translate(-38.405 -37.066)" fill="#f6d946"/><path d="M62.514,151c-6.112,0-10.827-1.686-13.62-5.249-9.984-12.719,9.1-43.786,43.446-70.746,16.1-12.637,33.017-22.328,47.626-27.268,15.271-5.158,26.443-4.505,31.439,1.858,9.984,12.719-9.1,43.786-43.437,70.746-24.747,19.427-49.7,30.65-65.445,30.65Zm95.261-102.62c-4.5,0-10.093,1.088-16.5,3.245-14.182,4.8-30.659,14.242-46.411,26.607-34.7,27.232-50.12,55.6-42.747,65s38.594,1.142,73.307-26.1,50.12-55.607,42.747-65C166.208,49.634,162.626,48.383,157.775,48.383Z" transform="translate(-33.278 -31.842)"/></g></svg>