<svg xmlns="http://www.w3.org/2000/svg" width="191.927" height="162.441" viewBox="0 0 191.927 162.441"><g transform="matrix(0.995, -0.105, 0.105, 0.995, -8.446, -49.657)"><path d="M35.308,131.114,17.321,163.427C9.04,178.295,36.248,209.2,78.081,232.449s82.455,30.041,90.736,15.173L186.8,215.309Z" transform="translate(-11.798 -46.279)" fill="#ebba43"/><path d="M2.375,167.98c-3-7.138-3.181-13.419-.4-18.425l17.987-32.3A4.069,4.069,0,0,1,25.5,115.67l151.479,84.211a4.053,4.053,0,0,1,1.574,5.516L160.562,237.71c-4.9,8.8-18.045,11.9-37,8.743-17.584-2.939-38.628-10.875-59.26-22.343s-38.471-25.143-50.246-38.52C8.58,179.349,4.658,173.413,2.375,167.98Zm22.709-43.238L9.074,153.507c-3.024,5.417,1.129,15.4,11.091,26.715,11.181,12.695,28.262,25.768,48.1,36.792s39.955,18.639,56.648,21.43c14.873,2.494,25.551.741,28.567-4.684l16.01-28.765Z" transform="translate(0 -34.392)"/><path d="M34.683,242.9a2.031,2.031,0,0,1,.1-1.77l15.68-28.172A2.028,2.028,0,0,1,54,214.938L38.325,243.1a2.029,2.029,0,0,1-2.76.782,2.083,2.083,0,0,1-.89-.979Z" transform="translate(-25.724 -106.492)"/><path d="M134.771,365.465a2.03,2.03,0,0,1,.1-1.77l14.2-25.5a2.028,2.028,0,0,1,3.543,1.976l-14.2,25.5a2.041,2.041,0,0,1-3.65-.2Z" transform="translate(-100.302 -199.803)"/><path d="M252.253,448.97a2.031,2.031,0,0,1,.1-1.77l14.205-25.513a2.028,2.028,0,0,1,3.543,1.976l-14.205,25.513a2.029,2.029,0,0,1-2.76.782,2.085,2.085,0,0,1-.89-.98Z" transform="translate(-187.84 -262.018)"/><path d="M379.433,507.363a2.031,2.031,0,0,1,.1-1.77l15.68-28.155a2.028,2.028,0,0,1,3.543,1.976l-15.68,28.155a2.029,2.029,0,0,1-2.76.782,2.084,2.084,0,0,1-.89-.98Z" transform="translate(-282.605 -303.559)"/><path d="M527.884,535.247a2.03,2.03,0,0,1,.1-1.77l15.68-28.164a2.028,2.028,0,0,1,3.543,1.976l-15.68,28.164a2.029,2.029,0,0,1-2.76.782,2.083,2.083,0,0,1-.89-.979Z" transform="translate(-393.22 -324.33)"/><path d="M238.28,180.42c10.117-18.175-15.6-51.753-57.43-75S96.9,78.066,86.784,96.241s15.6,51.753,57.43,75S228.163,198.6,238.28,180.42Z" transform="translate(-63.023 -11.844)" fill="#f6d946"/><path d="M71.732,107.129c-3.972-9.451-4.153-17.931-.379-24.706,5.727-10.283,19.6-14.9,39.081-13,18.309,1.786,39.79,9.114,60.5,20.631,44.462,24.714,70.376,60.082,59,80.523s-55.124,17.083-99.594-7.623c-20.715-11.509-38.265-25.891-49.447-40.488a71.164,71.164,0,0,1-9.171-15.329Zm150.276,41.723c-6.485-15.436-25.444-35.293-55.008-51.726-19.759-10.982-40.119-17.955-57.348-19.643-15.82-1.548-27.2,1.688-31.2,8.875s-.758,18.54,8.907,31.169c10.514,13.732,27.183,27.349,46.942,38.331,43.193,24,80.651,24.945,88.544,10.768C225.337,162.147,225,155.964,222.009,148.852Z" transform="translate(-51.139)"/><path d="M260.484,204.683c7.122-12.8-16.485-39.493-52.728-59.631s-71.4-26.092-78.518-13.3,16.485,39.493,52.728,59.631S253.362,217.478,260.484,204.683Z" transform="translate(-95.351 -41.733)" fill="#f6d946"/><path d="M122.082,139.454c-2.34-5.574-2.612-10.53-.428-14.432,7.786-13.979,43.473-8.479,81.269,12.53,17.715,9.846,33.05,21.569,43.16,33,10.563,11.954,14.255,22.393,10.357,29.391-7.786,13.979-43.473,8.479-81.26-12.522-27.232-15.131-47.049-33.589-53.08-47.955Zm130.237,47.584c-1.722-4.108-4.862-8.792-9.286-13.806-9.814-11.1-24.76-22.508-42.089-32.148-38.175-21.224-70-24.418-75.748-14.086s13.752,35.647,51.935,56.871,70,24.418,75.756,14.094c1.533-2.741,1.3-6.5-.552-10.917Z" transform="translate(-89.533 -35.989)"/></g></svg>