<svg xmlns="http://www.w3.org/2000/svg" xmlns:xlink="http://www.w3.org/1999/xlink" width="99" height="96" viewBox="0 0 99 96"><defs><clipPath id="a"><rect width="99" height="96" transform="translate(0.451 -0.16)" fill="#fff"/></clipPath></defs><g transform="translate(-0.451 0.161)" clip-path="url(#a)"><path d="M25.241,22.423,10.469,38.412c-6.8,7.354,4.476,28.805,25.185,47.894s43.007,28.607,49.811,21.243L100.247,91.56Z" transform="translate(-6.087 -16.18)" fill="#ebba43"/><path d="M.261,41.2c-.722-4.5.045-8.112,2.328-10.59L17.37,14.621a2.39,2.39,0,0,1,3.375-.135l75,69.146A2.388,2.388,0,0,1,95.876,87L81.1,102.992c-4.025,4.353-11.975,4.308-22.388-.126C49.052,98.747,38.115,91.293,27.9,81.884S9.375,62.173,4.493,52.9A39.814,39.814,0,0,1,.261,41.2Zm19-21.586L6.1,33.846C3.617,36.523,4.61,42.814,8.734,50.664c4.638,8.814,12.6,18.656,22.415,27.705s20.276,16.2,29.435,20.1c8.167,3.488,14.519,3.966,17,1.28L90.742,85.516Z" transform="translate(0.034 -10.001)"/><path d="M13,81.349a1.19,1.19,0,0,1,.307-1L26.183,66.405a1.193,1.193,0,0,1,1.751,1.622L15.057,81.97a1.189,1.189,0,0,1-1.687.063A1.15,1.15,0,0,1,13,81.349Z" transform="translate(-9.33 -47.616)"/><path d="M50.783,157.381a1.19,1.19,0,0,1,.307-1l11.659-12.627a1.193,1.193,0,0,1,1.751,1.622L52.84,158a1.189,1.189,0,0,1-1.687.063A1.174,1.174,0,0,1,50.783,157.381Z" transform="translate(-36.574 -103.388)"/><path d="M101.6,215.894a1.189,1.189,0,0,1,.307-1l11.668-12.627a1.193,1.193,0,0,1,1.751,1.622L103.66,216.516a1.189,1.189,0,0,1-1.687.063A1.15,1.15,0,0,1,101.6,215.894Z" transform="translate(-73.217 -145.579)"/><path d="M159.7,263.177a1.191,1.191,0,0,1,.307-1l12.877-13.934a1.193,1.193,0,0,1,1.751,1.622L161.758,263.8a1.189,1.189,0,0,1-1.687.063A1.15,1.15,0,0,1,159.7,263.177Z" transform="translate(-115.109 -178.73)"/><path d="M233.779,296.5a1.19,1.19,0,0,1,.307-1l12.877-13.943a1.193,1.193,0,0,1,1.75,1.622l-12.877,13.943a1.189,1.189,0,0,1-1.687.063A1.152,1.152,0,0,1,233.779,296.5Z" transform="translate(-168.522 -202.748)"/><path d="M136.758,81.344c8.312-8.994-1.737-31.763-22.445-50.856S70.078,3.209,61.765,12.2,63.5,43.965,84.211,63.058,128.445,90.338,136.758,81.344Z" transform="translate(-42.398 -6.177)" fill="#f6d946"/><path d="M50.59,18.607C49.633,12.65,50.7,7.774,53.8,4.421c4.71-5.083,13.292-5.8,24.166-2.019,10.224,3.56,21.5,10.725,31.755,20.18,22.009,20.3,31.926,44.109,22.586,54.23S98.4,78.948,76.38,58.66c-10.251-9.455-18.3-20.108-22.668-30a41.835,41.835,0,0,1-3.122-10.04Zm80.194,44.677c-1.57-9.734-9.665-23.713-24.3-37.205C96.7,17.057,86.017,10.252,76.4,6.9c-8.843-3.073-15.792-2.8-19.076.757s-3,10.5.776,19.062c4.106,9.31,11.758,19.4,21.54,28.426,21.377,19.711,42.682,25.434,49.17,18.422,2.048-2.217,2.707-5.8,1.985-10.284Z" transform="translate(-36.2 -0.017)"/><path d="M147.869,92.61c5.851-6.331-3.948-24.872-21.889-41.413S88.754,26.381,82.9,32.712s3.948,24.872,21.888,41.413S142.018,98.941,147.869,92.61Z" transform="translate(-58.522 -22.065)" fill="#f6d946"/><path d="M77.269,37.248c-.568-3.515-.036-6.381,1.76-8.319,6.4-6.922,26.052,1.172,44.758,18.422C132.557,55.436,139.7,64.269,143.9,72.2c4.385,8.3,5.044,14.781,1.85,18.242-6.4,6.922-26.052-1.172-44.758-18.413C87.511,59.6,78.731,46.3,77.278,37.248ZM145.182,82.5a31.008,31.008,0,0,0-3.4-9.184c-4.079-7.706-11.045-16.3-19.618-24.217C103.266,31.669,85.5,25.441,80.779,30.542S83.7,52.831,102.6,70.262,139.262,93.921,143.99,88.81c1.254-1.361,1.651-3.533,1.2-6.318Z" transform="translate(-55.525 -19.09)"/></g></svg>