<svg width="208" height="196" viewBox="0 0 208 196" fill="none" xmlns="http://www.w3.org/2000/svg">
<g clip-path="url(#clip0_721_1576)">
<path d="M17.886 140.091L42.0326 170.868C53.1438 185.031 94.4051 171.169 134.185 139.905C173.966 108.64 197.208 71.8203 186.097 57.6568L161.95 26.8804L17.886 140.091Z" fill="#EBBA43"/>
<path d="M56.7796 180.674C48.5947 180.674 42.3962 178.278 38.6541 173.512L14.5074 142.736C13.8069 141.839 13.4876 140.703 13.6206 139.568C13.7537 138.441 14.3389 137.411 15.2257 136.701L159.308 23.5082C161.17 22.0439 163.866 22.3723 165.329 24.2359L189.475 55.0123C196.055 63.3986 193.705 77.4823 182.86 94.672C172.804 110.61 156.452 127.88 136.837 143.295C117.222 158.71 96.5865 170.504 78.7271 176.503C70.4003 179.298 63.0224 180.692 56.7884 180.692L56.7796 180.674ZM23.9071 140.819L45.4024 168.214C49.446 173.379 60.8853 173.423 75.9869 168.347C92.9419 162.65 112.672 151.353 131.534 136.524C150.404 121.703 166.047 105.206 175.597 90.0751C184.11 76.5948 186.771 65.4663 182.718 60.3014L161.223 32.9062L23.9071 140.819Z" fill="black"/>
<path d="M62.2245 175.411C61.586 175.411 60.9564 175.127 60.5396 174.586L39.4878 147.759C38.7518 146.827 38.9203 145.478 39.8514 144.75C40.7825 144.014 42.1304 144.182 42.8575 145.114L63.9094 171.942C64.6454 172.873 64.4769 174.222 63.5458 174.95C63.1556 175.261 62.6856 175.411 62.2245 175.411Z" fill="black"/>
<path d="M101.189 162.535C100.551 162.535 99.921 162.251 99.5042 161.709L80.4387 137.42C79.7027 136.488 79.8712 135.139 80.8023 134.412C81.7334 133.675 83.0813 133.844 83.8084 134.776L102.874 159.065C103.61 159.997 103.441 161.346 102.51 162.073C102.12 162.384 101.65 162.535 101.189 162.535Z" fill="black"/>
<path d="M134.194 142.053C133.556 142.053 132.926 141.769 132.51 141.227L113.444 116.929C112.708 115.997 112.877 114.648 113.808 113.921C114.739 113.184 116.087 113.353 116.814 114.285L135.879 138.583C136.615 139.515 136.447 140.863 135.516 141.591C135.126 141.902 134.656 142.053 134.194 142.053Z" fill="black"/>
<path d="M163.883 117.355C163.245 117.355 162.615 117.071 162.199 116.53L141.156 89.7024C140.42 88.7706 140.588 87.4217 141.519 86.694C142.45 85.9574 143.798 86.126 144.525 87.0578L165.568 113.885C166.304 114.817 166.136 116.166 165.205 116.894C164.814 117.204 164.344 117.355 163.883 117.355Z" fill="black"/>
<path d="M186.292 83.375C185.654 83.375 185.024 83.091 184.607 82.5497L163.555 55.7224C162.819 54.7906 162.988 53.4417 163.919 52.714C164.85 51.9774 166.198 52.146 166.925 53.0778L187.977 79.9051C188.713 80.8369 188.545 82.1859 187.613 82.9136C187.223 83.2242 186.753 83.375 186.292 83.375Z" fill="black"/>
<path d="M114.182 114.412C153.964 83.1503 175.202 43.7734 161.619 26.4615C148.035 9.14954 104.774 20.4582 64.9917 51.7201C25.2094 82.9819 3.97109 122.359 17.5546 139.671C31.1381 156.983 74.3996 145.674 114.182 114.412Z" fill="#F6D946"/>
<path d="M38.4323 152.072C27.596 152.072 19.2515 148.779 14.1881 142.319C6.49982 132.521 7.67035 117.098 17.4957 98.8874C26.727 81.7686 42.6622 63.8246 62.3573 48.3476C104.638 15.1219 149.722 4.34837 165.001 23.8099C180.271 43.2804 159.112 84.5552 116.831 117.79C97.1362 133.267 75.9336 144.493 57.1253 149.409C50.3061 151.193 44.0367 152.072 38.4323 152.072ZM140.588 22.6563C122.879 22.6563 95.7618 33.0038 67.6513 55.1011C48.8607 69.8681 33.7324 86.8625 25.0421 102.97C17.0612 117.763 15.5626 130.178 20.9364 137.021C26.3102 143.872 38.7072 145.354 54.9705 141.103C72.6615 136.479 92.7556 125.803 111.546 111.036C152.612 78.7602 168.858 42.6237 158.261 29.1168C154.918 24.8571 148.755 22.6563 140.597 22.6563H140.588Z" fill="black"/>
<path d="M106.898 105.129C141.361 78.0475 161.548 46.2155 151.987 34.0305C142.426 21.8454 106.738 33.9215 72.2755 61.0033C37.8126 88.085 17.6255 119.917 27.1863 132.102C36.7471 144.287 72.4353 132.211 106.898 105.129Z" fill="#F6D946"/>
<path d="M39.7626 138.911C33.369 138.911 28.4297 137.145 25.5122 133.418C15.0661 120.097 35.0272 87.5459 70.959 59.3165C87.8076 46.0759 105.507 35.9324 120.786 30.7587C136.766 25.3541 148.454 26.0375 153.677 32.7022C164.123 46.0226 144.162 78.5651 108.23 106.803C82.3362 127.152 56.2387 138.902 39.7626 138.902V138.911ZM139.426 31.4331C134.718 31.4331 128.865 32.569 122.161 34.832C107.325 39.8549 90.0866 49.7499 73.6016 62.6976C37.2885 91.2288 21.1582 120.94 28.8731 130.782C36.5968 140.615 69.2564 131.98 105.57 103.449C141.883 74.9088 158.013 45.2062 150.298 35.3645C148.241 32.7465 144.499 31.4331 139.426 31.4331Z" fill="black"/>
</g>
<defs>
<clipPath id="clip0_721_1576">
<rect width="208" height="196" fill="white"/>
</clipPath>
</defs>
</svg>
