<svg width="120" height="117" viewBox="0 0 120 117" fill="none" xmlns="http://www.w3.org/2000/svg">
<path d="M20.9608 18.0891L4.76829 35.6155C-2.68997 43.6772 9.67452 67.1907 32.3757 88.1156C55.0769 109.041 79.5191 119.473 86.9773 111.402L103.18 93.8755L20.9608 18.0891Z" fill="#EBBA43"/>
<path d="M0.287334 45.4457C-0.503993 40.5158 0.336792 36.5541 2.83937 33.8372L19.0418 16.3108C19.5166 15.7971 20.1694 15.5007 20.8618 15.4711C21.5543 15.4414 22.2269 15.6983 22.7413 16.1626L104.95 91.9589C106.009 92.9369 106.078 94.5967 105.099 95.6538L88.8962 113.18C84.4846 117.952 75.7701 117.903 64.3552 113.042C53.7712 108.527 41.7826 100.357 30.5853 90.0422C19.388 79.7279 10.2778 68.4355 4.92649 58.2694C2.45359 53.5174 0.890721 49.2 0.287334 45.4457ZM21.1091 21.7841L6.6872 37.384C3.96701 40.3182 5.05508 47.2142 9.57554 55.8193C14.6598 65.4815 23.3842 76.2701 34.1463 86.1892C44.9083 96.1182 56.3727 103.943 66.4126 108.221C75.3645 112.044 82.3282 112.568 85.0484 109.624L99.4703 94.0237L21.1091 21.7841Z" fill="black"/>
<path d="M3.98673 48.222C3.92738 47.8367 4.03618 47.4317 4.32304 47.1254L18.4383 31.8417C18.9329 31.3082 19.7539 31.2785 20.2881 31.7725C20.8222 32.2665 20.8519 33.0865 20.3573 33.62L6.24201 48.9037C5.74743 49.4372 4.92643 49.4669 4.39228 48.9729C4.16477 48.7654 4.02629 48.4987 3.98673 48.222Z" fill="black"/>
<path d="M15.5401 70.4312C15.4807 70.0459 15.5895 69.6409 15.8764 69.3346L28.6563 55.4933C29.1509 54.9598 29.9719 54.9301 30.5061 55.4241C31.0402 55.9181 31.0699 56.7381 30.5753 57.2716L17.7954 71.1129C17.3008 71.6464 16.4798 71.6761 15.9456 71.1821C15.7181 70.9746 15.5895 70.7177 15.5401 70.4312Z" fill="black"/>
<path d="M31.0797 88.3231C31.0204 87.9378 31.1292 87.5327 31.4161 87.2264L44.2059 73.3851C44.7005 72.8516 45.5215 72.822 46.0556 73.316C46.5898 73.81 46.6194 74.63 46.1249 75.1635L33.335 89.0048C32.8404 89.5383 32.0194 89.5679 31.4853 89.0739C31.2578 88.8664 31.1193 88.5997 31.0797 88.3231Z" fill="black"/>
<path d="M48.8451 103.814C48.7858 103.429 48.8946 103.024 49.1814 102.718L63.2967 87.444C63.7913 86.9105 64.6123 86.8808 65.1465 87.3748C65.6806 87.8688 65.7103 88.6888 65.2157 89.2223L51.1004 104.496C50.6058 105.03 49.7848 105.059 49.2507 104.565C49.0232 104.358 48.8847 104.091 48.8451 103.814Z" fill="black"/>
<path d="M71.4969 114.01C71.4375 113.625 71.5463 113.22 71.8332 112.913L85.9485 97.6298C86.4431 97.0963 87.2641 97.0666 87.7982 97.5606C88.3324 98.0546 88.362 98.8746 87.8674 99.4081L73.7521 114.692C73.2576 115.225 72.4366 115.255 71.9024 114.761C71.6749 114.553 71.5364 114.287 71.4969 114.01Z" fill="black"/>
<path d="M103.399 93.6417C112.51 83.7828 101.495 58.8243 78.7945 37.8953C56.0944 16.9663 30.3057 7.9922 21.194 17.8511C12.0822 27.7099 23.0978 52.6685 45.7979 73.5975C68.4981 94.5265 94.2867 103.501 103.399 93.6417Z" fill="#F6D946"/>
<path d="M15.7381 31.6243C14.6896 25.0939 15.8568 19.7491 19.2595 16.0739C24.4229 10.5018 33.8298 9.71141 45.7492 13.8608C56.9563 17.7633 69.3208 25.6175 80.5577 35.9812C104.683 58.2301 115.554 84.332 105.316 95.4267C95.0687 106.512 68.1437 97.7682 44.0083 75.5292C32.7714 65.1656 23.9481 53.4879 19.1606 42.6401C17.4295 38.6981 16.2821 35.013 15.7381 31.6342V31.6243ZM103.645 80.5975C101.924 69.9275 93.0508 54.6043 77.0066 39.8145C66.2841 29.925 54.5725 22.466 44.028 18.7907C34.3343 15.4218 26.7177 15.7182 23.1172 19.6206C19.5068 23.5231 19.8233 31.1304 23.9679 40.516C28.4686 50.7216 36.8566 61.7867 47.5791 71.6762C71.0123 93.2829 94.3663 99.5564 101.478 91.8701C103.724 89.4397 104.446 85.5175 103.655 80.5975H103.645Z" fill="black"/>
<path d="M97.9037 88.5757C104.318 81.6356 93.5756 61.3113 73.9101 43.1803C54.2447 25.0492 33.103 15.9771 26.6888 22.9172C20.2747 29.8573 31.0169 50.1815 50.6824 68.3126C70.3478 86.4437 91.4895 95.5158 97.9037 88.5757Z" fill="#F6D946"/>
<path d="M23.7996 31.1501C23.1765 27.2971 23.7601 24.1554 25.7285 22.0313C32.7417 14.4437 54.2855 23.3156 74.7908 42.2251C84.4054 51.0871 92.2396 60.7691 96.8392 69.4632C101.646 78.5623 102.369 85.6657 98.867 89.4595C91.8538 97.047 70.3099 88.1751 49.8046 69.2755C35.0266 55.6515 25.4021 41.0692 23.8095 31.1501H23.7996ZM98.2438 80.7555C97.7888 77.9201 96.5325 74.5018 94.5147 70.6882C90.0437 62.2412 82.4073 52.8161 73.0103 44.1418C52.2973 25.0347 32.8208 18.2079 27.6475 23.7997C22.4742 29.4014 30.8524 48.2319 51.5654 67.3391C72.2882 86.4462 91.7549 93.273 96.9381 87.6713C98.313 86.1794 98.7483 83.7985 98.2537 80.7457L98.2438 80.7555Z" fill="black"/>
</svg>
