<svg width="45" height="45" viewBox="0 0 45 45" fill="none" xmlns="http://www.w3.org/2000/svg">
<g clip-path="url(#clip0_1156_1663)">
<path d="M22.5 45C26.9501 45 31.3002 43.6804 35.0003 41.2081C38.7004 38.7357 41.5843 35.2217 43.2873 31.1104C44.9903 26.9991 45.4358 22.4751 44.5677 18.1105C43.6995 13.7459 41.5566 9.73679 38.4099 6.59011C35.2632 3.44343 31.2541 1.30051 26.8895 0.432341C22.525 -0.435826 18.001 0.00974894 13.8896 1.71272C9.77829 3.41569 6.26427 6.29957 3.79193 9.99968C1.3196 13.6998 0 18.0499 0 22.5C0.00645203 28.4654 2.37905 34.1846 6.59722 38.4028C10.8154 42.621 16.5346 44.9936 22.5 45ZM11.7994 17.7469L18.5231 11.0231C19.0455 10.5007 19.6656 10.0863 20.3481 9.80354C21.0306 9.5208 21.7622 9.37527 22.5009 9.37527C23.2397 9.37527 23.9712 9.5208 24.6538 9.80354C25.3363 10.0863 25.9564 10.5007 26.4788 11.0231L33.2006 17.7469L33.2456 17.7938C33.4243 17.9692 33.5661 18.1786 33.6626 18.4098C33.759 18.6409 33.8082 18.889 33.8072 19.1394C33.8062 19.3898 33.755 19.6375 33.6567 19.8678C33.5584 20.0982 33.415 20.3065 33.2348 20.4805C33.0547 20.6544 32.8416 20.7906 32.608 20.8808C32.3744 20.9711 32.125 21.0136 31.8747 21.006C31.6244 20.9983 31.3782 20.9406 31.1506 20.8362C30.9229 20.7318 30.7185 20.5828 30.5494 20.3981L24.375 14.2238L24.3881 33.75C24.3881 34.2473 24.1906 34.7242 23.839 35.0758C23.4873 35.4275 23.0104 35.625 22.5131 35.625C22.0158 35.625 21.5389 35.4275 21.1873 35.0758C20.8357 34.7242 20.6381 34.2473 20.6381 33.75L20.625 14.2256L14.4506 20.3981C14.2777 20.5772 14.0708 20.7201 13.842 20.8183C13.6133 20.9166 13.3672 20.9683 13.1183 20.9705C12.8693 20.9726 12.6224 20.9252 12.392 20.8309C12.1615 20.7366 11.9522 20.5974 11.7761 20.4214C11.6001 20.2453 11.4609 20.036 11.3666 19.8055C11.2723 19.5751 11.2249 19.3282 11.227 19.0793C11.2292 18.8303 11.2809 18.5843 11.3792 18.3555C11.4775 18.1267 11.6203 17.9198 11.7994 17.7469Z" fill="black"/>
</g>
<defs>
<clipPath id="clip0_1156_1663">
<rect width="45" height="45" fill="white"/>
</clipPath>
</defs>
</svg>
