<svg xmlns="http://www.w3.org/2000/svg" width="543.92" height="43.225" viewBox="0 0 543.92 43.225"><g transform="translate(-508 -292)"><g transform="translate(517.537 301.95)"><path d="M9.038,1.4h2.9V3.075c0,5.025-3.575,9.475-9.575,10.65L.938,10.975c5.225-.9,8.1-4.575,8.1-7.9Zm.675,0h2.875V3.075c0,3.4,2.85,7,8.1,7.9l-1.425,2.75c-6-1.175-9.55-5.55-9.55-10.65ZM.463,17.7h20.95v2.7H.463Zm32.4-9.2h4.1v2.675h-4.1Zm-8.75,6.975h1.575A44.236,44.236,0,0,0,33.561,15l.275,2.65a44.938,44.938,0,0,1-8.15.5H24.111Zm0-12.85h8.6V5.25h-5.45v11.2h-3.15Zm2.25,6.225h5.475V11.4H26.361ZM40.161.075h3.175v23.15H40.161Zm-4.775.4h3.1V22.2h-3.1ZM62.309.05h3.35V23.275h-3.35ZM53.184,1.675c3.5,0,6.075,3.2,6.075,8.25,0,5.1-2.575,8.3-6.075,8.3s-6.075-3.2-6.075-8.3C47.109,4.875,49.684,1.675,53.184,1.675Zm0,3.025c-1.725,0-2.9,1.825-2.9,5.225,0,3.45,1.175,5.3,2.9,5.3s2.875-1.85,2.875-5.3C56.059,6.525,54.909,4.7,53.184,4.7Zm25.2-3.25h3.45c0,6.45-3,10.675-10.775,12.9l-1.25-2.625c6.55-1.775,8.575-4.85,8.575-8.825Zm-7.4,0h9.35V4.075h-9.35Zm7.55,4.325V8.05l-8.25.6-.475-2.575ZM85.332.1h3.35V13.725h-3.35Zm-4.475,14c4.85,0,7.925,1.7,7.925,4.575s-3.075,4.55-7.925,4.55c-4.875,0-7.925-1.675-7.925-4.55S75.982,14.1,80.857,14.1Zm0,2.6c-3.025,0-4.6.625-4.6,1.975,0,1.325,1.575,2,4.6,2,3,0,4.6-.675,4.6-2C85.457,17.325,83.857,16.7,80.857,16.7ZM102.9.4c5.275,0,8.375,1.4,8.375,3.95S108.18,8.3,102.9,8.3c-5.3,0-8.375-1.4-8.375-3.95S97.605.4,102.9.4Zm0,2.425c-3.35,0-4.925.5-4.925,1.525,0,1.075,1.575,1.525,4.925,1.525s4.925-.45,4.925-1.525C107.83,3.325,106.255,2.825,102.9,2.825ZM92.43,9.375h20.925V12H92.43Zm2.4,3.925h16v5.95H98.13V21.3H94.855V16.95h12.7V15.775H94.83Zm.025,7.275H111.43v2.5H94.855ZM121.58,12h20.95v2.6H121.58Zm8.8-2.475h3.325V12.95H130.38Zm-6.2-1.45H140.3V10.6H124.18Zm0-7.425h15.95V3.175H127.48V9.5h-3.3Zm2.375,3.75H139.6V6.825h-13.05Zm5.475,11.225c5.075,0,8.025,1.35,8.025,3.8,0,2.475-2.95,3.8-8.025,3.8-5.1,0-8.05-1.325-8.05-3.8C123.98,16.975,126.93,15.625,132.03,15.625Zm0,2.45c-3.225,0-4.7.4-4.7,1.35,0,.975,1.475,1.375,4.7,1.375,3.2,0,4.675-.4,4.675-1.375C136.705,18.475,135.23,18.075,132.03,18.075ZM144.578,3.55h11.075V6.2H144.578Zm5.575,3.675c2.95,0,5.075,2.275,5.075,5.525,0,3.225-2.125,5.5-5.075,5.5-2.925,0-5.075-2.275-5.075-5.5C145.078,9.5,147.228,7.225,150.153,7.225Zm0,2.775c-1.25,0-2.125,1-2.125,2.75s.875,2.725,2.125,2.725,2.15-.975,2.15-2.725S151.4,10,150.153,10ZM161.328.075H164.5v23.15h-3.175Zm-2.775,9.4h3.825V12.15h-3.825ZM156.478.5h3.1V22.25h-3.1Zm-7.95.2H151.8V5.225h-3.275ZM176.153,2h14.575V4.65H176.153Zm-2.375,15.9H194.7v2.675H173.778ZM189.4,2h3.275V4.025a47.145,47.145,0,0,1-1.05,11.1l-3.275-.35a45.024,45.024,0,0,0,1.05-10.75Zm.6,5.575v2.5l-14.125.775-.45-2.825Zm-8.8,4.775h3.325v6.525H181.2ZM212.676.1h3.35V16.725h-3.35ZM200.6,20.175h16v2.65h-16Zm0-5.125h3.325v6.2H200.6Zm2.825-13.5c3.55,0,6.275,2.45,6.275,5.875,0,3.4-2.725,5.875-6.275,5.875s-6.3-2.475-6.3-5.875C197.126,4,199.876,1.55,203.426,1.55Zm0,2.875a2.86,2.86,0,0,0-3.05,3,3.038,3.038,0,0,0,6.075,0A2.853,2.853,0,0,0,203.426,4.425ZM235.649.05H239V23.275h-3.35Zm-9.125,1.625c3.5,0,6.075,3.2,6.075,8.25,0,5.1-2.575,8.3-6.075,8.3s-6.075-3.2-6.075-8.3C220.449,4.875,223.024,1.675,226.524,1.675Zm0,3.025c-1.725,0-2.9,1.825-2.9,5.225,0,3.45,1.175,5.3,2.9,5.3s2.875-1.85,2.875-5.3C229.4,6.525,228.249,4.7,226.524,4.7ZM263.874.075h3.35v13.35h-3.35Zm2.375,5.475h4v2.7h-4Zm-6.625,8.3c4.75,0,7.825,1.775,7.825,4.7,0,2.95-3.075,4.7-7.825,4.7-4.775,0-7.85-1.75-7.85-4.7C251.774,15.625,254.849,13.85,259.624,13.85Zm0,2.65c-2.95,0-4.575.65-4.575,2.05,0,1.375,1.625,2.05,4.575,2.05,2.925,0,4.55-.675,4.55-2.05C264.174,17.15,262.549,16.5,259.624,16.5Zm-9.875-6.925h1.925c5.1,0,7.625-.125,10.4-.725l.325,2.65c-2.825.625-5.5.725-10.725.725h-1.925Zm0-7.95H260.1v2.65h-7.05v7.1h-3.3ZM287.847.1h3.35V16.975h-3.35ZM275.772,20.175h16v2.65h-16Zm0-4.825H279.1v6.2h-3.325Zm1.6-14h2.75V3.6c0,4.525-2.075,8.7-6.575,10.275l-1.675-2.65a7.827,7.827,0,0,0,5.5-7.625Zm.675,0h2.725V3.6a7.3,7.3,0,0,0,5.375,7.225l-1.7,2.65c-4.375-1.475-6.4-5.4-6.4-9.875ZM305.42.4C310.7.4,313.8,1.8,313.8,4.35S310.7,8.3,305.42,8.3c-5.3,0-8.375-1.4-8.375-3.95S300.12.4,305.42.4Zm0,2.425c-3.35,0-4.925.5-4.925,1.525,0,1.075,1.575,1.525,4.925,1.525s4.925-.45,4.925-1.525C310.345,3.325,308.77,2.825,305.42,2.825Zm-10.475,6.55H315.87V12H294.945Zm2.4,3.925h16v5.95h-12.7V21.3H297.37V16.95h12.7V15.775H297.345Zm.025,7.275h16.575v2.5H297.37ZM331.62,1c3.525,0,6.075,2.025,6.075,4.95,0,2.875-2.55,4.95-6.075,4.95-3.5,0-6.05-2.075-6.05-4.95C325.57,3.025,328.12,1,331.62,1Zm0,2.7c-1.675,0-2.875.8-2.875,2.25,0,1.425,1.2,2.225,2.875,2.225,1.7,0,2.9-.8,2.9-2.225C334.52,4.5,333.32,3.7,331.62,3.7Zm-1.55,9.5h3.325v9.325H330.07ZM340.2.075h3.3v23.15h-3.3ZM324.6,14.95l-.4-2.7a102.393,102.393,0,0,0,14.675-.8l.225,2.425A78.519,78.519,0,0,1,324.6,14.95Zm22.5-11.4h11.075V6.2H347.093Zm5.575,3.675c2.95,0,5.075,2.275,5.075,5.525,0,3.225-2.125,5.5-5.075,5.5-2.925,0-5.075-2.275-5.075-5.5C347.593,9.5,349.743,7.225,352.668,7.225Zm0,2.775c-1.25,0-2.125,1-2.125,2.75s.875,2.725,2.125,2.725,2.15-.975,2.15-2.725S353.918,10,352.668,10ZM363.843.075h3.175v23.15h-3.175Zm-2.775,9.4h3.825V12.15h-3.825ZM358.993.5h3.1V22.25h-3.1Zm-7.95.2h3.275V5.225h-3.275Zm31.774.05c3.525,0,6.175,2.2,6.175,5.3,0,3.075-2.65,5.275-6.175,5.275s-6.175-2.2-6.175-5.275C376.642,2.95,379.292.75,382.817.75Zm0,2.7c-1.7,0-2.975.95-2.975,2.6s1.275,2.6,2.975,2.6,2.95-.95,2.95-2.6S384.517,3.45,382.817,3.45ZM392.192.075h3.35V11.65h-3.35ZM380.092,12.6h15.45v6.35h-12.15v2.8h-3.25v-5.2h12.1V15.175h-12.15Zm.05,7.8h15.975v2.575H380.142Zm34-20.325h3.3v23.15h-3.3Zm2.55,9.025h4.1v2.775h-4.1Zm-17.5-5.6h13.475V6.15H399.191Zm6.775,3.95c3.375,0,5.875,2.3,5.875,5.525s-2.5,5.525-5.875,5.525-5.875-2.3-5.875-5.525S402.591,7.45,405.966,7.45Zm0,2.7a2.594,2.594,0,0,0-2.7,2.825,2.7,2.7,0,1,0,5.4,0A2.594,2.594,0,0,0,405.966,10.15ZM404.291.45h3.325V4.5h-3.325ZM439.064.075h3.175v23.15h-3.175ZM429.889,8.95h4.95v2.625h-4.95Zm4.3-8.375h3.1V22.2h-3.1ZM429.139,2.8h3.2c0,6.6-1.975,11.85-8.475,15.625L421.989,16.1c5.275-3.175,7.15-7.025,7.15-12.625Zm-5.85,0h6.9V5.45h-6.9ZM466.313.075h3.3v23.15h-3.3Zm2.55,9.025h4.1v2.775h-4.1Zm-17.5-5.6h13.475V6.15H451.363Zm6.775,3.95c3.375,0,5.875,2.3,5.875,5.525s-2.5,5.525-5.875,5.525-5.875-2.3-5.875-5.525S454.763,7.45,458.138,7.45Zm0,2.7a2.594,2.594,0,0,0-2.7,2.825,2.7,2.7,0,1,0,5.4,0A2.594,2.594,0,0,0,458.138,10.15ZM456.463.45h3.325V4.5h-3.325Zm27.123,7.4h3.825v2.7h-3.825Zm-4.95-5.775h2.55v3.9c0,5.25-1.45,10.375-5.15,12.65l-2-2.5c3.4-2.1,4.6-6.225,4.6-10.15Zm.725,0h2.5v3.75c0,3.775.975,7.625,4.125,9.675l-1.8,2.6c-3.675-2.275-4.825-7.275-4.825-12.275Zm11.825-2h3.175v23.15h-3.175Zm-4.7.35h3.1v21.75h-3.1Zm15.6,11.4h3.3v6.5h-3.3Zm8.4,0h3.325v6.5h-3.325Zm-13,6.025h20.95v2.7h-20.95ZM507.934,1.2c4.975,0,8.65,2.45,8.65,6.225s-3.675,6.2-8.65,6.2c-5,0-8.65-2.425-8.65-6.2S502.934,1.2,507.934,1.2Zm0,2.6c-3.225,0-5.375,1.325-5.375,3.625,0,2.275,2.15,3.625,5.375,3.625s5.375-1.35,5.375-3.625C513.309,5.125,511.159,3.8,507.934,3.8Zm13.7,10.875V3.075h2.75v11.6Zm0,6.325V17.575h2.75V21Z" fill="#fff"/><path d="M9.038,1.4v-10a10,10,0,0,0-10,10Zm2.9,0h10a10,10,0,0,0-10-10ZM2.363,13.725l-8.879,4.6a10,10,0,0,0,10.8,5.213ZM.938,10.975-.76,1.12A10,10,0,0,0-7.941,15.576ZM9.713,1.4v-10a10,10,0,0,0-10,10Zm2.875,0h10a10,10,0,0,0-10-10Zm8.1,9.575,8.879,4.6A10,10,0,0,0,22.378,1.119Zm-1.425,2.75-1.922,9.814a10,10,0,0,0,10.8-5.213ZM.463,17.7V7.7a10,10,0,0,0-10,10Zm20.95,0h10a10,10,0,0,0-10-10Zm0,2.7v10a10,10,0,0,0,10-10Zm-20.95,0h-10a10,10,0,0,0,10,10Zm8.575-9h2.9v-20h-2.9Zm-7.1-10V3.075h20V1.4Zm0,1.675a.25.25,0,0,1-.079.2,2.47,2.47,0,0,1-1.418.635L4.285,23.539c10.214-2,17.653-10.185,17.653-20.464Zm9.3,6.049L9.817,6.374l-17.758,9.2,1.425,2.75ZM2.635,20.83c8.979-1.547,16.4-8.575,16.4-17.755h-20A2.935,2.935,0,0,1-.309,1.054c.218-.23.194-.045-.45.066Zm16.4-17.755V1.4h-20V3.075ZM9.713,11.4h2.875v-20H9.713ZM2.588,1.4V3.075h20V1.4Zm0,1.675c0,9.286,7.434,16.217,16.41,17.756L22.378,1.119c-.713-.122-.721-.32-.466-.052a2.922,2.922,0,0,1,.677,2.008Zm9.221,3.3-1.425,2.75,17.758,9.2,1.425-2.75Zm9.376-2.463A2.485,2.485,0,0,1,19.775,3.3a.2.2,0,0,1-.042-.064.465.465,0,0,1-.02-.161h-20c0,10.363,7.424,18.465,17.628,20.464Zm-1.472-.836V1.4h-20V3.075ZM.463,27.7h20.95V7.7H.463Zm10.95-10v2.7h20V17.7Zm10-7.3H.463v20h20.95Zm-10.95,10V17.7h-20v2.7Zm22.4-11.9v-10a10,10,0,0,0-10,10Zm4.1,0h10a10,10,0,0,0-10-10Zm0,2.675v10a10,10,0,0,0,10-10Zm-4.1,0h-10a10,10,0,0,0,10,10Zm-8.75,4.3v-10a10,10,0,0,0-10,10ZM33.561,15l9.947-1.032A10,10,0,0,0,31.9,5.139Zm.275,2.65L35.542,27.5a10,10,0,0,0,8.241-10.886Zm-9.725.5h-10a10,10,0,0,0,10,10Zm0-15.525v-10a10,10,0,0,0-10,10Zm8.6,0h10a10,10,0,0,0-10-10Zm0,2.625v10a10,10,0,0,0,10-10Zm-5.45,0v-10a10,10,0,0,0-10,10Zm0,11.2v10a10,10,0,0,0,10-10Zm-3.15,0h-10a10,10,0,0,0,10,10Zm2.25-7.6v-10a10,10,0,0,0-10,10Zm5.475,0h10a10,10,0,0,0-10-10Zm0,2.55v10a10,10,0,0,0,10-10Zm-5.475,0h-10a10,10,0,0,0,10,10ZM40.161.075v-10a10,10,0,0,0-10,10Zm3.175,0h10a10,10,0,0,0-10-10Zm0,23.15v10a10,10,0,0,0,10-10Zm-3.175,0h-10a10,10,0,0,0,10,10ZM35.386.475v-10a10,10,0,0,0-10,10Zm3.1,0h10a10,10,0,0,0-10-10Zm0,21.725v10a10,10,0,0,0,10-10Zm-3.1,0h-10a10,10,0,0,0,10,10Zm-2.525-3.7h4.1v-20h-4.1Zm-5.9-10v2.675h20V8.5Zm10-7.325h-4.1v20h4.1Zm5.9,10V8.5h-20v2.675Zm-18.75,14.3h1.575v-20H24.111Zm1.575,0a53.831,53.831,0,0,0,9.535-.614L31.9,5.139a34.787,34.787,0,0,1-6.215.336Zm-2.072-9.443.275,2.65,19.893-2.064-.275-2.65ZM32.131,7.8a35.537,35.537,0,0,1-6.445.354v20a54.513,54.513,0,0,0,9.855-.646Zm-6.445.354H24.111v20h1.575Zm8.425,10V15.475h-20V18.15Zm-10-5.525h8.6v-20h-8.6Zm-1.4-10V5.25h20V2.625Zm10-7.375h-5.45v20h5.45Zm-15.45,10v11.2h20V5.25Zm10,1.2h-3.15v20h3.15Zm6.85,10V2.625h-20V16.45Zm-7.75,2.4h5.475v-20H26.361Zm-4.525-10V11.4h20V8.85Zm10-7.45H26.361v20h5.475Zm4.525,10V8.85h-20V11.4Zm3.8-1.325h3.175v-20H40.161Zm-6.825-10v23.15h20V.075Zm10,13.15H40.161v20h3.175Zm6.825,10V.075h-20v23.15ZM35.386,10.475h3.1v-20h-3.1Zm-6.9-10V22.2h20V.475Zm10,11.725h-3.1v20h3.1Zm6.9,10V.475h-20V22.2ZM62.309.05v-10a10,10,0,0,0-10,10Zm3.35,0h10a10,10,0,0,0-10-10Zm0,23.225v10a10,10,0,0,0,10-10Zm-3.35,0h-10a10,10,0,0,0,10,10Zm0-13.225h3.35v-20h-3.35Zm-6.65-10V23.275h20V.05Zm10,13.225h-3.35v20h3.35Zm6.65,10V.05h-20V23.275Zm-19.125-11.6a4.764,4.764,0,0,1-2.163-.536,4.324,4.324,0,0,1-1.466-1.2c-.537-.71-.3-.929-.3-.009h20A19.85,19.85,0,0,0,65.513-2.122a15.337,15.337,0,0,0-12.329-6.2Zm-3.925-1.75c0,.964-.251.761.283.051a4.333,4.333,0,0,1,1.471-1.212,4.774,4.774,0,0,1,2.171-.539v20A15.327,15.327,0,0,0,65.526,22,19.947,19.947,0,0,0,69.259,9.925Zm3.925-1.7a4.773,4.773,0,0,1,2.171.539,4.332,4.332,0,0,1,1.471,1.212c.534.71.283.913.283-.051h-20A19.947,19.947,0,0,0,40.842,22a15.327,15.327,0,0,0,12.342,6.226Zm3.925,1.7c0-.92.241-.7-.3.009a4.322,4.322,0,0,1-1.466,1.2,4.764,4.764,0,0,1-2.163.536v-20a15.338,15.338,0,0,0-12.329,6.2A19.85,19.85,0,0,0,37.109,9.925ZM53.184-5.3A12.364,12.364,0,0,0,42.429,1.033a17.724,17.724,0,0,0-2.145,8.892h20c0-.762.166-.1-.539,1.117a7.191,7.191,0,0,1-2.377,2.436A7.836,7.836,0,0,1,53.184,14.7ZM40.284,9.925a17.927,17.927,0,0,0,2.115,8.9,12.36,12.36,0,0,0,10.785,6.4v-20a7.858,7.858,0,0,1,4.237,1.252,7.168,7.168,0,0,1,2.354,2.441c.68,1.193.509,1.813.509,1.008Zm12.9,15.3a12.335,12.335,0,0,0,10.8-6.451,18.008,18.008,0,0,0,2.076-8.849h-20c0,.836-.175.228.5-.962a7.2,7.2,0,0,1,2.364-2.47,7.876,7.876,0,0,1,4.266-1.268Zm12.875-15.3a17.8,17.8,0,0,0-2.106-8.846A12.339,12.339,0,0,0,53.184-5.3v20a7.855,7.855,0,0,1-4.213-1.239A7.217,7.217,0,0,1,46.584,11c-.694-1.216-.525-1.864-.525-1.071ZM78.382,1.45v-10a10,10,0,0,0-10,10Zm3.45,0h10a10,10,0,0,0-10-10ZM71.057,14.35l-9.029,4.3a10,10,0,0,0,11.78,5.315Zm-1.25-2.625L67.191,2.073a10,10,0,0,0-6.413,13.951ZM70.982,1.45v-10a10,10,0,0,0-10,10Zm9.35,0h10a10,10,0,0,0-10-10Zm0,2.625v10a10,10,0,0,0,10-10Zm-9.35,0h-10a10,10,0,0,0,10,10Zm7.55,1.7h10A10,10,0,0,0,78.188-4.219Zm0,2.275.725,9.974A10,10,0,0,0,88.532,8.05Zm-8.25.6-9.834,1.814a10,10,0,0,0,10.559,8.16Zm-.475-2.575-.344-9.994A10,10,0,0,0,59.973,7.889ZM85.332.1v-10a10,10,0,0,0-10,10Zm3.35,0h10a10,10,0,0,0-10-10Zm0,13.625v10a10,10,0,0,0,10-10Zm-3.35,0h-10a10,10,0,0,0,10,10Zm-6.95-2.275h3.45v-20h-3.45Zm-6.55-10a5.513,5.513,0,0,1-.166,1.541.574.574,0,0,1-.1.225,2.3,2.3,0,0,1-.623.47,11.5,11.5,0,0,1-2.639,1.049l5.5,19.228c5.09-1.457,9.9-3.927,13.344-8.212a22.273,22.273,0,0,0,4.68-14.3Zm8.254,8.6-1.25-2.625-18.057,8.6,1.25,2.625ZM72.423,21.377c4.284-1.161,8.49-3.1,11.6-6.588A17.488,17.488,0,0,0,88.382,2.9h-20c0,.151-.02-.014.1-.361a3.112,3.112,0,0,1,.605-1.053c.234-.263.339-.272.075-.129a9.522,9.522,0,0,1-1.967.716ZM88.382,2.9V1.45h-20V2.9Zm-17.4,8.55h9.35v-20h-9.35Zm-.65-10V4.075h20V1.45Zm10-7.375h-9.35v20h9.35Zm.65,10V1.45h-20V4.075Zm-12.45,1.7V8.05h20V5.775Zm9.275-7.7-8.25.6,1.451,19.947,8.25-.6Zm2.309,8.76-.475-2.575L59.973,7.889l.475,2.575Zm-9.965,9.233,8.725-.3L78.188-4.219l-8.725.3ZM85.332,10.1h3.35v-20h-3.35ZM78.682.1V13.725h20V.1Zm10,3.625h-3.35v20h3.35Zm6.65,10V.1h-20V13.725ZM80.857,24.1c1.469,0,1.519.291.826-.1a5.555,5.555,0,0,1-1.858-1.823,6.514,6.514,0,0,1-1.044-3.5h20A13.773,13.773,0,0,0,91.593,6.623,21.7,21.7,0,0,0,80.857,4.1Zm-2.075-5.425a6.533,6.533,0,0,1,1.054-3.518,5.584,5.584,0,0,1,1.877-1.832c.692-.392.635-.1-.856-.1v20a21.772,21.772,0,0,0,10.706-2.494,13.748,13.748,0,0,0,7.219-12.056Zm2.075-5.45c-1.512,0-1.561-.295-.857.1a5.606,5.606,0,0,1,1.888,1.848,6.52,6.52,0,0,1,1.044,3.5h-20a13.745,13.745,0,0,0,7.2,12.051,21.765,21.765,0,0,0,10.724,2.5Zm2.075,5.45A6.5,6.5,0,0,1,81.9,22.152a5.58,5.58,0,0,1-1.868,1.838c-.705.4-.663.109.827.109V4.1A21.688,21.688,0,0,0,70.1,6.628a13.77,13.77,0,0,0-7.171,12.047ZM80.857,6.7a18.956,18.956,0,0,0-7.315,1.265,12.1,12.1,0,0,0-4.859,3.659,11.379,11.379,0,0,0-2.426,7.051h20a8.622,8.622,0,0,1-1.839,5.295A7.917,7.917,0,0,1,81.3,26.4c-1.106.466-1.582.3-.446.3Zm-14.6,11.975A11.375,11.375,0,0,0,68.669,25.7a12.147,12.147,0,0,0,4.779,3.647,18.728,18.728,0,0,0,7.409,1.327v-20c-1.06,0-.573-.162.541.321a7.87,7.87,0,0,1,3.034,2.4,8.625,8.625,0,0,1,1.825,5.283Zm14.6,12a18.738,18.738,0,0,0,7.387-1.321,12.172,12.172,0,0,0,4.768-3.614,11.367,11.367,0,0,0,2.445-7.064h-20a8.634,8.634,0,0,1,1.852-5.321,7.846,7.846,0,0,1,3.012-2.364c1.1-.473,1.571-.315.536-.315Zm14.6-12A11.37,11.37,0,0,0,93,11.586a12.124,12.124,0,0,0-4.848-3.627A18.966,18.966,0,0,0,80.857,6.7v20c1.111,0,.648.16-.442-.3a7.893,7.893,0,0,1-3.092-2.4,8.63,8.63,0,0,1-1.866-5.333Zm-3.027-9.3v-10a10,10,0,0,0-10,10Zm20.925,0h10a10,10,0,0,0-10-10Zm0,2.625V22a10,10,0,0,0,10-10ZM92.43,12h-10a10,10,0,0,0,10,10Zm2.4,1.3V3.3a10,10,0,0,0-10,10Zm16,0h10a10,10,0,0,0-10-10Zm0,5.95v10a10,10,0,0,0,10-10Zm-12.7,0v-10a10,10,0,0,0-10,10Zm0,2.05v10a10,10,0,0,0,10-10Zm-3.275,0h-10a10,10,0,0,0,10,10Zm0-4.35v-10a10,10,0,0,0-10,10Zm12.7,0v10a10,10,0,0,0,10-10Zm0-1.175h10a10,10,0,0,0-10-10Zm-12.725,0h-10a10,10,0,0,0,10,10Zm.025,4.8v-10a10,10,0,0,0-10,10Zm16.575,0h10a10,10,0,0,0-10-10Zm0,2.5v10a10,10,0,0,0,10-10Zm-16.575,0h-10a10,10,0,0,0,10,10ZM102.9,10.4a12.022,12.022,0,0,1,1.9.124c.408.068.364.108.041-.042a5.8,5.8,0,0,1-2.087-1.766A7.272,7.272,0,0,1,101.28,4.35h20A13.2,13.2,0,0,0,113.3-7.645,24.805,24.805,0,0,0,102.9-9.6ZM101.28,4.35a7.272,7.272,0,0,1,1.478-4.366,5.8,5.8,0,0,1,2.087-1.766c.323-.15.367-.109-.041-.042a12.009,12.009,0,0,1-1.9.124v20A24.806,24.806,0,0,0,113.3,16.345,13.2,13.2,0,0,0,121.28,4.35ZM102.9-1.7a12.1,12.1,0,0,1-1.911-.124c-.408-.067-.359-.108-.031.046A5.83,5.83,0,0,1,103.064,0,7.261,7.261,0,0,1,104.53,4.35h-20A13.193,13.193,0,0,0,92.5,16.341,24.8,24.8,0,0,0,102.9,18.3Zm1.625,6.05A7.261,7.261,0,0,1,103.064,8.7a5.831,5.831,0,0,1-2.1,1.783c-.328.154-.377.113.031.046A12.1,12.1,0,0,1,102.9,10.4v-20A24.8,24.8,0,0,0,92.5-7.641,13.193,13.193,0,0,0,84.53,4.35ZM102.9-7.175a22.881,22.881,0,0,0-6.693.831,12.229,12.229,0,0,0-4.84,2.792,10.9,10.9,0,0,0-3.392,7.9h20a9.1,9.1,0,0,1-2.8,6.561,7.813,7.813,0,0,1-3.024,1.84c-.686.214-.7.075.744.075ZM87.98,4.35a10.924,10.924,0,0,0,3.348,7.881,12.161,12.161,0,0,0,4.951,2.852,23.217,23.217,0,0,0,6.626.791v-20c-1.521,0-1.5-.136-.811.073a7.879,7.879,0,0,1,3.135,1.9,9.075,9.075,0,0,1,2.751,6.5ZM102.9,15.875a23.215,23.215,0,0,0,6.626-.791,12.158,12.158,0,0,0,4.951-2.852A10.924,10.924,0,0,0,117.83,4.35h-20a9.076,9.076,0,0,1,2.751-6.5,7.873,7.873,0,0,1,3.136-1.9c.686-.209.71-.073-.812-.073ZM117.83,4.35a10.9,10.9,0,0,0-3.391-7.9A12.233,12.233,0,0,0,109.6-6.344a22.878,22.878,0,0,0-6.693-.831v20c1.446,0,1.43.139.745-.075a7.807,7.807,0,0,1-3.025-1.84A9.105,9.105,0,0,1,97.83,4.35ZM92.43,19.375h20.925v-20H92.43Zm10.925-10V12h20V9.375Zm10-7.375H92.43V22h20.925ZM102.43,12V9.375h-20V12Zm-7.6,11.3h16V3.3h-16Zm6-10v5.95h20V13.3Zm10-4.05H98.13v20h12.7Zm-22.7,10V21.3h20V19.25Zm10-7.95H94.855v20H98.13Zm6.725,10V16.95h-20V21.3Zm-10,5.65h12.7v-20h-12.7Zm22.7-10V15.775h-20V16.95Zm-10-11.175H94.83v20h12.725Zm-2.725,10V13.3h-20v2.475Zm-9.975,14.8H111.43v-20H94.855Zm6.575-10v2.5h20v-2.5Zm10-7.5H94.855v20H111.43Zm-6.575,10v-2.5h-20v2.5ZM121.58,12V2a10,10,0,0,0-10,10Zm20.95,0h10a10,10,0,0,0-10-10Zm0,2.6v10a10,10,0,0,0,10-10Zm-20.95,0h-10a10,10,0,0,0,10,10Zm8.8-5.075v-10a10,10,0,0,0-10,10Zm3.325,0h10a10,10,0,0,0-10-10Zm0,3.425v10a10,10,0,0,0,10-10Zm-3.325,0h-10a10,10,0,0,0,10,10Zm-6.2-4.875v-10a10,10,0,0,0-10,10Zm16.125,0h10a10,10,0,0,0-10-10Zm0,2.525v10a10,10,0,0,0,10-10Zm-16.125,0h-10a10,10,0,0,0,10,10Zm0-9.95v-10a10,10,0,0,0-10,10Zm15.95,0h10a10,10,0,0,0-10-10Zm0,2.525v10a10,10,0,0,0,10-10Zm-12.65,0v-10a10,10,0,0,0-10,10Zm0,6.325v10a10,10,0,0,0,10-10Zm-3.3,0h-10a10,10,0,0,0,10,10Zm2.375-5.1v-10a10,10,0,0,0-10,10Zm13.05,0h10a10,10,0,0,0-10-10Zm0,2.425v10a10,10,0,0,0,10-10Zm-13.05,0h-10a10,10,0,0,0,10,10ZM121.58,22h20.95V2H121.58Zm10.95-10v2.6h20V12Zm10-7.4H121.58v20h20.95Zm-10.95,10V12h-20v2.6Zm-1.2,4.925h3.325v-20H130.38Zm-6.675-10V12.95h20V9.525Zm10-6.575H130.38v20h3.325Zm6.675,10V9.525h-20V12.95Zm-16.2,5.125H140.3v-20H124.18Zm6.125-10V10.6h20V8.075ZM140.3.6H124.18v20H140.3Zm-6.125,10V8.075h-20V10.6Zm-10,.05h15.95v-20H124.18Zm5.95-10V3.175h20V.65Zm10-7.475H127.48v20h12.65Zm-22.65,10V9.5h20V3.175Zm10-3.675h-3.3v20h3.3Zm6.7,10V.65h-20V9.5Zm-7.625,4.9H139.6v-20h-13.05Zm3.05-10V6.825h20V4.4Zm10-7.575h-13.05v20H139.6Zm-3.05,10V4.4h-20V6.825Zm-4.525,18.8a11.081,11.081,0,0,1,1.753.114c.361.06.274.089-.085-.079a5.992,5.992,0,0,1-2.163-1.834,7.372,7.372,0,0,1-1.48-4.4h20a13.073,13.073,0,0,0-7.861-11.872A24.12,24.12,0,0,0,132.03,5.625Zm-1.975-6.2a7.348,7.348,0,0,1,1.473-4.38,6.023,6.023,0,0,1,2.186-1.853c.364-.17.454-.141.088-.08a11.34,11.34,0,0,1-1.772.113v20a24.182,24.182,0,0,0,10.147-1.911,13.07,13.07,0,0,0,7.878-11.889Zm1.975-6.2a11.5,11.5,0,0,1-1.792-.114c-.371-.061-.285-.091.078.078a6.017,6.017,0,0,1,2.188,1.852,7.353,7.353,0,0,1,1.476,4.384h-20a13.069,13.069,0,0,0,7.889,11.893,24.264,24.264,0,0,0,10.161,1.907Zm1.95,6.2a7.371,7.371,0,0,1-1.483,4.4,6,6,0,0,1-2.164,1.833c-.358.167-.442.137-.076.077a11.244,11.244,0,0,1,1.773-.114v-20A24.2,24.2,0,0,0,121.852,7.55a13.072,13.072,0,0,0-7.872,11.875Zm-1.95-11.35a23.525,23.525,0,0,0-6.286.7,12.077,12.077,0,0,0-4.851,2.633,10.793,10.793,0,0,0-3.563,8.019h20a9.207,9.207,0,0,1-3,6.8,7.959,7.959,0,0,1-3.131,1.794c-.645.183-.649.06.833.06Zm-14.7,11.35a10.817,10.817,0,0,0,3.489,7.965,12.051,12.051,0,0,0,4.889,2.7,23.338,23.338,0,0,0,6.322.711v-20c-1.49,0-1.464-.125-.8.067a7.978,7.978,0,0,1,3.17,1.845,9.182,9.182,0,0,1,2.927,6.713ZM132.03,30.8a23.2,23.2,0,0,0,6.31-.714,12.043,12.043,0,0,0,4.884-2.7,10.82,10.82,0,0,0,3.481-7.958h-20a9.179,9.179,0,0,1,2.92-6.706,7.985,7.985,0,0,1,3.169-1.849c.674-.194.71-.07-.764-.07Zm14.675-11.375a10.793,10.793,0,0,0-3.555-8.012A12.073,12.073,0,0,0,138.3,8.776a23.383,23.383,0,0,0-6.274-.7v20c1.465,0,1.452.122.8-.063a7.967,7.967,0,0,1-3.132-1.8,9.208,9.208,0,0,1-2.994-6.789ZM144.578,3.55v-10a10,10,0,0,0-10,10Zm11.075,0h10a10,10,0,0,0-10-10Zm0,2.65v10a10,10,0,0,0,10-10Zm-11.075,0h-10a10,10,0,0,0,10,10ZM161.328.075v-10a10,10,0,0,0-10,10Zm3.175,0h10a10,10,0,0,0-10-10Zm0,23.15v10a10,10,0,0,0,10-10Zm-3.175,0h-10a10,10,0,0,0,10,10Zm-2.775-13.75v-10a10,10,0,0,0-10,10Zm3.825,0h10a10,10,0,0,0-10-10Zm0,2.675v10a10,10,0,0,0,10-10Zm-3.825,0h-10a10,10,0,0,0,10,10ZM156.478.5v-10a10,10,0,0,0-10,10Zm3.1,0h10a10,10,0,0,0-10-10Zm0,21.75v10a10,10,0,0,0,10-10Zm-3.1,0h-10a10,10,0,0,0,10,10ZM148.528.7v-10a10,10,0,0,0-10,10ZM151.8.7h10a10,10,0,0,0-10-10Zm0,4.525v10a10,10,0,0,0,10-10Zm-3.275,0h-10a10,10,0,0,0,10,10Zm-3.95,8.325h11.075v-20H144.578Zm1.075-10V6.2h20V3.55Zm10-7.35H144.578v20h11.075Zm-1.075,10V3.55h-20V6.2Zm-4.425,11.025a5.148,5.148,0,0,1-3.7-1.673,4.286,4.286,0,0,1-1.221-2.8h20c0-8-5.864-15.525-15.075-15.525Zm-4.925-4.475a4.32,4.32,0,0,1,1.232-2.835,5.14,5.14,0,0,1,3.693-1.665v20c9.182,0,15.075-7.49,15.075-15.5Zm4.925-4.5A5.136,5.136,0,0,1,153.844,9.9a4.326,4.326,0,0,1,1.234,2.848h-20c0,8.044,5.949,15.5,15.075,15.5Zm4.925,4.5a4.293,4.293,0,0,1-1.223,2.814,5.145,5.145,0,0,1-3.7,1.661v-20c-9.155,0-15.075,7.487-15.075,15.525ZM150.153,0a11.894,11.894,0,0,0-9.34,4.472,13.164,13.164,0,0,0-2.785,8.278h20a6.881,6.881,0,0,1-1.6,4.216A8.1,8.1,0,0,1,150.153,20ZM138.028,12.75a13.114,13.114,0,0,0,2.826,8.317,11.9,11.9,0,0,0,9.3,4.408v-20a8.1,8.1,0,0,1,6.236,3,6.935,6.935,0,0,1,1.639,4.279Zm12.125,12.725a11.935,11.935,0,0,0,9.26-4.346,13.078,13.078,0,0,0,2.89-8.379h-20a6.964,6.964,0,0,1,1.677-4.342,8.066,8.066,0,0,1,6.173-2.933ZM162.3,12.75a13.132,13.132,0,0,0-2.848-8.341A11.93,11.93,0,0,0,150.153,0V20a8.073,8.073,0,0,1-6.214-2.971A6.912,6.912,0,0,1,142.3,12.75Zm-.975-2.675H164.5v-20h-3.175ZM154.5.075v23.15h20V.075Zm10,13.15h-3.175v20H164.5Zm6.825,10V.075h-20v23.15Zm-12.775-3.75h3.825v-20h-3.825Zm-6.175-10V12.15h20V9.475Zm10-7.325h-3.825v20h3.825Zm6.175,10V9.475h-20V12.15ZM156.478,10.5h3.1v-20h-3.1Zm-6.9-10V22.25h20V.5Zm10,11.75h-3.1v20h3.1Zm6.9,10V.5h-20V22.25ZM148.528,10.7H151.8v-20h-3.275ZM141.8.7V5.225h20V.7Zm10-5.475h-3.275v20H151.8Zm6.725,10V.7h-20V5.225ZM176.153,2V-8a10,10,0,0,0-10,10Zm14.575,0h10a10,10,0,0,0-10-10Zm0,2.65v10a10,10,0,0,0,10-10Zm-14.575,0h-10a10,10,0,0,0,10,10ZM173.778,17.9V7.9a10,10,0,0,0-10,10Zm20.925,0h10a10,10,0,0,0-10-10Zm0,2.675v10a10,10,0,0,0,10-10Zm-20.925,0h-10a10,10,0,0,0,10,10ZM189.4,2V-8a10,10,0,0,0-10,10Zm3.275,0h10a10,10,0,0,0-10-10Zm-1.05,13.125-1.063,9.943a10,10,0,0,0,10.842-7.851Zm-3.275-.35-9.76-2.18a10,10,0,0,0,8.7,12.124Zm1.65-7.2h10a10,10,0,0,0-10.309-10Zm0,2.5.548,9.985A10,10,0,0,0,200,10.075Zm-14.125.775L166,12.423a10,10,0,0,0,10.424,8.412Zm-.45-2.825-.309-10A10,10,0,0,0,165.552,9.6ZM181.2,12.35v-10a10,10,0,0,0-10,10Zm3.325,0h10a10,10,0,0,0-10-10Zm0,6.525v10a10,10,0,0,0,10-10Zm-3.325,0h-10a10,10,0,0,0,10,10ZM176.153,12h14.575V-8H176.153Zm4.575-10V4.65h20V2Zm10-7.35H176.153v20h14.575Zm-4.575,10V2h-20V4.65ZM173.778,27.9H194.7V7.9H173.778Zm10.925-10v2.675h20V17.9Zm10-7.325H173.778v20H194.7Zm-10.925,10V17.9h-20v2.675ZM189.4,12h3.275V-8H189.4ZM182.678,2V4.025h20V2Zm0,2.025a37.389,37.389,0,0,1-.829,9.008l19.558,4.184a56.964,56.964,0,0,0,1.271-13.192ZM192.69,5.182l-3.275-.35L187.29,24.718l3.275.35Zm5.422,11.774A54.829,54.829,0,0,0,199.4,4.025h-20a35.233,35.233,0,0,1-.81,8.57ZM199.4,4.025V2h-20V4.025ZM180,7.575v2.5h20v-2.5ZM189.455.09,175.33.865l1.1,19.97,14.125-.775Zm-3.7,9.187-.45-2.825L165.552,9.6l.45,2.825ZM175.736,18.02l14.575-.45-.617-19.99-14.575.45Zm5.467,4.33h3.325v-20H181.2Zm-6.675-10v6.525h20V12.35Zm10-3.475H181.2v20h3.325Zm6.675,10V12.35h-20v6.525ZM212.676.1v-10a10,10,0,0,0-10,10Zm3.35,0h10a10,10,0,0,0-10-10Zm0,16.625v10a10,10,0,0,0,10-10Zm-3.35,0h-10a10,10,0,0,0,10,10ZM200.6,20.175v-10a10,10,0,0,0-10,10Zm16,0h10a10,10,0,0,0-10-10Zm0,2.65v10a10,10,0,0,0,10-10Zm-16,0h-10a10,10,0,0,0,10,10Zm0-7.775v-10a10,10,0,0,0-10,10Zm3.325,0h10a10,10,0,0,0-10-10Zm0,6.2v10a10,10,0,0,0,10-10Zm-3.325,0h-10a10,10,0,0,0,10,10ZM212.676,10.1h3.35v-20h-3.35Zm-6.65-10V16.725h20V.1Zm10,6.625h-3.35v20h3.35Zm6.65,10V.1h-20V16.725ZM200.6,30.175h16v-20h-16Zm6-10v2.65h20v-2.65Zm10-7.35h-16v20h16Zm-6,10v-2.65h-20v2.65Zm-10,2.225h3.325v-20H200.6Zm-6.675-10v6.2h20v-6.2Zm10-3.8H200.6v20h3.325Zm6.675,10v-6.2h-20v6.2Zm-7.175-9.7a3.526,3.526,0,0,1-2.322-1.006,4.355,4.355,0,0,1-1.4-3.119h20c0-9.668-7.951-15.875-16.275-15.875ZM199.7,7.425a4.348,4.348,0,0,1,1.392-3.118A3.529,3.529,0,0,1,203.426,3.3v20c8.354,0,16.275-6.259,16.275-15.875ZM203.426,3.3a3.486,3.486,0,0,1,2.3.988,4.361,4.361,0,0,1,1.4,3.137h-20c0,9.666,8,15.875,16.3,15.875Zm3.7,4.125a4.367,4.367,0,0,1-1.411,3.138,3.481,3.481,0,0,1-2.289.987v-20c-8.27,0-16.3,6.157-16.3,15.875Zm-3.7-13a13.114,13.114,0,0,0-9.01,3.491,12.924,12.924,0,0,0-4.04,9.509h20a7.088,7.088,0,0,1-2.284,5.084,6.9,6.9,0,0,1-4.666,1.916Zm-13.05,13a12.892,12.892,0,0,0,4.062,9.508,13.128,13.128,0,0,0,8.988,3.467V.4a6.884,6.884,0,0,1,4.644,1.9,7.119,7.119,0,0,1,2.306,5.127ZM203.426,20.4a13.092,13.092,0,0,0,8.987-3.486,12.9,12.9,0,0,0,4.038-9.489h-20a7.111,7.111,0,0,1,2.288-5.107A6.92,6.92,0,0,1,203.426.4ZM216.451,7.425a12.934,12.934,0,0,0-4.016-9.49,13.078,13.078,0,0,0-9.009-3.51v20a6.932,6.932,0,0,1-4.709-1.935,7.075,7.075,0,0,1-2.266-5.065ZM235.649.05v-10a10,10,0,0,0-10,10Zm3.35,0h10a10,10,0,0,0-10-10Zm0,23.225v10a10,10,0,0,0,10-10Zm-3.35,0h-10a10,10,0,0,0,10,10Zm0-13.225H239v-20h-3.35ZM229,.05V23.275h20V.05Zm10,13.225h-3.35v20H239Zm6.65,10V.05h-20V23.275Zm-19.125-11.6a4.761,4.761,0,0,1-2.163-.536,4.321,4.321,0,0,1-1.466-1.2c-.537-.71-.3-.929-.3-.009h20a19.851,19.851,0,0,0-3.746-12.047,15.338,15.338,0,0,0-12.329-6.2ZM222.6,9.925c0,.964-.251.761.283.051a4.34,4.34,0,0,1,1.471-1.212,4.776,4.776,0,0,1,2.171-.539v20A15.328,15.328,0,0,0,238.866,22,19.949,19.949,0,0,0,242.6,9.925Zm3.925-1.7a4.776,4.776,0,0,1,2.171.539,4.34,4.34,0,0,1,1.471,1.212c.533.71.283.913.283-.051h-20A19.949,19.949,0,0,0,214.182,22a15.327,15.327,0,0,0,12.342,6.226Zm3.925,1.7c0-.92.241-.7-.3.009a4.321,4.321,0,0,1-1.466,1.2,4.761,4.761,0,0,1-2.163.536v-20a15.338,15.338,0,0,0-12.329,6.2,19.851,19.851,0,0,0-3.746,12.047ZM226.524-5.3a12.365,12.365,0,0,0-10.755,6.333,17.728,17.728,0,0,0-2.145,8.892h20c0-.762.166-.1-.539,1.117a7.2,7.2,0,0,1-2.377,2.436,7.841,7.841,0,0,1-4.184,1.222Zm-12.9,15.225a17.926,17.926,0,0,0,2.115,8.9,12.359,12.359,0,0,0,10.785,6.4v-20a7.86,7.86,0,0,1,4.237,1.252,7.167,7.167,0,0,1,2.354,2.441c.68,1.193.509,1.813.509,1.008Zm12.9,15.3a12.333,12.333,0,0,0,10.8-6.451A18,18,0,0,0,239.4,9.925h-20c0,.836-.175.228.495-.962a7.2,7.2,0,0,1,2.364-2.47,7.876,7.876,0,0,1,4.266-1.268ZM239.4,9.925a17.809,17.809,0,0,0-2.106-8.846A12.341,12.341,0,0,0,226.524-5.3v20a7.856,7.856,0,0,1-4.213-1.239A7.218,7.218,0,0,1,219.924,11c-.695-1.216-.525-1.864-.525-1.071ZM263.874.075v-10a10,10,0,0,0-10,10Zm3.35,0h10a10,10,0,0,0-10-10Zm0,13.35v10a10,10,0,0,0,10-10Zm-3.35,0h-10a10,10,0,0,0,10,10Zm2.375-7.875v-10a10,10,0,0,0-10,10Zm4,0h10a10,10,0,0,0-10-10Zm0,2.7v10a10,10,0,0,0,10-10Zm-4,0h-10a10,10,0,0,0,10,10Zm-16.5,1.325v-10a10,10,0,0,0-10,10Zm12.325-.725L272,7.633A10,10,0,0,0,259.96-.924Zm.325,2.65,2.16,9.764a10,10,0,0,0,7.765-10.981Zm-12.65.725h-10a10,10,0,0,0,10,10Zm0-10.6v-10a10,10,0,0,0-10,10Zm10.35,0h10a10,10,0,0,0-10-10Zm0,2.65v10a10,10,0,0,0,10-10Zm-7.05,0v-10a10,10,0,0,0-10,10Zm0,7.1v10a10,10,0,0,0,10-10Zm-3.3,0h-10a10,10,0,0,0,10,10Zm14.125-1.3h3.35v-20h-3.35Zm-6.65-10v13.35h20V.075Zm10,3.35h-3.35v20h3.35Zm6.65,10V.075h-20v13.35Zm-7.625,2.125h4v-20h-4Zm-6-10v2.7h20V5.55Zm10-7.3h-4v20h4Zm6,10V5.55h-20v2.7Zm-16.625,15.6c1.327,0,1.307.278.586-.149a5.483,5.483,0,0,1-1.787-1.8,6.367,6.367,0,0,1-.974-3.347h20a13.905,13.905,0,0,0-7.024-12.044,21.154,21.154,0,0,0-10.8-2.656Zm-2.175-5.3a6.331,6.331,0,0,1,.97-3.328,5.494,5.494,0,0,1,1.806-1.822c.728-.431.75-.15-.6-.15v20a21.185,21.185,0,0,0,10.786-2.638,13.9,13.9,0,0,0,7.039-12.062Zm2.175-5.3c-1.371,0-1.357-.283-.632.145a5.492,5.492,0,0,1,1.81,1.823,6.344,6.344,0,0,1,.972,3.332h-20a13.9,13.9,0,0,0,7.05,12.068,21.251,21.251,0,0,0,10.8,2.632Zm2.15,5.3A6.363,6.363,0,0,1,260.8,21.9a5.47,5.47,0,0,1-1.79,1.805c-.718.426-.731.144.617.144v-20A21.212,21.212,0,0,0,248.81,6.5a13.9,13.9,0,0,0-7.036,12.049ZM259.624,6.5a18.591,18.591,0,0,0-7.387,1.332,12.16,12.16,0,0,0-4.813,3.708,11.448,11.448,0,0,0-2.375,7.01h20a8.552,8.552,0,0,1-1.776,5.189,7.863,7.863,0,0,1-3.05,2.43c-1.129.492-1.641.332-.6.332ZM245.049,18.55a11.425,11.425,0,0,0,2.389,7.017,12.187,12.187,0,0,0,4.768,3.678,18.519,18.519,0,0,0,7.418,1.355v-20c-1,0-.493-.158.63.336a7.84,7.84,0,0,1,3.006,2.4,8.573,8.573,0,0,1,1.789,5.216ZM259.624,30.6a18.432,18.432,0,0,0,7.409-1.361,12.176,12.176,0,0,0,4.758-3.68,11.429,11.429,0,0,0,2.383-7.01h-20a8.571,8.571,0,0,1,1.783-5.209,7.848,7.848,0,0,1,3-2.4c1.128-.5,1.646-.342.666-.342Zm14.55-12.05a11.447,11.447,0,0,0-2.37-7,12.154,12.154,0,0,0-4.8-3.71A18.5,18.5,0,0,0,259.624,6.5v20c1.021,0,.5.159-.635-.338a7.865,7.865,0,0,1-3.045-2.431,8.549,8.549,0,0,1-1.77-5.181Zm-24.425,1.025h1.925v-20h-1.925Zm1.925,0a55.945,55.945,0,0,0,12.513-.951L259.96-.924c-1.648.356-3.245.5-8.286.5Zm.474-9.508.325,2.65,19.851-2.435L272,7.633Zm8.091-8.331c-1.63.361-3.294.489-8.565.489v20c5.178,0,8.865-.072,12.885-.961Zm-8.565.489h-1.925v20h1.925Zm8.075,10V9.575h-20v2.65Zm-10-.6H260.1v-20h-10.35Zm.35-10v2.65h20V1.625Zm10-7.35h-7.05v20h7.05Zm-17.05,10v7.1h20v-7.1Zm10-2.9h-3.3v20h3.3Zm6.7,10V1.625h-20v9.75ZM287.847.1v-10a10,10,0,0,0-10,10Zm3.35,0h10a10,10,0,0,0-10-10Zm0,16.875v10a10,10,0,0,0,10-10Zm-3.35,0h-10a10,10,0,0,0,10,10Zm-12.075,3.2v-10a10,10,0,0,0-10,10Zm16,0h10a10,10,0,0,0-10-10Zm0,2.65v10a10,10,0,0,0,10-10Zm-16,0h-10a10,10,0,0,0,10,10Zm0-7.475v-10a10,10,0,0,0-10,10Zm3.325,0h10a10,10,0,0,0-10-10Zm0,6.2v10a10,10,0,0,0,10-10Zm-3.325,0h-10a10,10,0,0,0,10,10Zm1.6-20.2v-10a10,10,0,0,0-10,10Zm2.75,0h10a10,10,0,0,0-10-10Zm-6.575,12.525-8.453,5.343a10,10,0,0,0,11.756,4.1Zm-1.675-2.65-3.236-9.462a10,10,0,0,0-5.217,14.805Zm6.175-9.875v-10a10,10,0,0,0-10,10Zm2.725,0h10a10,10,0,0,0-10-10Zm5.375,9.475,8.417,5.4a10,10,0,0,0-5.349-14.917Zm-1.7,2.65-3.195,9.476a10,10,0,0,0,11.612-4.076Zm3.4-3.375h3.35v-20h-3.35ZM281.2.1V16.975h20V.1Zm10,6.875h-3.35v20h3.35Zm6.65,10V.1h-20V16.975Zm-22.075,13.2h16v-20h-16Zm6-10v2.65h20v-2.65Zm10-7.35h-16v20h16Zm-6,10v-2.65h-20v2.65Zm-10,2.525H279.1v-20h-3.325Zm-6.675-10v6.2h20v-6.2Zm10-3.8h-3.325v20H279.1Zm6.675,10v-6.2h-20v6.2Zm-8.4-10.2h2.75v-20h-2.75Zm-7.25-10V3.6h20V1.35Zm0,2.25a3.583,3.583,0,0,1-.092.852,1.241,1.241,0,0,1-.088.255.737.737,0,0,1,.161-.175,1.435,1.435,0,0,1,.14-.1l6.607,18.877c9.643-3.375,13.272-12.277,13.272-19.714ZM282,8.532l-1.675-2.65L263.419,16.568l1.675,2.65Zm-6.893,12.155A17.821,17.821,0,0,0,287.372,3.6h-20a1.887,1.887,0,0,1,.344-1.02,2.468,2.468,0,0,1,.55-.6,1.5,1.5,0,0,1,.37-.22ZM287.372,3.6V1.35h-20V3.6Zm-9.325,7.75h2.725v-20h-2.725Zm-7.275-10V3.6h20V1.35Zm0,2.25a17.291,17.291,0,0,0,12.307,16.743l6.136-19.035a1.651,1.651,0,0,1,.389.224,2.973,2.973,0,0,1,.694.726,2.485,2.485,0,0,1,.474,1.343Zm6.958,1.825-1.7,2.65,16.834,10.8,1.7-2.65ZM287.642,4a1.1,1.1,0,0,1,.213.137,1.263,1.263,0,0,1,.286.315c.044.072.021.06-.015-.082a3.193,3.193,0,0,1-.079-.77h-20c0,7.478,3.663,16.134,13.205,19.351Zm.4-.4V1.35h-20V3.6Zm6.9,5.775v-10a10,10,0,0,0-10,10Zm20.925,0h10a10,10,0,0,0-10-10Zm0,2.625V22a10,10,0,0,0,10-10Zm-20.925,0h-10a10,10,0,0,0,10,10Zm2.4,1.3V3.3a10,10,0,0,0-10,10Zm16,0h10a10,10,0,0,0-10-10Zm0,5.95v10a10,10,0,0,0,10-10Zm-12.7,0v-10a10,10,0,0,0-10,10Zm0,2.05v10a10,10,0,0,0,10-10Zm-3.275,0h-10a10,10,0,0,0,10,10Zm0-4.35v-10a10,10,0,0,0-10,10Zm12.7,0v10a10,10,0,0,0,10-10Zm0-1.175h10a10,10,0,0,0-10-10Zm-12.725,0h-10a10,10,0,0,0,10,10Zm.025,4.8v-10a10,10,0,0,0-10,10Zm16.575,0h10a10,10,0,0,0-10-10Zm0,2.5v10a10,10,0,0,0,10-10Zm-16.575,0h-10a10,10,0,0,0,10,10ZM305.42,10.4a12.022,12.022,0,0,1,1.9.124c.407.068.363.108.041-.042a5.811,5.811,0,0,1-2.088-1.766A7.278,7.278,0,0,1,303.8,4.35h20a13.2,13.2,0,0,0-7.984-11.995A24.806,24.806,0,0,0,305.42-9.6ZM303.8,4.35a7.278,7.278,0,0,1,1.477-4.366,5.811,5.811,0,0,1,2.088-1.766c.322-.15.366-.109-.041-.042a12.009,12.009,0,0,1-1.9.124v20a24.806,24.806,0,0,0,10.391-1.955A13.2,13.2,0,0,0,323.8,4.35ZM305.42-1.7a12.121,12.121,0,0,1-1.912-.124c-.407-.067-.359-.108-.03.046A5.831,5.831,0,0,1,305.579,0a7.268,7.268,0,0,1,1.466,4.346h-20a13.193,13.193,0,0,0,7.967,11.991A24.8,24.8,0,0,0,305.42,18.3Zm1.625,6.05A7.268,7.268,0,0,1,305.579,8.7a5.831,5.831,0,0,1-2.1,1.783c-.329.154-.377.113.03.046a12.131,12.131,0,0,1,1.912-.124v-20a24.8,24.8,0,0,0-10.408,1.959A13.193,13.193,0,0,0,287.045,4.35ZM305.42-7.175a22.878,22.878,0,0,0-6.693.831,12.233,12.233,0,0,0-4.841,2.792,10.9,10.9,0,0,0-3.391,7.9h20a9.106,9.106,0,0,1-2.795,6.561,7.807,7.807,0,0,1-3.025,1.84c-.685.214-.7.075.745.075ZM290.495,4.35a10.924,10.924,0,0,0,3.348,7.881,12.158,12.158,0,0,0,4.951,2.852,23.215,23.215,0,0,0,6.626.791v-20c-1.522,0-1.5-.136-.812.073a7.873,7.873,0,0,1,3.136,1.9,9.075,9.075,0,0,1,2.751,6.5ZM305.42,15.875a23.219,23.219,0,0,0,6.626-.791A12.158,12.158,0,0,0,317,12.231a10.924,10.924,0,0,0,3.348-7.881h-20a9.075,9.075,0,0,1,2.751-6.5,7.879,7.879,0,0,1,3.135-1.9c.687-.209.71-.073-.811-.073ZM320.345,4.35a10.9,10.9,0,0,0-3.392-7.9,12.224,12.224,0,0,0-4.84-2.792,22.881,22.881,0,0,0-6.693-.831v20c1.446,0,1.43.139.744-.075a7.813,7.813,0,0,1-3.024-1.84,9.1,9.1,0,0,1-2.8-6.561Zm-25.4,15.025H315.87v-20H294.945Zm10.925-10V12h20V9.375ZM315.87,2H294.945V22H315.87ZM304.945,12V9.375h-20V12Zm-7.6,11.3h16V3.3h-16Zm6-10v5.95h20V13.3Zm10-4.05h-12.7v20h12.7Zm-22.7,10V21.3h20V19.25Zm10-7.95H297.37v20h3.275Zm6.725,10V16.95h-20V21.3Zm-10,5.65h12.7v-20h-12.7Zm22.7-10V15.775h-20V16.95Zm-10-11.175H297.345v20H310.07Zm-2.725,10V13.3h-20v2.475Zm-9.975,14.8h16.575v-20H297.37Zm6.575-10v2.5h20v-2.5Zm10-7.5H297.37v20h16.575Zm-6.575,10v-2.5h-20v2.5Zm22.7-9.875V3.2a10,10,0,0,0-10,10Zm3.325,0h10a10,10,0,0,0-10-10Zm0,9.325v10a10,10,0,0,0,10-10Zm-3.325,0h-10a10,10,0,0,0,10,10ZM340.2.075v-10a10,10,0,0,0-10,10Zm3.3,0h10a10,10,0,0,0-10-10Zm0,23.15v10a10,10,0,0,0,10-10Zm-3.3,0h-10a10,10,0,0,0,10,10ZM324.6,14.95,314.7,16.416a10,10,0,0,0,9.954,8.534Zm-.4-2.7v-10A10,10,0,0,0,314.3,13.715Zm14.675-.8,9.957-.924a10,10,0,0,0-11.47-8.961Zm.225,2.425,1.951,9.808a10,10,0,0,0,8.006-10.732ZM331.62,11a3.312,3.312,0,0,1-1.929-.846,5.511,5.511,0,0,1-2-4.2h20C347.7-4.377,338.58-9,331.62-9ZM327.7,5.95a5.5,5.5,0,0,1,1.969-4.2A3.31,3.31,0,0,1,331.62.9v20c7.032,0,16.075-4.732,16.075-14.95ZM331.62.9a3.338,3.338,0,0,1,1.988.859A5.5,5.5,0,0,1,335.57,5.95h-20c0,10.194,9.013,14.95,16.05,14.95Zm3.95,5.05a5.507,5.507,0,0,1-1.989,4.195A3.342,3.342,0,0,1,331.62,11V-9c-6.965,0-16.05,4.647-16.05,14.95ZM331.62-6.3a13.393,13.393,0,0,0-8.058,2.575,11.992,11.992,0,0,0-4.817,9.675h20a8.009,8.009,0,0,1-3.2,6.337A6.651,6.651,0,0,1,331.62,13.7ZM318.745,5.95a11.965,11.965,0,0,0,4.848,9.676,13.417,13.417,0,0,0,8.027,2.549v-20a6.633,6.633,0,0,1,3.9,1.392,8.038,8.038,0,0,1,3.23,6.383ZM331.62,18.175a13.461,13.461,0,0,0,8.024-2.531A11.96,11.96,0,0,0,344.52,5.95h-20a8.042,8.042,0,0,1,3.25-6.4,6.589,6.589,0,0,1,3.85-1.375ZM344.52,5.95a11.987,11.987,0,0,0-4.844-9.692A13.441,13.441,0,0,0,331.62-6.3v20a6.613,6.613,0,0,1-3.882-1.4A8.016,8.016,0,0,1,324.52,5.95ZM330.07,23.2h3.325V3.2H330.07Zm-6.675-10v9.325h20V13.2Zm10-.675H330.07v20h3.325Zm6.675,10V13.2h-20v9.325Zm.125-12.45h3.3v-20h-3.3Zm-6.7-10v23.15h20V.075Zm10,13.15h-3.3v20h3.3Zm6.7,10V.075h-20v23.15Zm-15.708-9.741-.4-2.7L314.3,13.715l.4,2.7ZM324.2,22.25a111.743,111.743,0,0,0,16.188-.915l-3.026-19.77A93.253,93.253,0,0,1,324.2,2.25Zm4.717-9.876.225,2.425,19.915-1.848-.225-2.425Zm8.231-8.307a69.336,69.336,0,0,1-12.611.883l.125,20a87.912,87.912,0,0,0,16.389-1.267Zm9.95-.517v-10a10,10,0,0,0-10,10Zm11.075,0h10a10,10,0,0,0-10-10Zm0,2.65v10a10,10,0,0,0,10-10Zm-11.075,0h-10a10,10,0,0,0,10,10ZM363.843.075v-10a10,10,0,0,0-10,10Zm3.175,0h10a10,10,0,0,0-10-10Zm0,23.15v10a10,10,0,0,0,10-10Zm-3.175,0h-10a10,10,0,0,0,10,10Zm-2.775-13.75v-10a10,10,0,0,0-10,10Zm3.825,0h10a10,10,0,0,0-10-10Zm0,2.675v10a10,10,0,0,0,10-10Zm-3.825,0h-10a10,10,0,0,0,10,10ZM358.993.5v-10a10,10,0,0,0-10,10Zm3.1,0h10a10,10,0,0,0-10-10Zm0,21.75v10a10,10,0,0,0,10-10Zm-3.1,0h-10a10,10,0,0,0,10,10ZM351.043.7v-10a10,10,0,0,0-10,10Zm3.275,0h10a10,10,0,0,0-10-10Zm0,4.525v10a10,10,0,0,0,10-10Zm-3.275,0h-10a10,10,0,0,0,10,10Zm-3.95,8.325h11.075v-20H347.093Zm1.075-10V6.2h20V3.55Zm10-7.35H347.093v20h11.075Zm-1.075,10V3.55h-20V6.2Zm-4.425,11.025a5.152,5.152,0,0,1-3.7-1.673,4.289,4.289,0,0,1-1.22-2.8h20c0-8-5.864-15.525-15.075-15.525Zm-4.925-4.475a4.323,4.323,0,0,1,1.231-2.835,5.143,5.143,0,0,1,3.694-1.665v20c9.182,0,15.075-7.49,15.075-15.5Zm4.925-4.5A5.136,5.136,0,0,1,356.359,9.9a4.326,4.326,0,0,1,1.234,2.848h-20c0,8.044,5.949,15.5,15.075,15.5Zm4.925,4.5a4.293,4.293,0,0,1-1.223,2.814,5.145,5.145,0,0,1-3.7,1.661v-20c-9.155,0-15.075,7.487-15.075,15.525ZM352.668,0a11.894,11.894,0,0,0-9.34,4.472,13.164,13.164,0,0,0-2.785,8.278h20a6.887,6.887,0,0,1-1.6,4.216A8.106,8.106,0,0,1,352.668,20ZM340.543,12.75a13.108,13.108,0,0,0,2.826,8.317,11.9,11.9,0,0,0,9.3,4.408v-20a8.1,8.1,0,0,1,6.236,3,6.941,6.941,0,0,1,1.639,4.279Zm12.125,12.725a11.937,11.937,0,0,0,9.26-4.346,13.084,13.084,0,0,0,2.89-8.379h-20a6.964,6.964,0,0,1,1.677-4.342,8.066,8.066,0,0,1,6.173-2.933Zm12.15-12.725a13.128,13.128,0,0,0-2.849-8.341A11.927,11.927,0,0,0,352.668,0V20a8.075,8.075,0,0,1-6.215-2.971,6.915,6.915,0,0,1-1.635-4.279Zm-.975-2.675h3.175v-20h-3.175Zm-6.825-10v23.15h20V.075Zm10,13.15h-3.175v20h3.175Zm6.825,10V.075h-20v23.15Zm-12.775-3.75h3.825v-20h-3.825Zm-6.175-10V12.15h20V9.475Zm10-7.325h-3.825v20h3.825Zm6.175,10V9.475h-20V12.15ZM358.993,10.5h3.1v-20h-3.1Zm-6.9-10V22.25h20V.5Zm10,11.75h-3.1v20h3.1Zm6.9,10V.5h-20V22.25ZM351.043,10.7h3.275v-20h-3.275ZM344.318.7V5.225h20V.7Zm10-5.475h-3.275v20h3.275Zm6.725,10V.7h-20V5.225ZM392.192.075v-10a10,10,0,0,0-10,10Zm3.35,0h10a10,10,0,0,0-10-10Zm0,11.575v10a10,10,0,0,0,10-10Zm-3.35,0h-10a10,10,0,0,0,10,10Zm-12.1.95V2.6a10,10,0,0,0-10,10Zm15.45,0h10a10,10,0,0,0-10-10Zm0,6.35v10a10,10,0,0,0,10-10Zm-12.15,0v-10a10,10,0,0,0-10,10Zm0,2.8v10a10,10,0,0,0,10-10Zm-3.25,0h-10a10,10,0,0,0,10,10Zm0-5.2v-10a10,10,0,0,0-10,10Zm12.1,0v10a10,10,0,0,0,10-10Zm0-1.375h10a10,10,0,0,0-10-10Zm-12.15,0h-10a10,10,0,0,0,10,10Zm.05,5.225v-10a10,10,0,0,0-10,10Zm15.975,0h10a10,10,0,0,0-10-10Zm0,2.575v10a10,10,0,0,0,10-10Zm-15.975,0h-10a10,10,0,0,0,10,10Zm2.675-12.225a3.344,3.344,0,0,1-2.066-.893,5.092,5.092,0,0,1-1.759-3.807h20c0-10.086-8.714-15.3-16.175-15.3Zm-3.825-4.7a5.122,5.122,0,0,1,1.772-3.84,3.327,3.327,0,0,1,2.053-.885v20c7.428,0,16.175-5.185,16.175-15.275Zm3.825-4.725a3.327,3.327,0,0,1,2.054.885,5.124,5.124,0,0,1,1.771,3.84h-20c0,10.09,8.748,15.275,16.175,15.275Zm3.825,4.725a5.092,5.092,0,0,1-1.758,3.807,3.344,3.344,0,0,1-2.067.893v-20c-7.46,0-16.175,5.214-16.175,15.3Zm-3.825-12.6a13.256,13.256,0,0,0-8.535,3.006,12.4,12.4,0,0,0-4.44,9.594h20a7.6,7.6,0,0,1-2.739,5.756,6.763,6.763,0,0,1-4.286,1.644ZM369.842,6.05a12.4,12.4,0,0,0,4.44,9.594,13.256,13.256,0,0,0,8.535,3.006v-20A6.762,6.762,0,0,1,387.1.294a7.6,7.6,0,0,1,2.739,5.756Zm12.975,12.6a13.209,13.209,0,0,0,8.568-3.044,12.412,12.412,0,0,0,4.382-9.556h-20A7.59,7.59,0,0,1,378.475.331a6.81,6.81,0,0,1,4.342-1.681Zm12.95-12.6a12.411,12.411,0,0,0-4.382-9.556,13.209,13.209,0,0,0-8.568-3.044v20a6.81,6.81,0,0,1-4.342-1.681,7.591,7.591,0,0,1-2.708-5.719Zm-3.575,4.025h3.35v-20h-3.35Zm-6.65-10V11.65h20V.075Zm10,1.575h-3.35v20h3.35Zm6.65,10V.075h-20V11.65Zm-22.1,10.95h15.45V2.6h-15.45Zm5.45-10v6.35h20V12.6Zm10-3.65h-12.15v20h12.15Zm-22.15,10v2.8h20v-2.8Zm10-7.2h-3.25v20h3.25Zm6.75,10v-5.2h-20v5.2Zm-10,4.8h12.1v-20h-12.1Zm22.1-10V15.175h-20V16.55Zm-10-11.375h-12.15v20h12.15Zm-2.15,10V12.6h-20v2.575ZM380.142,30.4h15.975v-20H380.142Zm5.975-10v2.575h20V20.4Zm10-7.425H380.142v20h15.975Zm-5.975,10V20.4h-20v2.575Zm24-22.9v-10a10,10,0,0,0-10,10Zm3.3,0h10a10,10,0,0,0-10-10Zm0,23.15v10a10,10,0,0,0,10-10Zm-3.3,0h-10a10,10,0,0,0,10,10ZM416.691,9.1V-.9a10,10,0,0,0-10,10Zm4.1,0h10a10,10,0,0,0-10-10Zm0,2.775v10a10,10,0,0,0,10-10Zm-4.1,0h-10a10,10,0,0,0,10,10ZM399.191,3.5v-10a10,10,0,0,0-10,10Zm13.475,0h10a10,10,0,0,0-10-10Zm0,2.65v10a10,10,0,0,0,10-10Zm-13.475,0h-10a10,10,0,0,0,10,10Zm5.1-5.7v-10a10,10,0,0,0-10,10Zm3.325,0h10a10,10,0,0,0-10-10Zm0,4.05v10a10,10,0,0,0,10-10Zm-3.325,0h-10a10,10,0,0,0,10,10Zm9.85,5.575h3.3v-20h-3.3Zm-6.7-10v23.15h20V.075Zm10,13.15h-3.3v20h3.3Zm6.7,10V.075h-20v23.15Zm-7.45-4.125h4.1V-.9h-4.1Zm-5.9-10v2.775h20V9.1Zm10-7.225h-4.1v20h4.1Zm5.9,10V9.1h-20v2.775Zm-27.5,1.625h13.475v-20H399.191Zm3.475-10V6.15h20V3.5Zm10-7.35H399.191v20h13.475Zm-3.475,10V3.5h-20V6.15Zm-3.225,11.3a3.967,3.967,0,0,1-2.624-1.14,4.672,4.672,0,0,1-1.5-3.335h20c0-9.377-7.628-15.525-15.875-15.525Zm-4.125-4.475a4.672,4.672,0,0,1,1.5-3.335,3.967,3.967,0,0,1,2.624-1.14v20c8.247,0,15.875-6.148,15.875-15.525ZM405.966,8.5a3.967,3.967,0,0,1,2.623,1.14,4.674,4.674,0,0,1,1.5,3.335h-20c0,9.377,7.627,15.525,15.875,15.525Zm4.125,4.475a4.673,4.673,0,0,1-1.5,3.335,3.966,3.966,0,0,1-2.623,1.14v-20c-8.248,0-15.875,6.148-15.875,15.525ZM405.966.15a12.653,12.653,0,0,0-9.058,3.722,12.855,12.855,0,0,0-3.642,9.1h20a7.163,7.163,0,0,1-2.124,4.947,7.355,7.355,0,0,1-5.176,2.228Zm-12.7,12.825a12.855,12.855,0,0,0,3.642,9.1,12.653,12.653,0,0,0,9.058,3.722V5.8a7.355,7.355,0,0,1,5.176,2.228,7.163,7.163,0,0,1,2.124,4.947Zm12.7,12.825a12.651,12.651,0,0,0,9.057-3.722,12.856,12.856,0,0,0,3.643-9.1h-20a7.161,7.161,0,0,1,2.123-4.947A7.357,7.357,0,0,1,405.966,5.8Zm12.7-12.825a12.857,12.857,0,0,0-3.643-9.1A12.651,12.651,0,0,0,405.966.15v20a7.357,7.357,0,0,1-5.177-2.228,7.161,7.161,0,0,1-2.123-4.947ZM404.291,10.45h3.325v-20h-3.325Zm-6.675-10V4.5h20V.45Zm10-5.95h-3.325v20h3.325Zm6.675,10V.45h-20V4.5ZM439.064.075v-10a10,10,0,0,0-10,10Zm3.175,0h10a10,10,0,0,0-10-10Zm0,23.15v10a10,10,0,0,0,10-10Zm-3.175,0h-10a10,10,0,0,0,10,10ZM429.889,8.95v-10a10,10,0,0,0-10,10Zm4.95,0h10a10,10,0,0,0-10-10Zm0,2.625v10a10,10,0,0,0,10-10Zm-4.95,0h-10a10,10,0,0,0,10,10Zm4.3-11v-10a10,10,0,0,0-10,10Zm3.1,0h10a10,10,0,0,0-10-10Zm0,21.625v10a10,10,0,0,0,10-10Zm-3.1,0h-10a10,10,0,0,0,10,10Zm-5.05-19.4v-10a10,10,0,0,0-10,10Zm3.2,0h10a10,10,0,0,0-10-10Zm-8.475,15.625L416.079,24.7a10,10,0,0,0,12.807,2.37ZM421.989,16.1l-5.157-8.568A10,10,0,0,0,414.2,22.378Zm1.3-13.3v-10a10,10,0,0,0-10,10Zm6.9,0h10a10,10,0,0,0-10-10Zm0,2.65v10a10,10,0,0,0,10-10Zm-6.9,0h-10a10,10,0,0,0,10,10Zm15.775,4.625h3.175v-20h-3.175Zm-6.825-10v23.15h20V.075Zm10,13.15h-3.175v20h3.175Zm6.825,10V.075h-20v23.15ZM429.889,18.95h4.95v-20h-4.95Zm-5.05-10v2.625h20V8.95Zm10-7.375h-4.95v20h4.95Zm5.05,10V8.95h-20v2.625Zm-5.7-1h3.1v-20h-3.1Zm-6.9-10V22.2h20V.575Zm10,11.625h-3.1v20h3.1Zm6.9,10V.575h-20V22.2Zm-15.05-9.4h3.2v-20h-3.2Zm-6.8-10a9.8,9.8,0,0,1-.743,4.4,6.305,6.305,0,0,1-2.755,2.582l10.045,17.295a26.157,26.157,0,0,0,10.6-10.924A29.43,29.43,0,0,0,442.339,2.8Zm9.309,9.348-1.875-2.325L414.2,22.378l1.875,2.325Zm-4.5,12.52a24.5,24.5,0,0,0,9.167-9.167,24.586,24.586,0,0,0,2.827-12.026h-20a5.067,5.067,0,0,1-.368,2.418,4.964,4.964,0,0,1-1.939,1.64ZM439.139,3.475V2.8h-20v.675ZM423.289,12.8h6.9v-20h-6.9Zm-3.1-10V5.45h20V2.8Zm10-7.35h-6.9v20h6.9Zm3.1,10V2.8h-20V5.45ZM466.313.075v-10a10,10,0,0,0-10,10Zm3.3,0h10a10,10,0,0,0-10-10Zm0,23.15v10a10,10,0,0,0,10-10Zm-3.3,0h-10a10,10,0,0,0,10,10ZM468.863,9.1V-.9a10,10,0,0,0-10,10Zm4.1,0h10a10,10,0,0,0-10-10Zm0,2.775v10a10,10,0,0,0,10-10Zm-4.1,0h-10a10,10,0,0,0,10,10ZM451.363,3.5v-10a10,10,0,0,0-10,10Zm13.475,0h10a10,10,0,0,0-10-10Zm0,2.65v10a10,10,0,0,0,10-10Zm-13.475,0h-10a10,10,0,0,0,10,10Zm5.1-5.7v-10a10,10,0,0,0-10,10Zm3.325,0h10a10,10,0,0,0-10-10Zm0,4.05v10a10,10,0,0,0,10-10Zm-3.325,0h-10a10,10,0,0,0,10,10Zm9.85,5.575h3.3v-20h-3.3Zm-6.7-10v23.15h20V.075Zm10,13.15h-3.3v20h3.3Zm6.7,10V.075h-20v23.15Zm-7.45-4.125h4.1V-.9h-4.1Zm-5.9-10v2.775h20V9.1Zm10-7.225h-4.1v20h4.1Zm5.9,10V9.1h-20v2.775Zm-27.5,1.625h13.475v-20H451.363Zm3.475-10V6.15h20V3.5Zm10-7.35H451.363v20h13.475Zm-3.475,10V3.5h-20V6.15Zm-3.225,11.3a3.97,3.97,0,0,1-2.624-1.14,4.676,4.676,0,0,1-1.5-3.335h20c0-9.377-7.627-15.525-15.875-15.525Zm-4.125-4.475a4.676,4.676,0,0,1,1.5-3.335,3.97,3.97,0,0,1,2.624-1.14v20c8.248,0,15.875-6.148,15.875-15.525ZM458.138,8.5a3.967,3.967,0,0,1,2.624,1.14,4.676,4.676,0,0,1,1.5,3.335h-20c0,9.377,7.628,15.525,15.875,15.525Zm4.125,4.475a4.676,4.676,0,0,1-1.5,3.335,3.967,3.967,0,0,1-2.624,1.14v-20c-8.247,0-15.875,6.148-15.875,15.525ZM458.138.15a12.651,12.651,0,0,0-9.057,3.722,12.857,12.857,0,0,0-3.643,9.1h20a7.161,7.161,0,0,1-2.123,4.947,7.357,7.357,0,0,1-5.177,2.228Zm-12.7,12.825a12.856,12.856,0,0,0,3.643,9.1,12.651,12.651,0,0,0,9.057,3.722V5.8a7.357,7.357,0,0,1,5.177,2.228,7.161,7.161,0,0,1,2.123,4.947Zm12.7,12.825a12.653,12.653,0,0,0,9.058-3.722,12.855,12.855,0,0,0,3.642-9.1h-20a7.163,7.163,0,0,1,2.124-4.947A7.355,7.355,0,0,1,458.138,5.8Zm12.7-12.825a12.855,12.855,0,0,0-3.642-9.1A12.653,12.653,0,0,0,458.138.15v20a7.355,7.355,0,0,1-5.176-2.228,7.163,7.163,0,0,1-2.124-4.947ZM456.463,10.45h3.325v-20h-3.325Zm-6.675-10V4.5h20V.45Zm10-5.95h-3.325v20h3.325Zm6.675,10V.45h-20V4.5Zm17.123,3.35v-10a10,10,0,0,0-10,10Zm3.825,0h10a10,10,0,0,0-10-10Zm0,2.7v10a10,10,0,0,0,10-10Zm-3.825,0h-10a10,10,0,0,0,10,10Zm-4.95-8.475v-10a10,10,0,0,0-10,10Zm2.55,0h10a10,10,0,0,0-10-10Zm-5.15,16.55-7.808,6.247a10,10,0,0,0,13.046,2.272Zm-2-2.5-5.255-8.508a10,10,0,0,0-2.553,14.755Zm5.325-14.05v-10a10,10,0,0,0-10,10Zm2.5,0h10a10,10,0,0,0-10-10ZM485.986,15.5l8.222,5.692a10,10,0,0,0-2.767-14.074Zm-1.8,2.6-5.263,8.5a10,10,0,0,0,13.485-2.811Zm7-18.025v-10a10,10,0,0,0-10,10Zm3.175,0h10a10,10,0,0,0-10-10Zm0,23.15v10a10,10,0,0,0,10-10Zm-3.175,0h-10a10,10,0,0,0,10,10Zm-4.7-22.8v-10a10,10,0,0,0-10,10Zm3.1,0h10a10,10,0,0,0-10-10Zm0,21.75v10a10,10,0,0,0,10-10Zm-3.1,0h-10a10,10,0,0,0,10,10Zm-2.9-4.325h3.825v-20h-3.825Zm-6.175-10v2.7h20V7.85Zm10-7.3h-3.825v20h3.825Zm6.175,10V7.85h-20v2.7Zm-14.95,1.525h2.55v-20h-2.55Zm-7.45-10v3.9h20v-3.9Zm0,3.9a11.9,11.9,0,0,1-.562,3.96c-.3.807-.415.534.175.172l10.475,17.037c8.382-5.154,9.912-15.116,9.912-21.169Zm12.659,6.4-2-2.5L466.228,22.372l2,2.5Zm-4.554,12.255c7.766-4.8,9.345-13.343,9.345-18.658h-20a7.633,7.633,0,0,1-.1,1.266,3.575,3.575,0,0,1-.191.729c-.052.127-.064.111.013.014a1.691,1.691,0,0,1,.421-.367Zm9.345-18.658v-3.9h-20v3.9Zm-9.275,6.1h2.5v-20h-2.5Zm-7.5-10v3.75h20V2.075Zm0,3.75c0,4.837,1.175,13.178,8.671,18.056L491.441,7.119a2.254,2.254,0,0,1,.555.512c.117.156.134.231.1.15a3.31,3.31,0,0,1-.151-.645,8.873,8.873,0,0,1-.088-1.311Zm5.9,3.983-1.8,2.6,16.443,11.384,1.8-2.6ZM489.45,9.6c.681.422.64.824.4.118a12.63,12.63,0,0,1-.485-3.891h-20a32.17,32.17,0,0,0,1.584,10.428,19.337,19.337,0,0,0,7.978,10.35Zm-.089-3.772V2.075h-20v3.75Zm1.825,4.25h3.175v-20h-3.175Zm-6.825-10v23.15h20V.075Zm10,13.15h-3.175v20h3.175Zm6.825,10V.075h-20v23.15Zm-14.7-12.8h3.1v-20h-3.1Zm-6.9-10v21.75h20V.425Zm10,11.75h-3.1v20h3.1Zm6.9,10V.425h-20v21.75Zm5.6-10.35v-10a10,10,0,0,0-10,10Zm3.3,0h10a10,10,0,0,0-10-10Zm0,6.5v10a10,10,0,0,0,10-10Zm-3.3,0h-10a10,10,0,0,0,10,10Zm8.4-6.5v-10a10,10,0,0,0-10,10Zm3.325,0h10a10,10,0,0,0-10-10Zm0,6.5v10a10,10,0,0,0,10-10Zm-3.325,0h-10a10,10,0,0,0,10,10Zm-13-.475v-10a10,10,0,0,0-10,10Zm20.95,0h10a10,10,0,0,0-10-10Zm0,2.7v10a10,10,0,0,0,10-10Zm-20.95,0h-10a10,10,0,0,0,10,10Zm4.6,1.275h3.3v-20h-3.3Zm-6.7-10v6.5h20v-6.5Zm10-3.5h-3.3v20h3.3Zm6.7,10v-6.5h-20v6.5Zm-1.6,3.5h3.325v-20h-3.325Zm-6.675-10v6.5h20v-6.5Zm10-3.5h-3.325v20h3.325Zm6.675,10v-6.5h-20v6.5Zm-23,9.525h20.95v-20h-20.95Zm10.95-10v2.7h20v-2.7Zm10-7.3h-20.95v20h20.95Zm-10.95,10v-2.7h-20v2.7Zm.45-9.35c.974,0,.977.256.435-.126a4.082,4.082,0,0,1-1.179-1.36,4.779,4.779,0,0,1-.606-2.289h20a15.412,15.412,0,0,0-6.7-12.706A20.72,20.72,0,0,0,507.934-8.8Zm-1.35-3.775a4.8,4.8,0,0,1,.612-2.3,4.111,4.111,0,0,1,1.2-1.373c.545-.382.536-.123-.458-.123v20a20.764,20.764,0,0,0,11.925-3.491,15.382,15.382,0,0,0,6.725-12.709Zm1.35-3.8c-1.015,0-1.016-.263-.458.128a4.145,4.145,0,0,1,1.2,1.385,4.785,4.785,0,0,1,.605,2.287h-20a15.382,15.382,0,0,0,6.709,12.7,20.758,20.758,0,0,0,11.941,3.5Zm1.35,3.8a4.764,4.764,0,0,1-.6,2.272,4.1,4.1,0,0,1-1.187,1.372c-.554.391-.558.131.436.131v-20a20.712,20.712,0,0,0-11.963,3.525,15.412,15.412,0,0,0-6.687,12.7ZM507.934-6.2a17.032,17.032,0,0,0-9.392,2.6,13.078,13.078,0,0,0-5.983,11.03h20a6.917,6.917,0,0,1-.9,3.368,6.7,6.7,0,0,1-2.127,2.311,4.677,4.677,0,0,1-1.6.7ZM492.559,7.425a13.083,13.083,0,0,0,5.964,11.007,17.006,17.006,0,0,0,9.411,2.618v-20a4.3,4.3,0,0,1,1.619.7,6.675,6.675,0,0,1,2.1,2.288,6.939,6.939,0,0,1,.9,3.388ZM507.934,21.05a17.009,17.009,0,0,0,9.412-2.618,13.082,13.082,0,0,0,5.963-11.007h-20a6.941,6.941,0,0,1,.9-3.388,6.675,6.675,0,0,1,2.1-2.288,4.315,4.315,0,0,1,1.618-.7ZM523.309,7.425A13.077,13.077,0,0,0,517.327-3.6a17.033,17.033,0,0,0-9.393-2.6v20a4.7,4.7,0,0,1-1.6-.7,6.679,6.679,0,0,1-2.127-2.311,6.918,6.918,0,0,1-.9-3.368Zm-1.676,7.25h-10a10,10,0,0,0,10,10Zm0-11.6v-10a10,10,0,0,0-10,10Zm2.75,0h10a10,10,0,0,0-10-10Zm0,11.6v10a10,10,0,0,0,10-10ZM521.633,21h-10a10,10,0,0,0,10,10Zm0-3.425v-10a10,10,0,0,0-10,10Zm2.75,0h10a10,10,0,0,0-10-10Zm0,3.425V31a10,10,0,0,0,10-10Zm7.25-6.325V3.075h-20v11.6Zm-10-1.6h2.75v-20h-2.75Zm-7.25-10v11.6h20V3.075Zm10,1.6h-2.75v20h2.75ZM531.633,21V17.575h-20V21Zm-10,6.575h2.75v-20h-2.75Zm-7.25-10V21h20V17.575Zm10-6.575h-2.75V31h2.75Z"/></g><path d="M9.038,1.4h2.9V3.075c0,5.025-3.575,9.475-9.575,10.65L.938,10.975c5.225-.9,8.1-4.575,8.1-7.9Zm.675,0h2.875V3.075c0,3.4,2.85,7,8.1,7.9l-1.425,2.75c-6-1.175-9.55-5.55-9.55-10.65ZM.463,17.7h20.95v2.7H.463Zm32.4-9.2h4.1v2.675h-4.1Zm-8.75,6.975h1.575A44.236,44.236,0,0,0,33.561,15l.275,2.65a44.938,44.938,0,0,1-8.15.5H24.111Zm0-12.85h8.6V5.25h-5.45v11.2h-3.15Zm2.25,6.225h5.475V11.4H26.361ZM40.161.075h3.175v23.15H40.161Zm-4.775.4h3.1V22.2h-3.1ZM62.309.05h3.35V23.275h-3.35ZM53.184,1.675c3.5,0,6.075,3.2,6.075,8.25,0,5.1-2.575,8.3-6.075,8.3s-6.075-3.2-6.075-8.3C47.109,4.875,49.684,1.675,53.184,1.675Zm0,3.025c-1.725,0-2.9,1.825-2.9,5.225,0,3.45,1.175,5.3,2.9,5.3s2.875-1.85,2.875-5.3C56.059,6.525,54.909,4.7,53.184,4.7Zm25.2-3.25h3.45c0,6.45-3,10.675-10.775,12.9l-1.25-2.625c6.55-1.775,8.575-4.85,8.575-8.825Zm-7.4,0h9.35V4.075h-9.35Zm7.55,4.325V8.05l-8.25.6-.475-2.575ZM85.332.1h3.35V13.725h-3.35Zm-4.475,14c4.85,0,7.925,1.7,7.925,4.575s-3.075,4.55-7.925,4.55c-4.875,0-7.925-1.675-7.925-4.55S75.982,14.1,80.857,14.1Zm0,2.6c-3.025,0-4.6.625-4.6,1.975,0,1.325,1.575,2,4.6,2,3,0,4.6-.675,4.6-2C85.457,17.325,83.857,16.7,80.857,16.7ZM102.9.4c5.275,0,8.375,1.4,8.375,3.95S108.18,8.3,102.9,8.3c-5.3,0-8.375-1.4-8.375-3.95S97.605.4,102.9.4Zm0,2.425c-3.35,0-4.925.5-4.925,1.525,0,1.075,1.575,1.525,4.925,1.525s4.925-.45,4.925-1.525C107.83,3.325,106.255,2.825,102.9,2.825ZM92.43,9.375h20.925V12H92.43Zm2.4,3.925h16v5.95H98.13V21.3H94.855V16.95h12.7V15.775H94.83Zm.025,7.275H111.43v2.5H94.855ZM121.58,12h20.95v2.6H121.58Zm8.8-2.475h3.325V12.95H130.38Zm-6.2-1.45H140.3V10.6H124.18Zm0-7.425h15.95V3.175H127.48V9.5h-3.3Zm2.375,3.75H139.6V6.825h-13.05Zm5.475,11.225c5.075,0,8.025,1.35,8.025,3.8,0,2.475-2.95,3.8-8.025,3.8-5.1,0-8.05-1.325-8.05-3.8C123.98,16.975,126.93,15.625,132.03,15.625Zm0,2.45c-3.225,0-4.7.4-4.7,1.35,0,.975,1.475,1.375,4.7,1.375,3.2,0,4.675-.4,4.675-1.375C136.705,18.475,135.23,18.075,132.03,18.075ZM144.578,3.55h11.075V6.2H144.578Zm5.575,3.675c2.95,0,5.075,2.275,5.075,5.525,0,3.225-2.125,5.5-5.075,5.5-2.925,0-5.075-2.275-5.075-5.5C145.078,9.5,147.228,7.225,150.153,7.225Zm0,2.775c-1.25,0-2.125,1-2.125,2.75s.875,2.725,2.125,2.725,2.15-.975,2.15-2.725S151.4,10,150.153,10ZM161.328.075H164.5v23.15h-3.175Zm-2.775,9.4h3.825V12.15h-3.825ZM156.478.5h3.1V22.25h-3.1Zm-7.95.2H151.8V5.225h-3.275ZM176.153,2h14.575V4.65H176.153Zm-2.375,15.9H194.7v2.675H173.778ZM189.4,2h3.275V4.025a47.145,47.145,0,0,1-1.05,11.1l-3.275-.35a45.024,45.024,0,0,0,1.05-10.75Zm.6,5.575v2.5l-14.125.775-.45-2.825Zm-8.8,4.775h3.325v6.525H181.2ZM212.676.1h3.35V16.725h-3.35ZM200.6,20.175h16v2.65h-16Zm0-5.125h3.325v6.2H200.6Zm2.825-13.5c3.55,0,6.275,2.45,6.275,5.875,0,3.4-2.725,5.875-6.275,5.875s-6.3-2.475-6.3-5.875C197.126,4,199.876,1.55,203.426,1.55Zm0,2.875a2.86,2.86,0,0,0-3.05,3,3.038,3.038,0,0,0,6.075,0A2.853,2.853,0,0,0,203.426,4.425ZM235.649.05H239V23.275h-3.35Zm-9.125,1.625c3.5,0,6.075,3.2,6.075,8.25,0,5.1-2.575,8.3-6.075,8.3s-6.075-3.2-6.075-8.3C220.449,4.875,223.024,1.675,226.524,1.675Zm0,3.025c-1.725,0-2.9,1.825-2.9,5.225,0,3.45,1.175,5.3,2.9,5.3s2.875-1.85,2.875-5.3C229.4,6.525,228.249,4.7,226.524,4.7ZM263.874.075h3.35v13.35h-3.35Zm2.375,5.475h4v2.7h-4Zm-6.625,8.3c4.75,0,7.825,1.775,7.825,4.7,0,2.95-3.075,4.7-7.825,4.7-4.775,0-7.85-1.75-7.85-4.7C251.774,15.625,254.849,13.85,259.624,13.85Zm0,2.65c-2.95,0-4.575.65-4.575,2.05,0,1.375,1.625,2.05,4.575,2.05,2.925,0,4.55-.675,4.55-2.05C264.174,17.15,262.549,16.5,259.624,16.5Zm-9.875-6.925h1.925c5.1,0,7.625-.125,10.4-.725l.325,2.65c-2.825.625-5.5.725-10.725.725h-1.925Zm0-7.95H260.1v2.65h-7.05v7.1h-3.3ZM287.847.1h3.35V16.975h-3.35ZM275.772,20.175h16v2.65h-16Zm0-4.825H279.1v6.2h-3.325Zm1.6-14h2.75V3.6c0,4.525-2.075,8.7-6.575,10.275l-1.675-2.65a7.827,7.827,0,0,0,5.5-7.625Zm.675,0h2.725V3.6a7.3,7.3,0,0,0,5.375,7.225l-1.7,2.65c-4.375-1.475-6.4-5.4-6.4-9.875ZM305.42.4C310.7.4,313.8,1.8,313.8,4.35S310.7,8.3,305.42,8.3c-5.3,0-8.375-1.4-8.375-3.95S300.12.4,305.42.4Zm0,2.425c-3.35,0-4.925.5-4.925,1.525,0,1.075,1.575,1.525,4.925,1.525s4.925-.45,4.925-1.525C310.345,3.325,308.77,2.825,305.42,2.825Zm-10.475,6.55H315.87V12H294.945Zm2.4,3.925h16v5.95h-12.7V21.3H297.37V16.95h12.7V15.775H297.345Zm.025,7.275h16.575v2.5H297.37ZM331.62,1c3.525,0,6.075,2.025,6.075,4.95,0,2.875-2.55,4.95-6.075,4.95-3.5,0-6.05-2.075-6.05-4.95C325.57,3.025,328.12,1,331.62,1Zm0,2.7c-1.675,0-2.875.8-2.875,2.25,0,1.425,1.2,2.225,2.875,2.225,1.7,0,2.9-.8,2.9-2.225C334.52,4.5,333.32,3.7,331.62,3.7Zm-1.55,9.5h3.325v9.325H330.07ZM340.2.075h3.3v23.15h-3.3ZM324.6,14.95l-.4-2.7a102.393,102.393,0,0,0,14.675-.8l.225,2.425A78.519,78.519,0,0,1,324.6,14.95Zm22.5-11.4h11.075V6.2H347.093Zm5.575,3.675c2.95,0,5.075,2.275,5.075,5.525,0,3.225-2.125,5.5-5.075,5.5-2.925,0-5.075-2.275-5.075-5.5C347.593,9.5,349.743,7.225,352.668,7.225Zm0,2.775c-1.25,0-2.125,1-2.125,2.75s.875,2.725,2.125,2.725,2.15-.975,2.15-2.725S353.918,10,352.668,10ZM363.843.075h3.175v23.15h-3.175Zm-2.775,9.4h3.825V12.15h-3.825ZM358.993.5h3.1V22.25h-3.1Zm-7.95.2h3.275V5.225h-3.275Zm31.774.05c3.525,0,6.175,2.2,6.175,5.3,0,3.075-2.65,5.275-6.175,5.275s-6.175-2.2-6.175-5.275C376.642,2.95,379.292.75,382.817.75Zm0,2.7c-1.7,0-2.975.95-2.975,2.6s1.275,2.6,2.975,2.6,2.95-.95,2.95-2.6S384.517,3.45,382.817,3.45ZM392.192.075h3.35V11.65h-3.35ZM380.092,12.6h15.45v6.35h-12.15v2.8h-3.25v-5.2h12.1V15.175h-12.15Zm.05,7.8h15.975v2.575H380.142Zm34-20.325h3.3v23.15h-3.3Zm2.55,9.025h4.1v2.775h-4.1Zm-17.5-5.6h13.475V6.15H399.191Zm6.775,3.95c3.375,0,5.875,2.3,5.875,5.525s-2.5,5.525-5.875,5.525-5.875-2.3-5.875-5.525S402.591,7.45,405.966,7.45Zm0,2.7a2.594,2.594,0,0,0-2.7,2.825,2.7,2.7,0,1,0,5.4,0A2.594,2.594,0,0,0,405.966,10.15ZM404.291.45h3.325V4.5h-3.325ZM439.064.075h3.175v23.15h-3.175ZM429.889,8.95h4.95v2.625h-4.95Zm4.3-8.375h3.1V22.2h-3.1ZM429.139,2.8h3.2c0,6.6-1.975,11.85-8.475,15.625L421.989,16.1c5.275-3.175,7.15-7.025,7.15-12.625Zm-5.85,0h6.9V5.45h-6.9ZM466.313.075h3.3v23.15h-3.3Zm2.55,9.025h4.1v2.775h-4.1Zm-17.5-5.6h13.475V6.15H451.363Zm6.775,3.95c3.375,0,5.875,2.3,5.875,5.525s-2.5,5.525-5.875,5.525-5.875-2.3-5.875-5.525S454.763,7.45,458.138,7.45Zm0,2.7a2.594,2.594,0,0,0-2.7,2.825,2.7,2.7,0,1,0,5.4,0A2.594,2.594,0,0,0,458.138,10.15ZM456.463.45h3.325V4.5h-3.325Zm27.123,7.4h3.825v2.7h-3.825Zm-4.95-5.775h2.55v3.9c0,5.25-1.45,10.375-5.15,12.65l-2-2.5c3.4-2.1,4.6-6.225,4.6-10.15Zm.725,0h2.5v3.75c0,3.775.975,7.625,4.125,9.675l-1.8,2.6c-3.675-2.275-4.825-7.275-4.825-12.275Zm11.825-2h3.175v23.15h-3.175Zm-4.7.35h3.1v21.75h-3.1Zm15.6,11.4h3.3v6.5h-3.3Zm8.4,0h3.325v6.5h-3.325Zm-13,6.025h20.95v2.7h-20.95ZM507.934,1.2c4.975,0,8.65,2.45,8.65,6.225s-3.675,6.2-8.65,6.2c-5,0-8.65-2.425-8.65-6.2S502.934,1.2,507.934,1.2Zm0,2.6c-3.225,0-5.375,1.325-5.375,3.625,0,2.275,2.15,3.625,5.375,3.625s5.375-1.35,5.375-3.625C513.309,5.125,511.159,3.8,507.934,3.8Zm13.7,10.875V3.075h2.75v11.6Zm0,6.325V17.575h2.75V21Z" transform="translate(517.537 301.95)" fill="#fff"/></g></svg>