<svg xmlns="http://www.w3.org/2000/svg" width="574.67" height="66.33" viewBox="0 0 574.67 66.33"><g transform="translate(17344.18 -5801)"><path d="M18.55,1.12A38.537,38.537,0,0,1,9.59.035,28.686,28.686,0,0,1,1.89-2.87L4.41-14.28a26.844,26.844,0,0,0,7.6,2.835,35.566,35.566,0,0,0,6.545.665,7.988,7.988,0,0,0,4.235-.91,2.782,2.782,0,0,0,1.435-2.45,2.45,2.45,0,0,0-1.61-2.205,23.191,23.191,0,0,0-4.165-1.505q-2.555-.7-5.425-1.645A25.5,25.5,0,0,1,7.6-22.015a12.579,12.579,0,0,1-4.165-4.2A12.46,12.46,0,0,1,1.82-32.83a15.343,15.343,0,0,1,2.45-8.715,15.757,15.757,0,0,1,7-5.67A26.5,26.5,0,0,1,21.98-49.21a30.423,30.423,0,0,1,8.085,1.085A18.382,18.382,0,0,1,36.4-45.22L34.02-34.93a42.754,42.754,0,0,0-6.4-2.135,23.487,23.487,0,0,0-5.355-.665,9.555,9.555,0,0,0-4.48.84,2.516,2.516,0,0,0-1.54,2.24,2.48,2.48,0,0,0,1.61,2.17,24.662,24.662,0,0,0,4.13,1.61q2.52.77,5.39,1.75a24.943,24.943,0,0,1,5.39,2.59,13.152,13.152,0,0,1,4.13,4.2,12.13,12.13,0,0,1,1.61,6.51q0,8.12-5.285,12.53T18.55,1.12ZM57.05.56a16.982,16.982,0,0,1-8.085-1.68A10.244,10.244,0,0,1,44.45-5.67a14.5,14.5,0,0,1-1.4-6.44V-26.39H38.57v-8.68H44.1l6.51-11.06h7.21v11.06h8.12v8.68H57.82v12.25a3.054,3.054,0,0,0,1.05,2.485,4.122,4.122,0,0,0,2.73.875,7.455,7.455,0,0,0,3.36-.84l1.05,9.73A12.41,12.41,0,0,1,61.74-.07,20.022,20.022,0,0,1,57.05.56Zm28.77,0a16.717,16.717,0,0,1-8.75-2.345A16.876,16.876,0,0,1,70.875-8.26,19.261,19.261,0,0,1,68.6-17.71a18.472,18.472,0,0,1,2.275-9.31,16.636,16.636,0,0,1,6.195-6.265,17.112,17.112,0,0,1,8.75-2.275,12.971,12.971,0,0,1,6.65,1.89,12.153,12.153,0,0,1,4.97,6.23v-7.63H112V0H97.3V-6.51a12.776,12.776,0,0,1-4.48,5.25A12.593,12.593,0,0,1,85.82.56ZM90.37-10.5a6.621,6.621,0,0,0,4.9-2.065A6.96,6.96,0,0,0,97.3-17.64a6.5,6.5,0,0,0-2.03-4.935,6.865,6.865,0,0,0-4.9-1.925,6.843,6.843,0,0,0-5.04,2.03A6.759,6.759,0,0,0,83.3-17.5a6.759,6.759,0,0,0,2.03,4.97A6.843,6.843,0,0,0,90.37-10.5ZM133.77,0H119V-46.13l14.77-2.17v24.01l16.45-13.37,7.56,9.73-9.87,8.26q.98,4.97,2.87,6.965a6.445,6.445,0,0,0,4.9,1.995,13.2,13.2,0,0,0,3.01-.42L157.64.14a17.274,17.274,0,0,1-2.38.35q-1.05.07-2.03.07-6.93,0-10.955-3.325a19.291,19.291,0,0,1-5.915-9.765l-2.59,2.24Zm49.77-9.24a23.753,23.753,0,0,0,4.3-.42A19.091,19.091,0,0,0,192.5-11.2l1.68,9.03a24.1,24.1,0,0,1-5.635,2.03,31.248,31.248,0,0,1-6.965.7,27.229,27.229,0,0,1-11.865-2.31,16.6,16.6,0,0,1-7.245-6.37,17.8,17.8,0,0,1-2.45-9.38,17.144,17.144,0,0,1,2.625-9.52,17.827,17.827,0,0,1,7.035-6.3,21.172,21.172,0,0,1,9.73-2.24q7.91,0,12.11,4.935t4.2,14.035l-20.86,2.66Q177.17-9.24,183.54-9.24Zm-9.8-11.13,10.99-2.31a5.021,5.021,0,0,0-1.54-3.325,4.657,4.657,0,0,0-3.15-1.085,5.545,5.545,0,0,0-4.445,1.925A8.071,8.071,0,0,0,173.74-20.37ZM387.1,1.12A38.537,38.537,0,0,1,378.14.035a28.686,28.686,0,0,1-7.7-2.905l2.52-11.41a26.844,26.844,0,0,0,7.6,2.835,35.566,35.566,0,0,0,6.545.665,7.988,7.988,0,0,0,4.235-.91,2.782,2.782,0,0,0,1.435-2.45,2.45,2.45,0,0,0-1.61-2.205,23.19,23.19,0,0,0-4.165-1.505q-2.555-.7-5.425-1.645a25.5,25.5,0,0,1-5.425-2.52,12.579,12.579,0,0,1-4.165-4.2,12.46,12.46,0,0,1-1.61-6.615,15.343,15.343,0,0,1,2.45-8.715,15.757,15.757,0,0,1,7-5.67,26.505,26.505,0,0,1,10.71-1.995,30.423,30.423,0,0,1,8.085,1.085,18.382,18.382,0,0,1,6.335,2.905l-2.38,10.29a42.753,42.753,0,0,0-6.4-2.135,23.487,23.487,0,0,0-5.355-.665,9.555,9.555,0,0,0-4.48.84,2.516,2.516,0,0,0-1.54,2.24,2.48,2.48,0,0,0,1.61,2.17,24.662,24.662,0,0,0,4.13,1.61q2.52.77,5.39,1.75a24.944,24.944,0,0,1,5.39,2.59,13.152,13.152,0,0,1,4.13,4.2,12.13,12.13,0,0,1,1.61,6.51q0,8.12-5.285,12.53T387.1,1.12ZM425.6.56a16.982,16.982,0,0,1-8.085-1.68A10.244,10.244,0,0,1,413-5.67a14.5,14.5,0,0,1-1.4-6.44V-26.39h-4.48v-8.68h5.53l6.51-11.06h7.21v11.06h8.12v8.68h-8.12v12.25a3.054,3.054,0,0,0,1.05,2.485,4.123,4.123,0,0,0,2.73.875,7.456,7.456,0,0,0,3.36-.84l1.05,9.73a12.41,12.41,0,0,1-4.27,1.82A20.022,20.022,0,0,1,425.6.56Zm28.77,0a16.717,16.717,0,0,1-8.75-2.345,16.875,16.875,0,0,1-6.2-6.475,19.261,19.261,0,0,1-2.275-9.45,18.472,18.472,0,0,1,2.275-9.31,16.636,16.636,0,0,1,6.2-6.265,17.112,17.112,0,0,1,8.75-2.275,12.971,12.971,0,0,1,6.65,1.89,12.153,12.153,0,0,1,4.97,6.23v-7.63h14.56V0h-14.7V-6.51a12.776,12.776,0,0,1-4.48,5.25A12.593,12.593,0,0,1,454.37.56Zm4.55-11.06a6.621,6.621,0,0,0,4.9-2.065,6.96,6.96,0,0,0,2.03-5.075,6.5,6.5,0,0,0-2.03-4.935,6.865,6.865,0,0,0-4.9-1.925,6.843,6.843,0,0,0-5.04,2.03,6.759,6.759,0,0,0-2.03,4.97,6.759,6.759,0,0,0,2.03,4.97A6.843,6.843,0,0,0,458.92-10.5ZM504.84.56a21.035,21.035,0,0,1-10.15-2.31,16.4,16.4,0,0,1-6.58-6.335,18.3,18.3,0,0,1-2.31-9.275,18.306,18.306,0,0,1,2.38-9.31,17.089,17.089,0,0,1,6.685-6.51,20.281,20.281,0,0,1,9.975-2.38q6.79,0,10.71,2.8l-1.54,9.52a16.387,16.387,0,0,0-3.29-1.085,14.68,14.68,0,0,0-2.94-.315,7.484,7.484,0,0,0-5.425,1.925A6.909,6.909,0,0,0,500.36-17.5a7.122,7.122,0,0,0,1.96,5.215,6.935,6.935,0,0,0,5.18,2,22.386,22.386,0,0,0,6.58-1.19l1.33,9.8A22.085,22.085,0,0,1,510.615,0,26.474,26.474,0,0,1,504.84.56ZM535.57,0H520.8V-46.13l14.77-2.17v24.01l16.45-13.37,7.56,9.73-9.87,8.26q.98,4.97,2.87,6.965a6.445,6.445,0,0,0,4.9,1.995,13.2,13.2,0,0,0,3.01-.42L559.44.14a17.273,17.273,0,0,1-2.38.35q-1.05.07-2.03.07-6.93,0-10.955-3.325a19.291,19.291,0,0,1-5.915-9.765l-2.59,2.24Z" transform="translate(-17338 5858.21)" fill="#feed01"/><path d="M387.1,1.12q9.38,0,14.665-4.41t5.285-12.53a12.13,12.13,0,0,0-1.61-6.51,13.152,13.152,0,0,0-4.13-4.2,24.943,24.943,0,0,0-5.39-2.59q-2.87-.98-5.39-1.75a24.659,24.659,0,0,1-4.13-1.61,2.48,2.48,0,0,1-1.61-2.17,2.516,2.516,0,0,1,1.54-2.24,9.555,9.555,0,0,1,4.48-.84,23.489,23.489,0,0,1,5.355.665,42.751,42.751,0,0,1,6.4,2.135l2.38-10.29a18.383,18.383,0,0,0-6.335-2.9,30.424,30.424,0,0,0-8.085-1.085,26.5,26.5,0,0,0-10.71,1.995,15.757,15.757,0,0,0-7,5.67,15.343,15.343,0,0,0-2.45,8.715,12.459,12.459,0,0,0,1.61,6.615,12.579,12.579,0,0,0,4.165,4.2,25.5,25.5,0,0,0,5.425,2.52q2.87.945,5.425,1.645a23.193,23.193,0,0,1,4.165,1.505,2.45,2.45,0,0,1,1.61,2.2,2.782,2.782,0,0,1-1.435,2.45,7.988,7.988,0,0,1-4.235.91,35.568,35.568,0,0,1-6.545-.665,26.842,26.842,0,0,1-7.6-2.835L370.44-2.87a28.686,28.686,0,0,0,7.7,2.905A38.539,38.539,0,0,0,387.1,1.12m-368.55,0q9.38,0,14.665-4.41T38.5-15.82a12.13,12.13,0,0,0-1.61-6.51,13.152,13.152,0,0,0-4.13-4.2,24.942,24.942,0,0,0-5.39-2.59q-2.87-.98-5.39-1.75a24.662,24.662,0,0,1-4.13-1.61,2.48,2.48,0,0,1-1.61-2.17,2.516,2.516,0,0,1,1.54-2.24,9.555,9.555,0,0,1,4.48-.84,23.488,23.488,0,0,1,5.355.665A42.751,42.751,0,0,1,34.02-34.93L36.4-45.22a18.382,18.382,0,0,0-6.335-2.9A30.423,30.423,0,0,0,21.98-49.21a26.5,26.5,0,0,0-10.71,1.995,15.757,15.757,0,0,0-7,5.67A15.344,15.344,0,0,0,1.82-32.83a12.46,12.46,0,0,0,1.61,6.615,12.579,12.579,0,0,0,4.165,4.2A25.5,25.5,0,0,0,13.02-19.5q2.87.945,5.425,1.645a23.188,23.188,0,0,1,4.165,1.505,2.45,2.45,0,0,1,1.61,2.2,2.782,2.782,0,0,1-1.435,2.45,7.987,7.987,0,0,1-4.235.91A35.568,35.568,0,0,1,12-11.445a26.843,26.843,0,0,1-7.6-2.835L1.89-2.87A28.686,28.686,0,0,0,9.59.035,38.538,38.538,0,0,0,18.55,1.12M555.03.56q.98,0,2.03-.07a17.272,17.272,0,0,0,2.38-.35l1.05-11.27a13.2,13.2,0,0,1-3.01.42,6.445,6.445,0,0,1-4.9-1.995q-1.89-1.995-2.87-6.965l9.87-8.26-7.56-9.73L535.57-24.29V-48.3L520.8-46.13V0h14.77V-10.29l2.59-2.24a19.291,19.291,0,0,0,5.915,9.765Q548.1.56,555.03.56m-50.19,0A26.476,26.476,0,0,0,510.615,0a22.082,22.082,0,0,0,4.795-1.68l-1.33-9.8c-5.418,1.706-9.317,1.682-11.76-.8a7.122,7.122,0,0,1-1.96-5.215,6.909,6.909,0,0,1,2-5.215,7.484,7.484,0,0,1,5.425-1.925,14.68,14.68,0,0,1,2.94.315,16.388,16.388,0,0,1,3.29,1.085l1.54-9.52q-3.92-2.8-10.71-2.8a20.281,20.281,0,0,0-9.975,2.38,17.089,17.089,0,0,0-6.685,6.51,18.306,18.306,0,0,0-2.38,9.31,18.3,18.3,0,0,0,2.31,9.275,16.4,16.4,0,0,0,6.58,6.335A21.035,21.035,0,0,0,504.84.56m-50.47,0a12.593,12.593,0,0,0,7-1.82,12.775,12.775,0,0,0,4.48-5.25V0h14.7V-35.07H465.99v7.63a12.153,12.153,0,0,0-4.97-6.23,12.97,12.97,0,0,0-6.65-1.89,17.112,17.112,0,0,0-8.75,2.275,16.636,16.636,0,0,0-6.2,6.265,18.472,18.472,0,0,0-2.275,9.31,19.261,19.261,0,0,0,2.275,9.45,16.876,16.876,0,0,0,6.2,6.475A16.717,16.717,0,0,0,454.37.56m4.55-25.06a6.865,6.865,0,0,1,4.9,1.925,6.5,6.5,0,0,1,2.03,4.935,6.96,6.96,0,0,1-2.03,5.075,6.62,6.62,0,0,1-4.9,2.065,6.843,6.843,0,0,1-5.04-2.03,6.759,6.759,0,0,1-2.03-4.97,6.759,6.759,0,0,1,2.03-4.97,6.843,6.843,0,0,1,5.04-2.03M425.6.56a20.022,20.022,0,0,0,4.69-.63,12.41,12.41,0,0,0,4.27-1.82l-1.05-9.73a7.456,7.456,0,0,1-3.36.84,4.123,4.123,0,0,1-2.73-.875,3.054,3.054,0,0,1-1.05-2.485V-26.39h8.12v-8.68h-8.12V-46.13h-7.21l-6.51,11.06h-5.53v8.68h4.48v14.28A14.5,14.5,0,0,0,413-5.67a10.243,10.243,0,0,0,4.515,4.55A16.982,16.982,0,0,0,425.6.56M181.58.56a31.246,31.246,0,0,0,6.965-.7,24.1,24.1,0,0,0,5.635-2.03L192.5-11.2a19.09,19.09,0,0,1-4.655,1.54,23.753,23.753,0,0,1-4.305.42q-6.37,0-8.68-4.69l20.86-2.66q0-9.1-4.2-14.035T179.41-35.56a21.173,21.173,0,0,0-9.73,2.24,17.827,17.827,0,0,0-7.035,6.3,17.144,17.144,0,0,0-2.625,9.52,17.8,17.8,0,0,0,2.45,9.38,16.6,16.6,0,0,0,7.245,6.37A27.229,27.229,0,0,0,181.58.56m-1.54-27.65A4.657,4.657,0,0,1,183.19-26a5.021,5.021,0,0,1,1.54,3.325l-10.99,2.31a8.071,8.071,0,0,1,1.855-4.8,5.545,5.545,0,0,1,4.445-1.925M153.23.56q.98,0,2.03-.07a17.274,17.274,0,0,0,2.38-.35l1.05-11.27a13.2,13.2,0,0,1-3.01.42,6.445,6.445,0,0,1-4.9-1.995q-1.89-1.995-2.87-6.965l9.87-8.26-7.56-9.73L133.77-24.29V-48.3L119-46.13V0h14.77V-10.29l2.59-2.24a19.291,19.291,0,0,0,5.915,9.765Q146.3.56,153.23.56M85.82.56a12.593,12.593,0,0,0,7-1.82A12.775,12.775,0,0,0,97.3-6.51V0H112V-35.07H97.44v7.63a12.153,12.153,0,0,0-4.97-6.23,12.971,12.971,0,0,0-6.65-1.89,17.112,17.112,0,0,0-8.75,2.275,16.636,16.636,0,0,0-6.195,6.265A18.473,18.473,0,0,0,68.6-17.71a19.262,19.262,0,0,0,2.275,9.45A16.876,16.876,0,0,0,77.07-1.785,16.717,16.717,0,0,0,85.82.56M90.37-24.5a6.865,6.865,0,0,1,4.9,1.925A6.5,6.5,0,0,1,97.3-17.64a6.96,6.96,0,0,1-2.03,5.075,6.62,6.62,0,0,1-4.9,2.065,6.843,6.843,0,0,1-5.04-2.03A6.759,6.759,0,0,1,83.3-17.5a6.759,6.759,0,0,1,2.03-4.97,6.843,6.843,0,0,1,5.04-2.03M57.05.56a20.021,20.021,0,0,0,4.69-.63,12.41,12.41,0,0,0,4.27-1.82l-1.05-9.73a7.455,7.455,0,0,1-3.36.84,4.123,4.123,0,0,1-2.73-.875,3.054,3.054,0,0,1-1.05-2.485V-26.39h8.12v-8.68H57.82V-46.13H50.61L44.1-35.07H38.57v8.68h4.48v14.28a14.5,14.5,0,0,0,1.4,6.44,10.244,10.244,0,0,0,4.515,4.55A16.982,16.982,0,0,0,57.05.56M387.1,9.12a46.725,46.725,0,0,1-10.816-1.3,36.737,36.737,0,0,1-9.847-3.76,8,8,0,0,1-3.81-8.652l2.52-11.41a8,8,0,0,1,1.791-3.542,21.287,21.287,0,0,1-1.779-2.485,20.337,20.337,0,0,1-2.79-10.8,23.261,23.261,0,0,1,3.794-13.153,23.691,23.691,0,0,1,10.444-8.559A34.523,34.523,0,0,1,390.53-57.21a38.566,38.566,0,0,1,10.2,1.37,25.959,25.959,0,0,1,9.078,4.265,7.989,7.989,0,0,1,1.977,2.2l.479-.813a8,8,0,0,1,6.894-3.942h7.21a8,8,0,0,1,8,8v3.06h.12a7.989,7.989,0,0,1,6.449,3.265q.328-.2.665-.4A25.086,25.086,0,0,1,454.37-43.56a20.428,20.428,0,0,1,7.705,1.512,7.965,7.965,0,0,1,3.915-1.022h14.56a8,8,0,0,1,7.367,4.875,26.541,26.541,0,0,1,3.078-1.986A28.261,28.261,0,0,1,504.84-43.56a32.135,32.135,0,0,1,7.96.93v-3.5a8,8,0,0,1,6.837-7.915l14.77-2.17a8,8,0,0,1,6.392,1.861,8,8,0,0,1,2.77,6.054v7.2l3.4-2.767a8,8,0,0,1,5.955-1.74,8,8,0,0,1,5.408,3.04l7.56,9.73a8,8,0,0,1-1.183,11.043l-3.255,2.724a8,8,0,0,1,4.27,1.9,8,8,0,0,1,2.726,6.788L567.406.882a8,8,0,0,1-6.317,7.086,25.219,25.219,0,0,1-3.5.5q-1.325.089-2.562.088a25.953,25.953,0,0,1-13.422-3.311A7.981,7.981,0,0,1,535.57,8H520.8a7.964,7.964,0,0,1-4.484-1.374A30.077,30.077,0,0,1,512.374,7.8a34.532,34.532,0,0,1-7.534.756,29,29,0,0,1-13.957-3.274,26.116,26.116,0,0,1-3.065-1.94A8,8,0,0,1,480.55,8h-14.7a7.968,7.968,0,0,1-3.53-.819,22.089,22.089,0,0,1-7.95,1.379,24.683,24.683,0,0,1-12.857-3.48q-.819-.49-1.59-1.034a8.01,8.01,0,0,1-.739.592,20.371,20.371,0,0,1-7,3.065,28.064,28.064,0,0,1-6.581.857,24.848,24.848,0,0,1-11.882-2.639A18.923,18.923,0,0,1,408.274,1.6c-.466.46-.93.878-1.384,1.257C401.906,7.011,395.248,9.12,387.1,9.12Zm-368.55,0a46.726,46.726,0,0,1-10.816-1.3,36.736,36.736,0,0,1-9.847-3.76A8,8,0,0,1-5.922-4.6l2.52-11.41a8,8,0,0,1,1.791-3.542A21.289,21.289,0,0,1-3.39-22.032a20.338,20.338,0,0,1-2.79-10.8A23.261,23.261,0,0,1-2.386-45.983,23.692,23.692,0,0,1,8.058-54.542,34.524,34.524,0,0,1,21.98-57.21a38.566,38.566,0,0,1,10.2,1.37,25.96,25.96,0,0,1,9.078,4.265,7.988,7.988,0,0,1,1.977,2.2l.479-.813A8,8,0,0,1,50.61-54.13h7.21a8,8,0,0,1,8,8v3.06h.12A7.989,7.989,0,0,1,72.389-39.8q.328-.2.665-.4A25.086,25.086,0,0,1,85.82-43.56a20.428,20.428,0,0,1,7.705,1.512A7.965,7.965,0,0,1,97.44-43.07H111v-3.06a8,8,0,0,1,6.837-7.915l14.77-2.17A8,8,0,0,1,139-54.354a8,8,0,0,1,2.77,6.054v7.2l3.4-2.767a8,8,0,0,1,5.955-1.74,8,8,0,0,1,5.408,3.04l4.323,5.563a26.506,26.506,0,0,1,5.2-3.448A29.191,29.191,0,0,1,179.41-43.56c9.593,0,15.193,4.215,18.2,7.75,4.053,4.762,6.108,11.228,6.108,19.22a7.993,7.993,0,0,1-2.934,6.192l1.259,6.765a8,8,0,0,1-4.211,8.58,32.217,32.217,0,0,1-7.5,2.71,39.341,39.341,0,0,1-8.757.9,35.191,35.191,0,0,1-15.337-3.1q-.968-.466-1.875-.989a8,8,0,0,1-5.08,3.5,25.23,25.23,0,0,1-3.5.5q-1.325.089-2.562.088a25.953,25.953,0,0,1-13.422-3.311A7.981,7.981,0,0,1,133.77,8H119a7.969,7.969,0,0,1-3.5-.8A7.969,7.969,0,0,1,112,8H97.3a7.968,7.968,0,0,1-3.53-.819A22.089,22.089,0,0,1,85.82,8.56,24.683,24.683,0,0,1,72.963,5.08q-.819-.49-1.59-1.034a8.012,8.012,0,0,1-.739.592,20.371,20.371,0,0,1-7,3.065,28.062,28.062,0,0,1-6.581.857A24.848,24.848,0,0,1,45.168,5.921,18.928,18.928,0,0,1,39.724,1.6c-.466.46-.93.878-1.384,1.257C33.356,7.011,26.7,9.12,18.55,9.12Z" transform="translate(-17338 5858.21)"/><path d="M229.18.56a16.717,16.717,0,0,1-8.75-2.345,16.876,16.876,0,0,1-6.2-6.475,19.261,19.261,0,0,1-2.275-9.45,18.472,18.472,0,0,1,2.275-9.31,16.636,16.636,0,0,1,6.2-6.265,17.112,17.112,0,0,1,8.75-2.275,12.97,12.97,0,0,1,6.65,1.89,12.153,12.153,0,0,1,4.97,6.23v-7.63h14.56V0h-14.7V-6.51a12.776,12.776,0,0,1-4.48,5.25A12.593,12.593,0,0,1,229.18.56Zm4.55-11.06a6.621,6.621,0,0,0,4.9-2.065,6.96,6.96,0,0,0,2.03-5.075,6.5,6.5,0,0,0-2.03-4.935,6.865,6.865,0,0,0-4.9-1.925,6.843,6.843,0,0,0-5.04,2.03,6.759,6.759,0,0,0-2.03,4.97,6.759,6.759,0,0,0,2.03,4.97A6.843,6.843,0,0,0,233.73-10.5ZM262.36,0V-35.07h14.56v7.63a12.8,12.8,0,0,1,4.8-6.02,13.483,13.483,0,0,1,7.6-2.1q6.86,0,10.64,4.725T303.73-17.5V0H288.96V-18.27q0-6.23-5.04-6.23a6.152,6.152,0,0,0-4.9,2.205,8.781,8.781,0,0,0-1.89,5.915V0Zm63.49.56a16.717,16.717,0,0,1-8.75-2.345,16.875,16.875,0,0,1-6.2-6.475,19.261,19.261,0,0,1-2.275-9.45,18.472,18.472,0,0,1,2.275-9.31,16.636,16.636,0,0,1,6.2-6.265,17.112,17.112,0,0,1,8.75-2.275,12.968,12.968,0,0,1,6.615,1.855,11.077,11.077,0,0,1,4.725,5.985V-46.13l14.77-2.17V0H337.33V-6.51a12.776,12.776,0,0,1-4.48,5.25A12.593,12.593,0,0,1,325.85.56ZM330.4-10.5a6.621,6.621,0,0,0,4.9-2.065,6.96,6.96,0,0,0,2.03-5.075,6.5,6.5,0,0,0-2.03-4.935,6.865,6.865,0,0,0-4.9-1.925,6.843,6.843,0,0,0-5.04,2.03,6.759,6.759,0,0,0-2.03,4.97,6.759,6.759,0,0,0,2.03,4.97A6.843,6.843,0,0,0,330.4-10.5Z" transform="translate(-17338 5858.3)" fill="#fff"/><path d="M325.85.56a12.593,12.593,0,0,0,7-1.82,12.776,12.776,0,0,0,4.48-5.25V0h14.63V-48.3l-14.77,2.17v18.41a11.077,11.077,0,0,0-4.725-5.985,12.968,12.968,0,0,0-6.615-1.855,17.112,17.112,0,0,0-8.75,2.275,16.636,16.636,0,0,0-6.2,6.265,18.472,18.472,0,0,0-2.275,9.31A19.261,19.261,0,0,0,310.9-8.26a16.875,16.875,0,0,0,6.2,6.475A16.717,16.717,0,0,0,325.85.56M330.4-24.5a6.865,6.865,0,0,1,4.9,1.925,6.5,6.5,0,0,1,2.03,4.935,6.96,6.96,0,0,1-2.03,5.075,6.621,6.621,0,0,1-4.9,2.065,6.843,6.843,0,0,1-5.04-2.03,6.759,6.759,0,0,1-2.03-4.97,6.759,6.759,0,0,1,2.03-4.97,6.843,6.843,0,0,1,5.04-2.03M229.18.56a12.593,12.593,0,0,0,7-1.82,12.776,12.776,0,0,0,4.48-5.25V0h14.7V-35.07H240.8v7.63a12.153,12.153,0,0,0-4.97-6.23,12.97,12.97,0,0,0-6.65-1.89,17.112,17.112,0,0,0-8.75,2.275,16.636,16.636,0,0,0-6.2,6.265,18.472,18.472,0,0,0-2.275,9.31,19.261,19.261,0,0,0,2.275,9.45,16.876,16.876,0,0,0,6.2,6.475A16.717,16.717,0,0,0,229.18.56m4.55-25.06a6.865,6.865,0,0,1,4.9,1.925,6.5,6.5,0,0,1,2.03,4.935,6.96,6.96,0,0,1-2.03,5.075,6.621,6.621,0,0,1-4.9,2.065,6.843,6.843,0,0,1-5.04-2.03,6.759,6.759,0,0,1-2.03-4.97,6.759,6.759,0,0,1,2.03-4.97,6.843,6.843,0,0,1,5.04-2.03m70,24.5V-17.5q0-8.61-3.78-13.335T289.31-35.56a13.483,13.483,0,0,0-7.6,2.1,12.8,12.8,0,0,0-4.8,6.02v-7.63H262.36V0h14.77V-16.38a8.781,8.781,0,0,1,1.89-5.915,6.152,6.152,0,0,1,4.9-2.2q5.04,0,5.04,6.23V0h14.77m22.12,8.56a24.683,24.683,0,0,1-12.857-3.48,25.139,25.139,0,0,1-2.141-1.433A8,8,0,0,1,303.73,8H288.96a7.979,7.979,0,0,1-5.915-2.614A7.979,7.979,0,0,1,277.13,8H262.36a7.969,7.969,0,0,1-3.5-.8,7.969,7.969,0,0,1-3.5.8h-14.7a7.968,7.968,0,0,1-3.53-.819,22.088,22.088,0,0,1-7.95,1.379,24.683,24.683,0,0,1-12.857-3.48,24.851,24.851,0,0,1-9.1-9.48,27.245,27.245,0,0,1-3.268-13.31,26.437,26.437,0,0,1,3.325-13.273,24.611,24.611,0,0,1,9.129-9.222A25.086,25.086,0,0,1,229.18-43.56a20.428,20.428,0,0,1,7.705,1.512A7.965,7.965,0,0,1,240.8-43.07h14.56a7.969,7.969,0,0,1,3.5.8,7.969,7.969,0,0,1,3.5-.8h14.56a7.964,7.964,0,0,1,3.976,1.056,22.467,22.467,0,0,1,8.414-1.546c7,0,12.843,2.672,16.887,7.727q.316.395.614.8a24.555,24.555,0,0,1,6.274-5.177A25.086,25.086,0,0,1,325.85-43.56a20.462,20.462,0,0,1,3.34.273V-46.13a8,8,0,0,1,6.837-7.915l14.77-2.17a8,8,0,0,1,6.392,1.861,8,8,0,0,1,2.77,6.054V0a8,8,0,0,1-8,8H337.33a7.968,7.968,0,0,1-3.53-.819A22.088,22.088,0,0,1,325.85,8.56Z" transform="translate(-17338 5858.3)"/></g></svg>