<svg xmlns="http://www.w3.org/2000/svg" width="690.1" height="49.39" viewBox="0 0 690.1 49.39"><g transform="translate(17416.074 -5982.435)"><path d="M1.925,0V-24.08H9.2l6.02,11.69,5.88-11.69h7.28V0h-7.28V-12.6L16.66-4.2H13.685L9.2-12.6V0Zm37.7.28A8.359,8.359,0,0,1,35.245-.893a8.438,8.438,0,0,1-3.1-3.238A9.631,9.631,0,0,1,31.01-8.855a9.236,9.236,0,0,1,1.137-4.655,8.318,8.318,0,0,1,3.1-3.132A8.556,8.556,0,0,1,39.62-17.78a6.485,6.485,0,0,1,3.325.945A6.077,6.077,0,0,1,45.43-13.72v-3.815h7.28V0H45.36V-3.255A6.388,6.388,0,0,1,43.12-.63,6.3,6.3,0,0,1,39.62.28ZM41.9-5.25a3.31,3.31,0,0,0,2.45-1.033A3.48,3.48,0,0,0,45.36-8.82a3.25,3.25,0,0,0-1.015-2.468,3.432,3.432,0,0,0-2.45-.963,3.422,3.422,0,0,0-2.52,1.015A3.38,3.38,0,0,0,38.36-8.75a3.38,3.38,0,0,0,1.015,2.485A3.422,3.422,0,0,0,41.9-5.25ZM63.6,0H56.21V-23.065L63.6-24.15v12.005L71.82-18.83l3.78,4.865-4.935,4.13A7.131,7.131,0,0,0,72.1-6.352a3.222,3.222,0,0,0,2.45,1,6.6,6.6,0,0,0,1.5-.21L75.53.07a8.637,8.637,0,0,1-1.19.175Q73.815.28,73.325.28a8.344,8.344,0,0,1-5.477-1.663A9.645,9.645,0,0,1,64.89-6.265L63.6-5.145ZM88.48-4.62a11.876,11.876,0,0,0,2.152-.21A9.545,9.545,0,0,0,92.96-5.6l.84,4.515A12.05,12.05,0,0,1,90.982-.07,15.624,15.624,0,0,1,87.5.28,13.615,13.615,0,0,1,81.568-.875,8.3,8.3,0,0,1,77.945-4.06,8.9,8.9,0,0,1,76.72-8.75a8.572,8.572,0,0,1,1.313-4.76,8.914,8.914,0,0,1,3.518-3.15,10.586,10.586,0,0,1,4.865-1.12,7.511,7.511,0,0,1,6.055,2.467q2.1,2.468,2.1,7.017L84.14-6.965Q85.295-4.62,88.48-4.62Zm-4.9-5.565,5.5-1.155A2.511,2.511,0,0,0,88.305-13a2.328,2.328,0,0,0-1.575-.543,2.773,2.773,0,0,0-2.223.963A4.035,4.035,0,0,0,83.58-10.185Zm29.19,17.01a16.611,16.611,0,0,1-2.485-.175,9.652,9.652,0,0,1-1.82-.42l.56-5.075q.63.14,1.365.228a12.137,12.137,0,0,0,1.435.088A4.808,4.808,0,0,0,115.2.49a3.97,3.97,0,0,0,1.033-3.01v-2a6.145,6.145,0,0,1-2.38,3.1,6.726,6.726,0,0,1-3.64.963,5.948,5.948,0,0,1-5.04-2.363,10.87,10.87,0,0,1-1.785-6.668v-8.05h7.385V-9.1q0,3.115,2.205,3.115a2.583,2.583,0,0,0,2.188-1.12,4.85,4.85,0,0,0,.823-2.94v-7.49h7.385V-4.1q0,5.6-2.765,8.26T112.77,6.825ZM136.08.28a11.443,11.443,0,0,1-5.25-1.155,8.759,8.759,0,0,1-3.553-3.2A8.707,8.707,0,0,1,126-8.785a8.486,8.486,0,0,1,1.313-4.743A8.85,8.85,0,0,1,130.9-16.66a11.659,11.659,0,0,1,5.215-1.12,11.672,11.672,0,0,1,5.285,1.138,8.6,8.6,0,0,1,3.535,3.15,8.685,8.685,0,0,1,1.26,4.707,8.771,8.771,0,0,1-1.278,4.743,8.639,8.639,0,0,1-3.552,3.185A11.672,11.672,0,0,1,136.08.28Zm.07-5.25a2.991,2.991,0,0,0,2.363-1.068,4.038,4.038,0,0,0,.928-2.748,4.087,4.087,0,0,0-.91-2.747,2.9,2.9,0,0,0-2.31-1.068,3.067,3.067,0,0,0-2.432,1.068,4.038,4.038,0,0,0-.928,2.747,4.038,4.038,0,0,0,.928,2.748A2.991,2.991,0,0,0,136.15-4.97ZM158.1.28a10,10,0,0,1-6.947-2.258,7.986,7.986,0,0,1-2.5-6.248v-9.31h7.21V-7.91a2.972,2.972,0,0,0,.613,2.065,2.149,2.149,0,0,0,1.662.665,2,2,0,0,0,1.592-.665A3.1,3.1,0,0,0,160.3-7.91v-9.625h7.07v9.31a8.091,8.091,0,0,1-2.433,6.265A9.729,9.729,0,0,1,158.1.28ZM170.7,0V-17.535h7.28v4.375a6.507,6.507,0,0,1,2.188-3.5,5.737,5.737,0,0,1,3.553-1.12l.875,6.195a13.258,13.258,0,0,0-1.645-.1q-4.865,0-4.865,3.99V0ZM201.53.28a10.518,10.518,0,0,1-5.075-1.155,8.2,8.2,0,0,1-3.29-3.168A9.15,9.15,0,0,1,192.01-8.68a9.153,9.153,0,0,1,1.19-4.655,8.544,8.544,0,0,1,3.342-3.255,10.14,10.14,0,0,1,4.988-1.19,9.06,9.06,0,0,1,5.355,1.4l-.77,4.76a8.193,8.193,0,0,0-1.645-.543A7.34,7.34,0,0,0,203-12.32a3.742,3.742,0,0,0-2.713.962,3.454,3.454,0,0,0-1,2.608,3.561,3.561,0,0,0,.98,2.607,3.468,3.468,0,0,0,2.59,1,11.193,11.193,0,0,0,3.29-.6l.665,4.9a11.043,11.043,0,0,1-2.4.84A13.237,13.237,0,0,1,201.53.28Zm16.975,0a11.443,11.443,0,0,1-5.25-1.155,8.759,8.759,0,0,1-3.553-3.2,8.707,8.707,0,0,1-1.277-4.708,8.486,8.486,0,0,1,1.313-4.743,8.85,8.85,0,0,1,3.587-3.132,11.659,11.659,0,0,1,5.215-1.12,11.672,11.672,0,0,1,5.285,1.138,8.6,8.6,0,0,1,3.535,3.15,8.685,8.685,0,0,1,1.26,4.707,8.771,8.771,0,0,1-1.278,4.743A8.639,8.639,0,0,1,223.79-.858,11.672,11.672,0,0,1,218.505.28Zm.07-5.25a2.991,2.991,0,0,0,2.363-1.068,4.038,4.038,0,0,0,.928-2.748,4.087,4.087,0,0,0-.91-2.747,2.9,2.9,0,0,0-2.31-1.068,3.067,3.067,0,0,0-2.432,1.068,4.038,4.038,0,0,0-.928,2.747,4.038,4.038,0,0,0,.928,2.748A2.991,2.991,0,0,0,218.575-4.97ZM237.72.28a7.537,7.537,0,0,1-3.8-.84,5.041,5.041,0,0,1-2.118-2.275,7.569,7.569,0,0,1-.665-3.22v-11.48h7.385V-7.07A1.609,1.609,0,0,0,239-5.827a1.615,1.615,0,0,0,1.137.437,2.885,2.885,0,0,0,1.435-.42l.385,4.865a5.451,5.451,0,0,1-2,.91A9.058,9.058,0,0,1,237.72.28Zm-2.87-19.74a4.007,4.007,0,0,1-2.765-1.032,3.272,3.272,0,0,1-1.155-2.538,3.089,3.089,0,0,1,.56-1.837,3.919,3.919,0,0,1,1.47-1.243,4.176,4.176,0,0,1,1.89-.455,4.041,4.041,0,0,1,1.978.49,4.047,4.047,0,0,1,1.435,1.3,3.069,3.069,0,0,1,.542,1.75,3.1,3.1,0,0,1-.577,1.855,4.04,4.04,0,0,1-1.47,1.26A4.141,4.141,0,0,1,234.85-19.46ZM243.74,0V-17.535h7.28v3.815a6.4,6.4,0,0,1,2.4-3.01,6.741,6.741,0,0,1,3.8-1.05,6.425,6.425,0,0,1,5.32,2.363,10.428,10.428,0,0,1,1.89,6.668V0H257.04V-9.135q0-3.115-2.52-3.115a3.076,3.076,0,0,0-2.45,1.1,4.39,4.39,0,0,0-.945,2.957V0Zm29.645.28A16.557,16.557,0,0,1,270.2-.035a14.162,14.162,0,0,1-2.9-.875l1.015-4.41a8.866,8.866,0,0,0,2.205.718,12.115,12.115,0,0,0,2.485.3q1.75,0,1.75-.945a.708.708,0,0,0-.543-.665,7.946,7.946,0,0,0-1.4-.367q-.857-.158-1.837-.42a6.622,6.622,0,0,1-1.837-.8,4.05,4.05,0,0,1-1.4-1.558,5.639,5.639,0,0,1-.543-2.66,5.238,5.238,0,0,1,2.188-4.41,9.78,9.78,0,0,1,6-1.645,16.954,16.954,0,0,1,2.747.21,7.174,7.174,0,0,1,2.432.875l-.735,4.27a10.035,10.035,0,0,0-3.885-.77,5.982,5.982,0,0,0-1.872.21.735.735,0,0,0-.578.7q0,.385.56.6a10.646,10.646,0,0,0,1.453.4,17.006,17.006,0,0,1,1.872.525,8,8,0,0,1,1.872.927A4.557,4.557,0,0,1,280.7-8.243a5.221,5.221,0,0,1,.56,2.573A5.192,5.192,0,0,1,279.2-1.3,9.4,9.4,0,0,1,273.385.28ZM293.51,0l-4.55-17.535h7.49L298.8-6.51l2.765-11.025h6.02l2.8,11.305,2.345-11.305h5.985L314.475,0H306.11L303.8-8.925,301.6,0Zm36.225.28a11.444,11.444,0,0,1-5.25-1.155,8.759,8.759,0,0,1-3.552-3.2,8.707,8.707,0,0,1-1.277-4.708,8.486,8.486,0,0,1,1.313-4.743,8.85,8.85,0,0,1,3.587-3.132,11.659,11.659,0,0,1,5.215-1.12,11.672,11.672,0,0,1,5.285,1.138,8.6,8.6,0,0,1,3.535,3.15,8.685,8.685,0,0,1,1.26,4.707,8.772,8.772,0,0,1-1.277,4.743A8.639,8.639,0,0,1,335.02-.858,11.672,11.672,0,0,1,329.735.28Zm.07-5.25a2.991,2.991,0,0,0,2.363-1.068,4.038,4.038,0,0,0,.927-2.748,4.087,4.087,0,0,0-.91-2.747,2.9,2.9,0,0,0-2.31-1.068,3.067,3.067,0,0,0-2.432,1.068,4.038,4.038,0,0,0-.928,2.747,4.038,4.038,0,0,0,.928,2.748A2.991,2.991,0,0,0,329.805-4.97ZM342.475,0V-17.535h7.28v4.375a6.507,6.507,0,0,1,2.188-3.5,5.737,5.737,0,0,1,3.552-1.12l.875,6.195a13.258,13.258,0,0,0-1.645-.1q-4.865,0-4.865,3.99V0ZM366,0H358.61V-23.065L366-24.15v12.005l8.225-6.685L378-13.965l-4.935,4.13A7.131,7.131,0,0,0,374.5-6.352a3.222,3.222,0,0,0,2.45,1,6.6,6.6,0,0,0,1.505-.21L377.93.07a8.637,8.637,0,0,1-1.19.175q-.525.035-1.015.035a8.344,8.344,0,0,1-5.477-1.663,9.645,9.645,0,0,1-2.958-4.883L366-5.145ZM387.52,0V-13.195h-2.2v-4.34h2.2V-18.55a5.718,5.718,0,0,1,.945-3.308,6.125,6.125,0,0,1,2.625-2.135,9.421,9.421,0,0,1,3.885-.753,11.935,11.935,0,0,1,4.62.77l-.49,4.445a14.561,14.561,0,0,0-1.505-.263,12.137,12.137,0,0,0-1.435-.087q-2.345,0-2.345,1.435a1.9,1.9,0,0,0,.245.91H399v4.34h-4.1V0Zm21.455.28a11.444,11.444,0,0,1-5.25-1.155,8.759,8.759,0,0,1-3.552-3.2A8.707,8.707,0,0,1,398.9-8.785a8.486,8.486,0,0,1,1.313-4.743A8.85,8.85,0,0,1,403.8-16.66a11.659,11.659,0,0,1,5.215-1.12,11.672,11.672,0,0,1,5.285,1.138,8.6,8.6,0,0,1,3.535,3.15,8.685,8.685,0,0,1,1.26,4.707,8.772,8.772,0,0,1-1.277,4.743A8.639,8.639,0,0,1,414.26-.858,11.672,11.672,0,0,1,408.975.28Zm.07-5.25a2.991,2.991,0,0,0,2.363-1.068,4.038,4.038,0,0,0,.927-2.748,4.087,4.087,0,0,0-.91-2.747,2.9,2.9,0,0,0-2.31-1.068,3.067,3.067,0,0,0-2.432,1.068,4.038,4.038,0,0,0-.927,2.747,4.038,4.038,0,0,0,.927,2.748A2.991,2.991,0,0,0,409.045-4.97ZM421.715,0V-17.535H429v4.375a6.507,6.507,0,0,1,2.188-3.5,5.737,5.737,0,0,1,3.552-1.12l.875,6.195a13.258,13.258,0,0,0-1.645-.1q-4.865,0-4.865,3.99V0ZM453.11,6.825a16.611,16.611,0,0,1-2.485-.175,9.653,9.653,0,0,1-1.82-.42l.56-5.075q.63.14,1.365.228a12.136,12.136,0,0,0,1.435.088,4.808,4.808,0,0,0,3.378-.98,3.97,3.97,0,0,0,1.033-3.01v-2a6.145,6.145,0,0,1-2.38,3.1,6.726,6.726,0,0,1-3.64.963,5.948,5.948,0,0,1-5.04-2.363,10.87,10.87,0,0,1-1.785-6.668v-8.05h7.385V-9.1q0,3.115,2.205,3.115a2.583,2.583,0,0,0,2.188-1.12,4.85,4.85,0,0,0,.822-2.94v-7.49h7.385V-4.1q0,5.6-2.765,8.26T453.11,6.825ZM476.42.28a11.444,11.444,0,0,1-5.25-1.155,8.759,8.759,0,0,1-3.552-3.2,8.707,8.707,0,0,1-1.277-4.708,8.486,8.486,0,0,1,1.313-4.743,8.85,8.85,0,0,1,3.587-3.132,11.659,11.659,0,0,1,5.215-1.12,11.672,11.672,0,0,1,5.285,1.138,8.6,8.6,0,0,1,3.535,3.15,8.685,8.685,0,0,1,1.26,4.707,8.772,8.772,0,0,1-1.277,4.743,8.639,8.639,0,0,1-3.553,3.185A11.672,11.672,0,0,1,476.42.28Zm.07-5.25a2.991,2.991,0,0,0,2.363-1.068,4.038,4.038,0,0,0,.927-2.748,4.087,4.087,0,0,0-.91-2.747,2.9,2.9,0,0,0-2.31-1.068,3.067,3.067,0,0,0-2.432,1.068,4.038,4.038,0,0,0-.927,2.747,4.038,4.038,0,0,0,.927,2.748A2.991,2.991,0,0,0,476.49-4.97ZM498.435.28a10,10,0,0,1-6.947-2.258,7.986,7.986,0,0,1-2.5-6.248v-9.31h7.21V-7.91a2.972,2.972,0,0,0,.612,2.065,2.149,2.149,0,0,0,1.663.665,2,2,0,0,0,1.592-.665,3.1,3.1,0,0,0,.578-2.065v-9.625h7.07v9.31a8.091,8.091,0,0,1-2.432,6.265A9.729,9.729,0,0,1,498.435.28ZM517.265,0V-4.935a64.573,64.573,0,0,0,6.125-6.493q2.205-2.782,2.205-4.637a2.312,2.312,0,0,0-.7-1.837,2.663,2.663,0,0,0-1.82-.613,8.071,8.071,0,0,0-4.515,1.435l-1.715-5.46a12.954,12.954,0,0,1,3.552-1.54,14.645,14.645,0,0,1,3.833-.525,9.776,9.776,0,0,1,4.725,1.015,6.692,6.692,0,0,1,2.782,2.765,8.39,8.39,0,0,1,.928,3.99,10.219,10.219,0,0,1-2.153,6.265,22.457,22.457,0,0,1-6.422,5.46h8.435V0ZM543.97,0V-5.67h-9.7v-5.18l9.31-13.23h7.84v13.3h3.36v5.11h-3.36V0Zm-4.55-10.78h4.55v-7.35ZM555.555,0l9.31-24.08h6.79L562.345,0ZM580.16.6l-6.37-2.7L581.6-18.97h-8.68v-5.11H589.3v4.27ZM601.51,0l-4.55-17.535h7.49L606.8-6.51l2.765-11.025h6.02l2.8,11.305,2.345-11.305h5.985L622.475,0H614.11L611.8-8.925,609.6,0Zm33.7.28a7.537,7.537,0,0,1-3.8-.84A5.04,5.04,0,0,1,629.3-2.835a7.57,7.57,0,0,1-.665-3.22v-11.48h7.385V-7.07a1.609,1.609,0,0,0,.472,1.243,1.615,1.615,0,0,0,1.138.437,2.884,2.884,0,0,0,1.435-.42l.385,4.865a5.451,5.451,0,0,1-1.995.91A9.058,9.058,0,0,1,635.215.28Zm-2.87-19.74a4.007,4.007,0,0,1-2.765-1.032,3.272,3.272,0,0,1-1.155-2.538,3.089,3.089,0,0,1,.56-1.837,3.919,3.919,0,0,1,1.47-1.243,4.176,4.176,0,0,1,1.89-.455,4.041,4.041,0,0,1,1.978.49,4.047,4.047,0,0,1,1.435,1.3,3.069,3.069,0,0,1,.542,1.75,3.1,3.1,0,0,1-.578,1.855,4.04,4.04,0,0,1-1.47,1.26A4.141,4.141,0,0,1,632.345-19.46ZM648.34.28A8.491,8.491,0,0,1,644.3-.56a5.122,5.122,0,0,1-2.258-2.275,7.248,7.248,0,0,1-.7-3.22v-7.14H639.1v-4.34h2.765l3.255-5.53h3.6v5.53h4.06v4.34h-4.06V-7.07a1.527,1.527,0,0,0,.525,1.243,2.061,2.061,0,0,0,1.365.437,3.728,3.728,0,0,0,1.68-.42l.525,4.865a6.2,6.2,0,0,1-2.135.91A10.011,10.011,0,0,1,648.34.28Zm7-.28V-23.065l7.385-1.085v10.22a5.91,5.91,0,0,1,2.31-2.835,6.828,6.828,0,0,1,3.78-1.015,6.425,6.425,0,0,1,5.32,2.363,10.428,10.428,0,0,1,1.89,6.668V0H668.64V-9.135q0-3.115-2.52-3.115a3.076,3.076,0,0,0-2.45,1.1,4.39,4.39,0,0,0-.945,2.957V0Z" transform="translate(-17410 6017)" fill="#fff"/><path d="M453.11,6.825q5.075,0,7.84-2.66t2.765-8.26v-13.44H456.33v7.49a4.849,4.849,0,0,1-.823,2.94,2.582,2.582,0,0,1-2.187,1.12q-2.205,0-2.205-3.115v-8.435H443.73v8.05a10.871,10.871,0,0,0,1.785,6.668,5.948,5.948,0,0,0,5.04,2.362,6.726,6.726,0,0,0,3.64-.962,6.146,6.146,0,0,0,2.38-3.1V-2.52A3.97,3.97,0,0,1,455.543.49a4.808,4.808,0,0,1-3.377.98,12.148,12.148,0,0,1-1.435-.087q-.735-.088-1.365-.228l-.56,5.075a9.647,9.647,0,0,0,1.82.42,16.615,16.615,0,0,0,2.485.175m-340.34,0q5.075,0,7.84-2.66t2.765-8.26v-13.44H115.99v7.49a4.85,4.85,0,0,1-.822,2.94,2.583,2.583,0,0,1-2.188,1.12q-2.2,0-2.2-3.115v-8.435H103.39v8.05a10.87,10.87,0,0,0,1.785,6.668,5.948,5.948,0,0,0,5.04,2.362,6.726,6.726,0,0,0,3.64-.962,6.146,6.146,0,0,0,2.38-3.1V-2.52A3.971,3.971,0,0,1,115.2.49a4.808,4.808,0,0,1-3.378.98,12.15,12.15,0,0,1-1.435-.087q-.735-.088-1.365-.228l-.56,5.075a9.648,9.648,0,0,0,1.82.42,16.616,16.616,0,0,0,2.485.175M580.16.595,589.3-19.81v-4.27h-16.38v5.11h8.68L573.79-2.1,580.16.595M648.34.28a10.012,10.012,0,0,0,2.345-.315,6.206,6.206,0,0,0,2.135-.91L652.3-5.81a2.889,2.889,0,0,1-3.045-.017,1.527,1.527,0,0,1-.525-1.243V-13.2h4.06v-4.34h-4.06v-5.53h-3.6l-3.255,5.53H639.1v4.34h2.24v7.14a7.248,7.248,0,0,0,.7,3.22A5.122,5.122,0,0,0,644.3-.56a8.491,8.491,0,0,0,4.042.84m-13.125,0a9.058,9.058,0,0,0,2.24-.315,5.452,5.452,0,0,0,1.995-.91l-.385-4.865a2.127,2.127,0,0,1-2.573-.017,1.61,1.61,0,0,1-.472-1.243V-17.535h-7.385v11.48a7.569,7.569,0,0,0,.665,3.22A5.04,5.04,0,0,0,631.418-.56a7.537,7.537,0,0,0,3.8.84m-136.78,0a9.729,9.729,0,0,0,6.842-2.24,8.091,8.091,0,0,0,2.433-6.265v-9.31h-7.07V-7.91a3.1,3.1,0,0,1-.578,2.065,2,2,0,0,1-1.592.665,2.149,2.149,0,0,1-1.663-.665A2.972,2.972,0,0,1,496.2-7.91v-9.625h-7.21v9.31a7.986,7.986,0,0,0,2.5,6.248A10,10,0,0,0,498.435.28M476.42.28a11.674,11.674,0,0,0,5.285-1.137,8.639,8.639,0,0,0,3.552-3.185,8.772,8.772,0,0,0,1.278-4.743,8.685,8.685,0,0,0-1.26-4.707,8.6,8.6,0,0,0-3.535-3.15,11.672,11.672,0,0,0-5.285-1.138,11.659,11.659,0,0,0-5.215,1.12,8.849,8.849,0,0,0-3.588,3.132,8.486,8.486,0,0,0-1.312,4.743,8.707,8.707,0,0,0,1.277,4.708,8.759,8.759,0,0,0,3.552,3.2A11.444,11.444,0,0,0,476.42.28m.14-12.88a2.9,2.9,0,0,1,2.31,1.068,4.087,4.087,0,0,1,.91,2.747,4.038,4.038,0,0,1-.928,2.748A2.991,2.991,0,0,1,476.49-4.97a2.991,2.991,0,0,1-2.363-1.067,4.038,4.038,0,0,1-.927-2.748,4.038,4.038,0,0,1,.927-2.747A3.067,3.067,0,0,1,476.56-12.6M408.975.28A11.673,11.673,0,0,0,414.26-.857a8.639,8.639,0,0,0,3.553-3.185,8.772,8.772,0,0,0,1.278-4.743,8.685,8.685,0,0,0-1.26-4.707,8.6,8.6,0,0,0-3.535-3.15,11.672,11.672,0,0,0-5.285-1.138,11.66,11.66,0,0,0-5.215,1.12,8.85,8.85,0,0,0-3.587,3.132A8.486,8.486,0,0,0,398.9-8.785a8.707,8.707,0,0,0,1.277,4.708,8.759,8.759,0,0,0,3.552,3.2A11.444,11.444,0,0,0,408.975.28m.14-12.88a2.9,2.9,0,0,1,2.31,1.068,4.087,4.087,0,0,1,.91,2.747,4.038,4.038,0,0,1-.928,2.748,2.991,2.991,0,0,1-2.363,1.067,2.991,2.991,0,0,1-2.362-1.067,4.038,4.038,0,0,1-.927-2.748,4.038,4.038,0,0,1,.927-2.747,3.067,3.067,0,0,1,2.433-1.068M375.725.28q.49,0,1.015-.035A8.637,8.637,0,0,0,377.93.07l.525-5.635a6.6,6.6,0,0,1-1.505.21,3.222,3.222,0,0,1-2.45-1,7.131,7.131,0,0,1-1.435-3.483L378-13.965l-3.78-4.865L366-12.145V-24.15l-7.385,1.085V0H366V-5.145l1.295-1.12a9.646,9.646,0,0,0,2.958,4.883A8.344,8.344,0,0,0,375.725.28m-45.99,0A11.673,11.673,0,0,0,335.02-.857a8.638,8.638,0,0,0,3.553-3.185,8.772,8.772,0,0,0,1.277-4.743,8.685,8.685,0,0,0-1.26-4.707,8.6,8.6,0,0,0-3.535-3.15,11.672,11.672,0,0,0-5.285-1.138,11.659,11.659,0,0,0-5.215,1.12,8.85,8.85,0,0,0-3.587,3.132,8.486,8.486,0,0,0-1.313,4.743,8.707,8.707,0,0,0,1.278,4.708,8.759,8.759,0,0,0,3.552,3.2A11.444,11.444,0,0,0,329.735.28m.14-12.88a2.9,2.9,0,0,1,2.31,1.068,4.087,4.087,0,0,1,.91,2.747,4.038,4.038,0,0,1-.927,2.748A2.991,2.991,0,0,1,329.8-4.97a2.991,2.991,0,0,1-2.362-1.067,4.038,4.038,0,0,1-.928-2.748,4.038,4.038,0,0,1,.928-2.747,3.067,3.067,0,0,1,2.432-1.068M273.385.28A9.4,9.4,0,0,0,279.2-1.3,5.192,5.192,0,0,0,281.26-5.67a5.22,5.22,0,0,0-.56-2.572,4.557,4.557,0,0,0-1.452-1.593,8,8,0,0,0-1.873-.927,16.979,16.979,0,0,0-1.872-.525,10.652,10.652,0,0,1-1.453-.4q-.56-.21-.56-.6a.735.735,0,0,1,.578-.7,5.982,5.982,0,0,1,1.872-.21,10.034,10.034,0,0,1,3.885.77l.735-4.27a7.173,7.173,0,0,0-2.432-.875,16.955,16.955,0,0,0-2.748-.21,9.781,9.781,0,0,0-6,1.645,5.238,5.238,0,0,0-2.188,4.41,5.64,5.64,0,0,0,.543,2.66,4.051,4.051,0,0,0,1.4,1.558,6.622,6.622,0,0,0,1.837.8q.98.263,1.838.42a7.949,7.949,0,0,1,1.4.367.708.708,0,0,1,.542.665q0,.945-1.75.945a12.12,12.12,0,0,1-2.485-.3,8.868,8.868,0,0,1-2.205-.718L267.3-.91a14.162,14.162,0,0,0,2.9.875,16.557,16.557,0,0,0,3.185.315M237.72.28a9.057,9.057,0,0,0,2.24-.315,5.45,5.45,0,0,0,1.995-.91L241.57-5.81A2.127,2.127,0,0,1,239-5.827a1.61,1.61,0,0,1-.473-1.243V-17.535H231.14v11.48a7.57,7.57,0,0,0,.665,3.22A5.041,5.041,0,0,0,233.923-.56a7.537,7.537,0,0,0,3.8.84m-19.215,0A11.673,11.673,0,0,0,223.79-.857a8.639,8.639,0,0,0,3.553-3.185,8.772,8.772,0,0,0,1.277-4.743,8.685,8.685,0,0,0-1.26-4.707,8.6,8.6,0,0,0-3.535-3.15,11.672,11.672,0,0,0-5.285-1.138,11.66,11.66,0,0,0-5.215,1.12,8.85,8.85,0,0,0-3.587,3.132,8.486,8.486,0,0,0-1.313,4.743A8.706,8.706,0,0,0,209.7-4.077a8.759,8.759,0,0,0,3.552,3.2A11.444,11.444,0,0,0,218.505.28m.14-12.88a2.9,2.9,0,0,1,2.31,1.068,4.087,4.087,0,0,1,.91,2.747,4.038,4.038,0,0,1-.927,2.748,2.991,2.991,0,0,1-2.363,1.067,2.991,2.991,0,0,1-2.362-1.067,4.038,4.038,0,0,1-.928-2.748,4.038,4.038,0,0,1,.928-2.747,3.067,3.067,0,0,1,2.432-1.068M201.53.28A13.24,13.24,0,0,0,204.418,0a11.04,11.04,0,0,0,2.4-.84l-.665-4.9c-2.709.853-4.658.841-5.88-.4a3.561,3.561,0,0,1-.98-2.608,3.455,3.455,0,0,1,1-2.608,4.541,4.541,0,0,1,4.182-.805,8.2,8.2,0,0,1,1.645.543l.77-4.76a9.059,9.059,0,0,0-5.355-1.4,10.14,10.14,0,0,0-4.987,1.19,8.545,8.545,0,0,0-3.343,3.255,9.153,9.153,0,0,0-1.19,4.655,9.15,9.15,0,0,0,1.155,4.638,8.2,8.2,0,0,0,3.29,3.167A10.518,10.518,0,0,0,201.53.28M158.1.28a9.729,9.729,0,0,0,6.842-2.24,8.091,8.091,0,0,0,2.433-6.265v-9.31H160.3V-7.91a3.1,3.1,0,0,1-.577,2.065,2,2,0,0,1-1.593.665,2.149,2.149,0,0,1-1.662-.665,2.972,2.972,0,0,1-.613-2.065v-9.625h-7.21v9.31a7.986,7.986,0,0,0,2.5,6.248A10,10,0,0,0,158.1.28M136.08.28a11.673,11.673,0,0,0,5.285-1.137,8.64,8.64,0,0,0,3.553-3.185A8.772,8.772,0,0,0,146.2-8.785a8.685,8.685,0,0,0-1.26-4.707,8.6,8.6,0,0,0-3.535-3.15,11.672,11.672,0,0,0-5.285-1.138,11.659,11.659,0,0,0-5.215,1.12,8.85,8.85,0,0,0-3.587,3.132A8.486,8.486,0,0,0,126-8.785a8.706,8.706,0,0,0,1.278,4.708,8.759,8.759,0,0,0,3.552,3.2A11.443,11.443,0,0,0,136.08.28m.14-12.88a2.9,2.9,0,0,1,2.31,1.068,4.087,4.087,0,0,1,.91,2.747,4.038,4.038,0,0,1-.927,2.748A2.992,2.992,0,0,1,136.15-4.97a2.991,2.991,0,0,1-2.362-1.067,4.038,4.038,0,0,1-.928-2.748,4.038,4.038,0,0,1,.928-2.747A3.067,3.067,0,0,1,136.22-12.6M87.5.28a15.623,15.623,0,0,0,3.483-.35A12.05,12.05,0,0,0,93.8-1.085L92.96-5.6a9.545,9.545,0,0,1-2.327.77,11.877,11.877,0,0,1-2.153.21q-3.185,0-4.34-2.345L94.57-8.3q0-4.55-2.1-7.017a7.511,7.511,0,0,0-6.055-2.468,10.586,10.586,0,0,0-4.865,1.12,8.913,8.913,0,0,0-3.517,3.15A8.572,8.572,0,0,0,76.72-8.75a8.9,8.9,0,0,0,1.225,4.69A8.3,8.3,0,0,0,81.568-.875,13.614,13.614,0,0,0,87.5.28m-.77-13.825A2.328,2.328,0,0,1,88.305-13a2.511,2.511,0,0,1,.77,1.662L83.58-10.185a4.035,4.035,0,0,1,.928-2.4,2.772,2.772,0,0,1,2.222-.963M73.325.28q.49,0,1.015-.035A8.638,8.638,0,0,0,75.53.07l.525-5.635a6.6,6.6,0,0,1-1.505.21,3.222,3.222,0,0,1-2.45-1,7.131,7.131,0,0,1-1.435-3.483l4.935-4.13L71.82-18.83,63.6-12.145V-24.15L56.21-23.065V0H63.6V-5.145l1.3-1.12a9.645,9.645,0,0,0,2.958,4.883A8.344,8.344,0,0,0,73.325.28m-33.7,0a6.3,6.3,0,0,0,3.5-.91,6.387,6.387,0,0,0,2.24-2.625V0h7.35V-17.535H45.43v3.815a6.076,6.076,0,0,0-2.485-3.115,6.485,6.485,0,0,0-3.325-.945,8.556,8.556,0,0,0-4.375,1.138,8.318,8.318,0,0,0-3.1,3.132A9.237,9.237,0,0,0,31.01-8.855,9.631,9.631,0,0,0,32.147-4.13a8.439,8.439,0,0,0,3.1,3.238A8.359,8.359,0,0,0,39.62.28M41.9-12.25a3.432,3.432,0,0,1,2.45.963A3.25,3.25,0,0,1,45.36-8.82a3.48,3.48,0,0,1-1.015,2.538A3.31,3.31,0,0,1,41.9-5.25a3.422,3.422,0,0,1-2.52-1.015A3.38,3.38,0,0,1,38.36-8.75a3.38,3.38,0,0,1,1.015-2.485A3.422,3.422,0,0,1,41.9-12.25M676.025,0V-8.75a10.428,10.428,0,0,0-1.89-6.667,6.425,6.425,0,0,0-5.32-2.363,6.828,6.828,0,0,0-3.78,1.015,5.91,5.91,0,0,0-2.31,2.835V-24.15l-7.385,1.085V0h7.385V-8.19a4.39,4.39,0,0,1,.945-2.957,3.076,3.076,0,0,1,2.45-1.1q2.52,0,2.52,3.115V0h7.385m-53.55,0,4.235-17.535h-5.985L618.38-6.23l-2.8-11.305h-6.02L606.8-6.51,604.45-17.535h-7.49L601.51,0H609.6L611.8-8.925,614.11,0h8.365m-60.13,0,9.31-24.08h-6.79L555.555,0h6.79m-10.92,0V-5.67h3.36v-5.11h-3.36v-13.3h-7.84l-9.31,13.23v5.18h9.7V0h7.455M543.97-18.13v7.35h-4.55l4.55-7.35M532.525,0V-5.11H524.09a22.457,22.457,0,0,0,6.422-5.46,10.219,10.219,0,0,0,2.153-6.265,8.389,8.389,0,0,0-.928-3.99,6.692,6.692,0,0,0-2.782-2.765,9.777,9.777,0,0,0-4.725-1.015,14.645,14.645,0,0,0-3.833.525,12.956,12.956,0,0,0-3.552,1.54l1.715,5.46a8.072,8.072,0,0,1,4.515-1.435,2.663,2.663,0,0,1,1.82.613,2.312,2.312,0,0,1,.7,1.837q0,1.855-2.205,4.638a64.577,64.577,0,0,1-6.125,6.492V0h15.26M429.1,0V-7.7q0-3.99,4.865-3.99a13.258,13.258,0,0,1,1.645.1l-.875-6.195a5.737,5.737,0,0,0-3.553,1.12A6.507,6.507,0,0,0,429-13.16v-4.375h-7.28V0H429.1m-34.2,0V-13.2H399v-4.34h-4.935a1.9,1.9,0,0,1-.245-.91q0-1.435,2.345-1.435a12.151,12.151,0,0,1,1.435.087,14.579,14.579,0,0,1,1.505.263l.49-4.445a11.935,11.935,0,0,0-4.62-.77,9.42,9.42,0,0,0-3.885.753,6.125,6.125,0,0,0-2.625,2.135,5.718,5.718,0,0,0-.945,3.308v1.015h-2.205v4.34h2.205V0h7.385M349.86,0V-7.7q0-3.99,4.865-3.99a13.257,13.257,0,0,1,1.645.1l-.875-6.195a5.737,5.737,0,0,0-3.552,1.12,6.507,6.507,0,0,0-2.188,3.5v-4.375h-7.28V0h7.385M314.475,0l4.235-17.535h-5.985L310.38-6.23l-2.8-11.305h-6.02L298.8-6.51,296.45-17.535h-7.49L293.51,0H301.6L303.8-8.925,306.11,0h8.365m-50.05,0V-8.75a10.428,10.428,0,0,0-1.89-6.667,6.425,6.425,0,0,0-5.32-2.363,6.741,6.741,0,0,0-3.8,1.05,6.4,6.4,0,0,0-2.4,3.01v-3.815h-7.28V0h7.385V-8.19a4.39,4.39,0,0,1,.945-2.957,3.076,3.076,0,0,1,2.45-1.1q2.52,0,2.52,3.115V0h7.385M178.08,0V-7.7q0-3.99,4.865-3.99a13.258,13.258,0,0,1,1.645.1l-.875-6.195a5.737,5.737,0,0,0-3.552,1.12,6.506,6.506,0,0,0-2.188,3.5v-4.375H170.7V0h7.385M28.385,0V-24.08h-7.28l-5.88,11.69L9.205-24.08H1.925V0h7.28V-12.6l4.48,8.4H16.66l4.445-8.4V0h7.28m603.96-19.46a4.141,4.141,0,0,0,1.908-.455,4.04,4.04,0,0,0,1.47-1.26,3.1,3.1,0,0,0,.578-1.855,3.069,3.069,0,0,0-.543-1.75,4.047,4.047,0,0,0-1.435-1.3,4.185,4.185,0,0,0-3.867-.035,3.92,3.92,0,0,0-1.47,1.242,3.089,3.089,0,0,0-.56,1.838,3.273,3.273,0,0,0,1.155,2.538,4.007,4.007,0,0,0,2.765,1.032m-397.5,0a4.141,4.141,0,0,0,1.908-.455,4.041,4.041,0,0,0,1.47-1.26,3.1,3.1,0,0,0,.577-1.855,3.069,3.069,0,0,0-.542-1.75,4.047,4.047,0,0,0-1.435-1.3,4.185,4.185,0,0,0-3.868-.035,3.921,3.921,0,0,0-1.47,1.242,3.089,3.089,0,0,0-.56,1.838,3.272,3.272,0,0,0,1.155,2.538,4.007,4.007,0,0,0,2.765,1.032M453.11,14.825a24.593,24.593,0,0,1-3.683-.265,17.244,17.244,0,0,1-3.388-.823,8,8,0,0,1-5.185-8.384L441,4.034a14.113,14.113,0,0,1-1.867-2.029A15.483,15.483,0,0,1,437.1-1.629V0a8,8,0,0,1-8,8h-7.385A7.962,7.962,0,0,1,417.2,6.6a19.856,19.856,0,0,1-8.221,1.677A19.4,19.4,0,0,1,400.1,6.258l-.131-.067A7.966,7.966,0,0,1,394.905,8H387.52a7.964,7.964,0,0,1-4.748-1.561A7.985,7.985,0,0,1,379.579,7.9a16.593,16.593,0,0,1-2.306.329q-.8.053-1.548.053a18.152,18.152,0,0,1-6.3-1.049A7.969,7.969,0,0,1,366,8H358.61a7.962,7.962,0,0,1-4.375-1.3A7.962,7.962,0,0,1,349.86,8h-7.385a7.964,7.964,0,0,1-4.519-1.4,19.856,19.856,0,0,1-8.221,1.677,19.4,19.4,0,0,1-8.871-2.022q-.443-.225-.867-.47A7.993,7.993,0,0,1,314.475,8H306.11a7.994,7.994,0,0,1-2.257-.324A7.993,7.993,0,0,1,301.6,8H293.51a8,8,0,0,1-7.377-4.9,13.454,13.454,0,0,1-2.086,1.971A17.152,17.152,0,0,1,273.385,8.28a24.545,24.545,0,0,1-4.721-.464q-.728-.143-1.429-.324a7.983,7.983,0,0,1-2.81.508H257.04a7.979,7.979,0,0,1-2.958-.564A7.979,7.979,0,0,1,251.125,8H243.74a8.016,8.016,0,0,1-1.963-.243,16.95,16.95,0,0,1-4.057.523,15.384,15.384,0,0,1-7.8-1.915,13.688,13.688,0,0,1-1.227-.8q-.639.39-1.323.732a19.631,19.631,0,0,1-8.863,1.982,19.536,19.536,0,0,1-8.437-1.809A19.1,19.1,0,0,1,206.176,7.8a20.958,20.958,0,0,1-4.646.476,18.448,18.448,0,0,1-8.881-2.119A16.119,16.119,0,0,1,186.227-.06q-.074-.13-.147-.261V0a8,8,0,0,1-8,8H170.7a7.964,7.964,0,0,1-4.447-1.349A19.477,19.477,0,0,1,158.1,8.28a18.268,18.268,0,0,1-11-3.255A17.662,17.662,0,0,1,144.943,6.3,19.631,19.631,0,0,1,136.08,8.28a19.852,19.852,0,0,1-7.471-1.385,15.6,15.6,0,0,1-2.453,3.035c-3.376,3.248-7.88,4.895-13.386,4.895a24.6,24.6,0,0,1-3.683-.265,17.244,17.244,0,0,1-3.388-.823,8,8,0,0,1-5.186-8.384l.145-1.318q-.209-.187-.412-.382a7.982,7.982,0,0,1-2.793,2.38,20.1,20.1,0,0,1-4.679,1.7A23.651,23.651,0,0,1,87.5,8.28a22.6,22.6,0,0,1-7.914-1.314,7.987,7.987,0,0,1-2.407.932,16.593,16.593,0,0,1-2.306.329,18.677,18.677,0,0,1-7.851-1A7.969,7.969,0,0,1,63.6,8H56.21a8.029,8.029,0,0,1-1.75-.192A8.029,8.029,0,0,1,52.71,8H45.36a8.024,8.024,0,0,1-1.8-.2,15.637,15.637,0,0,1-3.94.483,16.4,16.4,0,0,1-6.974-1.508A7.963,7.963,0,0,1,28.385,8h-7.28a7.98,7.98,0,0,1-5.95-2.652A7.98,7.98,0,0,1,9.205,8H1.925a8,8,0,0,1-8-8V-24.08a8,8,0,0,1,8-8h7.28a8,8,0,0,1,5.95,2.652,8,8,0,0,1,5.95-2.652h7.28a8,8,0,0,1,7.882,6.621,15.7,15.7,0,0,1,7.121.187,8.012,8.012,0,0,1,2.043-.263H48.6a8,8,0,0,1,6.447-5.445l7.385-1.085A8,8,0,0,1,68.825-30.2a8,8,0,0,1,2.318,3.4,8,8,0,0,1,1.586.023,8,8,0,0,1,5.318,2.925,18.572,18.572,0,0,1,8.368-1.927,15.657,15.657,0,0,1,10.462,3.6,7.99,7.99,0,0,1,6.513-3.353h7.385a7.991,7.991,0,0,1,2.607.435,7.991,7.991,0,0,1,2.607-.435h7.385a7.964,7.964,0,0,1,4.564,1.428,19.8,19.8,0,0,1,8.176-1.673,19.912,19.912,0,0,1,8.063,1.607,7.963,7.963,0,0,1,4.467-1.362h7.21a8,8,0,0,1,2.223.313,8,8,0,0,1,2.222-.313h7.07a8.032,8.032,0,0,1,1.662.173,8.032,8.032,0,0,1,1.663-.173h7.28a8.013,8.013,0,0,1,1.973.245,14.467,14.467,0,0,1,3.767-.49,8,8,0,0,1,6.721,3.658,17.274,17.274,0,0,1,2.236-1.47,18.079,18.079,0,0,1,8.858-2.189,17.763,17.763,0,0,1,8.377,1.887,19.661,19.661,0,0,1,8.633-1.887,21.363,21.363,0,0,1,4.613.487A10.973,10.973,0,0,1,224.97-29.5a11.859,11.859,0,0,1,4.412-3.762,12.126,12.126,0,0,1,5.468-1.3,11.97,11.97,0,0,1,5.827,1.477,11.99,11.99,0,0,1,4.219,3.836,11.16,11.16,0,0,1,1.622,3.717h4.5a8.009,8.009,0,0,1,2.1.279,15.7,15.7,0,0,1,4.094-.524,14.945,14.945,0,0,1,8.465,2.493,18.15,18.15,0,0,1,9.7-2.493,24.942,24.942,0,0,1,4.045.316,15.142,15.142,0,0,1,4.666,1.581,8,8,0,0,1,4.869-1.652h7.49a7.989,7.989,0,0,1,2.555.418,7.987,7.987,0,0,1,2.555-.418h6.02a7.988,7.988,0,0,1,2.572.424,7.989,7.989,0,0,1,2.573-.424h5.985a8,8,0,0,1,3.893,1.011,20.135,20.135,0,0,1,7.167-1.256,19.873,19.873,0,0,1,8.169,1.654,7.963,7.963,0,0,1,4.536-1.409h7.28a8.065,8.065,0,0,1,1.215.092,8,8,0,0,1,6.477-5.537l7.385-1.085a8,8,0,0,1,6.392,1.861,8,8,0,0,1,2.318,3.4,8,8,0,0,1,1.586.023,8,8,0,0,1,5.3,2.906l.137-.1a13.058,13.058,0,0,1,1.293-2.4,14.034,14.034,0,0,1,5.96-4.922,17.383,17.383,0,0,1,7.155-1.451,19.561,19.561,0,0,1,7.737,1.4,8,8,0,0,1,4.69,5.62q.793-.057,1.608-.057a19.874,19.874,0,0,1,8.169,1.654,7.963,7.963,0,0,1,4.536-1.409H429a8.013,8.013,0,0,1,1.973.245,14.467,14.467,0,0,1,3.767-.49,7.978,7.978,0,0,1,4.677,1.509,7.962,7.962,0,0,1,4.318-1.264h7.385a7.991,7.991,0,0,1,2.608.435,7.991,7.991,0,0,1,2.608-.435h7.385a7.964,7.964,0,0,1,4.564,1.428,19.8,19.8,0,0,1,8.176-1.673,19.914,19.914,0,0,1,8.063,1.607,7.963,7.963,0,0,1,4.467-1.362h7.21a8,8,0,0,1,2.223.313,8,8,0,0,1,2.223-.313h7.07a8.032,8.032,0,0,1,1.65.17,7.988,7.988,0,0,1,3.218-3.943,21.007,21.007,0,0,1,5.732-2.5,22.711,22.711,0,0,1,5.92-.8,17.651,17.651,0,0,1,8.565,2,15.072,15.072,0,0,1,3.652,2.77l.6-.846a8,8,0,0,1,6.542-3.4h7.84a7.993,7.993,0,0,1,6.72,3.658,8,8,0,0,1,6.72-3.658h6.79q.316,0,.628.025.313-.024.632-.025H589.3a8,8,0,0,1,7.868,6.545h7.287a7.989,7.989,0,0,1,2.555.418,7.987,7.987,0,0,1,2.555-.418h6.02a7.988,7.988,0,0,1,2.572.424,7.988,7.988,0,0,1,2.547-.424,10.965,10.965,0,0,1,1.766-3.969,11.855,11.855,0,0,1,4.412-3.762,12.123,12.123,0,0,1,5.468-1.3,11.97,11.97,0,0,1,5.827,1.477,12.042,12.042,0,0,1,3.457,2.824,7.993,7.993,0,0,1,3.491-.8h3.6a7.972,7.972,0,0,1,3.308.714,7.994,7.994,0,0,1,2.144-.629l7.385-1.085a8,8,0,0,1,6.392,1.861,8,8,0,0,1,2.621,4.516,14.25,14.25,0,0,1,9.806,5.273c2.417,3.021,3.643,6.946,3.643,11.665V0a8,8,0,0,1-8,8H668.64a8.03,8.03,0,0,0-5.915,0H655.34a8,8,0,0,1-2.38-.36q-.191.051-.384.1a18.018,18.018,0,0,1-4.236.542A17.029,17.029,0,0,1,641.569,7a14.85,14.85,0,0,1-2.121.715,17.069,17.069,0,0,1-4.232.567,15.384,15.384,0,0,1-7.8-1.915l-.052-.03A7.987,7.987,0,0,1,622.475,8H614.11a8,8,0,0,1-2.257-.324A7.993,7.993,0,0,1,609.6,8H601.51a8,8,0,0,1-7.744-5.991l-2.009-7.741-4.3,9.6a8,8,0,0,1-10.419,4.1l-6.37-2.7a8,8,0,0,1-1.614-.917A8,8,0,0,1,562.345,8h-6.79a8,8,0,0,1-2.061-.27,8.009,8.009,0,0,1-2.069.27H543.97a7.975,7.975,0,0,1-5.722-2.41A7.975,7.975,0,0,1,532.525,8h-15.26a8,8,0,0,1-6.833-3.837,17.562,17.562,0,0,1-12,4.117,18.269,18.269,0,0,1-11-3.255A17.671,17.671,0,0,1,485.283,6.3,19.632,19.632,0,0,1,476.42,8.28a19.854,19.854,0,0,1-7.47-1.385A15.593,15.593,0,0,1,466.5,9.93C463.12,13.178,458.616,14.825,453.11,14.825Z" transform="translate(-17410 6017)"/></g></svg>