<svg width="40" height="40" viewBox="0 0 40 40" fill="none" xmlns="http://www.w3.org/2000/svg">
<path d="M6.66675 19.543C6.66675 18.9101 7.137 18.3872 7.74713 18.3044L7.91675 18.293H32.9167C33.6071 18.293 34.1667 18.8526 34.1667 19.543C34.1667 20.1758 33.6965 20.6988 33.0864 20.7816L32.9167 20.793H7.91675C7.22639 20.793 6.66675 20.2333 6.66675 19.543Z" fill="black"/>
<path d="M21.9518 10.3881C21.4626 9.901 21.4609 9.10954 21.948 8.62034C22.3908 8.17561 23.0851 8.13377 23.5753 8.49581L23.7157 8.61653L33.7991 18.6565C34.2451 19.1007 34.2857 19.7975 33.9208 20.2877L33.7991 20.428L23.7158 30.4697C23.2266 30.9568 22.4352 30.9552 21.948 30.466C21.5052 30.0213 21.4663 29.3268 21.8304 28.8382L21.9517 28.6983L31.1451 19.5418L21.9518 10.3881Z" fill="black"/>
</svg>
