<svg width="7" height="21" viewBox="0 0 7 21" fill="none" xmlns="http://www.w3.org/2000/svg">
<path d="M3.93481 13.236C2.24196 13.236 0.869629 12.0929 0.869629 10.6829C0.869629 9.27279 2.24196 8.1297 3.93481 8.1297C5.62767 8.1297 7 9.27279 7 10.6829C7 12.0929 5.62767 13.236 3.93481 13.236Z" fill="black"/>
<path d="M3.93481 5.10632C2.24196 5.10632 0.869629 3.96323 0.869629 2.55316C0.869629 1.14309 2.24196 0 3.93481 0C5.62767 0 7 1.14309 7 2.55316C7 3.96323 5.62767 5.10632 3.93481 5.10632Z" fill="black"/>
<path d="M3.93481 21C2.24196 21 0.869629 19.8569 0.869629 18.4468C0.869629 17.0368 2.24196 15.8937 3.93481 15.8937C5.62767 15.8937 7 17.0368 7 18.4468C7 19.8569 5.62767 21 3.93481 21Z" fill="black"/>
</svg>
