<svg width="12" height="12" viewBox="0 0 12 12" fill="none" xmlns="http://www.w3.org/2000/svg">
<path d="M6.20993 9.09638C5.1646 9.09638 4.3946 8.81638 3.89993 8.25638C3.40527 7.69638 3.15793 6.93104 3.15793 5.96038C3.15793 4.98038 3.4286 4.21504 3.96993 3.66438C4.5206 3.10438 5.25793 2.82438 6.18193 2.82438C6.51793 2.82438 6.8306 2.85704 7.11993 2.92238C7.4186 2.97838 7.69393 3.07171 7.94593 3.20238L7.59593 3.91638C7.38127 3.81371 7.1526 3.73904 6.90993 3.69238C6.6766 3.63638 6.42927 3.60838 6.16793 3.60838C5.55193 3.60838 5.0666 3.81371 4.71193 4.22438C4.35727 4.63504 4.17993 5.21838 4.17993 5.97438C4.17993 7.53304 4.86593 8.31238 6.23793 8.31238C6.52727 8.31238 6.79327 8.29371 7.03593 8.25638C7.2786 8.21904 7.5026 8.16304 7.70793 8.08838V8.87238C7.5026 8.93771 7.27393 8.99371 7.02193 9.04038C6.77927 9.07771 6.5086 9.09638 6.20993 9.09638ZM5.99993 11.7704C5.2066 11.7704 4.45993 11.621 3.75993 11.3224C3.05993 11.0237 2.44393 10.613 1.91193 10.0904C1.38927 9.55838 0.9786 8.94238 0.679934 8.24238C0.381267 7.54238 0.231934 6.79571 0.231934 6.00238C0.231934 5.19971 0.381267 4.45304 0.679934 3.76238C0.9786 3.06238 1.38927 2.45104 1.91193 1.92838C2.44393 1.39638 3.05993 0.981042 3.75993 0.682375C4.45993 0.383708 5.2066 0.234375 5.99993 0.234375C6.8026 0.234375 7.54927 0.383708 8.23993 0.682375C8.93993 0.981042 9.55127 1.39638 10.0739 1.92838C10.6059 2.45104 11.0213 3.06238 11.3199 3.76238C11.6186 4.45304 11.7679 5.19971 11.7679 6.00238C11.7679 6.79571 11.6186 7.54238 11.3199 8.24238C11.0213 8.94238 10.6059 9.55838 10.0739 10.0904C9.55127 10.613 8.93993 11.0237 8.23993 11.3224C7.54927 11.621 6.8026 11.7704 5.99993 11.7704ZM5.99993 10.9864C6.6906 10.9864 7.3346 10.8604 7.93193 10.6084C8.5386 10.347 9.0706 9.98771 9.52793 9.53038C9.98527 9.07304 10.3399 8.54571 10.5919 7.94838C10.8533 7.34171 10.9839 6.69304 10.9839 6.00238C10.9839 5.31171 10.8533 4.66771 10.5919 4.07038C10.3399 3.46371 9.98527 2.93171 9.52793 2.47438C9.0706 2.01704 8.5386 1.66237 7.93193 1.41037C7.3346 1.14904 6.6906 1.01837 5.99993 1.01837C5.30927 1.01837 4.6606 1.14904 4.05393 1.41037C3.4566 1.66237 2.92927 2.01704 2.47193 2.47438C2.0146 2.93171 1.65527 3.46371 1.39393 4.07038C1.14193 4.66771 1.01593 5.31171 1.01593 6.00238C1.01593 6.69304 1.14193 7.34171 1.39393 7.94838C1.65527 8.54571 2.0146 9.07304 2.47193 9.53038C2.92927 9.98771 3.4566 10.347 4.05393 10.6084C4.6606 10.8604 5.30927 10.9864 5.99993 10.9864Z" fill="black"/>
</svg>
