<svg width="20" height="20" viewBox="0 0 20 20" fill="none" xmlns="http://www.w3.org/2000/svg">
<circle cx="10" cy="10" r="10" fill="#F4F5FB"/>
<path d="M9.66463 13.3887L10.3966 13.4007V15.3447H9.66463V13.3887ZM9.74863 13.2327V6.2727L10.3126 6.1767V13.2567L9.74863 13.2327ZM9.66463 4.2207H10.3966V6.0687L9.66463 6.1647V4.2207ZM12.3286 7.4847C12.2566 7.3967 12.1406 7.3047 11.9806 7.2087C11.8286 7.1047 11.6486 7.0087 11.4406 6.9207C11.2406 6.8327 11.0206 6.7607 10.7806 6.7047C10.5406 6.6487 10.2926 6.6207 10.0366 6.6207C9.47662 6.6207 9.06063 6.7247 8.78863 6.9327C8.51663 7.1407 8.38063 7.4287 8.38063 7.7967C8.38063 8.0687 8.45663 8.2847 8.60863 8.4447C8.76063 8.5967 8.99262 8.7247 9.30463 8.8287C9.61663 8.9327 10.0086 9.0447 10.4806 9.1647C11.0566 9.3007 11.5566 9.4647 11.9806 9.6567C12.4046 9.8407 12.7286 10.0887 12.9526 10.4007C13.1766 10.7127 13.2886 11.1247 13.2886 11.6367C13.2886 12.0687 13.2086 12.4407 13.0486 12.7527C12.8886 13.0647 12.6646 13.3207 12.3766 13.5207C12.0886 13.7127 11.7566 13.8567 11.3806 13.9527C11.0046 14.0407 10.6006 14.0847 10.1686 14.0847C9.73662 14.0847 9.31263 14.0407 8.89663 13.9527C8.48063 13.8647 8.08063 13.7367 7.69663 13.5687C7.32063 13.3927 6.96863 13.1807 6.64062 12.9327L7.26463 11.7807C7.36863 11.8847 7.51663 12.0007 7.70863 12.1287C7.90063 12.2487 8.12863 12.3647 8.39263 12.4767C8.65663 12.5887 8.94063 12.6847 9.24463 12.7647C9.55663 12.8367 9.87263 12.8727 10.1926 12.8727C10.7206 12.8727 11.1286 12.7807 11.4166 12.5967C11.7046 12.4047 11.8486 12.1327 11.8486 11.7807C11.8486 11.4927 11.7526 11.2647 11.5606 11.0967C11.3766 10.9207 11.1086 10.7727 10.7566 10.6527C10.4126 10.5327 9.99663 10.4127 9.50863 10.2927C8.94863 10.1407 8.48063 9.9767 8.10462 9.8007C7.72862 9.6167 7.44463 9.3847 7.25262 9.1047C7.06863 8.8167 6.97663 8.4527 6.97663 8.0127C6.97663 7.4527 7.11262 6.9807 7.38462 6.5967C7.65663 6.2047 8.02463 5.9127 8.48863 5.7207C8.96063 5.5207 9.48463 5.4207 10.0606 5.4207C10.4526 5.4207 10.8206 5.4647 11.1646 5.5527C11.5086 5.6327 11.8286 5.7447 12.1246 5.8887C12.4286 6.0327 12.7006 6.1967 12.9406 6.3807L12.3286 7.4847Z" fill="#666666"/>
</svg>
