<svg width="20" height="21" viewBox="0 0 20 21" fill="none" xmlns="http://www.w3.org/2000/svg">
<path d="M0.295519 7.59919C1.62254 2.23539 7.04206 -1.03152 12.4008 0.295502C17.7646 1.62252 21.0315 7.04205 19.7045 12.4059C18.3775 17.7646 12.958 21.0366 7.59415 19.7095C2.2354 18.3825 -1.0315 12.9579 0.295519 7.59919Z" fill="#F7F7F7"/>
<path d="M14.0013 9.43308C14.1887 11.5249 12.654 13.3686 10.5622 13.561C8.4754 13.7535 6.62669 12.2137 6.43422 10.1219C6.24175 8.03514 7.7815 6.18643 9.87333 5.99396C11.9652 5.80656 13.8139 7.34631 14.0013 9.43308Z" fill="#E62C14"/>
<path d="M6.97043 7.81641C6.42848 8.71291 6.71211 9.87785 7.60861 10.4198C8.50511 10.9618 9.67006 10.6781 10.212 9.78162C10.754 8.88512 11.9189 8.60148 12.8154 9.14343C13.7119 9.68538 13.9955 10.8503 13.4536 11.7468C12.3697 13.5398 10.0347 14.1122 8.2468 13.0232C6.45886 11.9393 5.88652 9.60941 6.97043 7.81641Z" fill="#083470"/>
<path d="M4.05287 14.0209L5.04054 15.4847L5.5369 15.1554L4.54923 13.6917L4.05287 14.0209ZM3.89585 13.7879L4.39222 13.4536L3.40455 11.9898L2.90818 12.319L3.89585 13.7879ZM2.14844 12.8357L4.28079 15.9962L4.77209 15.667L2.63974 12.5064L2.14844 12.8357ZM3.66793 11.8125L5.80028 14.9731L6.29159 14.6388L4.15923 11.4783L3.66793 11.8125ZM16.771 7.74537L15.7833 6.2816L15.292 6.61588L16.2797 8.0746L16.771 7.74537ZM15.6263 6.04861L14.6387 4.58483L14.1474 4.91912L15.135 6.3829L15.6263 6.04861ZM17.7992 7.05147L18.2905 6.71718L17.3028 5.25341L16.8115 5.58769L17.7992 7.05147ZM17.1509 5.02548L16.1632 3.56171L15.6719 3.89599L16.6596 5.35977L17.1509 5.02548ZM17.5308 7.23381L15.4035 4.07327L14.9071 4.40249L17.0395 7.56303L17.5308 7.23381ZM15.6669 15.6619L16.1582 15.9911L17.1458 14.5274L16.6495 14.1931L15.6669 15.6619ZM16.8115 13.9702L17.3028 14.2994L18.2905 12.8357L17.7941 12.5064L16.8115 13.9702ZM15.8948 13.6866L14.9071 15.1504L15.3984 15.4847L16.3861 14.0209L15.8948 13.6866ZM17.5308 12.3241L17.0395 11.9898L16.0518 13.4536L16.5431 13.7879L17.5308 12.3241ZM15.135 13.175L14.1474 14.6388L14.6437 14.9731L15.6314 13.5093L15.135 13.175ZM15.7884 13.2763L16.7761 11.8125L16.2848 11.4783L15.2971 12.942L15.7884 13.2763ZM3.66793 7.74537L4.15923 8.0746L6.29159 4.91405L5.80028 4.58483L3.66793 7.74537ZM3.39949 7.56303L5.53184 4.40249L5.03547 4.07327L2.90818 7.23381L3.39949 7.56303ZM4.77209 3.89093L4.28079 3.55664L2.14844 6.72225L2.63974 7.05654L4.77209 3.89093Z" fill="#3C3736"/>
</svg>
