<svg xmlns="http://www.w3.org/2000/svg" width="229.245" height="39.468" viewBox="0 0 229.245 39.468"><g transform="translate(-1626.806 -1159)"><path d="M120.328,174.082l-2.031,4.569.048.021Zm-4.522-3.23-3.694-3.37a5,5,0,0,0-.057,6.676Zm4.59-5.032,3.737-3.322a5,5,0,0,0-7.431-.048Zm2.55,1.938-2.194,4.493.125.059Zm5.236-2.006,1.756-4.682h0Zm-6.766-1.36-2.236,4.472.028.014Zm-3.4-2.89-4.149,2.791.06.086Zm.068-8.466,4.1,2.857h0Zm3.57-2.992,2.181,4.5Zm10.132-.034-1.91,4.621.053.021Zm4.488,2.958,4.022,2.97a5,5,0,0,0-.486-6.506Zm-3.842,5.2-2.959,4.031a5,5,0,0,0,6.981-1.061Zm-8.228-1.9,2.169,4.5h0Zm.17,2.04-1.491,4.772c.045.015.091.028.137.041Zm7.446,1.156-1.844,4.647Zm3.366,2.516,4.029-2.96h0Zm-.238,8.738-4.13-2.819-.01.015Zm-3.842,3.332,2.261,4.46Zm-5.236-3.776a8.867,8.867,0,0,1-3.559-.78l-3.966,9.18a18.862,18.862,0,0,0,7.525,1.6Zm-3.511-.759a7.929,7.929,0,0,1-2.8-1.967l-7.5,6.612a17.9,17.9,0,0,0,6.242,4.493Zm-2.859,4.709,4.59-5.032-7.388-6.74-4.59,5.032Zm-2.841-5.08a13.188,13.188,0,0,0,4.093,3.109l4.388-8.986a3.19,3.19,0,0,1-1.007-.767Zm4.218,3.168a12.178,12.178,0,0,0,5.061,1.128v-10a2.193,2.193,0,0,1-.923-.232Zm5.061,1.128a9.2,9.2,0,0,0,4.782-1.223l-5.144-8.574a1.652,1.652,0,0,1,.47-.2c.065-.015.039,0-.108,0Zm4.782-1.223A6.4,6.4,0,0,0,134,166.738H124a3.929,3.929,0,0,1,.719-2.269,2.972,2.972,0,0,1,.859-.828ZM134,166.738a5.885,5.885,0,0,0-1.352-3.774,6.4,6.4,0,0,0-2.708-1.894l-3.512,9.364a3.615,3.615,0,0,1-1.484-1.1,4.107,4.107,0,0,1-.944-2.6Zm-4.06-5.668a11.024,11.024,0,0,0-3.864-.624v10a3.324,3.324,0,0,1,.455.025c.072.01.025.01-.1-.037Zm-3.864-.624a5.416,5.416,0,0,1-2.45-.54l-4.416,8.972a15.405,15.405,0,0,0,6.866,1.568Zm-2.422-.526a4.007,4.007,0,0,1-1.547-1.295l-8.178,5.754a13.992,13.992,0,0,0,5.253,4.485Zm-1.487-1.209a2.331,2.331,0,0,1-.407-1.391h-10a12.329,12.329,0,0,0,2.109,6.973Zm-.407-1.391a2.334,2.334,0,0,1,.429-1.427l-8.206-5.714a12.315,12.315,0,0,0-2.223,7.141Zm.429-1.427a4.091,4.091,0,0,1,1.648-1.35l-4.362-9a14.071,14.071,0,0,0-5.492,4.634Zm1.648-1.35a6.084,6.084,0,0,1,2.715-.587v-10a16.061,16.061,0,0,0-7.077,1.589Zm2.715-.587a8.594,8.594,0,0,1,3.326.675l3.82-9.242a18.587,18.587,0,0,0-7.146-1.433Zm3.379.7a8.215,8.215,0,0,1,2.809,1.852l7.072-7.072a18.249,18.249,0,0,0-6.167-4.064ZM132.252,150l-3.842,5.2,8.044,5.94,3.842-5.2Zm3.139,4.141a15.316,15.316,0,0,0-9.011-3.315v10a5.609,5.609,0,0,1,3.093,1.377Zm-9.011-3.315a9.945,9.945,0,0,0-4.345.937l4.338,9.01a.986.986,0,0,1-.12.049.313.313,0,0,1-.051.014,1.132,1.132,0,0,1,.178-.01Zm-4.345.937a6.225,6.225,0,0,0-3.749,5.559h10a4.152,4.152,0,0,1-1,2.714,2.979,2.979,0,0,1-.913.737Zm-3.749,5.559c0,4.041,3.573,5.438,4.6,5.758l2.982-9.544a1.982,1.982,0,0,1,.306.129,3.491,3.491,0,0,1,.745.522,4.256,4.256,0,0,1,1.37,3.135Zm4.734,5.8a14.55,14.55,0,0,0,3.938.493v-10a4.842,4.842,0,0,1-1.23-.119Zm3.938.493a8.157,8.157,0,0,1,3.018.5l3.688-9.294a18.065,18.065,0,0,0-6.706-1.2Zm3.018.5a2.529,2.529,0,0,1,1.181.829l8.058-5.92a12.462,12.462,0,0,0-5.551-4.2Zm1.181.829a1.715,1.715,0,0,1,.253,1.086h10a11.631,11.631,0,0,0-2.2-7.006Zm.253,1.086a3.155,3.155,0,0,1-.592,1.873l8.26,5.638a13.151,13.151,0,0,0,2.332-7.511Zm-.6,1.888a5,5,0,0,1-1.963,1.676l4.522,8.92a15.005,15.005,0,0,0,5.721-4.988Zm-1.963,1.676a6.412,6.412,0,0,1-2.975.684v10a16.418,16.418,0,0,0,7.5-1.764Zm22.909,2.556,4.147,2.793a5,5,0,0,0,.561-4.475ZM149,174.626l2.2,4.491.039-.019Zm-8.534-.782-3.612,3.458.037.038Zm-1.36-7.684-4.964-.6c0,.025-.006.05-.008.075Zm.476-3.91,4.963.6a5,5,0,0,0-4.963-5.6Zm-2.686,0-5,.221a5,5,0,0,0,5,4.779Zm-.238-5.372-.1-5a5,5,0,0,0-4.9,5.22Zm3.6-.068.094,5a5,5,0,0,0,4.87-4.4Zm.476-3.978-.253-4.994a5,5,0,0,0-4.712,4.4Zm6.052-.306,4.968.561a5,5,0,0,0-5.221-5.555Zm-.476,4.216-4.969-.561a5,5,0,0,0,5.058,5.56Zm3.808-.068,4.966-.579a5,5,0,0,0-5.056-4.42Zm.646,5.542v5a5,5,0,0,0,4.966-5.579Zm-5.1,0v-5a5,5,0,0,0-4.97,4.448Zm-.34,3.06-4.97-.552h0Zm.442,3.026-4.188,2.731h0Zm2.856.408,2.5,4.327h0Zm1.428-1.326,4.708-1.682a5,5,0,0,0-8.572-1.492Zm-2.448,1.967a2.216,2.216,0,0,1-.843.8l4.473,8.944a12.172,12.172,0,0,0,4.665-4.161Zm-.8.784a4.012,4.012,0,0,1-1.712.273v10a13.8,13.8,0,0,0,6.107-1.291Zm-1.712.273a3.623,3.623,0,0,1-1.1-.127c-.112-.038-.051-.037.051.067l-7.149,6.992a11.135,11.135,0,0,0,8.2,3.068Zm-1.013-.022c.137.143.1.192.03-.053a5.76,5.76,0,0,1-.171-1.589h-10c0,2.9.609,6.146,2.918,8.558Zm-.141-1.642c0-.406.037-1.071.142-2.055l-9.944-1.058a30.324,30.324,0,0,0-.2,3.113Zm.133-1.98.476-3.91-9.927-1.208-.476,3.91Zm-4.487-9.514H136.9v10h2.686Zm2.309,4.779-.238-5.372-9.991.442.238,5.372Zm-5.139-.152,3.6-.068-.189-10-3.6.068Zm8.474-4.473.476-3.978-9.929-1.188-.476,3.978Zm-4.236.422,6.052-.306-.505-9.988-6.052.306Zm.831-5.861-.476,4.216,9.937,1.122.476-4.216Zm4.582,9.776,3.808-.068-.179-10-3.808.068Zm-1.248-4.488.646,5.542,9.933-1.158-.646-5.542Zm5.613-.037h-5.1v10h5.1Zm-10.07,4.448-.34,3.06,9.939,1.1.34-3.06Zm-.34,3.06a13.545,13.545,0,0,0-.1,1.436h10c0,.029,0,.05,0,.062s0,.011,0,.014v.005a.14.14,0,0,1,0-.014c0-.01,0-.023,0-.041.006-.074.016-.19.035-.358Zm-.1,1.436a8.82,8.82,0,0,0,1.322,4.873l8.376-5.462a2.135,2.135,0,0,1,.293.646c.024.1.009.094.009-.057Zm1.322,4.873a6.548,6.548,0,0,0,5.548,3.051v-10a3.5,3.5,0,0,1,1.727.47,3.256,3.256,0,0,1,1.1,1.017Zm5.548,3.051a7.92,7.92,0,0,0,4-1.047l-5.011-8.654a2.1,2.1,0,0,1,1.01-.3Zm4-1.047a10.554,10.554,0,0,0,2.786-2.479l-7.727-6.348c-.075.091-.137.162-.187.216s-.083.086-.1.1-.009.007.022-.017a1.757,1.757,0,0,1,.195-.128Zm-5.786-3.971,1.7,4.76,9.417-3.364-1.7-4.76ZM164.729,175l-5,.106a5,5,0,0,0,5,4.894Zm-.034-1.6,5-.106a5,5,0,0,0-8.241-3.7Zm-2.278,1.258-1.651-4.719h0Zm-6.936-.748-2.756,4.172.053.034Zm-3.026-3.366,4.414-2.349h0Zm.034-9.282-4.384-2.4Zm3.162-3.3,2.551,4.3.022-.013Zm6.97-.782-1.785,4.67.044.017Zm1.9,1.224-3.692,3.371a5,5,0,0,0,8.692-3.371Zm0-1.462v-5a5,5,0,0,0-5,5Zm5.644,0,5-.216a5,5,0,0,0-5-4.784ZM170.951,175v5a5,5,0,0,0,5-5.216Zm-8.466-6.018-2.773-4.16h0Zm1.292-1.428,4.4,2.37.036-.068Zm-.442-4.25-3.664,3.4c.042.045.085.09.129.134Zm-4.862.1-3.423-3.644h0Zm-.646,4.25-4.362,2.443q.036.066.075.129Zm1.292,1.36-2.731,4.188.081.052Zm10.609,5.878-.034-1.6-10,.212.034,1.6Zm-8.275-5.3a2.21,2.21,0,0,1-.687.345l3.3,9.438a12.05,12.05,0,0,0,3.869-2.171Zm-.687.345a3.391,3.391,0,0,1-1.137.2v10a13.368,13.368,0,0,0,4.44-.757Zm-1.137.2a2.53,2.53,0,0,1-1.444-.43l-5.407,8.412a12.515,12.515,0,0,0,6.851,2.018Zm-1.391-.4a4.056,4.056,0,0,1-1.369-1.543l-8.827,4.7a14.049,14.049,0,0,0,4.683,5.189Zm-1.369-1.543a4.7,4.7,0,0,1-.536-2.275h-10a14.68,14.68,0,0,0,1.709,6.973Zm-.536-2.275a4.537,4.537,0,0,1,.54-2.254L148.1,158.86a14.526,14.526,0,0,0-1.772,7.062Zm.54-2.254a3.53,3.53,0,0,1,1.329-1.4l-5.1-8.6a13.509,13.509,0,0,0-5,5.194Zm1.351-1.415a3.569,3.569,0,0,1,1.915-.511v-10a13.551,13.551,0,0,0-7.06,1.937Zm1.915-.511a1.921,1.921,0,0,1,.7.112l3.571-9.34a11.882,11.882,0,0,0-4.268-.772Zm.741.129c.1.037.128.058.109.046a.809.809,0,0,1-.156-.138l7.385-6.742a9.756,9.756,0,0,0-3.856-2.54Zm8.645-3.463v-1.462h-10v1.462Zm-5,3.538h5.644v-10h-5.644Zm.649-4.784.782,18.054,9.991-.432-.782-18.054ZM170.951,170h-6.222v10h6.222Zm-10.166,4.526a8.018,8.018,0,0,0,4.474-1.384l-5.547-8.32a1.69,1.69,0,0,1,.416-.194,2.16,2.16,0,0,1,.657-.1Zm4.474-1.384a8.917,8.917,0,0,0,2.921-3.218l-8.8-4.74a.956.956,0,0,1,.134-.186,1.093,1.093,0,0,1,.2-.176Zm2.957-3.286a9.153,9.153,0,0,0,1.037-4.24h-10a.834.834,0,0,1,.026-.2.692.692,0,0,1,.06-.166Zm1.037-4.24a8.134,8.134,0,0,0-2.382-5.848L159.8,166.84a1.962,1.962,0,0,1-.423-.654,1.6,1.6,0,0,1-.124-.57ZM167,159.9a7.924,7.924,0,0,0-5.908-2.55v10a1.877,1.877,0,0,1-.711-.159,2.083,2.083,0,0,1-.709-.487Zm-5.908-2.55a8.7,8.7,0,0,0-6.041,2.41l6.847,7.288a1.144,1.144,0,0,1-.341.2,1.3,1.3,0,0,1-.465.1Zm-6.041,2.41a8.329,8.329,0,0,0-2.7,6.16h10a1.706,1.706,0,0,1-.153.676,1.435,1.435,0,0,1-.3.452Zm-2.7,6.16a8.5,8.5,0,0,0,1.114,4.177l8.725-4.886a1.179,1.179,0,0,1,.1.261,1.71,1.71,0,0,1,.059.448Zm1.189,4.306a9.116,9.116,0,0,0,2.848,2.976l5.463-8.376a1,1,0,0,1,.179.149.639.639,0,0,1,.085.107Zm2.929,3.028a8.106,8.106,0,0,0,4.316,1.27v-10a2.121,2.121,0,0,1,.622.092,1.555,1.555,0,0,1,.362.158Zm26.943,2.084-4.128,2.821a5,5,0,0,0,4.358,2.174Zm-5.134-7.514,4.128-2.821a5,5,0,0,0-9.128,2.8Zm-.034,7.106.054,5a5,5,0,0,0,4.946-4.976Zm-6.358.068h-5a5,5,0,0,0,5.054,5Zm0-27.4-.264-4.993a5,5,0,0,0-4.736,4.993Zm6.426-.34,5,.011a5,5,0,0,0-5.264-5Zm-.034,15.538-5-.011a5,5,0,0,0,9.188,2.742Zm4.08-6.256.321-4.99a5,5,0,0,0-4.509,2.259Zm6.868.442,4.208,2.7a5,5,0,0,0-3.887-7.69Zm-5.236,8.16-4.208-2.7a5,5,0,0,0,.092,5.539Zm6.8,9.86.23,4.995a5,5,0,0,0,3.886-7.834Zm-3.25-2.481-5.134-7.514-8.256,5.642,5.134,7.514ZM173.278,167.8l-.034,7.106,10,.048.034-7.106Zm4.913,2.13-6.358.068.107,10,6.358-.068Zm-1.3,5.068V147.6h-10V175Zm-4.736-22.411,6.426-.34-.528-9.986-6.426.34Zm1.162-5.344-.034,15.538,10,.022.034-15.538Zm9.154,18.28,4.08-6.256-8.376-5.462-4.08,6.256Zm-.429-4,6.868.442.642-9.98-6.868-.442Zm2.981-7.248-5.236,8.16,8.416,5.4,5.236-8.16Zm-5.144,13.7,6.8,9.86,8.232-5.678-6.8-9.86Zm10.686,2.026-7.378.34.46,9.99,7.378-.34Zm13.4-10.781,3.634-3.435h0Zm2.312,7.854.057,5a5,5,0,0,0,4.922-4.547Zm-12.036.136-.056-5a5,5,0,0,0-4.643,6.709Zm1.122,1.87-3.617,3.452q.081.084.165.165Zm1.734.782.374-4.986-.03,0Zm3.944-1.6,1.378-4.806a5,5,0,0,0-5.514,2Zm4.862,1.394,4.819,1.333a5,5,0,0,0-3.441-6.139Zm-1.7,2.89,3.536,3.536.046-.048Zm-3.026,1.972-1.872-4.636-.032.013Zm-4.284.68.707-4.95c-.115-.016-.23-.029-.346-.037Zm-4.352-1.53L189.7,177.79l.033.023Zm-3.162-3.57-4.43,2.317c.009.018.018.036.028.053Zm-1.122-5.61,4.961.62c.014-.1.023-.211.03-.318Zm1.36-4.012-4.074-2.9-.037.053Zm3.264-2.754-2.176-4.5-.03.015Zm4.828,3.23-.4,4.984h.005Zm-3.434,2.108-4.647-1.845a5,5,0,0,0,4.617,6.845Zm5.746.034-.03,5a5,5,0,0,0,4.983-5.683Zm-.816-1.53-3.221,3.825c.032.027.065.053.1.079Zm-1.836.172c1.817,0,2.564.495,2.962.917l7.268-6.87a13.609,13.609,0,0,0-10.23-4.047Zm2.962.917a4.543,4.543,0,0,1,.98,3.331h10a14.418,14.418,0,0,0-3.712-10.2Zm.98,3.331c0,.2,0,.357-.006.473s-.008.169-.007.162l9.958.906c.044-.479.055-1.023.055-1.541Zm4.91-3.912-12.036.136.113,10,12.036-.136Zm-16.679,6.845a10.272,10.272,0,0,0,2.2,3.613l7.234-6.9c.031.032.04.05.033.038a.976.976,0,0,1-.073-.165Zm2.369,3.778a7.714,7.714,0,0,0,4.842,2.153l.688-9.976a2.3,2.3,0,0,1,.785.2,2.109,2.109,0,0,1,.589.388Zm4.812,2.151a8.991,8.991,0,0,0,8.454-3.775l-8.272-5.618a1.4,1.4,0,0,1,.274-.293,1.565,1.565,0,0,1,.386-.232c.229-.092.255-.028-.094-.054Zm2.94-1.778,4.862,1.394,2.756-9.612-4.862-1.394Zm1.421-4.745a1.684,1.684,0,0,1-.463.735l7.164,6.976a11.644,11.644,0,0,0,2.937-5.045Zm-.417.687a3.973,3.973,0,0,1-1.362.872l3.744,9.272a13.984,13.984,0,0,0,4.69-3.072Zm-1.394.885a4.377,4.377,0,0,1-1.7.337v10a14.375,14.375,0,0,0,5.508-1.091Zm-1.7.337h-.141l.032,0,.053.006c.022,0,.05,0,.083.01l-1.414,9.9a9.954,9.954,0,0,0,1.387.084Zm-.319-.021a3.771,3.771,0,0,1-1.907-.682l-5.612,8.278a13.773,13.773,0,0,0,6.8,2.378Zm-1.874-.659a5.052,5.052,0,0,1-1.6-1.824l-8.8,4.74a15.03,15.03,0,0,0,4.725,5.316Zm-1.57-1.771a5.265,5.265,0,0,1-.587-2.511h-10a15.248,15.248,0,0,0,1.726,7.145Zm-.587-2.511c0-.118,0-.193,0-.233,0-.019,0-.023,0-.015s0,.038-.009.086l-9.922-1.24a11.452,11.452,0,0,0-.073,1.4Zm.025-.48a2.733,2.733,0,0,1,.48-1.468l-8.222-5.692a12.739,12.739,0,0,0-2.24,6.556Zm.443-1.415a3.584,3.584,0,0,1,1.4-1.166l-4.412-8.974a13.575,13.575,0,0,0-5.132,4.342Zm1.366-1.151a5.181,5.181,0,0,1,2.312-.488v-10a15.174,15.174,0,0,0-6.664,1.484Zm3.056-6.256a8.406,8.406,0,0,0-5.136,1.148,8.311,8.311,0,0,0-3.349,4.1l9.294,3.69a1.823,1.823,0,0,1-.714.733,1.8,1.8,0,0,1-.9.3Zm-3.868,12.092,5.746.034.06-10-5.746-.034Zm10.729-5.649a7.258,7.258,0,0,0-2.646-4.751l-6.246,7.808a2.9,2.9,0,0,1-.745-.9,2.413,2.413,0,0,1-.269-.794Zm-2.548-4.672a7.588,7.588,0,0,0-4.318-1.771l-.8,9.968a2.361,2.361,0,0,1-.7-.169,2.413,2.413,0,0,1-.631-.378Z" transform="translate(1516 1018.06)"/><path d="M125.87,175.272a13.869,13.869,0,0,1-5.542-1.19,12.913,12.913,0,0,1-4.522-3.23l4.59-5.032a8.183,8.183,0,0,0,2.55,1.938,7.183,7.183,0,0,0,2.992.68,4.253,4.253,0,0,0,2.21-.51,1.434,1.434,0,0,0,.85-1.19,1.047,1.047,0,0,0-.816-.986,6.1,6.1,0,0,0-2.108-.306,10.4,10.4,0,0,1-4.658-1.054,9,9,0,0,1-3.4-2.89,7.582,7.582,0,0,1,.068-8.466,9.077,9.077,0,0,1,3.57-2.992,11.077,11.077,0,0,1,4.9-1.088,13.579,13.579,0,0,1,5.236,1.054,13.232,13.232,0,0,1,4.488,2.958l-3.842,5.2a10.384,10.384,0,0,0-6.052-2.346,4.964,4.964,0,0,0-2.176.442q-.918.442-.918,1.054,0,.646,1.088.986a9.618,9.618,0,0,0,2.584.306,13.09,13.09,0,0,1,4.862.85,7.483,7.483,0,0,1,3.366,2.516,6.645,6.645,0,0,1,1.224,4.046,8.147,8.147,0,0,1-1.462,4.692,10.01,10.01,0,0,1-3.842,3.332A11.412,11.412,0,0,1,125.87,175.272Zm25.884-3.128A7.179,7.179,0,0,1,149,174.626a8.847,8.847,0,0,1-3.91.782,6.2,6.2,0,0,1-4.624-1.564q-1.53-1.6-1.53-5.1a25.349,25.349,0,0,1,.17-2.584l.476-3.91H136.9l-.238-5.372,3.6-.068.476-3.978,6.052-.306-.476,4.216,3.808-.068.646,5.542h-5.1l-.34,3.06a8.865,8.865,0,0,0-.068.884,3.887,3.887,0,0,0,.51,2.142,1.557,1.557,0,0,0,1.36.782,2.938,2.938,0,0,0,1.5-.374,5.7,5.7,0,0,0,1.428-1.326ZM164.729,175l-.034-1.6a7.074,7.074,0,0,1-2.278,1.258,8.387,8.387,0,0,1-2.788.476,7.523,7.523,0,0,1-4.148-1.224,9.059,9.059,0,0,1-3.026-3.366,9.687,9.687,0,0,1-1.122-4.624,9.533,9.533,0,0,1,1.156-4.658,8.639,8.639,0,0,1,7.65-4.522,6.881,6.881,0,0,1,2.482.442,4.774,4.774,0,0,1,1.9,1.224v-1.462h5.644L170.951,175Zm-3.944-5.474a3.017,3.017,0,0,0,1.7-.544,3.923,3.923,0,0,0,1.292-1.428,4.145,4.145,0,0,0,.476-1.938,3.135,3.135,0,0,0-.918-2.312,2.927,2.927,0,0,0-2.244-.952,3.7,3.7,0,0,0-2.618,1.054,3.334,3.334,0,0,0-1.122,2.516,3.516,3.516,0,0,0,.476,1.734,4.132,4.132,0,0,0,1.292,1.36A3.111,3.111,0,0,0,160.785,169.526Zm22.627,5.814-5.134-7.514-.034,7.106-6.358.068V147.6l6.426-.34-.034,15.538,4.08-6.256,6.868.442-5.236,8.16,6.8,9.86Zm13.956-18.6a8.638,8.638,0,0,1,6.6,2.482,9.451,9.451,0,0,1,2.346,6.766q0,.714-.034,1.088l-12.036.136a5.281,5.281,0,0,0,1.122,1.87,2.72,2.72,0,0,0,1.734.782,4.026,4.026,0,0,0,3.944-1.6l4.862,1.394a6.652,6.652,0,0,1-1.7,2.89,8.968,8.968,0,0,1-3.026,1.972,9.376,9.376,0,0,1-3.6.714,5.081,5.081,0,0,1-.68-.034,8.759,8.759,0,0,1-4.352-1.53,10.039,10.039,0,0,1-3.162-3.57,10.254,10.254,0,0,1-1.156-4.828,6.685,6.685,0,0,1,.034-.782,7.734,7.734,0,0,1,1.36-4.012,8.577,8.577,0,0,1,3.264-2.754A10.181,10.181,0,0,1,197.368,156.742Zm.34,4.216a3.1,3.1,0,0,0-3.434,2.108l5.746.034a2.272,2.272,0,0,0-.816-1.53A2.583,2.583,0,0,0,197.708,160.958Z" transform="translate(1516 1018.06)" fill="#f6d946"/><path d="M215.948,168.5l-5,.106a5,5,0,0,0,5,4.894Zm-.016-.752,5-.106a5,5,0,0,0-8.241-3.7Zm-1.072.592-1.652-4.719h0Zm-3.264-.352-2.756,4.172.052.034Zm-1.424-1.584,4.414-2.349h0Zm.016-4.368-4.384-2.4h0Zm1.488-1.552,2.551,4.3.021-.013Zm3.28-.368-1.786,4.67.045.017Zm.9.576-3.692,3.371a5,5,0,0,0,8.692-3.371Zm0-.688v-5a5,5,0,0,0-5,5Zm2.656,0,5-.216a5,5,0,0,0-5-4.784Zm.368,8.5v5a5,5,0,0,0,4.995-5.216Zm-3.984-2.832-2.773-4.16h0ZM215.5,165l4.4,2.37c.013-.022.025-.045.037-.068Zm-.208-2-3.664,3.4c.042.045.085.09.128.134Zm-2.288.048-3.423-3.644h0Zm-.3,2-4.363,2.443c.025.044.05.087.076.129Zm.608.64-2.731,4.188.081.052Zm7.639,2.71-.016-.752-10,.212.016.752Zm-8.257-4.452a1.738,1.738,0,0,1,.518-.321l3.3,9.438a8.3,8.3,0,0,0,2.662-1.505Zm.518-.321a1.053,1.053,0,0,1,.34-.057v10a8.931,8.931,0,0,0,2.964-.5Zm.34-.057a1.452,1.452,0,0,1,.4.06,1.393,1.393,0,0,1,.353.158l-5.408,8.412a8.537,8.537,0,0,0,4.656,1.37Zm.8.252a.861.861,0,0,1,.158.137.54.54,0,0,1,.076.1l-8.828,4.7a9.261,9.261,0,0,0,3.082,3.407Zm.234.239a.574.574,0,0,1,.049.13c.011.045.009.063.009.043h-10a9.563,9.563,0,0,0,1.114,4.525Zm.058.173c0-.019,0,0-.011.056a.683.683,0,0,1-.061.156l-8.768-4.808a9.483,9.483,0,0,0-1.16,4.6Zm-.072.212a.831.831,0,0,1-.131.172,1.008,1.008,0,0,1-.214.172l-5.1-8.6a9,9,0,0,0-3.321,3.448Zm-.324.331a.963.963,0,0,1-.248.105.836.836,0,0,1-.212.032v-10A9.017,9.017,0,0,0,209.1,156.2Zm-.46.137a1.759,1.759,0,0,1-.618-.122l3.572-9.34a8.243,8.243,0,0,0-2.954-.538Zm-.573-.105a2.779,2.779,0,0,1-1.055-.74l7.384-6.742a7.232,7.232,0,0,0-2.847-1.892Zm7.637-4.111V160h-10v.688Zm-5,4.312h2.656V155h-2.656Zm-2.339-4.784.368,8.5,9.99-.432-.368-8.5Zm5.363,3.28h-2.928v10h2.928Zm-4.784,7.424a6.421,6.421,0,0,0,3.574-1.1l-5.548-8.32a3.583,3.583,0,0,1,1.974-.584Zm3.573-1.1a6.842,6.842,0,0,0,2.237-2.462l-8.8-4.74a3.147,3.147,0,0,1,1.021-1.118Zm2.274-2.53a6.954,6.954,0,0,0,.785-3.214h-10a3.051,3.051,0,0,1,.337-1.39Zm.785-3.214a6.476,6.476,0,0,0-1.9-4.624l-7.072,7.072a3.571,3.571,0,0,1-.787-1.2,3.385,3.385,0,0,1-.245-1.245Zm-1.768-4.49a6.375,6.375,0,0,0-4.72-2.046v10a3.529,3.529,0,0,1-1.369-.285,3.617,3.617,0,0,1-1.239-.865Zm-4.72-2.046a6.737,6.737,0,0,0-4.655,1.852l6.846,7.288a3.157,3.157,0,0,1-.984.622,3.239,3.239,0,0,1-1.207.238Zm-4.655,1.852a6.562,6.562,0,0,0-2.1,4.828h10a3.445,3.445,0,0,1-.3,1.4,3.322,3.322,0,0,1-.748,1.064Zm-2.1,4.828a6.656,6.656,0,0,0,.861,3.259l8.726-4.886a3.355,3.355,0,0,1,.413,1.627Zm.937,3.388a6.93,6.93,0,0,0,2.164,2.256l5.462-8.376a3.054,3.054,0,0,1,.948.976Zm2.245,2.308a6.463,6.463,0,0,0,3.434,1v-10a3.547,3.547,0,0,1,1.866.52Zm16.418-9.3-3.791,3.26.033.038Zm.656,2.224-5-.111v.026Zm-.1,5.648v5a5,5,0,0,0,5-4.915Zm-2.928,0-5-.021a5,5,0,0,0,5,5.021Zm.016-3.76,5,.021v-.021Zm-.32-1.664-4.263,2.613.061.1Zm-1.776-.208-3.082-3.938-.084.068Zm-.432.976-4.967-.578a4.932,4.932,0,0,0-.033.595Zm.016,4.656v5a5,5,0,0,0,5-5.017Zm-2.9,0h-5a5,5,0,0,0,5,5Zm0-8.528-.084-5a5,5,0,0,0-4.916,5Zm2.864-.048h5a5,5,0,0,0-5.084-5Zm0,.816h-5a5,5,0,0,0,7.748,4.177Zm1.424-.656,1.5,4.771h0Zm1.6,4.744a2.349,2.349,0,0,1-.9-.2,2.8,2.8,0,0,1-1.014-.738l7.582-6.52a7.331,7.331,0,0,0-5.663-2.54Zm-1.886-.9a2.252,2.252,0,0,1-.585-1.185l10,.222a8.118,8.118,0,0,0-1.9-5.633Zm-.585-1.159-.1,5.648,10,.17.1-5.648Zm4.9.733h-2.928v10h2.928Zm2.072,5.021.016-3.76-10-.042-.016,3.76Zm.016-3.781a8.035,8.035,0,0,0-1.119-4.375l-8.4,5.422a3.6,3.6,0,0,1-.36-.721,2.482,2.482,0,0,1-.108-.382c-.024-.125-.01-.126-.01.056Zm-1.057-4.277a6,6,0,0,0-5.175-2.883v10a3.9,3.9,0,0,1-1.857-.484,3.975,3.975,0,0,1-1.494-1.407Zm-5.175-2.883a6.365,6.365,0,0,0-3.946,1.35l6.163,7.876a3.641,3.641,0,0,1-2.217.774ZM219.462,159a6.383,6.383,0,0,0-2.233,4.268l9.933,1.156a3.664,3.664,0,0,1-1.368,2.316Zm-2.266,4.863.016,4.656,10-.034-.016-4.656Zm5.016-.361h-2.9v10h2.9Zm2.1,5v-8.528h-10V168.5Zm-4.916-3.529,2.864-.048-.168-10-2.864.048Zm-2.22-5.047v.816h10v-.816Zm7.748,4.993c-.043.028,0-.007.173-.062l-2.994-9.542a10.631,10.631,0,0,0-2.675,1.25Zm.173-.062a.816.816,0,0,1,.1-.026c.014,0,.014,0,0,0v-10a10.325,10.325,0,0,0-3.1.485Zm12.233-8.995h5a5,5,0,0,0-4.6-4.984Zm0,12.672v5a5,5,0,0,0,5-5Zm-3.12,0h-5a5,5,0,0,0,5,5Zm0-.9h5a5,5,0,0,0-8.284-3.77Zm-1.248.7-1.7-4.7Zm-3.28-.32-2.988,4.009.051.038Zm-1.3-1.632-4.528,2.122Zm.016-4.3,4.486,2.208Zm1.3-1.632,3.075,3.943.01-.009Zm1.7-.656.091,5h.051Zm2.768.768-3,4a5,5,0,0,0,8-4.032Zm-.032-4.96.4-4.984a5,5,0,0,0-5.4,5.016Zm-.848,10.048,2.572,4.287c.041-.024.082-.05.123-.076Zm.64-.656-4.259-2.62-.029.048Zm-.272-2.016-3.536,3.536c.037.036.074.073.112.108Zm-2.368,0-3.536-3.536h0ZM231.014,165l-4.363,2.443q.036.066.075.129Zm.624.656-2.774,4.16c.066.044.133.087.2.127Zm.7-9.792v12.672h10V155.86Zm5,7.672h-3.12v10h3.12Zm1.88,5v-.9h-10v.9Zm-8.284-4.666a1.375,1.375,0,0,1,.335-.228l3.4,9.4a8.867,8.867,0,0,0,2.832-1.636Zm.335-.228a.528.528,0,0,1,.064-.016.719.719,0,0,1,.117-.01v10a9.446,9.446,0,0,0,3.22-.57Zm.181-.026a2.16,2.16,0,0,1,.682.113,1.844,1.844,0,0,1,.494.248l-5.873,8.094a7.935,7.935,0,0,0,4.7,1.545Zm1.227.4a1.047,1.047,0,0,1,.2.188c.045.056.057.086.048.067l-9.055,4.244a9.216,9.216,0,0,0,2.836,3.519Zm.244.255s0,0,0,0v0a.366.366,0,0,1-.006-.082h-10a10.132,10.132,0,0,0,.952,4.33Zm-.007-.086a.351.351,0,0,1-.011.083c-.007.032-.014.042-.007.029l-8.973-4.416a9.7,9.7,0,0,0-1.009,4.3Zm-.018.112c.02-.041.024-.039,0-.011a.66.66,0,0,1-.116.114l-6.151-7.886a9.622,9.622,0,0,0-2.707,3.367Zm-.1.094a1.759,1.759,0,0,1-.45.245,2.5,2.5,0,0,1-.848.164l-.182-10a7.8,7.8,0,0,0-4.691,1.721Zm-1.247.408c.144,0,.147.014.053-.012a1.318,1.318,0,0,1-.427-.218l6-8a9.258,9.258,0,0,0-5.911-1.766Zm7.626-4.262-.032-4.96-10,.064.032,4.96Zm-5.431.056,3.2.256.8-9.968-3.2-.256Zm-1.281,10.3a6.588,6.588,0,0,0,3.4-.953l-5.145-8.574a3.405,3.405,0,0,1,1.741-.473Zm3.527-1.029a6.969,6.969,0,0,0,2.232-2.3l-8.575-5.144a3.018,3.018,0,0,1,.952-.983Zm2.2-2.247a6.59,6.59,0,0,0,1-3.468h-10a3.408,3.408,0,0,1,.485-1.772Zm1-3.468a6.55,6.55,0,0,0-2.105-4.812l-6.847,7.288a3.3,3.3,0,0,1-.736-1.044,3.493,3.493,0,0,1-.312-1.432Zm-1.993-4.7a6.64,6.64,0,0,0-4.735-1.976v10a3.374,3.374,0,0,1-1.319-.273,3.258,3.258,0,0,1-1.017-.679Zm-4.735-1.976a6.6,6.6,0,0,0-4.7,1.976l7.071,7.072a3.213,3.213,0,0,1-.98.659,3.459,3.459,0,0,1-1.387.293Zm-4.7,1.976a6.613,6.613,0,0,0-1.96,4.72h10a3.4,3.4,0,0,1-.969,2.352Zm-1.96,4.72a6.678,6.678,0,0,0,.861,3.275l8.725-4.886a3.323,3.323,0,0,1,.414,1.611Zm.936,3.4a7.036,7.036,0,0,0,2.138,2.244l5.547-8.32a2.949,2.949,0,0,1,.89.932Zm2.339,2.371a6.56,6.56,0,0,0,3.389.953v-10a3.431,3.431,0,0,1,1.756.473Z" transform="translate(1516 1018.06)"/><path d="M215.948,168.5l-.016-.752a3.327,3.327,0,0,1-1.072.592,3.954,3.954,0,0,1-1.312.224,3.539,3.539,0,0,1-1.952-.576,4.267,4.267,0,0,1-1.424-1.584,4.559,4.559,0,0,1-.528-2.176,4.478,4.478,0,0,1,.544-2.192,4.066,4.066,0,0,1,3.6-2.128,3.237,3.237,0,0,1,1.168.208,2.255,2.255,0,0,1,.9.576V160h2.656l.368,8.5Zm-1.856-2.576a1.42,1.42,0,0,0,.8-.256A1.848,1.848,0,0,0,215.5,165a1.958,1.958,0,0,0,.224-.912,1.476,1.476,0,0,0-.432-1.088,1.376,1.376,0,0,0-1.056-.448,1.742,1.742,0,0,0-1.232.5,1.569,1.569,0,0,0-.528,1.184,1.657,1.657,0,0,0,.224.816,1.945,1.945,0,0,0,.608.64A1.462,1.462,0,0,0,214.092,165.924Zm11.112-6.1a2.343,2.343,0,0,1,1.872.8,3.154,3.154,0,0,1,.656,2.224l-.1,5.648h-2.928l.016-3.76a3.215,3.215,0,0,0-.32-1.664,1,1,0,0,0-.912-.5,1.36,1.36,0,0,0-.864.288,1.416,1.416,0,0,0-.432.976l.016,4.656h-2.9v-8.528l2.864-.048v.816a5.655,5.655,0,0,1,1.424-.656A5.315,5.315,0,0,1,225.2,159.828Zm12.13-3.968v12.672h-3.12v-.9a3.9,3.9,0,0,1-1.248.7,4.451,4.451,0,0,1-1.52.272,2.935,2.935,0,0,1-1.76-.592,4.219,4.219,0,0,1-1.3-1.632,5.139,5.139,0,0,1-.48-2.208,4.688,4.688,0,0,1,.5-2.1,4.6,4.6,0,0,1,1.3-1.632,2.8,2.8,0,0,1,1.7-.656,4.275,4.275,0,0,1,2.768.768l-.032-4.96Zm-4.88,10.032a1.6,1.6,0,0,0,.832-.24,1.986,1.986,0,0,0,.64-.656,1.606,1.606,0,0,0,.256-.848,1.553,1.553,0,0,0-.528-1.168,1.647,1.647,0,0,0-1.2-.512,1.723,1.723,0,0,0-1.664,1.7,1.674,1.674,0,0,0,.224.832,2.038,2.038,0,0,0,.624.656A1.565,1.565,0,0,0,232.454,165.892Z" transform="translate(1516 1018.06)" fill="#fff"/><path d="M244.47,173.555l-2.031,4.569.048.021Zm-4.655-3.325-3.694-3.37a5,5,0,0,0-.057,6.676Zm4.725-5.18,3.737-3.322a5,5,0,0,0-7.431-.048Zm2.625,1.995-2.194,4.493.125.059Zm5.39-2.065,1.756-4.682h0Zm-6.965-1.4-2.236,4.472.028.014Zm-3.5-2.975-4.149,2.791.06.086Zm.07-8.715,4.1,2.857h0Zm3.675-3.08,2.181,4.5Zm10.43-.035-1.91,4.621.053.021Zm4.62,3.045,4.022,2.97a5,5,0,0,0-.486-6.506Zm-3.955,5.355-2.959,4.031a5,5,0,0,0,6.981-1.061Zm-8.47-1.96,2.169,4.505h0Zm.175,2.1-1.491,4.772c.045.015.091.028.137.041Zm7.665,1.19-1.844,4.647h0Zm3.465,2.59,4.029-2.96h0Zm-.245,8.995-4.13-2.819a.13.13,0,0,1-.01.015Zm-3.955,3.43,2.261,4.46Zm-5.39-3.74a9.279,9.279,0,0,1-3.722-.815l-3.966,9.18a19.275,19.275,0,0,0,7.688,1.635Zm-3.674-.794a8.306,8.306,0,0,1-2.935-2.062l-7.5,6.612a18.274,18.274,0,0,0,6.375,4.588Zm-2.992,4.614,4.725-5.18-7.388-6.74-4.725,5.18Zm-2.706-5.228a13.433,13.433,0,0,0,4.168,3.166l4.388-8.986a3.435,3.435,0,0,1-1.082-.824ZM245.1,171.6a12.4,12.4,0,0,0,5.149,1.148v-10a2.408,2.408,0,0,1-1.011-.252Zm5.149,1.148a9.326,9.326,0,0,0,4.847-1.238l-5.144-8.574a1.539,1.539,0,0,1,.441-.191c.054-.013.017,0-.144,0Zm4.847-1.238a6.436,6.436,0,0,0,3.3-5.512h-10a3.891,3.891,0,0,1,.713-2.25,2.89,2.89,0,0,1,.84-.812Zm3.3-5.512a5.915,5.915,0,0,0-1.358-3.792,6.45,6.45,0,0,0-2.726-1.9l-3.512,9.364a3.585,3.585,0,0,1-1.466-1.083,4.082,4.082,0,0,1-.938-2.584Zm-4.084-5.7a11.2,11.2,0,0,0-3.926-.633v10a3.472,3.472,0,0,1,.489.027c.083.012.045.014-.075-.03Zm-3.926-.633a5.716,5.716,0,0,1-2.587-.571l-4.416,8.972a15.7,15.7,0,0,0,7,1.6Zm-2.559-.557a4.265,4.265,0,0,1-1.647-1.38L238,163.482a14.251,14.251,0,0,0,5.353,4.57Zm-1.587-1.294a2.543,2.543,0,0,1-.444-1.514h-10a12.541,12.541,0,0,0,2.146,7.1Zm-.444-1.514a2.547,2.547,0,0,1,.468-1.553l-8.206-5.714a12.528,12.528,0,0,0-2.262,7.267Zm.468-1.553a4.358,4.358,0,0,1,1.753-1.438l-4.362-9a14.337,14.337,0,0,0-5.6,4.722Zm1.753-1.438a6.413,6.413,0,0,1,2.859-.619v-10a16.391,16.391,0,0,0-7.221,1.621Zm2.859-.619a8.986,8.986,0,0,1,3.48.706l3.82-9.242a18.979,18.979,0,0,0-7.3-1.464Zm3.533.727a8.6,8.6,0,0,1,2.941,1.939l7.072-7.072a18.638,18.638,0,0,0-6.3-4.151Zm2.455-4.567-3.955,5.355,8.044,5.94,3.955-5.355Zm3.026,4.294a15.619,15.619,0,0,0-9.189-3.384v10a5.9,5.9,0,0,1,3.271,1.446ZM250.7,149.76a10.1,10.1,0,0,0-4.409.95l4.338,9.01a.821.821,0,0,1-.141.054,1.179,1.179,0,0,1,.212-.014Zm-4.409.95a6.262,6.262,0,0,0-3.776,5.59h10a4.132,4.132,0,0,1-.993,2.7,2.928,2.928,0,0,1-.893.722Zm-3.776,5.59c0,4.053,3.584,5.461,4.629,5.787l2.982-9.544a1.87,1.87,0,0,1,.292.124,3.442,3.442,0,0,1,.735.514,4.236,4.236,0,0,1,1.362,3.119Zm4.766,5.828a14.832,14.832,0,0,0,4.014.5v-10a5.115,5.115,0,0,1-1.306-.128Zm4.014.5a8.536,8.536,0,0,1,3.161.522l3.688-9.294a18.444,18.444,0,0,0-6.849-1.228Zm3.161.522a2.747,2.747,0,0,1,1.28.9l8.058-5.92a12.682,12.682,0,0,0-5.65-4.277Zm1.28.9a1.905,1.905,0,0,1,.289,1.205h10a11.826,11.826,0,0,0-2.231-7.125Zm.289,1.205a3.392,3.392,0,0,1-.635,2.011l8.26,5.638a13.388,13.388,0,0,0,2.375-7.649Zm-.645,2.026a5.3,5.3,0,0,1-2.076,1.774l4.522,8.92a15.3,15.3,0,0,0,5.834-5.086ZM253.3,169.06a6.744,6.744,0,0,1-3.129.72v10a16.75,16.75,0,0,0,7.651-1.8Zm23.516,2.5,4.147,2.793a5,5,0,0,0,.562-4.475Zm-2.835,2.555,2.2,4.491.038-.019Zm-8.785-.805-3.612,3.458c.013.013.025.026.038.038Zm-1.4-7.91-4.964-.6c0,.025-.005.05-.008.075Zm.49-4.025,4.963.6a5,5,0,0,0-4.963-5.6Zm-2.765,0-4.995.221a5,5,0,0,0,4.995,4.779Zm-.245-5.53-.094-5a5,5,0,0,0-4.9,5.22Zm3.71-.07.094,5a5,5,0,0,0,4.87-4.4Zm.49-4.1-.253-4.994a5,5,0,0,0-4.712,4.4Zm6.23-.315,4.968.561a5,5,0,0,0-5.221-5.555Zm-.49,4.34-4.969-.561a5,5,0,0,0,5.058,5.56Zm3.92-.07,4.966-.579a5,5,0,0,0-5.055-4.42Zm.665,5.705v5a5,5,0,0,0,4.966-5.579Zm-5.25,0v-5a5,5,0,0,0-4.97,4.448Zm-.35,3.15-4.97-.552h0Zm.455,3.115-4.188,2.731h0Zm2.94.42,2.505,4.327h0Zm1.47-1.365,4.709-1.682a5,5,0,0,0-8.573-1.492Zm-2.4,2.107a2.43,2.43,0,0,1-.924.876l4.472,8.944a12.38,12.38,0,0,0,4.746-4.234Zm-.886.857a4.268,4.268,0,0,1-1.827.3v10a14.064,14.064,0,0,0,6.223-1.314Zm-1.827.3a3.857,3.857,0,0,1-1.181-.139c-.134-.045-.092-.056-.005.033l-7.148,6.992a11.313,11.313,0,0,0,8.334,3.114Zm-1.149-.068c.123.128.078.156,0-.114a6.038,6.038,0,0,1-.183-1.678h-10c0,2.97.624,6.265,2.963,8.708Zm-.186-1.792c0-.425.039-1.116.147-2.131l-9.944-1.058a31.171,31.171,0,0,0-.2,3.189Zm.138-2.056.49-4.025-9.927-1.208-.49,4.025Zm-4.473-9.629h-2.765v10h2.765Zm2.23,4.779-.245-5.53-9.99.442.245,5.53Zm-5.146-.31,3.71-.07-.188-10-3.71.07Zm8.58-4.475.49-4.1-9.929-1.188-.49,4.1Zm-4.222.3,6.23-.315-.505-9.988-6.23.315Zm1.009-5.87-.49,4.34,9.937,1.122.49-4.34Zm4.568,9.9,3.92-.07-.178-10-3.92.07Zm-1.136-4.49.665,5.705,9.933-1.158-.665-5.705Zm5.632.126h-5.25v10h5.25Zm-10.22,4.448-.35,3.15,9.939,1.1.35-3.15Zm-.35,3.15a13.887,13.887,0,0,0-.1,1.462h10c0,.053,0,.081,0,.076s0-.022,0-.06c.006-.079.017-.2.036-.374Zm-.1,1.462a8.94,8.94,0,0,0,1.337,4.936l8.376-5.462a2.018,2.018,0,0,1,.282.619c.021.089.005.071.005-.093Zm1.337,4.936a6.6,6.6,0,0,0,5.588,3.074v-10a3.455,3.455,0,0,1,1.705.464,3.188,3.188,0,0,1,1.083,1Zm5.588,3.074a8.007,8.007,0,0,0,4.045-1.058L271.1,163.7a2.007,2.007,0,0,1,.965-.288Zm4.045-1.058a10.715,10.715,0,0,0,2.828-2.518l-7.727-6.348a3.716,3.716,0,0,1-.308.341c-.02.019-.017.014.011-.008a1.793,1.793,0,0,1,.186-.121Zm-5.744-4.01,1.75,4.9,9.418-3.364-1.75-4.9Zm19.816,6.158-5,.106a5,5,0,0,0,5,4.894Zm-.035-1.645,5-.106a5,5,0,0,0-8.241-3.7ZM287.8,174.15l-1.651-4.719h0Zm-7.14-.77-2.756,4.172.052.034Zm-3.115-3.465,4.414-2.349h0Zm.035-9.555-4.384-2.4Zm3.255-3.4,2.551,4.3.022-.013Zm7.175-.8-1.785,4.67.044.017Zm1.96,1.26-3.692,3.371a5,5,0,0,0,8.692-3.371Zm0-1.505v-5a5,5,0,0,0-5,5Zm5.81,0,5-.216a5,5,0,0,0-5-4.784Zm.8,18.585v5a5,5,0,0,0,5-5.216Zm-8.715-6.2-2.773-4.16h0Zm1.33-1.47,4.4,2.37.036-.068Zm-.455-4.375-3.664,3.4c.042.045.085.09.129.134Zm-5.005.1-3.423-3.644Zm-.665,4.375-4.362,2.443q.036.066.075.129Zm1.33,1.4-2.731,4.188.081.052Zm10.774,6.054-.035-1.645-10,.212.035,1.645Zm-8.276-5.345a2.4,2.4,0,0,1-.754.382l3.3,9.438a12.254,12.254,0,0,0,3.936-2.208Zm-.754.382a3.647,3.647,0,0,1-1.219.209v10a13.62,13.62,0,0,0,4.522-.771Zm-1.219.209a2.752,2.752,0,0,1-1.566-.466l-5.408,8.412a12.741,12.741,0,0,0,6.974,2.054Zm-1.513-.432a4.314,4.314,0,0,1-1.458-1.642l-8.827,4.7a14.316,14.316,0,0,0,4.772,5.288Zm-1.458-1.642a4.984,4.984,0,0,1-.569-2.411h-10a14.965,14.965,0,0,0,1.742,7.109Zm-.569-2.411a4.823,4.823,0,0,1,.574-2.391l-8.768-4.808a14.8,14.8,0,0,0-1.806,7.2Zm.574-2.391a3.778,3.778,0,0,1,1.422-1.5l-5.1-8.6a13.757,13.757,0,0,0-5.088,5.291Zm1.444-1.512a3.821,3.821,0,0,1,2.047-.547v-10a13.8,13.8,0,0,0-7.192,1.973Zm2.047-.547a2.117,2.117,0,0,1,.77.125l3.571-9.34a12.079,12.079,0,0,0-4.341-.785Zm.814.142a1.063,1.063,0,0,1,.14.061.448.448,0,0,1-.045-.034.8.8,0,0,1-.086-.083l7.385-6.742a9.894,9.894,0,0,0-3.912-2.576Zm8.7-3.427v-1.505h-10v1.505Zm-5,3.495h5.81v-10h-5.81Zm.815-4.784.8,18.585,9.991-.432-.8-18.585Zm5.8,13.369h-6.4v10h6.4Zm-10.465,4.365a8.1,8.1,0,0,0,4.524-1.4l-5.547-8.32a1.552,1.552,0,0,1,.392-.182,2.078,2.078,0,0,1,.631-.1Zm4.524-1.4a9.036,9.036,0,0,0,2.959-3.26l-8.8-4.74a.8.8,0,0,1,.117-.162.97.97,0,0,1,.182-.158Zm2.995-3.328a9.279,9.279,0,0,0,1.051-4.3h-10a.75.75,0,0,1,.022-.169.667.667,0,0,1,.049-.138Zm1.051-4.3a8.225,8.225,0,0,0-2.409-5.916L285.207,166a1.871,1.871,0,0,1-.4-.623,1.524,1.524,0,0,1-.117-.533Zm-2.281-5.782a8.008,8.008,0,0,0-5.974-2.578v10a1.8,1.8,0,0,1-.675-.152,2.011,2.011,0,0,1-.679-.466Zm-5.974-2.578a8.8,8.8,0,0,0-6.118,2.441l6.847,7.288a1.032,1.032,0,0,1-.305.18,1.174,1.174,0,0,1-.424.091Zm-6.118,2.441a8.427,8.427,0,0,0-2.732,6.234h10a1.618,1.618,0,0,1-.144.636,1.346,1.346,0,0,1-.277.418Zm-2.732,6.234a8.611,8.611,0,0,0,1.128,4.228l8.725-4.886a1.091,1.091,0,0,1,.091.236,1.6,1.6,0,0,1,.056.422Zm1.2,4.357a9.248,9.248,0,0,0,2.886,3.016l5.463-8.376a.851.851,0,0,1,.158.132.476.476,0,0,1,.068.084Zm2.967,3.068a8.2,8.2,0,0,0,4.365,1.285v-10a2.063,2.063,0,0,1,.6.088,1.482,1.482,0,0,1,.337.147Zm19.7.835-2.632,4.251.049.03Zm-3.5-3.6-4.346,2.473c.006.01.012.02.017.03Zm-.07-9.59-4.324-2.511-.013.023Zm3.36-3.43-2.541-4.306-.032.019Zm9.135-.21-2.178,4.5.028.013Zm3.57,2.835-3.972,3.037h0Zm1.365,3.85.444,4.98a5,5,0,0,0,4.556-4.98Zm-5.88.525-4.775,1.482a5,5,0,0,0,5.219,3.5Zm-1.155-1.61-3.082,3.938c.063.049.127.1.192.142Zm-4.34.42,3.416,3.651,0,0Zm.8,5.425-2.65,4.24.077.047Zm3.5,0-2.65-4.24-.082.052Zm1.19-1.33.48-4.977a5,5,0,0,0-5.066,2.983Zm5.81.56h5a5,5,0,0,0-4.52-4.977Zm-1.33,3.675L309.93,167.9l-.009.012Zm-3.4,2.765-2.236-4.472Zm-4.3-3.95a4.061,4.061,0,0,1-2.178-.611l-5.165,8.562a14.054,14.054,0,0,0,7.343,2.049Zm-2.128-.581a5.161,5.161,0,0,1-1.8-1.857l-8.657,5.006a15.157,15.157,0,0,0,5.2,5.353Zm-1.787-1.827a4.683,4.683,0,0,1-.64-2.392h-10a14.676,14.676,0,0,0,1.949,7.338Zm-.64-2.392a4.335,4.335,0,0,1,.562-2.237l-8.674-4.976a14.322,14.322,0,0,0-1.888,7.213Zm.549-2.214a4.478,4.478,0,0,1,1.608-1.654l-5.145-8.574a14.464,14.464,0,0,0-5.111,5.206Zm1.577-1.635a4.068,4.068,0,0,1,2.149-.566v-10a14.051,14.051,0,0,0-7.231,1.954Zm2.149-.566a5.1,5.1,0,0,1,2.267.551l4.356-9a15.106,15.106,0,0,0-6.623-1.549Zm2.3.564a4.617,4.617,0,0,1,1.748,1.358l7.944-6.074a14.581,14.581,0,0,0-5.393-4.312Zm1.748,1.358a1.247,1.247,0,0,1,.337.813h10a11.21,11.21,0,0,0-2.393-6.887Zm4.892-4.167-5.88.525.889,9.96,5.88-.525Zm-.66,4.023a8,8,0,0,0-3.04-4.208l-5.78,8.16a2,2,0,0,1-.464-.465,1.834,1.834,0,0,1-.266-.523Zm-2.849-4.066a7.873,7.873,0,0,0-4.9-1.692v10a2.145,2.145,0,0,1-1.262-.432Zm-4.9-1.692a8.59,8.59,0,0,0-5.94,2.4l6.84,7.3a1.11,1.11,0,0,1-.307.18,1.588,1.588,0,0,1-.593.122Zm-5.936,2.4a8.116,8.116,0,0,0-2.669,6h10a2.053,2.053,0,0,1-.191.848,1.507,1.507,0,0,1-.308.458Zm-2.669,6a8.188,8.188,0,0,0,1.285,4.365l8.48-5.3a1.475,1.475,0,0,1,.147.338,2.052,2.052,0,0,1,.088.6Zm1.285,4.365a9.227,9.227,0,0,0,2.955,2.955l5.3-8.48a.786.786,0,0,1,.225.225Zm3.032,3a8.42,8.42,0,0,0,4.358,1.238v-10a1.824,1.824,0,0,1,.509.072,1.176,1.176,0,0,1,.278.116Zm4.358,1.238a8.079,8.079,0,0,0,4.446-1.337l-5.463-8.376a1.746,1.746,0,0,1,.437-.2,1.994,1.994,0,0,1,.58-.088Zm4.365-1.285a7.943,7.943,0,0,0,3.125-3.576l-9.171-3.988a2.287,2.287,0,0,1,.387-.605,1.72,1.72,0,0,1,.359-.311Zm-1.94-.593,5.81.56.96-9.954-5.81-.56Zm1.29-4.417c0,.039.013.224-.311.65l7.962,6.05a10.976,10.976,0,0,0,2.349-6.7Zm-.32.662a4.506,4.506,0,0,1-1.641,1.306l4.472,8.944a14.481,14.481,0,0,0,5.149-4.224Zm-1.641,1.306a4.531,4.531,0,0,1-2.069.522v10a14.522,14.522,0,0,0,6.541-1.578Zm19.176,5.627-4.128,2.821a5,5,0,0,0,4.359,2.174Zm-5.285-7.735,4.129-2.821a5,5,0,0,0-9.129,2.8Zm-.035,7.315.054,5a5,5,0,0,0,4.946-4.976Zm-6.545.07h-5a5,5,0,0,0,5.054,5Zm0-28.21-.264-4.993a5,5,0,0,0-4.736,4.993Zm6.615-.35,5,.011a5,5,0,0,0-5.264-5Zm-.035,15.995-5-.011a5,5,0,0,0,9.188,2.742Zm4.2-6.44.321-4.99a5,5,0,0,0-4.509,2.259Zm7.07.455,4.209,2.7a5,5,0,0,0-3.888-7.69Zm-5.39,8.4-4.208-2.7a5,5,0,0,0,.092,5.539Zm7,10.15.231,4.995a5,5,0,0,0,3.885-7.834Zm-3.466-2.471-5.285-7.735-8.257,5.642,5.285,7.735Zm-14.414-4.938-.035,7.315,10,.048.035-7.315Zm4.912,2.339-6.545.07.107,10,6.545-.07Zm-1.492,5.07V146.29h-10V174.5Zm-4.735-23.217,6.615-.35-.529-9.986-6.615.35Zm1.35-5.354-.035,15.995,10,.022.035-15.995Zm9.153,18.737,4.2-6.44-8.376-5.462-4.2,6.44Zm-.309-4.181,7.07.455.642-9.98-7.07-.455Zm3.183-7.235-5.39,8.4,8.417,5.4,5.39-8.4Zm-5.3,13.939,7,10.15,8.232-5.678-7-10.15Zm10.886,2.316-7.6.35.461,9.99,7.6-.35Z" transform="translate(1516 1018.06)"/><path d="M250.175,174.78a14.268,14.268,0,0,1-5.705-1.225,13.278,13.278,0,0,1-4.655-3.325l4.725-5.18a8.439,8.439,0,0,0,2.625,1.995,7.384,7.384,0,0,0,3.08.7,4.378,4.378,0,0,0,2.275-.525,1.477,1.477,0,0,0,.875-1.225,1.077,1.077,0,0,0-.84-1.015,6.276,6.276,0,0,0-2.17-.315,10.715,10.715,0,0,1-4.795-1.085,9.256,9.256,0,0,1-3.5-2.975,7.8,7.8,0,0,1,.07-8.715,9.344,9.344,0,0,1,3.675-3.08,11.393,11.393,0,0,1,5.04-1.12,13.994,13.994,0,0,1,5.39,1.085,13.621,13.621,0,0,1,4.62,3.045l-3.955,5.355a10.688,10.688,0,0,0-6.23-2.415,5.122,5.122,0,0,0-2.24.455q-.945.455-.945,1.085,0,.664,1.12,1.015a9.9,9.9,0,0,0,2.66.315,13.486,13.486,0,0,1,5,.875,7.7,7.7,0,0,1,3.465,2.59,6.84,6.84,0,0,1,1.26,4.165,8.391,8.391,0,0,1-1.505,4.83,10.293,10.293,0,0,1-3.955,3.43A11.748,11.748,0,0,1,250.175,174.78Zm26.645-3.22a7.4,7.4,0,0,1-2.835,2.555,9.1,9.1,0,0,1-4.025.8,6.385,6.385,0,0,1-4.76-1.61q-1.575-1.646-1.575-5.25a26.2,26.2,0,0,1,.175-2.66l.49-4.025h-2.765l-.245-5.53,3.71-.07.49-4.1,6.23-.315-.49,4.34,3.92-.07.665,5.705h-5.25l-.35,3.15q-.07.63-.07.91a4,4,0,0,0,.525,2.205,1.6,1.6,0,0,0,1.4.805,3.015,3.015,0,0,0,1.54-.385,5.878,5.878,0,0,0,1.47-1.365Zm13.357,2.94-.035-1.645a7.278,7.278,0,0,1-2.345,1.295,8.618,8.618,0,0,1-2.87.49,7.743,7.743,0,0,1-4.27-1.26,9.318,9.318,0,0,1-3.115-3.465,9.972,9.972,0,0,1-1.155-4.76,9.811,9.811,0,0,1,1.19-4.795,8.893,8.893,0,0,1,7.875-4.655,7.1,7.1,0,0,1,2.555.455,4.9,4.9,0,0,1,1.96,1.26v-1.505h5.81l.8,18.585Zm-4.06-5.635a3.112,3.112,0,0,0,1.75-.56,4.025,4.025,0,0,0,1.33-1.47,4.271,4.271,0,0,0,.49-2,3.226,3.226,0,0,0-.945-2.38,3.014,3.014,0,0,0-2.31-.98,3.815,3.815,0,0,0-2.7,1.085,3.433,3.433,0,0,0-1.155,2.59,3.619,3.619,0,0,0,.49,1.785,4.263,4.263,0,0,0,1.33,1.4A3.2,3.2,0,0,0,286.117,168.865Zm20.094,5.88a9.049,9.049,0,0,1-4.76-1.33,10.157,10.157,0,0,1-3.5-3.6,9.671,9.671,0,0,1-1.295-4.865,9.32,9.32,0,0,1,1.225-4.725,9.471,9.471,0,0,1,3.36-3.43,9.057,9.057,0,0,1,4.69-1.26,10.1,10.1,0,0,1,4.445,1.05,9.6,9.6,0,0,1,3.57,2.835,6.214,6.214,0,0,1,1.365,3.85l-5.88.525a3.008,3.008,0,0,0-1.155-1.61,2.878,2.878,0,0,0-1.82-.63,3.59,3.59,0,0,0-2.52,1.05,3.123,3.123,0,0,0-1.085,2.345,3.2,3.2,0,0,0,.525,1.715,4.238,4.238,0,0,0,1.365,1.365,3.43,3.43,0,0,0,1.785.525,3.087,3.087,0,0,0,1.715-.525,2.954,2.954,0,0,0,1.19-1.33l5.81.56a5.991,5.991,0,0,1-1.33,3.675,10,10,0,0,1-7.7,3.815Zm21.245.105-5.285-7.735-.035,7.315-6.545.07V146.29l6.615-.35-.035,15.995,4.2-6.44,7.07.455-5.39,8.4,7,10.15Z" transform="translate(1516 1018.06)" fill="#f6d946"/></g></svg>