<svg width="92" height="69" viewBox="0 0 92 69" fill="none" xmlns="http://www.w3.org/2000/svg">
<path d="M18.7969 22.628C18.3209 22.917 17.6917 23.0615 16.9253 23.0615C16.0782 23.0615 15.2392 22.8688 14.4083 22.4755C13.5773 22.0822 12.8513 21.5444 12.2382 20.8541L8.3497 25.0923C9.35005 26.2161 10.6247 27.1232 12.1736 27.7974C13.7306 28.4717 15.2876 28.8168 16.8607 28.8168C18.4339 28.8168 19.9263 28.4717 21.2897 27.7894C22.6531 27.0991 23.7422 26.1599 24.557 24.9719C25.3718 23.7759 25.7832 22.4675 25.7832 21.0387C25.7832 19.7062 25.4363 18.5664 24.7506 17.6352C24.0568 16.7041 23.1129 15.9897 21.9028 15.5161C20.6927 15.0425 19.3213 14.8017 17.7885 14.8017C16.9414 14.8017 16.2154 14.7134 15.6022 14.5288C14.9891 14.3442 14.6826 14.0793 14.6826 13.7101C14.6826 13.3649 14.9407 13.0679 15.457 12.8191C15.9733 12.5702 16.5865 12.4498 17.2964 12.4498C18.9099 12.4498 20.6121 13.108 22.4192 14.4245L25.6703 10.0417C24.5731 8.95005 23.3146 8.11524 21.8706 7.5373C20.4346 6.95133 18.9502 6.66235 17.4416 6.66235C15.933 6.66235 14.5616 6.96738 13.295 7.57743C12.0284 8.18748 11.02 9.03032 10.2697 10.0979C9.51947 11.1655 9.14837 12.3695 9.14837 13.702C9.14837 15.0345 9.5114 16.1663 10.2294 17.2098C10.9474 18.2533 11.9074 19.0641 13.1094 19.658C14.3115 20.252 15.6184 20.549 17.0382 20.549C17.7643 20.549 18.3613 20.6373 18.8211 20.8059C19.281 20.9745 19.5149 21.2554 19.5149 21.6327C19.5149 22.01 19.2729 22.3471 18.7969 22.6361V22.628Z" fill="#F6D947"/>
<path d="M16.8688 33.1032C14.6987 33.1032 12.5367 32.6376 10.4472 31.7226C8.31743 30.7995 6.52648 29.5151 5.11469 27.9258C3.66257 26.2803 3.67871 23.8079 5.1631 22.1945L7.05086 20.1396C6.92178 19.9791 6.80077 19.8105 6.67976 19.6339C5.46159 17.868 4.8404 15.8693 4.8404 13.6939C4.8404 11.5186 5.47773 9.43161 6.73623 7.63357C7.906 5.95592 9.47913 4.6395 11.4153 3.70034C13.2708 2.80935 15.2957 2.35181 17.4416 2.35181C19.5875 2.35181 21.5479 2.75316 23.5002 3.5398C25.4686 4.33447 27.2273 5.49839 28.7278 6.98338C30.2364 8.48443 30.4139 10.8604 29.1473 12.5702L27.7436 14.4565C27.913 14.6492 28.0744 14.8579 28.2276 15.0666C29.47 16.7522 30.0993 18.7509 30.0993 21.0146C30.0993 23.2782 29.4377 25.4535 28.1308 27.3639C26.9046 29.1539 25.2669 30.5827 23.2501 31.6022C21.2817 32.5975 19.1357 33.0952 16.8688 33.0952V33.1032Z" fill="black"/>
<path d="M28.4616 17.844L28.0582 21.1351C27.9614 22.0341 27.913 22.7565 27.913 23.3104C27.913 25.277 28.3486 26.7058 29.2119 27.5888C30.0751 28.4798 31.382 28.9212 33.1245 28.9212C34.4314 28.9212 35.5367 28.6965 36.4483 28.247C37.3599 27.7975 38.1343 27.1071 38.7636 26.168L37.3276 22.1625C36.8839 22.7003 36.4805 23.0696 36.1175 23.2783C35.7545 23.487 35.3269 23.5913 34.8509 23.5913C34.375 23.5913 33.9877 23.3746 33.6973 22.9331C33.4069 22.4916 33.2617 21.8896 33.2617 21.127C33.2617 20.9745 33.2778 20.7257 33.3181 20.3805L33.6086 17.8039H37.9246L37.376 13.1402L34.1491 13.1964L34.5524 9.64844L29.4297 9.9053L29.0263 13.2526L25.9768 13.3087L26.1785 17.836H28.4535L28.4616 17.844Z" fill="#F6D947"/>
<path d="M33.1245 33.2157C30.1719 33.2157 27.8162 32.3247 26.1059 30.5748C24.4441 28.865 23.597 26.4168 23.597 23.3104C23.597 22.7565 23.6293 22.1063 23.7019 21.3518C22.645 20.6133 21.9432 19.4093 21.8786 18.0286L21.677 13.5014C21.6286 12.3455 22.0481 11.2137 22.8387 10.3709C23.476 9.6966 24.2988 9.25511 25.2024 9.08655C25.5735 7.16007 27.2273 5.71521 29.2199 5.61086L34.3427 5.354C35.6093 5.28978 36.8355 5.77943 37.7068 6.70253C38.336 7.36877 38.7233 8.20358 38.8443 9.09457C40.3448 9.63238 41.4742 10.9809 41.6678 12.6425L42.2164 17.3062C42.3536 18.446 42.0147 19.5939 41.3048 20.4849C41.3371 20.5571 41.3693 20.6374 41.3935 20.7096L42.8295 24.7151C43.2894 25.9994 43.1119 27.4282 42.3455 28.56C41.2887 30.1173 39.9495 31.3053 38.3602 32.0839C36.8516 32.8224 35.093 33.1996 33.1245 33.1996V33.2157Z" fill="black"/>
<path d="M41.9341 27.653C43.007 28.3513 44.1768 28.6965 45.4434 28.6965C46.2501 28.6965 47.0326 28.56 47.799 28.2951C48.5654 28.0302 49.2108 27.677 49.7271 27.2356L49.7594 28.5841H55.0274L54.3658 13.381H49.59V14.6091C49.1866 14.1676 48.6542 13.8305 47.9926 13.5816C47.3311 13.3328 46.6293 13.2124 45.879 13.2124C44.4995 13.2124 43.2329 13.5495 42.0954 14.2318C40.9498 14.9061 40.0544 15.8372 39.4009 17.0252C38.7475 18.2052 38.4248 19.5136 38.4248 20.9504C38.4248 22.3873 38.7394 23.6635 39.3767 24.8435C40.006 26.0235 40.8611 26.9707 41.9341 27.661V27.653ZM44.4672 18.8233C45.0965 18.2293 45.8387 17.9323 46.6857 17.9323C47.4521 17.9323 48.0894 18.1972 48.5977 18.7189C49.1059 19.2407 49.3641 19.8989 49.3641 20.6775C49.3641 21.2474 49.2269 21.7933 48.9607 22.299C48.6945 22.8047 48.3315 23.214 47.8636 23.5191C47.4037 23.8241 46.9197 23.9766 46.4276 23.9766C45.9355 23.9766 45.4837 23.8321 45.0319 23.5431C44.5801 23.2542 44.2171 22.8769 43.9348 22.3953C43.6605 21.9217 43.5153 21.432 43.5153 20.9344C43.5153 20.1156 43.8299 19.4092 44.4672 18.8152V18.8233Z" fill="#F6D947"/>
<path d="M45.4434 32.9909C43.3297 32.9909 41.3613 32.4049 39.5784 31.249C37.8923 30.1574 36.537 28.6724 35.5609 26.8502C34.5928 25.0442 34.1087 23.0535 34.1087 20.9343C34.1087 18.8152 34.617 16.7683 35.6173 14.9462C36.6419 13.092 38.0779 11.599 39.885 10.5314C41.7001 9.45575 43.7169 8.90991 45.879 8.90991C46.7664 8.90991 47.6296 9.01426 48.4686 9.23099C48.8236 9.13467 49.2027 9.08651 49.59 9.08651H54.3658C56.6731 9.08651 58.577 10.9006 58.6819 13.1963L59.3434 28.3994C59.3918 29.5714 58.9642 30.7112 58.1494 31.5541C57.3346 32.3969 56.2052 32.8785 55.0354 32.8785H49.7674C49.2592 32.8785 48.7671 32.7902 48.3153 32.6297C47.3795 32.8705 46.4195 32.9909 45.4514 32.9909H45.4434ZM46.4195 19.6741C45.9032 19.6741 45.5563 19.8748 45.4595 19.939C45.2981 20.0433 45.1852 20.1878 45.1287 20.2922C45.0723 20.4046 45.0319 20.549 45.0319 20.6775C45.0319 20.9424 45.1691 21.3758 45.4756 21.6969C45.8306 22.0661 46.3308 22.2267 46.6696 22.2267C46.96 22.2267 47.2666 22.0822 47.4118 21.9457C47.6135 21.7611 47.8232 21.3437 47.8232 20.9343C47.8232 20.6293 47.7345 20.3725 47.6538 20.236C47.6054 20.1477 47.4925 20.0193 47.3392 19.9149C47.2504 19.8587 46.9116 19.6661 46.4114 19.6661L46.4195 19.6741Z" fill="black"/>
<path d="M61.2392 22.5398L65.5794 28.865L71.8316 28.5761L66.0716 20.2762L70.5005 13.4051L64.692 13.0358L61.2392 18.3015L61.2634 5.21753L55.826 5.49847V28.5761L61.2069 28.5199L61.2392 22.5398Z" fill="#F6D947"/>
<path d="M65.5794 33.1595C64.684 33.1595 63.8208 32.8785 63.1028 32.3809C62.5461 32.6538 61.9169 32.8063 61.2553 32.8143L55.8744 32.8705C54.7208 32.8705 53.6156 32.4371 52.7927 31.6263C51.9698 30.8156 51.51 29.7159 51.51 28.5761V5.49848C51.51 3.21079 53.309 1.33247 55.6001 1.21207L61.0375 0.923094C62.2315 0.858878 63.3771 1.28431 64.2403 2.09503C65.1035 2.90576 65.5875 4.03757 65.5794 5.21753V8.78152L70.7748 9.11865C72.2995 9.21497 73.6629 10.106 74.3487 11.4706C75.0344 12.8271 74.9537 14.4486 74.1308 15.7249L71.2508 20.1879L75.3732 26.1359C76.2606 27.4202 76.3816 29.0818 75.6878 30.4865C74.994 31.8832 73.5903 32.7983 72.0172 32.8705L65.7731 33.1595C65.7085 33.1595 65.6359 33.1595 65.5714 33.1595H65.5794Z" fill="black"/>
<path d="M69.6373 20.3886C69.6373 21.8575 69.9681 23.2141 70.6296 24.4502C71.2911 25.6944 72.1866 26.6897 73.308 27.4603C74.4293 28.2229 75.6556 28.6564 76.9786 28.7527C77.1157 28.7687 77.3013 28.7848 77.5514 28.7848C78.6082 28.7848 79.6247 28.5841 80.617 28.1828C81.6012 27.7814 82.4563 27.2276 83.1663 26.5051C83.8762 25.7907 84.3522 24.98 84.6022 24.089L80.4879 22.9171C79.7941 23.9285 78.6808 24.378 77.148 24.2656C76.5914 24.2255 76.1073 24.0007 75.6959 23.5913C75.2845 23.182 74.9618 22.6602 74.7359 22.0341L84.9249 21.9217C84.9411 21.713 84.9572 21.408 84.9572 21.0066C84.9572 18.5985 84.2957 16.7042 82.9726 15.3075C81.6496 13.9108 79.786 13.2205 77.39 13.2205C76.0105 13.2205 74.7439 13.5014 73.6065 14.0472C72.4609 14.6011 71.5412 15.3717 70.8474 16.367C70.1456 17.3624 69.7583 18.4862 69.6857 19.7464C69.6696 19.8989 69.6535 20.1156 69.6535 20.4046L69.6373 20.3886ZM77.6643 16.7523C78.1403 16.7925 78.5679 16.961 78.947 17.2661C79.3181 17.5711 79.544 18.0045 79.6247 18.5584L74.7601 18.5263C75.2764 17.2259 76.2445 16.64 77.6643 16.7523Z" fill="#F6D947"/>
<path d="M77.5514 33.0711C77.1642 33.0711 76.8415 33.0551 76.543 33.023C74.5019 32.8544 72.59 32.1721 70.8716 31.0082C69.1775 29.8523 67.8141 28.3272 66.8218 26.4729C65.8295 24.6107 65.3213 22.5638 65.3213 20.3885C65.3213 19.9871 65.3374 19.65 65.3697 19.353C65.5149 17.3382 66.1603 15.5 67.3059 13.8786C68.4272 12.2892 69.9116 11.0451 71.7106 10.1701C73.4451 9.32729 75.349 8.90186 77.39 8.90186C81.8997 8.90186 84.6184 10.7721 86.1108 12.3374C88.2083 14.5448 89.2732 17.4586 89.2732 20.9825C89.2732 21.5283 89.2571 21.9377 89.2248 22.2909C89.1845 22.7484 89.0716 23.1819 88.9021 23.5832C88.9667 24.121 88.9263 24.6749 88.7731 25.2207C88.3294 26.8261 87.4742 28.271 86.248 29.5071C85.1266 30.6389 83.7794 31.5219 82.2546 32.148C80.7541 32.7581 79.1729 33.0711 77.5595 33.0711H77.5514Z" fill="black"/>
<path d="M21.0558 49.8557C19.8457 49.3821 18.4742 49.1413 16.9414 49.1413C16.0944 49.1413 15.3683 49.053 14.7552 48.8684C14.1421 48.6838 13.8355 48.4189 13.8355 48.0496C13.8355 47.7045 14.0936 47.4075 14.61 47.1587C15.1263 46.9098 15.7394 46.7894 16.4493 46.7894C18.0628 46.7894 19.765 47.4476 21.5721 48.7641L24.8232 44.3813C23.7261 43.2896 22.4676 42.4548 21.0235 41.8769C19.5875 41.2989 18.1031 41.002 16.5945 41.002C15.0859 41.002 13.7145 41.307 12.4479 41.917C11.1813 42.5271 10.1729 43.3699 9.42266 44.4375C8.67239 45.5051 8.3013 46.7091 8.3013 48.0416C8.3013 49.3741 8.66433 50.5059 9.38232 51.5494C10.1003 52.5929 11.0603 53.4036 12.2624 53.9976C13.4644 54.5916 14.7713 54.8886 16.1912 54.8886C16.9172 54.8886 17.5142 54.9769 17.974 55.1455C18.4339 55.3141 18.6678 55.595 18.6678 55.9723C18.6678 56.3496 18.4258 56.6867 17.9498 56.9757C17.4739 57.2646 16.8446 57.4091 16.0782 57.4091C15.2311 57.4091 14.3921 57.2165 13.5612 56.8231C12.7303 56.4298 12.0042 55.892 11.3911 55.2017L7.50263 59.4399C8.50298 60.5637 9.77762 61.4708 11.3265 62.145C12.8835 62.8193 14.4405 63.1645 16.0137 63.1645C17.5868 63.1645 19.0793 62.8193 20.4427 62.137C21.806 61.4467 22.8951 60.5075 23.7099 59.3195C24.5247 58.1235 24.9362 56.8151 24.9362 55.3863C24.9362 54.0538 24.5893 52.914 23.9035 51.9829C23.2097 51.0517 22.2659 50.3454 21.0558 49.8637V49.8557Z" fill="#F6D947"/>
<path d="M16.0137 67.4589C13.8516 67.4589 11.6896 66.9934 9.59207 66.0783C7.46229 65.1471 5.67134 63.8708 4.25956 62.2815C2.80744 60.636 2.82357 58.1637 4.30796 56.5502L6.19572 54.4953C6.06664 54.3348 5.94563 54.1662 5.82462 53.9896C4.60645 52.2237 3.98527 50.225 3.98527 48.0497C3.98527 45.8743 4.62259 43.7873 5.88109 41.9893C7.05086 40.3116 8.63206 38.9952 10.5602 38.0561C12.4156 37.1651 14.4405 36.7075 16.5865 36.7075C18.7324 36.7075 20.6927 37.1089 22.645 37.8955C24.6135 38.6902 26.3721 39.8541 27.8727 41.3391C29.3813 42.8401 29.5587 45.2161 28.2922 46.9259L26.8885 48.8122C27.0579 49.0049 27.2192 49.2136 27.3725 49.4223C28.6149 51.1079 29.2441 53.1067 29.2441 55.3703C29.2441 57.6339 28.5826 59.8092 27.2757 61.7196C26.0495 63.5177 24.4037 64.9384 22.3949 65.9579C20.4265 66.9532 18.2806 67.4509 16.0137 67.4509V67.4589Z" fill="black"/>
<path d="M35.2704 57.6418C34.9074 57.8505 34.4798 57.9548 34.0039 57.9548C33.5279 57.9548 33.1407 57.7381 32.8502 57.2966C32.5598 56.8551 32.4146 56.2531 32.4146 55.4906C32.4146 55.338 32.4307 55.0892 32.4711 54.744L32.7615 52.1674H37.0775L36.5289 47.5037L33.302 47.5599L33.7054 44.012L28.5826 44.2688L28.1792 47.6161L25.1298 47.6723L25.3315 52.1995H27.6065L27.2031 55.4906C27.1063 56.3896 27.0579 57.112 27.0579 57.6659C27.0579 59.6325 27.4935 61.0613 28.3567 61.9443C29.2199 62.8352 30.5268 63.2767 32.2694 63.2767C33.5763 63.2767 34.6815 63.052 35.5931 62.6025C36.5047 62.153 37.2792 61.4626 37.9085 60.5235L36.4725 56.518C36.0288 57.0558 35.6254 57.4251 35.2624 57.6338L35.2704 57.6418Z" fill="#F6D947"/>
<path d="M32.2774 67.5792C29.3248 67.5792 26.9691 66.6882 25.2589 64.9383C23.597 63.2286 22.7499 60.7803 22.7499 57.6739C22.7499 57.12 22.7822 56.4699 22.8548 55.7153C21.798 54.9768 21.0961 53.7728 21.0316 52.3921L20.8299 47.8649C20.7815 46.709 21.201 45.5772 21.9916 44.7344C22.6289 44.0601 23.4518 43.6186 24.3553 43.4501C24.7264 41.5236 26.3802 40.0787 28.3728 39.9744L33.4956 39.7175C34.7541 39.6533 35.9884 40.143 36.8597 41.0661C37.4889 41.7323 37.8842 42.5671 37.9972 43.4581C39.4977 43.9959 40.6271 45.3444 40.8208 47.006L41.3693 51.6697C41.5065 52.8095 41.1677 53.9574 40.4577 54.8484C40.49 54.9206 40.5223 55.0009 40.5465 55.0732L41.9825 59.0786C42.4423 60.3629 42.2648 61.7917 41.4984 62.9235C40.4416 64.4808 39.1024 65.6688 37.5132 66.4474C36.0046 67.1859 34.2459 67.5631 32.2774 67.5631V67.5792Z" fill="black"/>
<path d="M48.7348 47.7364V48.9646C48.3315 48.5231 47.799 48.186 47.1375 47.9371C46.476 47.6883 45.7741 47.5679 45.0239 47.5679C43.6443 47.5679 42.3778 47.905 41.2403 48.5873C40.0947 49.2616 39.1992 50.1927 38.5458 51.3807C37.8923 52.5607 37.5696 53.8691 37.5696 55.3059C37.5696 56.7427 37.8843 58.019 38.5216 59.199C39.1508 60.3789 40.006 61.3261 41.0789 62.0165C42.1519 62.7148 43.3216 63.06 44.5882 63.06C45.3949 63.06 46.1775 62.9235 46.9439 62.6586C47.7103 62.3937 48.3557 62.0405 48.872 61.599L48.9042 62.9476H54.1722L53.5107 47.7445H48.7348V47.7364ZM48.1056 56.6544C47.8394 57.1601 47.4763 57.5695 47.0084 57.8745C46.5486 58.1796 46.0645 58.3321 45.5724 58.3321C45.0803 58.3321 44.6285 58.1876 44.1768 57.8986C43.725 57.6096 43.362 57.2324 43.0796 56.7507C42.8053 56.2772 42.6601 55.7875 42.6601 55.2898C42.6601 54.4711 42.9747 53.7647 43.6121 53.1707C44.2413 52.5767 44.9835 52.2797 45.8306 52.2797C46.597 52.2797 47.2343 52.5446 47.7425 53.0664C48.2508 53.5881 48.5089 54.2463 48.5089 55.0249C48.5089 55.5949 48.3718 56.1407 48.1056 56.6464V56.6544Z" fill="#F6D947"/>
<path d="M44.5882 67.3463C42.4746 67.3463 40.5061 66.7604 38.7233 65.6045C37.0372 64.5128 35.6899 63.0278 34.7057 61.2057C33.7376 59.3996 33.2536 57.4089 33.2536 55.2898C33.2536 53.1707 33.7618 51.1158 34.7622 49.3017C35.7867 47.4474 37.2227 45.9624 39.0298 44.8868C40.845 43.8112 42.8618 43.2654 45.0239 43.2654C45.9113 43.2654 46.7745 43.3697 47.6135 43.5865C47.9684 43.4901 48.3476 43.442 48.7348 43.442H53.5107C55.818 43.442 57.7219 45.2561 57.8267 47.5518L58.4882 62.7549C58.5367 63.9269 58.1091 65.0667 57.2943 65.9095C56.4795 66.7524 55.3501 67.234 54.1803 67.234H48.9123C48.4041 67.234 47.912 67.1457 47.4602 66.9851C46.5244 67.2259 45.5644 67.3463 44.5963 67.3463H44.5882ZM45.5644 54.0296C45.0481 54.0296 44.7012 54.2302 44.6124 54.2945C44.4511 54.4068 44.3301 54.5433 44.2817 54.6477C44.2252 54.76 44.1848 54.9125 44.1848 55.0329C44.1848 55.2978 44.322 55.7313 44.6286 56.0524C44.9835 56.4216 45.4837 56.5822 45.8225 56.5822C46.1129 56.5822 46.4195 56.4377 46.5647 56.3012C46.7583 56.1166 46.9761 55.6992 46.9761 55.2898C46.9761 54.9848 46.8874 54.7279 46.8067 54.5915C46.7583 54.5032 46.6454 54.3667 46.484 54.2704C46.3953 54.2142 46.0645 54.0296 45.5563 54.0296H45.5644Z" fill="black"/>
<path d="M62.288 52.3441C62.8446 52.3441 63.3448 52.5127 63.7966 52.8418C64.2483 53.1789 64.563 53.6204 64.7324 54.1743L69.5647 53.7408C69.5647 52.617 69.1936 51.5655 68.4433 50.5942C67.6931 49.6229 66.725 48.8443 65.523 48.2744C64.3209 47.7045 63.1028 47.4155 61.8523 47.4155C60.4486 47.4155 59.174 47.7607 58.0123 48.443C56.8506 49.1333 55.9309 50.0644 55.2532 51.2364C54.5756 52.4083 54.2287 53.7007 54.2287 55.1134C54.2287 56.5262 54.5837 57.8506 55.2936 59.0787C56.0035 60.3069 56.9635 61.2942 58.1736 62.0246C59.3837 62.7631 60.6906 63.1243 62.0863 63.1243C63.2964 63.1243 64.4742 62.8354 65.6278 62.2655C66.7815 61.6955 67.7173 60.933 68.4353 59.9858C69.1533 59.0386 69.5163 58.0433 69.5163 56.9917L64.7404 56.5342C64.5468 56.9757 64.2241 57.3369 63.7724 57.6259C63.3206 57.9148 62.8446 58.0593 62.3444 58.0593C61.8443 58.0593 61.3602 57.9148 60.8923 57.6259C60.4244 57.3369 60.0452 56.9676 59.7548 56.5101C59.4644 56.0526 59.3192 55.587 59.3192 55.1054C59.3192 54.383 59.6177 53.7328 60.2227 53.1709C60.8278 52.609 61.5135 52.328 62.2799 52.328L62.288 52.3441Z" fill="#F6D947"/>
<path d="M62.0863 67.4348C59.8839 67.4348 57.8106 66.8489 55.9228 65.701C54.0915 64.5933 52.6233 63.0842 51.5503 61.222C50.4612 59.3356 49.9127 57.2807 49.9127 55.1214C49.9127 52.9622 50.4532 50.9233 51.51 49.0932C52.5587 47.2791 54.0028 45.8262 55.8018 44.7586C57.6331 43.675 59.6661 43.1211 61.8523 43.1211C63.7482 43.1211 65.6036 43.5545 67.3865 44.4054C69.2017 45.2723 70.7103 46.4764 71.872 47.9854C73.1869 49.6952 73.8807 51.6859 73.8807 53.7408C73.8807 54.3428 73.7517 54.9208 73.5258 55.4425C73.7194 55.9241 73.8243 56.4539 73.8243 57.0078C73.8243 59.0065 73.1627 60.8848 71.872 62.5946C70.7506 64.0635 69.2985 65.2515 67.5559 66.1184C65.8053 66.9853 63.966 67.4348 62.0863 67.4348Z" fill="black"/>
<path d="M80.0442 54.6316L84.4732 47.7605L78.6647 47.3913L75.2119 52.657L75.2361 39.573L69.7987 39.862V62.9396L75.1796 62.8834L75.2119 56.8952L79.5521 63.2205L85.7962 62.9396L80.0442 54.6316Z" fill="#F6D947"/>
<path d="M79.5521 67.5149C78.6566 67.5149 77.7934 67.234 77.0754 66.7363C76.5188 67.0092 75.8895 67.1618 75.228 67.1698L69.8471 67.226C68.6854 67.2099 67.5882 66.7925 66.7654 65.9818C65.9425 65.1711 65.4826 64.0714 65.4826 62.9315V39.8539C65.4826 37.5663 67.2817 35.6879 69.5728 35.5675L75.0102 35.2786C76.188 35.2143 77.3497 35.6398 78.2129 36.4505C79.0761 37.2612 79.5602 38.393 79.5521 39.573V43.129L84.7475 43.4661C86.2722 43.5624 87.6356 44.4534 88.3213 45.818C89.007 47.1746 88.9263 48.796 88.1035 50.0723L85.2234 54.5353L89.3458 60.4833C90.2333 61.7676 90.3543 63.4292 89.6605 64.8339C88.9667 66.2306 87.563 67.1457 85.9898 67.2179L79.7457 67.5069C79.6812 67.5069 79.6166 67.5069 79.544 67.5069L79.5521 67.5149Z" fill="black"/>
<path d="M39.3283 35.2465C39.167 35.0699 38.9572 34.9334 38.691 34.8371C38.4248 34.7408 38.1424 34.6846 37.8439 34.6846C37.2953 34.6846 36.7871 34.821 36.3273 35.0939C35.8674 35.3669 35.5125 35.7361 35.2543 36.2097C34.9961 36.6833 34.859 37.205 34.859 37.775C34.859 38.3449 34.9881 38.8586 35.2382 39.3322C35.4882 39.8058 35.8351 40.1831 36.2627 40.464C36.6903 40.7449 37.1582 40.8814 37.6664 40.8814C37.9891 40.8814 38.3038 40.8252 38.6103 40.7209C38.9169 40.6165 39.175 40.472 39.3848 40.2954V40.8332H41.5065L41.2403 34.7488H39.3283V35.2384V35.2465ZM39.0782 38.3208C38.9733 38.5215 38.8281 38.682 38.6426 38.8104C38.457 38.9308 38.2634 38.9951 38.0698 38.9951C37.8762 38.9951 37.6906 38.9389 37.5132 38.8265C37.3357 38.7141 37.1905 38.5616 37.0775 38.369C36.9646 38.1763 36.9081 37.9837 36.9081 37.783C36.9081 37.4539 37.0372 37.1729 37.2873 36.9321C37.5374 36.6993 37.8358 36.5789 38.1747 36.5789C38.4812 36.5789 38.7394 36.6833 38.9411 36.892C39.1428 37.1007 39.2476 37.3656 39.2476 37.6786C39.2476 37.9114 39.1912 38.1201 39.0863 38.3288L39.0782 38.3208Z" fill="#F6D947"/>
<path d="M37.6664 45.1759C36.3273 45.1759 35.0284 44.7906 33.899 44.0601C32.8583 43.3859 32.0274 42.4708 31.4223 41.355C30.8334 40.2553 30.5349 39.0513 30.5349 37.783C30.5349 36.5148 30.8495 35.2626 31.4626 34.1468C32.1 32.9989 32.9874 32.0758 34.1168 31.4096C35.2462 30.7353 36.5047 30.3982 37.8358 30.3982C38.2069 30.3982 38.57 30.4303 38.9249 30.4865C39.054 30.4785 39.1831 30.4704 39.3202 30.4704H41.2322C43.5395 30.4704 45.4433 32.2845 45.5482 34.5803L45.8144 40.6647C45.8629 41.8367 45.4353 42.9765 44.6205 43.8193C43.8057 44.6622 42.6763 45.1438 41.5065 45.1438H39.4009C39.1992 45.1438 38.9975 45.1277 38.7959 45.1036C38.4248 45.1598 38.0537 45.1919 37.6745 45.1919L37.6664 45.1759Z" fill="black"/>
<path d="M47.8071 40.8332L47.8797 36.7876C47.8958 36.0973 47.7345 35.5675 47.4037 35.1903C47.073 34.813 46.6212 34.6204 46.0565 34.6204C45.6773 34.6204 45.2981 34.6846 44.9028 34.805C44.5156 34.9254 44.1687 35.0859 43.8783 35.2705V34.6846L41.8211 34.7167V40.8172H43.9025V37.486C43.9267 37.1569 44.0316 36.9241 44.209 36.7876C44.3785 36.6512 44.5882 36.5789 44.8222 36.5789C45.1126 36.5789 45.3304 36.6993 45.4837 36.9321C45.637 37.1649 45.7096 37.5663 45.7096 38.1201V40.8092H47.8071V40.8332Z" fill="#F6D947"/>
<path d="M47.8071 45.1278H45.7015C45.395 45.1278 45.0965 45.0956 44.806 45.0314C44.5156 45.0956 44.209 45.1278 43.9106 45.1278H41.8292C39.4412 45.1278 37.5132 43.2013 37.5132 40.8333V34.7328C37.5132 32.3889 39.4009 30.4785 41.7566 30.4384L43.8138 30.4063C44.088 30.4063 44.3623 30.4223 44.6205 30.4705C45.0965 30.3822 45.5805 30.342 46.0565 30.342C47.8716 30.342 49.5093 31.0645 50.6629 32.3809C51.389 33.2157 52.2441 34.6686 52.1957 36.8921L52.1312 40.9136C52.0908 43.2575 50.1708 45.1358 47.8152 45.1358L47.8071 45.1278Z" fill="black"/>
<path d="M54.7853 40.8574V31.7869L52.4861 31.6023L52.5103 35.1502C51.986 34.7569 51.3244 34.5803 50.5177 34.6044C50.0982 34.6044 49.6948 34.7649 49.2995 35.07C48.9123 35.375 48.5977 35.7603 48.3637 36.2419C48.1298 36.7235 48.0088 37.2212 48.0088 37.7429C48.0088 38.3048 48.1217 38.8346 48.3557 39.3243C48.5815 39.8139 48.8962 40.1992 49.2915 40.4882C49.6787 40.7771 50.1063 40.9216 50.558 40.9216C50.9291 40.9216 51.2922 40.8574 51.6552 40.729C52.0182 40.6006 52.3167 40.432 52.5507 40.2233V40.8654H54.7934L54.7853 40.8574ZM52.3409 38.3209C52.2199 38.5135 52.0666 38.6741 51.873 38.7945C51.6794 38.9149 51.4777 38.9711 51.276 38.9711C51.0744 38.9711 50.8807 38.9149 50.6952 38.7945C50.5096 38.6741 50.3564 38.5216 50.2434 38.3289C50.1305 38.1363 50.074 37.9356 50.074 37.7349C50.074 37.4058 50.195 37.1249 50.437 36.8841C50.6791 36.6432 50.9533 36.5228 51.268 36.5228C51.5826 36.5228 51.8892 36.6432 52.1392 36.8841C52.3893 37.1249 52.5103 37.4058 52.5103 37.7269C52.5103 37.9356 52.4539 38.1363 52.3329 38.3289L52.3409 38.3209Z" fill="#F6D947"/>
<path d="M50.55 45.2081C49.1785 45.2081 47.8555 44.7746 46.7261 43.9479C45.7499 43.2335 44.9754 42.2863 44.443 41.1464C43.9428 40.0949 43.6927 38.947 43.6927 37.751C43.6927 36.555 43.959 35.4312 44.4914 34.3556C45.0158 33.288 45.7418 32.397 46.6454 31.6987C47.1536 31.3053 47.6941 30.9923 48.2589 30.7675C48.4363 29.8926 48.8881 29.0899 49.5496 28.4718C50.437 27.6531 51.631 27.2437 52.833 27.34L55.1322 27.5246C57.375 27.7012 59.1014 29.5635 59.1014 31.803V40.8735C59.1014 43.2495 57.1652 45.168 54.7853 45.168H52.5426C52.3087 45.168 52.0747 45.1519 51.8488 45.1118C51.4213 45.184 50.9856 45.2241 50.558 45.2241L50.55 45.2081Z" fill="black"/>
<path d="M12.1736 27.7893C10.6166 27.1151 9.34198 26.208 8.3497 25.0842L12.2382 20.846C12.8513 21.5363 13.5773 22.0741 14.4083 22.4674C15.2392 22.8608 16.0782 23.0534 16.9253 23.0534C17.6917 23.0534 18.3129 22.9089 18.7969 22.62C19.2729 22.331 19.5149 22.0019 19.5149 21.6166C19.5149 21.2313 19.281 20.9584 18.8211 20.7898C18.3613 20.6212 17.7643 20.5329 17.0382 20.5329C15.6184 20.5329 14.3115 20.2359 13.1094 19.6419C11.9074 19.0479 10.9555 18.2372 10.2294 17.1937C9.5114 16.1502 9.14837 14.9863 9.14837 13.6859C9.14837 12.3855 9.51947 11.1494 10.2697 10.0818C11.02 9.0142 12.0284 8.17137 13.295 7.56132C14.5616 6.95127 15.9411 6.64624 17.4416 6.64624C18.9421 6.64624 20.4346 6.93521 21.8706 7.52118C23.3066 8.10715 24.5731 8.94196 25.6703 10.0256L22.4192 14.4083C20.6121 13.0919 18.9099 12.4337 17.2964 12.4337C16.5865 12.4337 15.9733 12.5541 15.457 12.8029C14.9407 13.0518 14.6826 13.3488 14.6826 13.6939C14.6826 14.0552 14.9891 14.3281 15.6022 14.5127C16.2154 14.6973 16.9414 14.7856 17.7885 14.7856C19.3213 14.7856 20.6927 15.0264 21.9028 15.5C23.1129 15.9736 24.0568 16.68 24.7506 17.6191C25.4444 18.5583 25.7832 19.6901 25.7832 21.0226C25.7832 22.4514 25.3718 23.7678 24.557 24.9558C23.7422 26.1518 22.6531 27.091 21.2897 27.7733C19.9263 28.4636 18.45 28.8007 16.8607 28.8007C15.2715 28.8007 13.7226 28.4636 12.1736 27.7813V27.7893Z" fill="#F6D947"/>
<path d="M38.7636 26.1761C38.1343 27.1152 37.3599 27.8055 36.4483 28.2551C35.5367 28.7046 34.4314 28.9293 33.1245 28.9293C31.382 28.9293 30.0751 28.4878 29.2119 27.5968C28.3486 26.7058 27.9211 25.2851 27.9211 23.3185C27.9211 22.7646 27.9695 22.0422 28.0663 21.1431L28.4697 17.8521H26.1947L25.993 13.3249L29.0424 13.2687L29.4458 9.92141L34.5686 9.66455L34.1652 13.2125L37.3921 13.1563L37.9407 17.82H33.6247L33.3343 20.3966C33.2939 20.7418 33.2778 20.9906 33.2778 21.1431C33.2778 21.9057 33.423 22.5077 33.7134 22.9492C34.0039 23.3907 34.383 23.6074 34.8671 23.6074C35.3511 23.6074 35.7706 23.5031 36.1336 23.2944C36.4967 23.0857 36.9 22.7084 37.3437 22.1786L38.7797 26.1841L38.7636 26.1761Z" fill="#F6D947"/>
<path d="M49.7594 28.576L49.7271 27.2275C49.2108 27.6689 48.5654 28.0221 47.799 28.287C47.0326 28.5519 46.242 28.6884 45.4434 28.6884C44.1768 28.6884 43.007 28.3432 41.9341 27.6449C40.8611 26.9465 40.006 26.0074 39.3767 24.8274C38.7475 23.6474 38.4248 22.3471 38.4248 20.9343C38.4248 19.5216 38.7475 18.1971 39.4009 17.0091C40.0544 15.8291 40.9498 14.898 42.0873 14.2157C43.2248 13.5414 44.4914 13.1963 45.8709 13.1963C46.6212 13.1963 47.323 13.3247 47.9846 13.5655C48.6461 13.8144 49.1785 14.1595 49.5819 14.593V13.3649H54.3578L55.0193 28.568H49.7513L49.7594 28.576ZM47.8636 23.511C48.3234 23.2059 48.6864 22.7966 48.9607 22.2909C49.2269 21.7852 49.3641 21.2474 49.3641 20.6694C49.3641 19.8908 49.1059 19.2326 48.5977 18.7108C48.0894 18.1891 47.4521 17.9242 46.6857 17.9242C45.8387 17.9242 45.1045 18.2212 44.4672 18.8152C43.8379 19.4092 43.5153 20.1156 43.5153 20.9343C43.5153 21.432 43.6524 21.9216 43.9348 22.3952C44.209 22.8688 44.5801 23.2541 45.0319 23.5431C45.4837 23.832 45.9516 23.9765 46.4276 23.9765C46.9035 23.9765 47.4037 23.824 47.8636 23.519V23.511Z" fill="#F6D947"/>
<path d="M65.5794 28.865L61.2311 22.5398L61.1989 28.5279L55.818 28.5841V5.5065L61.2553 5.21753L61.2231 18.3015L64.6759 13.0358L70.4925 13.4051L66.0635 20.2762L71.8155 28.5761L65.5714 28.865H65.5794Z" fill="#F6D947"/>
<path d="M82.9646 15.2913C84.2876 16.688 84.9491 18.5824 84.9491 20.9905C84.9491 21.3918 84.9411 21.6968 84.9169 21.9055L74.7278 22.0179C74.9618 22.644 75.2764 23.1658 75.6878 23.5752C76.0993 23.9845 76.5833 24.2093 77.1399 24.2494C78.6727 24.3618 79.786 23.9123 80.4798 22.9009L84.5942 24.0728C84.3441 24.9719 83.8681 25.7746 83.1582 26.489C82.4483 27.2034 81.6012 27.7652 80.6089 28.1666C79.6247 28.5679 78.6001 28.7686 77.5433 28.7686C77.2932 28.7686 77.0996 28.7606 76.9705 28.7365C75.6475 28.6402 74.4213 28.2148 73.2999 27.4522C72.1785 26.6896 71.2831 25.6863 70.6215 24.4421C69.96 23.1979 69.6292 21.8494 69.6292 20.3724C69.6292 20.0834 69.6373 19.8667 69.6615 19.7142C69.7341 18.4539 70.1294 17.3302 70.8313 16.3348C71.5331 15.3395 72.4528 14.5689 73.5903 14.015C74.7278 13.4611 75.9944 13.1882 77.3739 13.1882C79.7699 13.1882 81.6335 13.8866 82.9565 15.2752L82.9646 15.2913ZM74.7601 18.5262L79.6247 18.5583C79.5521 18.0044 79.3262 17.579 78.947 17.274C78.5679 16.9689 78.1484 16.8004 77.6643 16.7602C76.2445 16.6479 75.2764 17.2338 74.7601 18.5342V18.5262Z" fill="#F6D947"/>
<path d="M11.3265 62.1529C9.76955 61.4786 8.49491 60.5715 7.50263 59.4478L11.3911 55.2095C12.0042 55.8998 12.7303 56.4376 13.5612 56.831C14.3921 57.2243 15.2311 57.4169 16.0782 57.4169C16.8446 57.4169 17.4658 57.2724 17.9498 56.9835C18.4258 56.6945 18.6678 56.3654 18.6678 55.9801C18.6678 55.5948 18.4339 55.3219 17.974 55.1533C17.5142 54.9848 16.9172 54.8965 16.1912 54.8965C14.7713 54.8965 13.4644 54.5995 12.2624 54.0055C11.0603 53.4115 10.1084 52.6007 9.38232 51.5572C8.66433 50.5137 8.3013 49.3498 8.3013 48.0494C8.3013 46.7491 8.67239 45.5129 9.42266 44.4453C10.1729 43.3777 11.1813 42.5349 12.4479 41.9248C13.7145 41.3148 15.094 41.0098 16.5945 41.0098C18.0951 41.0098 19.5875 41.2987 21.0235 41.8847C22.4595 42.4707 23.7261 43.3055 24.8232 44.3891L21.5721 48.7719C19.765 47.4554 18.0628 46.7972 16.4493 46.7972C15.7394 46.7972 15.1263 46.9176 14.61 47.1665C14.0936 47.4153 13.8355 47.7123 13.8355 48.0575C13.8355 48.4187 14.1421 48.6916 14.7552 48.8762C15.3683 49.0608 16.0944 49.1491 16.9414 49.1491C18.4742 49.1491 19.8457 49.3899 21.0558 49.8635C22.2659 50.3371 23.2097 51.0435 23.9035 51.9827C24.5973 52.9218 24.9362 54.0536 24.9362 55.3861C24.9362 56.8149 24.5247 58.1313 23.7099 59.3193C22.8951 60.5154 21.806 61.4545 20.4427 62.1368C19.0793 62.8271 17.6029 63.1643 16.0137 63.1643C14.4244 63.1643 12.8755 62.8271 11.3265 62.1448V62.1529Z" fill="#F6D947"/>
<path d="M37.9165 60.5315C37.2873 61.4707 36.5128 62.161 35.6012 62.6105C34.6896 63.06 33.5844 63.2848 32.2774 63.2848C30.5349 63.2848 29.228 62.8433 28.3648 61.9523C27.5016 61.0613 27.074 59.6405 27.074 57.6739C27.074 57.1201 27.1224 56.3976 27.2192 55.4986L27.6226 52.2075H25.3476L25.1459 47.6803L28.1954 47.6241L28.5987 44.2769L33.7215 44.02L33.3181 47.5679L36.5451 47.5118L37.0936 52.1754H32.7776L32.4872 54.7521C32.4469 55.0973 32.4307 55.3461 32.4307 55.4986C32.4307 56.2612 32.5759 56.8632 32.8664 57.3047C33.1568 57.7462 33.5359 57.9629 34.02 57.9629C34.504 57.9629 34.9235 57.8585 35.2866 57.6498C35.6496 57.4411 36.053 57.0639 36.4967 56.5341L37.9327 60.5396L37.9165 60.5315Z" fill="#F6D947"/>
<path d="M48.9042 62.9395L48.872 61.591C48.3557 62.0325 47.7103 62.3857 46.9439 62.6506C46.1775 62.9154 45.3869 63.0519 44.5882 63.0519C43.3216 63.0519 42.1519 62.7067 41.0789 62.0084C40.006 61.31 39.1508 60.3709 38.5216 59.1909C37.8923 58.011 37.5696 56.7106 37.5696 55.2978C37.5696 53.8851 37.8923 52.5606 38.5458 51.3726C39.1992 50.1927 40.0947 49.2615 41.2322 48.5792C42.3697 47.905 43.6363 47.5598 45.0158 47.5598C45.766 47.5598 46.4679 47.6882 47.1294 47.9291C47.7909 48.1779 48.3234 48.5231 48.7268 48.9565V47.7284H53.5026L54.1642 62.9315H48.8962L48.9042 62.9395ZM47.0084 57.8745C47.4683 57.5695 47.8313 57.1601 48.1056 56.6544C48.3718 56.1487 48.5089 55.6109 48.5089 55.0329C48.5089 54.2543 48.2508 53.5961 47.7425 53.0744C47.2343 52.5526 46.597 52.2877 45.8306 52.2877C44.9835 52.2877 44.2494 52.5847 43.6121 53.1787C42.9828 53.7727 42.6601 54.4791 42.6601 55.2978C42.6601 55.7955 42.7973 56.2852 43.0796 56.7587C43.3539 57.2323 43.725 57.6176 44.1768 57.9066C44.6285 58.1956 45.0965 58.3401 45.5724 58.3401C46.0484 58.3401 46.5486 58.1875 47.0084 57.8825V57.8745Z" fill="#F6D947"/>
<path d="M58.1736 62.0325C56.9635 61.294 56.0035 60.3147 55.2936 59.0866C54.5837 57.8584 54.2287 56.534 54.2287 55.1212C54.2287 53.7085 54.5675 52.4161 55.2532 51.2442C55.9309 50.0722 56.8586 49.1411 58.0123 48.4508C59.174 47.7605 60.4567 47.4233 61.8523 47.4233C63.1028 47.4233 64.3209 47.7123 65.523 48.2822C66.725 48.8521 67.6931 49.6308 68.4433 50.602C69.1936 51.5733 69.5647 52.6248 69.5647 53.7486L64.7324 54.174C64.563 53.6202 64.2483 53.1787 63.7966 52.8416C63.3448 52.5044 62.8446 52.3439 62.288 52.3439C61.5216 52.3439 60.8358 52.6248 60.2308 53.1867C59.6257 53.7486 59.3273 54.3908 59.3273 55.1212C59.3273 55.5948 59.4725 56.0684 59.7548 56.5259C60.0452 56.9835 60.4244 57.3527 60.8923 57.6417C61.3602 57.9307 61.8443 58.0671 62.3444 58.0671C62.8446 58.0671 63.3206 57.9226 63.7724 57.6417C64.2241 57.3527 64.5468 56.9915 64.7324 56.55L69.5082 57.0076C69.5082 58.0591 69.1452 59.0544 68.4272 60.0016C67.7092 60.9488 66.7734 61.7033 65.6198 62.2813C64.4661 62.8592 63.2883 63.1402 62.0782 63.1402C60.6745 63.1402 59.3757 62.7709 58.1656 62.0405L58.1736 62.0325Z" fill="#F6D947"/>
<path d="M79.5521 63.2205L75.2038 56.8952L75.1715 62.8834L69.7906 62.9396V39.862L75.228 39.573L75.1957 52.657L78.6485 47.3913L84.4651 47.7605L80.0361 54.6316L85.7881 62.9315L79.544 63.2205H79.5521Z" fill="#F6D947"/>
<path d="M39.3928 40.8332V40.2954C39.175 40.472 38.9169 40.6085 38.6103 40.7209C38.3038 40.8332 37.9891 40.8814 37.6664 40.8814C37.1582 40.8814 36.6903 40.7449 36.2627 40.464C35.8351 40.1831 35.4882 39.8058 35.2382 39.3322C34.9881 38.8586 34.859 38.3369 34.859 37.775C34.859 37.2131 34.9881 36.6833 35.2462 36.2097C35.5044 35.7361 35.8674 35.3669 36.3192 35.0939C36.779 34.821 37.2792 34.6846 37.8358 34.6846C38.1343 34.6846 38.4167 34.7327 38.6829 34.8371C38.9491 34.9334 39.1589 35.0779 39.3202 35.2465V34.7568H41.2322L41.4984 40.8413H39.3928V40.8332ZM38.6345 38.8024C38.8201 38.682 38.9653 38.5215 39.0701 38.3128C39.175 38.1121 39.2315 37.8954 39.2315 37.6626C39.2315 37.3495 39.1266 37.0846 38.9249 36.8759C38.7233 36.6672 38.4651 36.5629 38.1585 36.5629C37.8197 36.5629 37.5293 36.6833 37.2711 36.9161C37.013 37.1489 36.892 37.4378 36.892 37.7669C36.892 37.9676 36.9484 38.1603 37.0614 38.3529C37.1743 38.5456 37.3195 38.6981 37.497 38.8104C37.6745 38.9228 37.86 38.979 38.0537 38.979C38.2473 38.979 38.449 38.9148 38.6264 38.7944L38.6345 38.8024Z" fill="white"/>
<path d="M47.4037 35.1904C47.7345 35.5676 47.8878 36.0974 47.8716 36.7877L47.799 40.8333H45.6934V38.1443C45.7015 37.5904 45.6289 37.1891 45.4837 36.9563C45.3304 36.7235 45.1126 36.6031 44.8222 36.6031C44.5801 36.6031 44.3785 36.6754 44.209 36.8118C44.0396 36.9483 43.9348 37.1811 43.8944 37.5102V40.8414H41.8211V34.7409L43.8783 34.7087V35.2947C44.1687 35.1021 44.5156 34.9496 44.9028 34.8292C45.2981 34.7087 45.6773 34.6445 46.0565 34.6445C46.6212 34.6445 47.073 34.8372 47.4037 35.2144V35.1904Z" fill="white"/>
<path d="M54.7853 31.7869V40.8574H52.5426V40.2153C52.3087 40.424 52.0021 40.5925 51.6471 40.721C51.2841 40.8494 50.9211 40.9136 50.55 40.9136C50.0982 40.9136 49.6787 40.7691 49.2834 40.4801C48.8962 40.1912 48.5815 39.8059 48.3476 39.3162C48.1136 38.8266 48.0007 38.2968 48.0007 37.7349C48.0007 37.2132 48.1217 36.7155 48.3557 36.2339C48.5896 35.7522 48.9042 35.3589 49.2915 35.0619C49.6787 34.7569 50.0821 34.6044 50.5096 34.5964C51.3164 34.5723 51.9779 34.7569 52.5023 35.1502L52.4781 31.6023L54.7773 31.7869H54.7853ZM51.873 38.7865C52.0666 38.666 52.2199 38.5135 52.3409 38.3209C52.4619 38.1282 52.5184 37.9276 52.5184 37.7189C52.5184 37.3978 52.3974 37.1168 52.1473 36.876C51.8972 36.6352 51.6068 36.5148 51.276 36.5148C50.9453 36.5148 50.6871 36.6352 50.4451 36.876C50.2031 37.1168 50.0821 37.3978 50.0821 37.7269C50.0821 37.9356 50.1385 38.1282 50.2515 38.3209C50.3644 38.5135 50.5096 38.666 50.7033 38.7865C50.8888 38.9069 51.0824 38.963 51.2841 38.963C51.4858 38.963 51.6875 38.9069 51.8811 38.7865H51.873Z" fill="white"/>
</svg>
