<svg width="31" height="31" viewBox="0 0 31 31" fill="none" xmlns="http://www.w3.org/2000/svg">
<path d="M15.4318 0.000162953C6.88527 0.0379933 -0.037676 7.02189 0.000154307 15.5684C0.0180186 19.7087 1.64788 23.5937 4.58813 26.5087C7.51263 29.4069 11.3839 31 15.498 31C15.5211 31 15.5453 31 15.5684 31C24.1149 30.9622 31.0378 23.9783 31 15.4318C30.9622 6.88528 23.9762 -0.0387182 15.4318 0.000162953ZM17.8792 28.7922C17.8802 28.7964 17.8802 28.8006 17.8802 28.8059C17.8792 28.8059 17.8781 28.8069 17.876 28.8069C17.8781 28.8122 17.8802 28.8164 17.8802 28.8164C17.752 28.8437 17.6249 28.8679 17.4988 28.891C12.6649 29.8851 7.46219 27.3357 4.90549 23.8764C3.03394 21.5172 2.01042 18.619 1.99675 15.56C1.96418 8.11372 7.99496 2.02934 15.4412 1.99676C15.4612 1.99676 15.4812 1.99676 15.5011 1.99676C22.919 1.99676 28.9708 8.01494 29.0034 15.4402C29.0328 22.0952 24.2189 27.6615 17.8792 28.7922Z" fill="black"/>
<path d="M10.7474 19.0866C12.2617 19.1591 14.17 18.205 14.7112 17.7783C15.101 17.4725 15.39 17.5135 15.6811 17.6848L15.6969 17.6669C16.4325 18.144 17.2815 18.3121 18.1264 18.3363C18.9829 18.3626 19.8393 18.2922 20.68 18.1261C21.529 17.9486 22.3592 17.6911 23.161 17.359C23.6244 17.1678 24.0836 16.9576 24.5218 16.7107C24.7719 16.5583 25.0168 16.3996 25.2574 16.2367C25.3184 16.1915 25.3804 16.1464 25.4403 16.098L25.4476 16.1064C25.4813 16.0833 25.5149 16.0602 25.5485 16.036C25.5496 16.035 25.5506 16.0329 25.5517 16.0318V16.0339C25.5506 16.035 25.5496 16.035 25.5485 16.036C25.2417 16.4858 24.8192 16.9587 24.3779 17.4116C26.9325 15.0524 27.4758 12.2204 22.3056 10.8123C21.3325 10.5307 20.3237 10.1313 19.3023 9.72781C19.3023 9.72571 19.3013 9.72466 19.3002 9.72255C18.6708 9.29171 16.258 8.50778 15.5655 8.45104C15.5613 8.45209 15.5571 8.45314 15.5519 8.45419C14.356 8.17256 13.1748 8.07273 12.041 8.3491C7.11149 9.70679 6.28762 12.1048 6.08691 14.9936C6.09007 14.96 6.09217 14.9274 6.09532 14.8938C6.77837 18.1261 9.23314 19.0141 10.7474 19.0866ZM22.8836 14.3316C23.1936 14.3294 23.4468 14.5806 23.4489 14.8906C23.451 15.2006 23.1999 15.4538 22.8899 15.456C22.5799 15.4581 22.3266 15.2069 22.3245 14.8969C22.3224 14.5869 22.5725 14.3337 22.8836 14.3316ZM13.5994 9.711H13.6004C15.0327 9.711 16.1929 10.8711 16.1939 12.3034C16.195 13.7357 15.0338 14.8969 13.6015 14.898C12.1692 14.899 11.008 13.7378 11.007 12.3055C11.0059 10.8732 12.1671 9.71205 13.5994 9.711Z" fill="black"/>
<path d="M19.2041 9.49033C19.2367 9.55968 19.2672 9.63219 19.2934 9.70785C19.2756 9.63955 19.2461 9.56704 19.2041 9.49033Z" fill="black"/>
<path d="M17.8815 28.8164C17.8815 28.8164 17.8794 28.8122 17.8773 28.8069C17.7522 28.8374 17.6261 28.8658 17.5 28.891C17.6261 28.8679 17.7533 28.8437 17.8815 28.8164Z" fill="black"/>
<path d="M19.3005 9.72417C19.2983 9.71875 19.2961 9.71333 19.2939 9.70682C19.295 9.71224 19.2972 9.71766 19.2983 9.72309C19.2994 9.72309 19.2994 9.72417 19.3005 9.72417Z" fill="black"/>
<path d="M18.5551 8.7621C18.882 9.03952 19.09 9.28121 19.2046 9.49033C18.5856 8.18098 16.9284 8.0223 15.5508 8.45C15.555 8.45 15.5602 8.45105 15.5644 8.45105C16.6447 8.19779 17.89 8.18518 18.5551 8.7621Z" fill="black"/>
<path d="M19.2939 9.7068C19.2676 9.63114 19.2371 9.55863 19.2046 9.48927C19.09 9.28015 18.883 9.03951 18.5552 8.76104C17.891 8.18413 16.6447 8.19674 15.5645 8.44999C16.257 8.50673 18.6697 9.29066 19.2991 9.72151C19.297 9.7173 19.2949 9.71205 19.2939 9.7068Z" fill="black"/>
<path d="M13.6006 14.1508C14.6081 14.1508 15.4249 13.334 15.4249 12.3265C15.4249 11.319 14.6081 10.5023 13.6006 10.5023C12.5931 10.5023 11.7764 11.319 11.7764 12.3265C11.7764 13.334 12.5931 14.1508 13.6006 14.1508Z" fill="black"/>
<path d="M9.23838 27.4702C6.55242 25.9938 4.88368 23.9615 4.61992 23.4014C6.2151 20.4664 5.90931 17.5387 6.08585 14.9936C5.81998 18.1755 5.67182 20.5357 4.4707 23.2364C4.60626 23.4529 4.75233 23.6662 4.9068 23.8764C5.24202 24.2988 5.60456 24.7044 5.99337 25.0901C6.96645 26.0537 8.05933 26.8513 9.23838 27.4702Z" fill="black"/>
<path d="M22.6815 19.0698C23.1092 18.6369 23.7607 18.0442 24.3754 17.4116C23.4854 18.2344 22.3505 18.9994 21.1283 19.6268C15.4979 22.504 17.7131 28.3908 17.8718 28.7943C17.8739 28.7943 17.877 28.7933 17.8791 28.7933C17.3274 24.8726 20.7511 21.0349 22.6815 19.0698Z" fill="black"/>
<path d="M9.23872 27.4703C8.05968 26.8513 6.9668 26.0537 5.99477 25.0901C5.60596 24.7044 5.24342 24.2988 4.9082 23.8764C7.4649 27.3357 12.6676 29.8861 17.5015 28.891C14.2229 29.4858 11.4014 28.6588 9.23872 27.4703Z" fill="black"/>
<path d="M17.8772 28.8067C17.8782 28.8067 17.8793 28.8056 17.8813 28.8056C17.8803 28.8015 17.8803 28.7974 17.8803 28.7922C17.8782 28.7922 17.8751 28.7932 17.873 28.7932C17.8741 28.7994 17.8762 28.8036 17.8772 28.8067Z" fill="black"/>
<path d="M24.5205 16.7107C24.7748 16.5667 25.0207 16.4101 25.2561 16.2368C25.0155 16.3996 24.7706 16.5583 24.5205 16.7107Z" fill="black"/>
<path d="M9.23767 27.4702C11.147 28.4717 13.2813 29.0034 15.4975 29.0034C15.5175 29.0034 15.5385 29.0034 15.5585 29.0034C16.3466 29.0003 17.12 28.9278 17.8714 28.7943C17.7117 28.3918 15.4975 22.505 21.1279 19.6268C22.3501 18.9994 23.485 18.2344 24.3751 17.4116C24.8164 16.9587 25.2388 16.4847 25.5457 16.036C25.5121 16.0592 25.4784 16.0823 25.4448 16.1064L25.4658 16.1306C24.8133 16.7254 24.0367 17.1657 23.2464 17.5545C22.4468 17.9339 21.6124 18.2375 20.756 18.4614C19.8985 18.6831 19.0042 18.8502 18.0984 18.7682C17.1925 18.6863 16.2668 18.3784 15.6667 17.6995L15.6793 17.6848C15.3882 17.5135 15.0993 17.4725 14.7094 17.7783C14.1682 18.205 12.2599 19.1591 10.7456 19.0866C9.23136 19.0141 6.77659 18.1262 6.0925 14.8938C6.08934 14.9274 6.08724 14.96 6.08409 14.9936C5.9065 17.5398 6.21334 20.4664 4.61816 23.4014C4.88298 23.9615 6.55171 25.9949 9.23767 27.4702Z" fill="black"/>
<path d="M25.5489 16.0318C25.5479 16.0328 25.5469 16.0349 25.5459 16.0359C25.5469 16.0349 25.5479 16.0348 25.5489 16.0338V16.0318Z" fill="black"/>
<path d="M15.5601 29.0034C15.5401 29.0034 15.5191 29.0034 15.4991 29.0034C13.2829 29.0034 11.1486 28.4717 9.23926 27.4702C11.4019 28.6587 14.2224 29.4858 17.501 28.891C17.6271 28.8647 17.7532 28.8374 17.8782 28.8069C17.8772 28.8038 17.8751 28.7996 17.873 28.7943C17.1206 28.9278 16.3482 28.9992 15.5601 29.0034Z" fill="black"/>
<path d="M24.5204 16.7106C24.0822 16.9576 23.623 17.1677 23.1596 17.359C22.3578 17.6911 21.5276 17.9485 20.6785 18.1261C19.8379 18.2922 18.9814 18.3626 18.125 18.3363C17.2801 18.3121 16.431 18.144 15.6954 17.6669L15.6797 17.6848C16.1715 17.9748 16.6696 18.6379 17.6668 18.6379C20.5188 18.6379 22.6615 17.8434 24.5204 16.7106Z" fill="white"/>
<path d="M25.2568 16.2367C25.3199 16.1936 25.384 16.1505 25.446 16.1064L25.4386 16.098C25.3798 16.1463 25.3178 16.1905 25.2568 16.2367Z" fill="white"/>
</svg>
