<svg xmlns="http://www.w3.org/2000/svg" width="40" height="40" viewBox="0 0 40 40"><g transform="translate(-553 242)"><circle cx="20" cy="20" r="20" transform="translate(553 -242)" fill="#f7737a"/><path d="M100-850a1.6,1.6,0,0,0,1.176-.474,1.594,1.594,0,0,0,.475-1.175,1.6,1.6,0,0,0-.474-1.176A1.594,1.594,0,0,0,100-853.3a1.6,1.6,0,0,0-1.176.474,1.594,1.594,0,0,0-.475,1.175,1.6,1.6,0,0,0,.474,1.176A1.594,1.594,0,0,0,100-850Zm-1.349-7.65h3V-870.3h-3ZM100-860Z" transform="translate(473.65 638.3)" fill="#fff"/></g></svg>