<svg width="20" height="20" viewBox="0 0 20 20" fill="none" xmlns="http://www.w3.org/2000/svg">
<circle cx="10" cy="10" r="10" fill="#F4F5FB"/>
<path d="M9.43328 10.8685H3.61328V10.0645H9.43328V10.8685ZM10.5613 10.0645H16.3813V10.8685H10.5613V10.0645ZM9.43328 9.12847H3.61328V8.33647H9.43328V9.12847ZM10.5613 8.33647H16.3813V9.12847H10.5613V8.33647ZM7.66928 5.51647H8.92928L9.98528 8.40847L11.0533 5.51647H12.3133L10.8493 9.30847L12.1213 12.4405L14.7853 5.48047H16.2493L12.7573 14.0005H11.5933L9.99728 10.1845L8.38928 14.0005H7.22528L3.74528 5.48047H5.19728L7.86128 12.4405L9.13328 9.30847L7.66928 5.51647Z" fill="#666666"/>
</svg>
