<svg width="90" height="92" viewBox="0 0 90 92" fill="none" xmlns="http://www.w3.org/2000/svg">
<g clip-path="url(#clip0_947_1565)">
<path d="M13.769 32.1777L10.608 46.1343C9.15158 52.5576 22.6105 61.0778 40.6677 65.1627C58.7249 69.2476 74.5367 67.3541 75.9931 60.9308L79.1541 46.9742L13.769 32.1777Z" fill="#EBBA43"/>
<path d="M11.2276 52.5842C9.33761 50.2589 8.58669 47.9474 9.07672 45.7862L12.2377 31.8296C12.329 31.4244 12.5801 31.0726 12.9341 30.8475C13.2855 30.6245 13.7123 30.555 14.1181 30.6413L79.5 45.4449C80.3443 45.6357 80.8746 46.4754 80.6832 47.3245L77.5222 61.2811C76.6602 65.0824 72.1226 67.6653 64.7388 68.5524C57.8925 69.3739 49.2197 68.7135 40.3141 66.6986C31.4135 64.6842 23.3004 61.5464 17.4761 57.8549C14.7637 56.1309 12.6664 54.3544 11.2276 52.5842ZM14.9523 34.0574L12.1398 46.4824C11.6067 48.8218 14.2343 52.0823 19.1626 55.2C24.6931 58.7008 32.4553 61.6987 41.0163 63.6311C49.5791 65.5712 57.8716 66.2096 64.3705 65.4287C70.1618 64.7353 73.9357 62.9253 74.4667 60.5832L77.2792 48.1582L14.9523 34.0574Z" fill="black"/>
<path d="M13.9778 52.9173C13.831 52.7368 13.7652 52.4905 13.8224 52.2471L16.5762 40.0802C16.6695 39.6554 17.0916 39.3928 17.5137 39.4882C17.9386 39.5814 18.201 40.0035 18.1055 40.4256L15.3518 52.5925C15.2585 53.0174 14.8364 53.2799 14.4142 53.1845C14.2355 53.1463 14.0829 53.0466 13.9778 52.9173Z" fill="black"/>
<path d="M26.6261 61.0084C26.4794 60.8279 26.4135 60.5816 26.4708 60.3382L28.9649 49.322C29.0582 48.8971 29.4803 48.6346 29.9024 48.73C30.3272 48.8232 30.5897 49.2452 30.4942 49.6674L28.0001 60.6836C27.9068 61.1085 27.4847 61.371 27.0626 61.2756C26.8838 61.2374 26.7334 61.1404 26.6261 61.0084Z" fill="black"/>
<path d="M40.056 65.6599C39.9093 65.4794 39.8434 65.2331 39.9007 64.9897L42.3975 53.9713C42.4908 53.5465 42.9129 53.2839 43.335 53.3793C43.7598 53.4725 44.0223 53.8946 43.9268 54.3167L41.43 65.3351C41.3367 65.76 40.9146 66.0225 40.4925 65.9271C40.3138 65.8889 40.1611 65.7892 40.056 65.6599Z" fill="black"/>
<path d="M53.9199 68.3963C53.7732 68.2158 53.7073 67.9696 53.7646 67.7261L56.5205 55.5619C56.6138 55.1371 57.0359 54.8745 57.4581 54.9699C57.8829 55.0631 58.1454 55.4852 58.0499 55.9073L55.2939 68.0716C55.2006 68.4964 54.7785 68.7589 54.3564 68.6635C54.1777 68.6253 54.025 68.5257 53.9199 68.3963Z" fill="black"/>
<path d="M68.7356 66.9185C68.5888 66.7379 68.523 66.4917 68.5802 66.2483L71.334 54.0814C71.4273 53.6565 71.8494 53.394 72.2715 53.4894C72.6964 53.5826 72.9588 54.0046 72.8633 54.4268L70.1096 66.5937C70.0163 67.0185 69.5942 67.2811 69.172 67.1857C68.9933 67.1475 68.8407 67.0478 68.7356 66.9185Z" fill="black"/>
<path d="M43.2879 53.602C61.3437 57.688 77.4223 54.6364 79.2005 46.7859C80.9786 38.9354 67.7829 29.259 49.7271 25.1729C31.6713 21.0869 15.5927 24.1385 13.8146 31.989C12.0364 39.8394 25.2321 49.5159 43.2879 53.602Z" fill="#F6D946"/>
<path d="M15.1093 40.7755C12.6083 37.6985 11.6163 34.5673 12.2816 31.6416C13.289 27.1986 17.935 23.9728 25.3728 22.5631C32.3627 21.2355 41.1332 21.6196 50.0725 23.6429C69.263 27.9879 82.7286 38.3059 80.7298 47.1343C78.726 55.9622 62.1299 59.4731 42.9362 55.1352C33.997 53.1119 25.9191 49.6815 20.1803 45.473C18.0996 43.9426 16.4035 42.368 15.1093 40.7755ZM75.4242 39.9293C71.3377 34.9015 62.139 29.5855 49.3811 26.7016C40.8542 24.7727 32.5371 24.3958 25.9604 25.6426C19.9198 26.7893 16.0488 29.2286 15.3479 32.3308C14.6416 35.4373 17.0835 39.3007 22.0445 42.9377C27.4413 46.8961 35.1067 50.1383 43.6384 52.0677C62.2769 56.2842 76.2833 52.5604 77.6743 46.4364C78.1113 44.5018 77.3103 42.2444 75.4269 39.9271L75.4242 39.9293Z" fill="black"/>
<path d="M44.2415 49.3921C59.8826 52.9317 73.5767 51.3219 74.8282 45.7964C76.0797 40.271 64.4147 32.9223 48.7737 29.3828C33.1327 25.8432 19.4386 27.453 18.1871 32.9785C16.9355 38.5039 28.6005 45.8526 44.2415 49.3921Z" fill="#F6D946"/>
<path d="M19.1508 38.1169C17.6747 36.3008 17.0372 34.4922 17.4218 32.8015C18.7917 26.7618 32.6352 24.9244 48.9457 28.6167C56.592 30.3487 63.5572 33.0323 68.5541 36.1793C73.7754 39.4704 76.2795 42.9477 75.5943 45.97C74.2244 52.0098 60.3809 53.8472 44.0725 50.1575C32.3207 47.4984 22.9575 42.7949 19.1557 38.1174L19.1508 38.1169ZM72.6638 41.6267C71.5776 40.2903 69.903 38.8907 67.7133 37.507C62.8625 34.4516 56.0751 31.8381 48.5951 30.1456C32.1183 26.4139 19.9627 28.6871 18.9485 33.1491C17.9391 37.6117 27.9295 44.8928 44.4112 48.625C60.8934 52.3523 73.0463 50.0813 74.0578 45.6214C74.3286 44.4349 73.8355 43.0683 72.6638 41.6267Z" fill="black"/>
</g>
<defs>
<clipPath id="clip0_947_1565">
<rect width="67.3225" height="60.9108" fill="white" transform="translate(47.5059 0.645721) rotate(50.8968)"/>
</clipPath>
</defs>
</svg>
