<svg width="390" height="160" viewBox="0 0 390 160" fill="none" xmlns="http://www.w3.org/2000/svg">
<g clip-path="url(#clip0_944_6157)">
<path d="M31.7883 21.3072L11.2745 43.2263C1.83029 53.3124 17.159 83.0193 45.5113 109.573C73.8636 136.127 104.488 149.473 113.933 139.386L134.446 117.467L31.7883 21.3072Z" fill="#EBBA43"/>
<path d="M5.55915 55.5627C4.60314 49.347 5.694 44.3647 8.8716 40.9711L29.3854 19.0521C29.9801 18.415 30.8075 18.0445 31.6869 18.0124C32.5592 17.9815 33.4054 18.3085 34.0484 18.8953L136.693 115.065C138.019 116.306 138.089 118.389 136.842 119.724L116.328 141.643C110.739 147.612 99.7889 147.475 85.4847 141.248C72.2228 135.472 57.2257 125.075 43.2431 111.979C29.2688 98.8885 17.9106 84.5995 11.2819 71.7359C8.1999 65.7366 6.28695 60.2948 5.55915 55.5627ZM31.9375 25.9661L13.6776 45.4814C10.233 49.152 11.533 57.8437 17.1482 68.7177C23.4474 80.9241 34.3188 94.5876 47.7653 107.169C61.2068 119.767 75.5388 129.72 88.129 135.201C99.3457 140.089 108.095 140.815 111.538 137.137L129.798 117.622L31.9375 25.9661Z" fill="black"/>
<path d="M10.1835 59.0835C10.1093 58.601 10.2511 58.0852 10.6127 57.7052L28.4927 38.5948C29.1118 37.9245 30.154 37.8969 30.817 38.5175C31.4871 39.137 31.5148 40.1796 30.8945 40.8427L13.0146 59.9531C12.3954 60.6234 11.3532 60.651 10.6903 60.0304C10.4073 59.7717 10.2367 59.4293 10.1835 59.0835Z" fill="black"/>
<path d="M24.502 87.1543C24.4278 86.6717 24.5696 86.1559 24.9312 85.7759L41.1216 68.4737C41.7407 67.8034 42.7829 67.7758 43.4459 68.3964C44.116 69.0159 44.1437 70.0585 43.5235 70.7217L27.3331 88.0239C26.7139 88.6942 25.6717 88.7218 25.0088 88.1012C24.7258 87.8424 24.5563 87.5072 24.502 87.1543Z" fill="black"/>
<path d="M43.8776 109.824C43.8034 109.342 43.9452 108.826 44.3068 108.446L60.5044 91.1427C61.1235 90.4723 62.1658 90.4448 62.8287 91.0653C63.4988 91.6848 63.5265 92.7275 62.9063 93.3906L46.7087 110.694C46.0895 111.364 45.0473 111.392 44.3844 110.771C44.1014 110.512 43.9308 110.17 43.8776 109.824Z" fill="black"/>
<path d="M66.0701 129.488C65.9959 129.005 66.1376 128.49 66.4993 128.11L84.3804 109.006C84.9995 108.336 86.0417 108.309 86.7047 108.929C87.3748 109.549 87.4025 110.591 86.7822 111.254L68.9011 130.358C68.282 131.028 67.2398 131.055 66.5769 130.435C66.2939 130.176 66.1233 129.834 66.0701 129.488Z" fill="black"/>
<path d="M94.4521 142.53C94.3779 142.047 94.5196 141.532 94.8812 141.152L112.761 122.041C113.38 121.371 114.423 121.343 115.086 121.964C115.756 122.583 115.783 123.626 115.163 124.289L97.2831 143.4C96.664 144.07 95.6217 144.098 94.9588 143.477C94.6758 143.218 94.5053 142.876 94.4521 142.53Z" fill="black"/>
<path d="M62.5067 91.4188C90.8552 117.973 123.19 129.505 134.73 117.176C146.269 104.847 132.642 73.3252 104.293 46.7709C75.9449 20.2165 43.6096 8.68477 32.0705 21.0139C20.5314 33.3431 34.1582 64.8644 62.5067 91.4188Z" fill="#F6D946"/>
<path d="M25.1005 38.2979C23.8354 30.0727 25.3588 23.3503 29.6639 18.7584C36.1963 11.7817 48.0243 10.8694 62.9803 16.2074C77.0385 21.2189 92.5052 31.2191 106.54 44.3665C136.668 72.5935 150.103 105.563 137.128 119.429C124.144 133.289 90.3858 122.039 60.2447 93.8218C46.2101 80.6744 35.2257 65.8929 29.2997 52.184C27.1559 47.2052 25.7552 42.5546 25.1005 38.2979ZM135.162 100.753C133.095 87.3137 122.081 67.9287 102.046 49.1717C88.6581 36.6326 74.0044 27.1267 60.7796 22.4072C48.6314 18.0751 39.0397 18.3855 34.4831 23.2593C29.9122 28.1354 30.237 37.7217 35.361 49.5707C40.9331 62.4641 51.3703 76.4671 64.7669 89.0122C94.0319 116.421 123.329 124.537 132.337 114.924C135.179 111.884 136.122 106.946 135.169 100.752L135.162 100.753Z" fill="black"/>
<path d="M68.6953 84.8072C93.2524 107.81 119.744 119.423 127.865 110.745C135.987 102.068 122.663 76.3854 98.1063 53.3824C73.5491 30.3795 47.0577 18.7666 38.9361 27.4443C30.8145 36.1221 44.1381 61.8043 68.6953 84.8072Z" fill="#F6D946"/>
<path d="M35.2346 37.7716C34.488 32.9171 35.251 28.9659 37.7392 26.3124C46.6202 16.8289 73.6231 28.1882 99.2301 52.1781C111.233 63.4261 120.995 75.675 126.704 86.6747C132.666 98.1737 133.512 107.127 129.069 111.873C120.188 121.356 93.1846 109.997 67.5787 86.0142C49.1274 68.7315 37.166 50.2812 35.2429 37.7777L35.2346 37.7716ZM128.368 100.899C127.819 97.3266 126.271 93.0155 123.775 88.1869C118.234 77.508 108.719 65.5749 96.9751 54.5746C71.1089 30.337 46.699 21.5575 40.1339 28.5614C33.5771 35.5714 43.9414 59.3546 69.816 83.5983C95.6966 107.834 120.099 116.614 126.657 109.611C128.405 107.75 128.961 104.752 128.368 100.899Z" fill="black"/>
</g>
<g clip-path="url(#clip1_944_6157)">
<path d="M328.807 91.9713L335.993 102.503C339.3 107.352 353.136 103.843 366.896 94.6657C380.655 85.4886 389.126 74.1248 385.82 69.2765L378.634 58.7444L328.807 91.9713Z" fill="#EBBA43"/>
<path d="M340.591 106.027C337.91 105.833 335.937 104.912 334.825 103.281L327.638 92.7487C327.429 92.4432 327.353 92.067 327.424 91.7013C327.494 91.3388 327.71 91.0208 328.016 90.8113L377.845 57.5907C378.489 57.1615 379.363 57.3298 379.801 57.9701L386.988 68.5022C388.944 71.3715 387.847 75.8734 383.893 81.1818C380.227 86.1032 374.469 91.3028 367.683 95.8286C360.9 100.352 353.866 103.682 347.875 105.198C345.082 105.901 342.633 106.175 340.591 106.027ZM330.762 92.3507L337.161 101.726C338.364 103.494 342.109 103.78 347.175 102.494C352.86 101.052 359.587 97.8624 366.108 93.5089C372.635 89.159 378.144 84.1917 381.624 79.5194C384.727 75.3572 385.861 71.8187 384.655 70.051L378.256 60.6756L330.762 92.3507Z" fill="black"/>
<path d="M342.498 104.454C342.289 104.439 342.088 104.331 341.964 104.146L335.698 94.966C335.477 94.6473 335.565 94.215 335.886 94.0004C336.208 93.7827 336.645 93.87 336.863 94.1885L343.129 103.369C343.349 103.688 343.262 104.12 342.94 104.334C342.806 104.427 342.647 104.465 342.498 104.454Z" fill="black"/>
<path d="M355.556 101.207C355.348 101.192 355.146 101.084 355.022 100.899L349.349 92.5867C349.129 92.268 349.216 91.8357 349.538 91.6211C349.86 91.4034 350.297 91.4906 350.514 91.8091L356.187 100.122C356.408 100.44 356.32 100.873 355.999 101.087C355.864 101.18 355.708 101.218 355.556 101.207Z" fill="black"/>
<path d="M366.845 95.3632C366.637 95.3482 366.435 95.2409 366.311 95.0559L360.638 86.7401C360.418 86.4214 360.505 85.9891 360.827 85.7745C361.149 85.5568 361.586 85.6441 361.803 85.9625L367.476 94.2783C367.697 94.597 367.609 95.0293 367.287 95.2439C367.153 95.3361 366.994 95.374 366.845 95.3632Z" fill="black"/>
<path d="M377.148 88.0738C376.94 88.0587 376.738 87.9515 376.614 87.7664L370.351 78.5863C370.131 78.2676 370.218 77.8352 370.54 77.6206C370.862 77.403 371.299 77.4902 371.516 77.8087L377.779 86.9888C378 87.3075 377.912 87.7399 377.591 87.9545C377.456 88.0467 377.297 88.0846 377.148 88.0738Z" fill="black"/>
<path d="M385.279 77.6059C385.071 77.5909 384.869 77.4836 384.745 77.2986L378.479 68.1182C378.259 67.7995 378.346 67.3671 378.668 67.1525C378.989 66.9349 379.427 67.0221 379.644 67.3406L385.91 76.521C386.131 76.8397 386.043 77.272 385.722 77.4866C385.587 77.5788 385.428 77.6167 385.279 77.6059Z" fill="black"/>
<path d="M360.944 85.9402C374.703 76.7648 382.581 64.5241 378.538 58.5997C374.496 52.6754 360.065 55.311 346.305 64.4864C332.546 73.6619 324.668 85.9026 328.711 91.8269C332.753 97.7512 347.184 95.1157 360.944 85.9402Z" fill="#F6D946"/>
<path d="M335.252 96.3363C331.704 96.0796 329.047 94.8154 327.542 92.6058C325.255 89.2523 325.998 84.2892 329.644 78.6279C333.068 73.3059 338.704 67.8752 345.517 63.3327C360.142 53.582 375.159 51.1623 379.705 57.8241C384.248 64.4888 376.353 77.3432 361.73 87.1003C354.918 91.6427 347.714 94.7729 341.438 95.919C339.159 96.3318 337.088 96.4692 335.252 96.3363ZM371.735 56.8675C365.938 56.448 356.813 59.1549 347.093 65.6401C340.595 69.9736 335.242 75.1159 332.018 80.1219C329.059 84.7208 328.277 88.7048 329.876 91.0447C331.474 93.3907 335.5 94.164 340.925 93.1726C346.827 92.0953 353.655 89.117 360.156 84.7807C374.358 75.3082 380.524 63.9969 377.373 59.3729C376.376 57.9138 374.408 57.0577 371.736 56.8644L371.735 56.8675Z" fill="black"/>
<path d="M358.776 82.7634C370.696 74.8151 378.052 64.9915 375.207 60.8217C372.362 56.652 360.393 59.7151 348.473 67.6634C336.554 75.6117 329.198 85.4354 332.043 89.6051C334.888 93.7748 346.857 90.7117 358.776 82.7634Z" fill="#F6D946"/>
<path d="M335.996 92.1085C333.902 91.9569 332.328 91.2684 331.458 89.9915C328.349 85.4324 335.648 75.3739 348.079 67.0861C353.907 63.2014 359.939 60.3356 365.065 59.0229C370.424 57.6529 374.236 58.1512 375.791 60.4324C378.9 64.9914 371.601 75.0499 359.174 83.338C350.219 89.3101 341.393 92.4959 335.999 92.1056L335.996 92.1085ZM371.152 59.6827C369.611 59.5712 367.667 59.8012 365.417 60.3737C360.44 61.6477 354.563 64.4414 348.863 68.2426C336.305 76.6138 330.328 85.8474 332.623 89.2169C334.922 92.5837 345.818 90.561 358.38 82.1869C370.938 73.8096 376.916 64.5791 374.62 61.2126C374.01 60.3158 372.814 59.8029 371.152 59.6827Z" fill="black"/>
</g>
<defs>
<clipPath id="clip0_944_6157">
<rect width="141.291" height="127.754" fill="white" transform="translate(126.27) rotate(81.2562)"/>
</clipPath>
<clipPath id="clip1_944_6157">
<rect width="60.3977" height="54.0401" fill="white" transform="translate(328.9 51) rotate(4.13872)"/>
</clipPath>
</defs>
</svg>
