<svg width="510" height="157" viewBox="0 0 510 157" fill="none" xmlns="http://www.w3.org/2000/svg">
<g clip-path="url(#clip0_947_1592)">
<path d="M404.815 132.541L425.508 143.247C435.031 148.177 453.993 130.471 467.855 103.7C481.718 76.9298 485.237 51.2437 475.714 46.3137L455.021 35.6075L404.815 132.541Z" fill="#EBBA43"/>
<path d="M435.927 144.918C431.486 146.941 427.534 147.176 424.33 145.517L403.637 134.811C403.036 134.501 402.585 133.961 402.376 133.311C402.169 132.666 402.235 131.965 402.538 131.361L452.753 34.4353C453.401 33.1836 454.942 32.6927 456.201 33.3427L476.894 44.049C482.53 46.9667 484.734 55.1748 483.096 67.1709C481.575 78.2933 476.968 91.6852 470.13 104.888C463.296 118.083 455.015 129.577 446.802 137.237C442.97 140.803 439.308 143.378 435.927 144.918ZM408.264 131.449L426.687 140.977C430.154 142.777 436.373 139.976 443.312 133.491C451.103 126.215 459.019 115.217 465.585 102.523C472.164 89.8296 476.58 77.028 478.022 66.4694C479.311 57.0615 478.01 50.3736 474.538 48.5761L456.115 39.0472L408.264 131.449Z" fill="black"/>
<path d="M437.583 140.723C437.238 140.88 436.823 140.882 436.463 140.692L418.423 131.362C417.792 131.041 417.552 130.268 417.875 129.642C418.197 129.011 418.97 128.771 419.596 129.094L437.636 138.425C438.267 138.746 438.508 139.519 438.184 140.145C438.05 140.411 437.83 140.61 437.583 140.723Z" fill="black"/>
<path d="M455.535 124.116C455.19 124.273 454.775 124.275 454.415 124.085L438.081 115.636C437.45 115.315 437.21 114.542 437.534 113.916C437.855 113.285 438.628 113.045 439.254 113.368L455.588 121.818C456.219 122.139 456.459 122.912 456.135 123.538C456.002 123.803 455.787 124.001 455.535 124.116Z" fill="black"/>
<path d="M468.387 104.868C468.042 105.025 467.627 105.028 467.267 104.838L450.931 96.3834C450.299 96.0621 450.059 95.2894 450.383 94.6636C450.705 94.0326 451.478 93.7923 452.104 94.1159L468.44 102.57C469.071 102.892 469.311 103.664 468.987 104.29C468.854 104.556 468.634 104.756 468.387 104.868Z" fill="black"/>
<path d="M478.401 84.1496C478.056 84.3067 477.641 84.3094 477.281 84.1193L459.246 74.7865C458.615 74.4653 458.375 73.6926 458.699 73.0667C459.02 72.4357 459.793 72.1954 460.419 72.519L478.454 81.8518C479.086 82.1731 479.326 82.9458 479.002 83.5716C478.868 83.8375 478.648 84.0371 478.401 84.1496Z" fill="black"/>
<path d="M482.165 60.2028C481.82 60.3599 481.405 60.3627 481.045 60.1726L463.005 50.8421C462.374 50.5208 462.134 49.7482 462.458 49.1223C462.779 48.4913 463.552 48.251 464.178 48.5746L482.218 57.905C482.849 58.2263 483.09 58.999 482.766 59.6249C482.632 59.8908 482.412 60.0903 482.165 60.2028Z" fill="black"/>
<path d="M450.715 94.8288C464.579 68.061 466.382 41.4794 454.742 35.457C443.103 29.4346 422.428 46.2521 408.564 73.0199C394.7 99.7877 392.897 126.369 404.536 132.392C416.176 138.414 436.851 121.597 450.715 94.8288Z" fill="#F6D946"/>
<path d="M418.915 133.958C413.037 136.635 407.695 136.913 403.358 134.664C396.771 131.254 393.599 122.612 394.436 110.316C395.218 98.7597 399.43 85.1006 406.295 71.8483C421.034 43.3992 442.83 26.4196 455.92 33.191C469.007 39.9698 467.715 67.5552 452.986 96.0123C446.122 109.265 437.394 120.583 428.402 127.896C425.135 130.546 421.956 132.572 418.915 133.958ZM442.385 38.5928C432.781 42.9675 420.622 55.2775 410.83 74.1926C404.284 86.834 400.27 99.7817 399.53 110.654C398.853 120.641 401.105 127.74 405.705 130.117C410.31 132.504 417.402 130.242 425.174 123.919C433.631 117.042 441.892 106.296 448.441 93.6474C462.75 66.0151 462.642 42.4221 453.564 37.7181C450.695 36.2359 446.808 36.5714 442.382 38.5876L442.385 38.5928Z" fill="black"/>
<path d="M444.474 91.5993C456.483 68.4115 459.578 46.1778 451.386 41.9391C443.193 37.7003 426.816 53.0616 414.806 76.2494C402.796 99.4373 399.702 121.671 407.894 125.91C416.087 130.148 432.464 114.787 444.474 91.5993Z" fill="#F6D946"/>
<path d="M416.387 126.499C412.919 128.08 409.807 128.342 407.3 127.042C398.346 122.406 401.144 99.8436 413.67 75.6636C419.543 64.3287 426.637 54.4571 433.651 47.8765C440.984 41.0014 447.493 38.4835 451.974 40.803C460.928 45.4393 458.131 68.0016 445.61 92.1792C436.587 109.601 425.325 122.422 416.39 126.492L416.387 126.499ZM443.925 43.6373C441.372 44.8002 438.478 46.864 435.397 49.7459C428.587 56.1339 421.678 65.7541 415.935 76.8433C403.278 101.269 401.862 121.351 408.476 124.78C415.093 128.201 430.675 115.45 443.334 91.0169C455.986 66.5809 457.405 46.5039 450.793 43.0804C449.034 42.1669 446.678 42.3831 443.925 43.6373Z" fill="black"/>
</g>
<g clip-path="url(#clip1_947_1592)">
<path d="M14.8196 7.14559L4.92762 16.1719C0.373679 20.3252 6.15139 34.0663 17.8323 46.861C29.5132 59.6558 42.6675 66.6589 47.2214 62.5055L57.1134 53.4793L14.8196 7.14559Z" fill="#EBBA43"/>
<path d="M1.95362 21.4558C1.74609 18.6594 2.40578 16.4828 3.938 15.0854L13.83 6.05913C14.1169 5.79674 14.4979 5.66094 14.8901 5.67744C15.2792 5.69418 15.6441 5.86911 15.9096 6.15242L58.1971 52.4898C58.7434 53.0879 58.7015 54.0163 58.1003 54.566L48.2083 63.5922C45.5131 66.0502 40.6473 65.6065 34.503 62.3384C28.8065 59.3075 22.5 54.1616 16.7394 47.8512C10.9822 41.5438 6.43055 34.795 3.93266 28.8452C2.7719 26.0706 2.11162 23.5847 1.95362 21.4558ZM14.723 9.22173L5.9177 17.2583C4.25705 18.7695 4.53087 22.6786 6.64765 27.7086C9.02198 33.3548 13.379 39.8085 18.9192 45.8713C24.4567 51.9409 30.4829 56.8665 35.8909 59.7429C40.7089 62.3079 44.5749 62.9365 46.2353 61.4221L55.0406 53.3855L14.723 9.22173Z" fill="black"/>
<path d="M3.88716 23.1825C3.87104 22.9654 3.95216 22.7411 4.12632 22.5848L12.7485 14.715C13.0473 14.4387 13.5119 14.4628 13.785 14.7619C14.0614 15.0607 14.0372 15.5251 13.7381 15.7982L5.11592 23.6681C4.81706 23.9444 4.35252 23.9202 4.07939 23.6212C3.96258 23.4963 3.8987 23.3381 3.88716 23.1825Z" fill="black"/>
<path d="M9.27231 36.161C9.2562 35.9439 9.33732 35.7196 9.51147 35.5633L17.3188 28.4382C17.6176 28.1619 18.0822 28.186 18.3553 28.4851C18.6317 28.7839 18.6075 29.2483 18.3084 29.5214L10.5011 36.6465C10.2022 36.9229 9.73768 36.8987 9.46455 36.5997C9.34774 36.4747 9.2841 36.3198 9.27231 36.161Z" fill="black"/>
<path d="M17.0972 46.9156C17.0811 46.6985 17.1622 46.4742 17.3364 46.3179L25.1469 39.1925C25.4458 38.9162 25.9103 38.9404 26.1834 39.2394C26.4598 39.5382 26.4356 40.0027 26.1365 40.2758L18.326 47.4011C18.0271 47.6775 17.5626 47.6533 17.2894 47.3543C17.1726 47.2293 17.1087 47.0712 17.0972 46.9156Z" fill="black"/>
<path d="M26.2795 56.4323C26.2634 56.2152 26.3445 55.9909 26.5187 55.8346L35.141 47.968C35.4399 47.6917 35.9045 47.7159 36.1776 48.0149C36.4539 48.3137 36.4298 48.7781 36.1307 49.0512L27.5083 56.9178C27.2094 57.1941 26.7449 57.17 26.4717 56.8709C26.3549 56.746 26.291 56.5879 26.2795 56.4323Z" fill="black"/>
<path d="M38.4467 63.2219C38.4306 63.0048 38.5117 62.7805 38.6859 62.6242L47.308 54.7544C47.6069 54.4781 48.0714 54.5022 48.3446 54.8013C48.6209 55.1001 48.5967 55.5645 48.2976 55.8376L39.6755 63.7074C39.3766 63.9838 38.9121 63.9596 38.639 63.6606C38.5222 63.5356 38.4583 63.3775 38.4467 63.2219Z" fill="black"/>
<path d="M26.0283 39.3853C37.7075 52.1802 51.6861 58.4367 57.2504 53.3595C62.8147 48.2824 57.8576 33.7942 46.1783 20.9993C34.4991 8.20441 20.5205 1.94794 14.9562 7.02509C9.39195 12.1022 14.3491 26.5904 26.0283 39.3853Z" fill="#F6D946"/>
<path d="M11.2503 14.4645C10.9756 10.764 11.8886 7.829 13.9643 5.93833C17.1142 3.06542 22.4072 3.07336 28.8725 5.96903C34.95 8.68821 41.4793 13.6742 47.2613 20.0091C59.6734 33.6097 64.4947 48.7349 58.2378 54.4449C51.9775 60.152 37.3559 53.9714 24.9376 40.3744C19.1555 34.0395 14.7875 27.0849 12.6317 20.7839C11.8525 18.4958 11.3924 16.3795 11.2503 14.4645ZM58.0175 46.0747C57.5687 40.0282 53.3485 31.0262 45.0944 21.988C39.5785 15.9461 33.3936 11.2083 27.6766 8.64806C22.4249 6.29767 18.1477 6.10031 15.9503 8.10753C13.7464 10.1152 13.5551 14.3879 15.4193 19.8341C17.4461 25.7602 21.5981 32.3497 27.1175 38.3946C39.1744 51.6013 51.9213 56.2333 56.2648 52.2748C57.6352 51.0229 58.2275 48.8611 58.0207 46.0744L58.0175 46.0747Z" fill="black"/>
<path d="M29.0125 36.6626C39.1297 47.7464 50.5062 53.8346 54.4225 50.2611C58.3389 46.6876 53.3121 34.8056 43.1948 23.7219C33.0776 12.6382 21.7012 6.54999 17.7848 10.1235C13.8685 13.697 18.8953 25.5789 29.0125 36.6626Z" fill="#F6D946"/>
<path d="M15.7766 14.5847C15.6145 12.4007 16.0923 10.671 17.2919 9.57847C21.5742 5.67337 33.1871 11.6668 43.7367 23.2259C48.6818 28.6455 52.5949 34.4316 54.7486 39.5207C56.9977 44.8406 57.0607 48.85 54.918 50.8043C50.6357 54.7094 39.0228 48.716 28.4734 37.1601C20.8717 28.8327 16.1976 20.213 15.7801 14.5877L15.7766 14.5847ZM54.9908 45.9018C54.8716 44.2946 54.3343 42.3242 53.3929 40.0905C51.3023 35.1498 47.4882 29.5128 42.6498 24.2123C31.9935 12.5341 21.4437 7.77809 18.2783 10.6619C15.1164 13.5488 18.8934 24.4832 29.5532 36.1645C40.2159 47.8422 50.7625 52.5985 53.9247 49.7149C54.7672 48.9486 55.1195 47.6354 54.9908 45.9018Z" fill="black"/>
</g>
<defs>
<clipPath id="clip0_947_1592">
<rect width="109.653" height="99.1469" fill="white" transform="translate(369 66.4561) rotate(-24.4908)"/>
</clipPath>
<clipPath id="clip1_947_1592">
<rect width="63" height="57" fill="white" transform="translate(57.5908 0.977051) rotate(85.7556)"/>
</clipPath>
</defs>
</svg>
